  0
SECTION
  2
BLOCKS
  0
ENDSEC
  0
SECTION
  2
ENTITIES
  0
LINE
  8
0
 10
10
 20
130
 11
-10
 21
130
  0
LINE
  8
0
 10
-10
 20
130
 11
-10
 21
-130
  0
LINE
  8
0
 10
-10
 20
-130
 11
10
 21
-130
  0
LINE
  8
0
 10
10
 20
-130
 11
10
 21
130
  0
LINE
  8
0
 10
-0.569397
 20
117.875
 11
-1.09999
 21
118.095
  0
LINE
  8
0
 10
-1.09999
 20
118.095
 11
-1.55563
 21
118.444
  0
LINE
  8
0
 10
-1.55563
 20
118.444
 11
-1.90524
 21
118.9
  0
LINE
  8
0
 10
-1.90524
 20
118.9
 11
-2.12503
 21
119.431
  0
LINE
  8
0
 10
-2.12503
 20
119.431
 11
-2.2
 21
120
  0
LINE
  8
0
 10
-2.2
 20
120
 11
-2.12503
 21
120.569
  0
LINE
  8
0
 10
-2.12503
 20
120.569
 11
-1.90524
 21
121.1
  0
LINE
  8
0
 10
-1.90524
 20
121.1
 11
-1.55563
 21
121.556
  0
LINE
  8
0
 10
-1.55563
 20
121.556
 11
-1.09999
 21
121.905
  0
LINE
  8
0
 10
-1.09999
 20
121.905
 11
-0.569397
 21
122.125
  0
LINE
  8
0
 10
-0.569397
 20
122.125
 11
0
 21
122.2
  0
LINE
  8
0
 10
0
 20
122.2
 11
0.569397
 21
122.125
  0
LINE
  8
0
 10
0.569397
 20
122.125
 11
1.09999
 21
121.905
  0
LINE
  8
0
 10
1.09999
 20
121.905
 11
1.55563
 21
121.556
  0
LINE
  8
0
 10
1.55563
 20
121.556
 11
1.90524
 21
121.1
  0
LINE
  8
0
 10
1.90524
 20
121.1
 11
2.12503
 21
120.569
  0
LINE
  8
0
 10
2.12503
 20
120.569
 11
2.2
 21
120
  0
LINE
  8
0
 10
2.2
 20
120
 11
2.12503
 21
119.431
  0
LINE
  8
0
 10
2.12503
 20
119.431
 11
1.90524
 21
118.9
  0
LINE
  8
0
 10
1.90524
 20
118.9
 11
1.55563
 21
118.444
  0
LINE
  8
0
 10
1.55563
 20
118.444
 11
1.09999
 21
118.095
  0
LINE
  8
0
 10
1.09999
 20
118.095
 11
0.569397
 21
117.875
  0
LINE
  8
0
 10
0.569397
 20
117.875
 11
0
 21
117.8
  0
LINE
  8
0
 10
0
 20
117.8
 11
-0.569397
 21
117.875
  0
LINE
  8
0
 10
-0.543518
 20
97.9715
 11
-1.04999
 21
98.1813
  0
LINE
  8
0
 10
-1.04999
 20
98.1813
 11
-1.48491
 21
98.5151
  0
LINE
  8
0
 10
-1.48491
 20
98.5151
 11
-1.81865
 21
98.95
  0
LINE
  8
0
 10
-1.81865
 20
98.95
 11
-2.02844
 21
99.4565
  0
LINE
  8
0
 10
-2.02844
 20
99.4565
 11
-2.09999
 21
100
  0
LINE
  8
0
 10
-2.09999
 20
100
 11
-2.02844
 21
100.544
  0
LINE
  8
0
 10
-2.02844
 20
100.544
 11
-1.81865
 21
101.05
  0
LINE
  8
0
 10
-1.81865
 20
101.05
 11
-1.48491
 21
101.485
  0
LINE
  8
0
 10
-1.48491
 20
101.485
 11
-1.04999
 21
101.819
  0
LINE
  8
0
 10
-1.04999
 20
101.819
 11
-0.543518
 21
102.028
  0
LINE
  8
0
 10
-0.543518
 20
102.028
 11
0
 21
102.1
  0
LINE
  8
0
 10
0
 20
102.1
 11
0.543518
 21
102.028
  0
LINE
  8
0
 10
0.543518
 20
102.028
 11
1.04999
 21
101.819
  0
LINE
  8
0
 10
1.04999
 20
101.819
 11
1.48491
 21
101.485
  0
LINE
  8
0
 10
1.48491
 20
101.485
 11
1.81865
 21
101.05
  0
LINE
  8
0
 10
1.81865
 20
101.05
 11
2.02844
 21
100.544
  0
LINE
  8
0
 10
2.02844
 20
100.544
 11
2.09999
 21
100
  0
LINE
  8
0
 10
2.09999
 20
100
 11
2.02844
 21
99.4565
  0
LINE
  8
0
 10
2.02844
 20
99.4565
 11
1.81865
 21
98.95
  0
LINE
  8
0
 10
1.81865
 20
98.95
 11
1.48491
 21
98.5151
  0
LINE
  8
0
 10
1.48491
 20
98.5151
 11
1.04999
 21
98.1813
  0
LINE
  8
0
 10
1.04999
 20
98.1813
 11
0.543518
 21
97.9715
  0
LINE
  8
0
 10
0.543518
 20
97.9715
 11
0
 21
97.9
  0
LINE
  8
0
 10
0
 20
97.9
 11
-0.543518
 21
97.9715
  0
LINE
  8
0
 10
-0.543518
 20
-102.028
 11
-1.04999
 21
-101.819
  0
LINE
  8
0
 10
-1.04999
 20
-101.819
 11
-1.48491
 21
-101.485
  0
LINE
  8
0
 10
-1.48491
 20
-101.485
 11
-1.81865
 21
-101.05
  0
LINE
  8
0
 10
-1.81865
 20
-101.05
 11
-2.02844
 21
-100.544
  0
LINE
  8
0
 10
-2.02844
 20
-100.544
 11
-2.09999
 21
-100
  0
LINE
  8
0
 10
-2.09999
 20
-100
 11
-2.02844
 21
-99.4565
  0
LINE
  8
0
 10
-2.02844
 20
-99.4565
 11
-1.81865
 21
-98.95
  0
LINE
  8
0
 10
-1.81865
 20
-98.95
 11
-1.48491
 21
-98.5151
  0
LINE
  8
0
 10
-1.48491
 20
-98.5151
 11
-1.04999
 21
-98.1813
  0
LINE
  8
0
 10
-1.04999
 20
-98.1813
 11
-0.543518
 21
-97.9715
  0
LINE
  8
0
 10
-0.543518
 20
-97.9715
 11
0
 21
-97.9
  0
LINE
  8
0
 10
0
 20
-97.9
 11
0.543518
 21
-97.9715
  0
LINE
  8
0
 10
0.543518
 20
-97.9715
 11
1.04999
 21
-98.1813
  0
LINE
  8
0
 10
1.04999
 20
-98.1813
 11
1.48491
 21
-98.5151
  0
LINE
  8
0
 10
1.48491
 20
-98.5151
 11
1.81865
 21
-98.95
  0
LINE
  8
0
 10
1.81865
 20
-98.95
 11
2.02844
 21
-99.4565
  0
LINE
  8
0
 10
2.02844
 20
-99.4565
 11
2.09999
 21
-100
  0
LINE
  8
0
 10
2.09999
 20
-100
 11
2.02844
 21
-100.544
  0
LINE
  8
0
 10
2.02844
 20
-100.544
 11
1.81865
 21
-101.05
  0
LINE
  8
0
 10
1.81865
 20
-101.05
 11
1.48491
 21
-101.485
  0
LINE
  8
0
 10
1.48491
 20
-101.485
 11
1.04999
 21
-101.819
  0
LINE
  8
0
 10
1.04999
 20
-101.819
 11
0.543518
 21
-102.028
  0
LINE
  8
0
 10
0.543518
 20
-102.028
 11
0
 21
-102.1
  0
LINE
  8
0
 10
0
 20
-102.1
 11
-0.543518
 21
-102.028
  0
LINE
  8
0
 10
-0.569397
 20
-122.125
 11
-1.09999
 21
-121.905
  0
LINE
  8
0
 10
-1.09999
 20
-121.905
 11
-1.55563
 21
-121.556
  0
LINE
  8
0
 10
-1.55563
 20
-121.556
 11
-1.90524
 21
-121.1
  0
LINE
  8
0
 10
-1.90524
 20
-121.1
 11
-2.12503
 21
-120.569
  0
LINE
  8
0
 10
-2.12503
 20
-120.569
 11
-2.2
 21
-120
  0
LINE
  8
0
 10
-2.2
 20
-120
 11
-2.12503
 21
-119.431
  0
LINE
  8
0
 10
-2.12503
 20
-119.431
 11
-1.90524
 21
-118.9
  0
LINE
  8
0
 10
-1.90524
 20
-118.9
 11
-1.55563
 21
-118.444
  0
LINE
  8
0
 10
-1.55563
 20
-118.444
 11
-1.09999
 21
-118.095
  0
LINE
  8
0
 10
-1.09999
 20
-118.095
 11
-0.569397
 21
-117.875
  0
LINE
  8
0
 10
-0.569397
 20
-117.875
 11
0
 21
-117.8
  0
LINE
  8
0
 10
0
 20
-117.8
 11
0.569397
 21
-117.875
  0
LINE
  8
0
 10
0.569397
 20
-117.875
 11
1.09999
 21
-118.095
  0
LINE
  8
0
 10
1.09999
 20
-118.095
 11
1.55563
 21
-118.444
  0
LINE
  8
0
 10
1.55563
 20
-118.444
 11
1.90524
 21
-118.9
  0
LINE
  8
0
 10
1.90524
 20
-118.9
 11
2.12503
 21
-119.431
  0
LINE
  8
0
 10
2.12503
 20
-119.431
 11
2.2
 21
-120
  0
LINE
  8
0
 10
2.2
 20
-120
 11
2.12503
 21
-120.569
  0
LINE
  8
0
 10
2.12503
 20
-120.569
 11
1.90524
 21
-121.1
  0
LINE
  8
0
 10
1.90524
 20
-121.1
 11
1.55563
 21
-121.556
  0
LINE
  8
0
 10
1.55563
 20
-121.556
 11
1.09999
 21
-121.905
  0
LINE
  8
0
 10
1.09999
 20
-121.905
 11
0.569397
 21
-122.125
  0
LINE
  8
0
 10
0.569397
 20
-122.125
 11
0
 21
-122.2
  0
LINE
  8
0
 10
0
 20
-122.2
 11
-0.569397
 21
-122.125
  0
ENDSEC
  0
SECTION
  2
OBJECTS
  0
DICTIONARY
  0
ENDSEC
  0
EOF
