999
DXF from OpenSCAD
  0
SECTION
  2
HEADER
  9
$ACADVER
  1
AC1006
  9
$INSBASE
 10
0.0
 20
0.0
 30
0.0
  9
$EXTMIN
 10
-10
 20
-130
  9
$EXTMAX
 10
10
 20
130
  9
$LINMIN
 10
-10
 20
-130
  9
$LINMAX
 10
10
 20
130
  0
ENDSEC
  0
SECTION
  2
TABLES
  0
TABLE
  2
LTYPE
 70
1
  0
LTYPE
  2
CONTINUOUS
 70
64
  3
Solid line
 72
65
 73
0
 40
0.000000
  0
ENDTAB
  0
TABLE
  2
LAYER
 70
6
  0
LAYER
  2
0
 70
64
 62
7
  6
CONTINUOUS
  0
ENDTAB
  0
TABLE
  2
STYLE
 70
0
  0
ENDTAB
  0
ENDSEC
  0
SECTION
  2
BLOCKS
  0
ENDSEC
  0
SECTION
  2
ENTITIES
  0
LWPOLYLINE
100
AcDbEntity
  8
0
100
AcDbPolyline
 90
4
 70
1
 10
10
 20
130
 10
-10
 20
130
 10
-10
 20
-130
 10
10
 20
-130
  0
LWPOLYLINE
100
AcDbEntity
  8
0
100
AcDbPolyline
 90
56
 70
1
 10
-0.246322
 20
117.814
 10
-0.489546
 20
117.855
 10
-0.726614
 20
117.923
 10
-0.954544
 20
118.018
 10
-1.17047
 20
118.137
 10
-1.37168
 20
118.28
 10
-1.55563
 20
118.444
 10
-1.72003
 20
118.628
 10
-1.86279
 20
118.83
 10
-1.98213
 20
119.045
 10
-2.07654
 20
119.273
 10
-2.14484
 20
119.51
 10
-2.18617
 20
119.754
 10
-2.2
 20
120
 10
-2.18617
 20
120.246
 10
-2.14484
 20
120.49
 10
-2.07654
 20
120.727
 10
-1.98213
 20
120.955
 10
-1.86279
 20
121.17
 10
-1.72003
 20
121.372
 10
-1.55563
 20
121.556
 10
-1.37168
 20
121.72
 10
-1.17047
 20
121.863
 10
-0.954544
 20
121.982
 10
-0.726614
 20
122.077
 10
-0.489546
 20
122.145
 10
-0.246322
 20
122.186
 10
0
 20
122.2
 10
0.246322
 20
122.186
 10
0.489546
 20
122.145
 10
0.726614
 20
122.077
 10
0.954544
 20
121.982
 10
1.17047
 20
121.863
 10
1.37168
 20
121.72
 10
1.55563
 20
121.556
 10
1.72003
 20
121.372
 10
1.86279
 20
121.17
 10
1.98213
 20
120.955
 10
2.07654
 20
120.727
 10
2.14484
 20
120.49
 10
2.18617
 20
120.246
 10
2.2
 20
120
 10
2.18617
 20
119.754
 10
2.14484
 20
119.51
 10
2.07654
 20
119.273
 10
1.98213
 20
119.045
 10
1.86279
 20
118.83
 10
1.72003
 20
118.628
 10
1.55563
 20
118.444
 10
1.37168
 20
118.28
 10
1.17047
 20
118.137
 10
0.954544
 20
118.018
 10
0.726614
 20
117.923
 10
0.489546
 20
117.855
 10
0.246322
 20
117.814
 10
0
 20
117.8
  0
LWPOLYLINE
100
AcDbEntity
  8
0
100
AcDbPolyline
 90
53
 70
1
 10
-0.186471
 20
97.9083
 10
-0.432555
 20
97.945
 10
-0.672567
 20
98.0106
 10
-0.903137
 20
98.1041
 10
-1.12103
 20
98.2242
 10
-1.32318
 20
98.3693
 10
-1.50677
 20
98.5372
 10
-1.66919
 20
98.7257
 10
-1.80819
 20
98.9321
 10
-1.92181
 20
99.1534
 10
-2.00844
 20
99.3867
 10
-2.06688
 20
99.6285
 10
-2.09631
 20
99.8756
 10
-2.09631
 20
100.124
 10
-2.06688
 20
100.371
 10
-2.00844
 20
100.613
 10
-1.92181
 20
100.847
 10
-1.80819
 20
101.068
 10
-1.66919
 20
101.274
 10
-1.50677
 20
101.463
 10
-1.32318
 20
101.631
 10
-1.12103
 20
101.776
 10
-0.903137
 20
101.896
 10
-0.672567
 20
101.989
 10
-0.432555
 20
102.055
 10
-0.186471
 20
102.092
 10
0.06223
 20
102.099
 10
0.310058
 20
102.077
 10
0.553533
 20
102.026
 10
0.789238
 20
101.946
 10
1.01386
 20
101.839
 10
1.22426
 20
101.706
 10
1.41746
 20
101.549
 10
1.59077
 20
101.371
 10
1.74175
 20
101.173
 10
1.86828
 20
100.959
 10
1.96858
 20
100.731
 10
2.04125
 20
100.493
 10
2.08526
 20
100.248
 10
2.1
 20
100
 10
2.08526
 20
99.7516
 10
2.04125
 20
99.5067
 10
1.96858
 20
99.2688
 10
1.86828
 20
99.0411
 10
1.74175
 20
98.8268
 10
1.59077
 20
98.6291
 10
1.41746
 20
98.4506
 10
1.22426
 20
98.2938
 10
1.01386
 20
98.161
 10
0.789238
 20
98.054
 10
0.553533
 20
97.9743
 10
0.310058
 20
97.923
 10
0.06223
 20
97.9009
  0
LWPOLYLINE
100
AcDbEntity
  8
0
100
AcDbPolyline
 90
53
 70
1
 10
-0.186471
 20
-102.092
 10
-0.432555
 20
-102.055
 10
-0.672567
 20
-101.989
 10
-0.903137
 20
-101.896
 10
-1.12103
 20
-101.776
 10
-1.32318
 20
-101.631
 10
-1.50677
 20
-101.463
 10
-1.66919
 20
-101.274
 10
-1.80819
 20
-101.068
 10
-1.92181
 20
-100.847
 10
-2.00844
 20
-100.613
 10
-2.06688
 20
-100.371
 10
-2.09631
 20
-100.124
 10
-2.09631
 20
-99.8756
 10
-2.06688
 20
-99.6285
 10
-2.00844
 20
-99.3867
 10
-1.92181
 20
-99.1534
 10
-1.80819
 20
-98.9321
 10
-1.66919
 20
-98.7257
 10
-1.50677
 20
-98.5372
 10
-1.32318
 20
-98.3693
 10
-1.12103
 20
-98.2242
 10
-0.903137
 20
-98.1041
 10
-0.672567
 20
-98.0106
 10
-0.432555
 20
-97.945
 10
-0.186471
 20
-97.9083
 10
0.06223
 20
-97.9009
 10
0.310058
 20
-97.923
 10
0.553533
 20
-97.9743
 10
0.789238
 20
-98.054
 10
1.01386
 20
-98.161
 10
1.22426
 20
-98.2938
 10
1.41746
 20
-98.4506
 10
1.59077
 20
-98.6291
 10
1.74175
 20
-98.8268
 10
1.86828
 20
-99.0411
 10
1.96858
 20
-99.2688
 10
2.04125
 20
-99.5067
 10
2.08526
 20
-99.7516
 10
2.1
 20
-100
 10
2.08526
 20
-100.248
 10
2.04125
 20
-100.493
 10
1.96858
 20
-100.731
 10
1.86828
 20
-100.959
 10
1.74175
 20
-101.173
 10
1.59077
 20
-101.371
 10
1.41746
 20
-101.549
 10
1.22426
 20
-101.706
 10
1.01386
 20
-101.839
 10
0.789238
 20
-101.946
 10
0.553533
 20
-102.026
 10
0.310058
 20
-102.077
 10
0.06223
 20
-102.099
  0
LWPOLYLINE
100
AcDbEntity
  8
0
100
AcDbPolyline
 90
56
 70
1
 10
-0.246322
 20
-122.186
 10
-0.489546
 20
-122.145
 10
-0.726614
 20
-122.077
 10
-0.954544
 20
-121.982
 10
-1.17047
 20
-121.863
 10
-1.37168
 20
-121.72
 10
-1.55563
 20
-121.556
 10
-1.72003
 20
-121.372
 10
-1.86279
 20
-121.17
 10
-1.98213
 20
-120.955
 10
-2.07654
 20
-120.727
 10
-2.14484
 20
-120.49
 10
-2.18617
 20
-120.246
 10
-2.2
 20
-120
 10
-2.18617
 20
-119.754
 10
-2.14484
 20
-119.51
 10
-2.07654
 20
-119.273
 10
-1.98213
 20
-119.045
 10
-1.86279
 20
-118.83
 10
-1.72003
 20
-118.628
 10
-1.55563
 20
-118.444
 10
-1.37168
 20
-118.28
 10
-1.17047
 20
-118.137
 10
-0.954544
 20
-118.018
 10
-0.726614
 20
-117.923
 10
-0.489546
 20
-117.855
 10
-0.246322
 20
-117.814
 10
0
 20
-117.8
 10
0.246322
 20
-117.814
 10
0.489546
 20
-117.855
 10
0.726614
 20
-117.923
 10
0.954544
 20
-118.018
 10
1.17047
 20
-118.137
 10
1.37168
 20
-118.28
 10
1.55563
 20
-118.444
 10
1.72003
 20
-118.628
 10
1.86279
 20
-118.83
 10
1.98213
 20
-119.045
 10
2.07654
 20
-119.273
 10
2.14484
 20
-119.51
 10
2.18617
 20
-119.754
 10
2.2
 20
-120
 10
2.18617
 20
-120.246
 10
2.14484
 20
-120.49
 10
2.07654
 20
-120.727
 10
1.98213
 20
-120.955
 10
1.86279
 20
-121.17
 10
1.72003
 20
-121.372
 10
1.55563
 20
-121.556
 10
1.37168
 20
-121.72
 10
1.17047
 20
-121.863
 10
0.954544
 20
-121.982
 10
0.726614
 20
-122.077
 10
0.489546
 20
-122.145
 10
0.246322
 20
-122.186
 10
0
 20
-122.2
  0
ENDSEC
  0
EOF
