solid OpenSCAD_Model
  facet normal 0 1 0
    outer loop
      vertex -0.627171 -5.96713 -12.7
      vertex -0.627171 -5.96713 -7.3
      vertex 0.627171 -5.96713 -12.7
    endloop
  endfacet
  facet normal 0 0 -1
    outer loop
      vertex -0.627171 -5.96713 -12.7
      vertex 0.627171 -5.96713 -12.7
      vertex 0.836227 -7.95617 -12.7
    endloop
  endfacet
  facet normal 0 1 0
    outer loop
      vertex -0.627171 -5.96713 -7.3
      vertex 0.627171 -5.96713 -7.3
      vertex 0.627171 -5.96713 -12.7
    endloop
  endfacet
  facet normal 0 0 1
    outer loop
      vertex -0.627171 -5.96713 -7.3
      vertex 0.836227 -7.95617 -7.3
      vertex 0.627171 -5.96713 -7.3
    endloop
  endfacet
  facet normal 0 0 -1
    outer loop
      vertex -0.836227 -7.95617 -12.7
      vertex -0.627171 -5.96713 -12.7
      vertex 0.836227 -7.95617 -12.7
    endloop
  endfacet
  facet normal 0 1 0
    outer loop
      vertex -0.836227 -7.95617 -12.7
      vertex 0.836227 -7.95617 -12.7
      vertex 0.836227 -7.95617 -16
    endloop
  endfacet
  facet normal 0 1 0
    outer loop
      vertex -0.836227 -7.95617 -16
      vertex -0.836227 -7.95617 -12.7
      vertex 0.836227 -7.95617 -16
    endloop
  endfacet
  facet normal 0 0 -1
    outer loop
      vertex -0.836227 -7.95617 -16
      vertex 0.836227 -7.95617 -16
      vertex 10 -13 -16
    endloop
  endfacet
  facet normal 0 1 0
    outer loop
      vertex -0.836227 -7.95617 -7.3
      vertex -0.836227 -7.95617 0
      vertex 0.836227 -7.95617 -7.3
    endloop
  endfacet
  facet normal 0 0 1
    outer loop
      vertex -0.836227 -7.95617 -7.3
      vertex 0.836227 -7.95617 -7.3
      vertex -0.627171 -5.96713 -7.3
    endloop
  endfacet
  facet normal 0 1 0
    outer loop
      vertex -0.836227 -7.95617 0
      vertex 0.836227 -7.95617 0
      vertex 0.836227 -7.95617 -7.3
    endloop
  endfacet
  facet normal 0 0 1
    outer loop
      vertex -0.836227 -7.95617 0
      vertex 10 -13 0
      vertex 0.836227 -7.95617 0
    endloop
  endfacet
  facet normal 0 0 -1
    outer loop
      vertex -1.8541 -5.70634 -12.7
      vertex -0.627171 -5.96713 -12.7
      vertex -0.836227 -7.95617 -12.7
    endloop
  endfacet
  facet normal 0.20791 0.978148 0
    outer loop
      vertex -1.8541 -5.70634 -12.7
      vertex -1.8541 -5.70634 -7.3
      vertex -0.627171 -5.96713 -12.7
    endloop
  endfacet
  facet normal 0.20791 0.978148 0
    outer loop
      vertex -1.8541 -5.70634 -7.3
      vertex -0.627171 -5.96713 -7.3
      vertex -0.627171 -5.96713 -12.7
    endloop
  endfacet
  facet normal 0 0 1
    outer loop
      vertex -1.8541 -5.70634 -7.3
      vertex -0.836227 -7.95617 -7.3
      vertex -0.627171 -5.96713 -7.3
    endloop
  endfacet
  facet normal -0.130476 0 0.991452
    outer loop
      vertex -10 -13 -11.65
      vertex -9.57295 -13 -11.5938
      vertex -10 0 -11.65
    endloop
  endfacet
  facet normal 0 0 -1
    outer loop
      vertex -10 -13 -16
      vertex -0.836227 -7.95617 -16
      vertex 10 -13 -16
    endloop
  endfacet
  facet normal 0 0 -1
    outer loop
      vertex -10 -13 -16
      vertex -10 0 -16
      vertex -7.30836 -3.25389 -16
    endloop
  endfacet
  facet normal 0 0 -1
    outer loop
      vertex -10 -13 -16
      vertex -2.47214 -7.60845 -16
      vertex -0.836227 -7.95617 -16
    endloop
  endfacet
  facet normal 0 0 -1
    outer loop
      vertex -10 -13 -16
      vertex -4 -6.9282 -16
      vertex -2.47214 -7.60845 -16
    endloop
  endfacet
  facet normal 0 0 -1
    outer loop
      vertex -10 -13 -16
      vertex -5.35304 -5.94516 -16
      vertex -4 -6.9282 -16
    endloop
  endfacet
  facet normal 0 0 -1
    outer loop
      vertex -10 -13 -16
      vertex -6.47214 -4.70228 -16
      vertex -5.35304 -5.94516 -16
    endloop
  endfacet
  facet normal 0 0 -1
    outer loop
      vertex -10 -13 -16
      vertex -7.30836 -3.25389 -16
      vertex -6.47214 -4.70228 -16
    endloop
  endfacet
  facet normal 0 -1 0
    outer loop
      vertex -10 -13 -16
      vertex -8.57106 -13 -10.825
      vertex -8.83327 -13 -11.1667
    endloop
  endfacet
  facet normal 0 -1 0
    outer loop
      vertex -10 -13 -16
      vertex -8.83327 -13 -11.1667
      vertex -9.175 -13 -11.4289
    endloop
  endfacet
  facet normal 0 -1 0
    outer loop
      vertex -10 -13 -16
      vertex -9.175 -13 -11.4289
      vertex -9.57295 -13 -11.5938
    endloop
  endfacet
  facet normal 0 -1 0
    outer loop
      vertex -10 -13 -16
      vertex -9.57295 -13 -11.5938
      vertex -10 -13 -11.65
    endloop
  endfacet
  facet normal 0 -1 0
    outer loop
      vertex -10 -13 -16
      vertex 10 -13 -16
      vertex 8.57106 -13 -10.825
    endloop
  endfacet
  facet normal 0 -1 0
    outer loop
      vertex -10 -13 -16
      vertex 8.57106 -13 -10.825
      vertex -8.57106 -13 -10.825
    endloop
  endfacet
  facet normal -0.130521 0 -0.991446
    outer loop
      vertex -10 -13 -8.35
      vertex -10 0 -8.35
      vertex -9.57295 0 -8.40622
    endloop
  endfacet
  facet normal -0.130521 0 -0.991446
    outer loop
      vertex -10 -13 -8.35
      vertex -9.57295 0 -8.40622
      vertex -9.57295 -13 -8.40622
    endloop
  endfacet
  facet normal 0 0 1
    outer loop
      vertex -10 -13 0
      vertex -0.836227 -7.95617 0
      vertex -2.47214 -7.60845 0
    endloop
  endfacet
  facet normal 0 0 1
    outer loop
      vertex -10 -13 0
      vertex -2.47214 -7.60845 0
      vertex -4 -6.9282 0
    endloop
  endfacet
  facet normal 0 0 1
    outer loop
      vertex -10 -13 0
      vertex -4 -6.9282 0
      vertex -5.35304 -5.94516 0
    endloop
  endfacet
  facet normal 0 0 1
    outer loop
      vertex -10 -13 0
      vertex -5.35304 -5.94516 0
      vertex -6.47214 -4.70228 0
    endloop
  endfacet
  facet normal 0 0 1
    outer loop
      vertex -10 -13 0
      vertex -6.47214 -4.70228 0
      vertex -7.30836 -3.25389 0
    endloop
  endfacet
  facet normal 0 0 1
    outer loop
      vertex -10 -13 0
      vertex -7.30836 -3.25389 0
      vertex -10 0 0
    endloop
  endfacet
  facet normal 0 -1 0
    outer loop
      vertex -10 -13 0
      vertex -8.57106 -13 -9.175
      vertex 10 -13 0
    endloop
  endfacet
  facet normal 0 -1 0
    outer loop
      vertex -10 -13 0
      vertex -8.83327 -13 -8.83327
      vertex -8.57106 -13 -9.175
    endloop
  endfacet
  facet normal 0 -1 0
    outer loop
      vertex -10 -13 0
      vertex -9.175 -13 -8.57106
      vertex -8.83327 -13 -8.83327
    endloop
  endfacet
  facet normal 0 -1 0
    outer loop
      vertex -10 -13 0
      vertex -9.57295 -13 -8.40622
      vertex -9.175 -13 -8.57106
    endloop
  endfacet
  facet normal 0 0 1
    outer loop
      vertex -10 -13 0
      vertex 10 -13 0
      vertex -0.836227 -7.95617 0
    endloop
  endfacet
  facet normal -0.130476 0 0.991452
    outer loop
      vertex -10 0 -11.65
      vertex -9.57295 -13 -11.5938
      vertex -9.57295 0 -11.5938
    endloop
  endfacet
  facet normal 0 1 0
    outer loop
      vertex -10 0 -11.65
      vertex -9.57295 0 -11.5938
      vertex -8 0 -12.7
    endloop
  endfacet
  facet normal 0 1 0
    outer loop
      vertex -10 0 -16
      vertex -10 0 -11.65
      vertex -8 0 -12.7
    endloop
  endfacet
  facet normal 0 0 -1
    outer loop
      vertex -10 0 -16
      vertex -7.82518 -1.66329 -16
      vertex -7.30836 -3.25389 -16
    endloop
  endfacet
  facet normal 0 1 0
    outer loop
      vertex -10 0 -16
      vertex -8 0 -12.7
      vertex -8 0 -16
    endloop
  endfacet
  facet normal 0 0 -1
    outer loop
      vertex -10 0 -16
      vertex -8 0 -16
      vertex -7.82518 -1.66329 -16
    endloop
  endfacet
  facet normal 0 1 0
    outer loop
      vertex -10 0 -8.35
      vertex -8 0 -7.3
      vertex -9.57295 0 -8.40622
    endloop
  endfacet
  facet normal 0 0 1
    outer loop
      vertex -10 0 0
      vertex -7.30836 -3.25389 0
      vertex -7.82518 -1.66329 0
    endloop
  endfacet
  facet normal 0 0 1
    outer loop
      vertex -10 0 0
      vertex -7.82518 -1.66329 0
      vertex -8 0 0
    endloop
  endfacet
  facet normal 0 1 0
    outer loop
      vertex -10 0 0
      vertex -8 0 0
      vertex -8 0 -7.3
    endloop
  endfacet
  facet normal 0.130461 0 0.991454
    outer loop
      vertex -10.4271 -13 -11.5938
      vertex -10 -13 -11.65
      vertex -10.4271 0 -11.5938
    endloop
  endfacet
  facet normal 0.130506 0 -0.991447
    outer loop
      vertex -10.4271 -13 -8.40622
      vertex -10 0 -8.35
      vertex -10 -13 -8.35
    endloop
  endfacet
  facet normal 0.130506 0 -0.991447
    outer loop
      vertex -10.4271 -13 -8.40622
      vertex -10.4271 0 -8.40622
      vertex -10 0 -8.35
    endloop
  endfacet
  facet normal 0.130461 0 0.991454
    outer loop
      vertex -10.4271 0 -11.5938
      vertex -10 -13 -11.65
      vertex -10 0 -11.65
    endloop
  endfacet
  facet normal -0.130522 0 0.991445
    outer loop
      vertex -10.7506 -13 -0.098815
      vertex -10 -13 0
      vertex -10.7506 0 -0.098815
    endloop
  endfacet
  facet normal 0 -1 0
    outer loop
      vertex -10.7506 -13 -15.9012
      vertex -10 -13 -16
      vertex -10 -13 -11.65
    endloop
  endfacet
  facet normal -0.130502 0 -0.991448
    outer loop
      vertex -10.7506 -13 -15.9012
      vertex -10 0 -16
      vertex -10 -13 -16
    endloop
  endfacet
  facet normal -0.130502 0 -0.991448
    outer loop
      vertex -10.7506 -13 -15.9012
      vertex -10.7506 0 -15.9012
      vertex -10 0 -16
    endloop
  endfacet
  facet normal -0.130522 0 0.991445
    outer loop
      vertex -10.7506 0 -0.098815
      vertex -10 -13 0
      vertex -10 0 0
    endloop
  endfacet
  facet normal 0 1 0
    outer loop
      vertex -10.7506 0 -15.9012
      vertex -10 0 -11.65
      vertex -10 0 -16
    endloop
  endfacet
  facet normal 0.382851 0 0.92381
    outer loop
      vertex -10.825 -13 -11.4289
      vertex -10.4271 -13 -11.5938
      vertex -10.825 0 -11.4289
    endloop
  endfacet
  facet normal 0.382732 0 -0.923859
    outer loop
      vertex -10.825 -13 -8.57106
      vertex -10.4271 0 -8.40622
      vertex -10.4271 -13 -8.40622
    endloop
  endfacet
  facet normal 0.382732 0 -0.923859
    outer loop
      vertex -10.825 -13 -8.57106
      vertex -10.825 0 -8.57106
      vertex -10.4271 0 -8.40622
    endloop
  endfacet
  facet normal 0.382851 0 0.92381
    outer loop
      vertex -10.825 0 -11.4289
      vertex -10.4271 -13 -11.5938
      vertex -10.4271 0 -11.5938
    endloop
  endfacet
  facet normal 0.608768 0 0.793348
    outer loop
      vertex -11.1667 -13 -11.1667
      vertex -10.825 -13 -11.4289
      vertex -11.1667 0 -11.1667
    endloop
  endfacet
  facet normal 0.608782 0 -0.793337
    outer loop
      vertex -11.1667 -13 -8.83327
      vertex -10.825 0 -8.57106
      vertex -10.825 -13 -8.57106
    endloop
  endfacet
  facet normal 0.608782 0 -0.793337
    outer loop
      vertex -11.1667 -13 -8.83327
      vertex -11.1667 0 -8.83327
      vertex -10.825 0 -8.57106
    endloop
  endfacet
  facet normal 0.608768 0 0.793348
    outer loop
      vertex -11.1667 0 -11.1667
      vertex -10.825 -13 -11.4289
      vertex -10.825 0 -11.4289
    endloop
  endfacet
  facet normal 0.793348 0 0.608768
    outer loop
      vertex -11.4289 -13 -10.825
      vertex -11.1667 -13 -11.1667
      vertex -11.1667 0 -11.1667
    endloop
  endfacet
  facet normal 0.793348 0 0.608768
    outer loop
      vertex -11.4289 -13 -10.825
      vertex -11.1667 0 -11.1667
      vertex -11.4289 0 -10.825
    endloop
  endfacet
  facet normal 0.793374 0 -0.608734
    outer loop
      vertex -11.4289 -13 -9.175
      vertex -11.4289 0 -9.175
      vertex -11.1667 -13 -8.83327
    endloop
  endfacet
  facet normal 0.793374 0 -0.608734
    outer loop
      vertex -11.4289 0 -9.175
      vertex -11.1667 0 -8.83327
      vertex -11.1667 -13 -8.83327
    endloop
  endfacet
  facet normal -0.382695 0 0.923875
    outer loop
      vertex -11.45 -13 -0.388526
      vertex -10.7506 -13 -0.098815
      vertex -11.45 0 -0.388526
    endloop
  endfacet
  facet normal 0 -1 0
    outer loop
      vertex -11.45 -13 -15.6115
      vertex -10.7506 -13 -15.9012
      vertex -10 -13 -11.65
    endloop
  endfacet
  facet normal -0.382682 0 -0.92388
    outer loop
      vertex -11.45 -13 -15.6115
      vertex -10.7506 0 -15.9012
      vertex -10.7506 -13 -15.9012
    endloop
  endfacet
  facet normal -0.382682 0 -0.92388
    outer loop
      vertex -11.45 -13 -15.6115
      vertex -11.45 0 -15.6115
      vertex -10.7506 0 -15.9012
    endloop
  endfacet
  facet normal -0.382695 0 0.923875
    outer loop
      vertex -11.45 0 -0.388526
      vertex -10.7506 -13 -0.098815
      vertex -10.7506 0 -0.098815
    endloop
  endfacet
  facet normal 0 1 0
    outer loop
      vertex -11.45 0 -15.6115
      vertex -10 0 -11.65
      vertex -10.7506 0 -15.9012
    endloop
  endfacet
  facet normal 0 1 0
    outer loop
      vertex -11.45 0 -15.6115
      vertex -10.4271 0 -11.5938
      vertex -10 0 -11.65
    endloop
  endfacet
  facet normal 0.92381 0 0.382851
    outer loop
      vertex -11.5938 -13 -10.4271
      vertex -11.4289 -13 -10.825
      vertex -11.4289 0 -10.825
    endloop
  endfacet
  facet normal 0.92381 0 0.382851
    outer loop
      vertex -11.5938 -13 -10.4271
      vertex -11.4289 0 -10.825
      vertex -11.5938 0 -10.4271
    endloop
  endfacet
  facet normal 0.923827 0 -0.38281
    outer loop
      vertex -11.5938 -13 -9.57295
      vertex -11.5938 0 -9.57295
      vertex -11.4289 -13 -9.175
    endloop
  endfacet
  facet normal 0.923827 0 -0.38281
    outer loop
      vertex -11.5938 0 -9.57295
      vertex -11.4289 0 -9.175
      vertex -11.4289 -13 -9.175
    endloop
  endfacet
  facet normal 0.991454 0 0.130461
    outer loop
      vertex -11.65 -13 -10
      vertex -11.5938 -13 -10.4271
      vertex -11.5938 0 -10.4271
    endloop
  endfacet
  facet normal 0.991454 0 0.130461
    outer loop
      vertex -11.65 -13 -10
      vertex -11.5938 0 -10.4271
      vertex -11.65 0 -10
    endloop
  endfacet
  facet normal 0.991452 0 -0.130476
    outer loop
      vertex -11.65 -13 -10
      vertex -11.65 0 -10
      vertex -11.5938 -13 -9.57295
    endloop
  endfacet
  facet normal 0.991452 0 -0.130476
    outer loop
      vertex -11.65 0 -10
      vertex -11.5938 0 -9.57295
      vertex -11.5938 -13 -9.57295
    endloop
  endfacet
  facet normal -0.608768 0 0.793349
    outer loop
      vertex -12.0506 -13 -0.84939
      vertex -11.45 -13 -0.388526
      vertex -12.0506 0 -0.84939
    endloop
  endfacet
  facet normal 0 -1 0
    outer loop
      vertex -12.0506 -13 -15.1506
      vertex -10 -13 -11.65
      vertex -10.4271 -13 -11.5938
    endloop
  endfacet
  facet normal 0 -1 0
    outer loop
      vertex -12.0506 -13 -15.1506
      vertex -11.45 -13 -15.6115
      vertex -10 -13 -11.65
    endloop
  endfacet
  facet normal -0.608798 0 -0.793326
    outer loop
      vertex -12.0506 -13 -15.1506
      vertex -11.45 0 -15.6115
      vertex -11.45 -13 -15.6115
    endloop
  endfacet
  facet normal -0.608798 0 -0.793326
    outer loop
      vertex -12.0506 -13 -15.1506
      vertex -12.0506 0 -15.1506
      vertex -11.45 0 -15.6115
    endloop
  endfacet
  facet normal -0.608768 0 0.793349
    outer loop
      vertex -12.0506 0 -0.84939
      vertex -11.45 -13 -0.388526
      vertex -11.45 0 -0.388526
    endloop
  endfacet
  facet normal 0 1 0
    outer loop
      vertex -12.0506 0 -15.1506
      vertex -10.4271 0 -11.5938
      vertex -11.45 0 -15.6115
    endloop
  endfacet
  facet normal -0.793331 0 0.608791
    outer loop
      vertex -12.5115 -13 -1.45
      vertex -12.0506 -13 -0.84939
      vertex -12.0506 0 -0.84939
    endloop
  endfacet
  facet normal -0.793331 0 0.608791
    outer loop
      vertex -12.5115 -13 -1.45
      vertex -12.0506 0 -0.84939
      vertex -12.5115 0 -1.45
    endloop
  endfacet
  facet normal 0 -1 0
    outer loop
      vertex -12.5115 -13 -14.55
      vertex -12.0506 -13 -15.1506
      vertex -10.4271 -13 -11.5938
    endloop
  endfacet
  facet normal -0.793326 0 -0.608798
    outer loop
      vertex -12.5115 -13 -14.55
      vertex -12.5115 0 -14.55
      vertex -12.0506 -13 -15.1506
    endloop
  endfacet
  facet normal 0 1 0
    outer loop
      vertex -12.5115 0 -14.55
      vertex -10.4271 0 -11.5938
      vertex -12.0506 0 -15.1506
    endloop
  endfacet
  facet normal -0.793326 0 -0.608798
    outer loop
      vertex -12.5115 0 -14.55
      vertex -12.0506 0 -15.1506
      vertex -12.0506 -13 -15.1506
    endloop
  endfacet
  facet normal 0 -1 0
    outer loop
      vertex -12.8012 -13 -13.8506
      vertex -12.5115 -13 -14.55
      vertex -10.4271 -13 -11.5938
    endloop
  endfacet
  facet normal -0.92388 0 -0.382682
    outer loop
      vertex -12.8012 -13 -13.8506
      vertex -12.8012 0 -13.8506
      vertex -12.5115 -13 -14.55
    endloop
  endfacet
  facet normal -0.923884 0 0.382673
    outer loop
      vertex -12.8012 -13 -2.14942
      vertex -12.5115 -13 -1.45
      vertex -12.5115 0 -1.45
    endloop
  endfacet
  facet normal -0.923884 0 0.382673
    outer loop
      vertex -12.8012 -13 -2.14942
      vertex -12.5115 0 -1.45
      vertex -12.8012 0 -2.14942
    endloop
  endfacet
  facet normal 0 1 0
    outer loop
      vertex -12.8012 0 -13.8506
      vertex -10.4271 0 -11.5938
      vertex -12.5115 0 -14.55
    endloop
  endfacet
  facet normal -0.92388 0 -0.382682
    outer loop
      vertex -12.8012 0 -13.8506
      vertex -12.5115 0 -14.55
      vertex -12.5115 -13 -14.55
    endloop
  endfacet
  facet normal 0 -1 0
    outer loop
      vertex -12.9 -13 -13.1
      vertex -10.4271 -13 -11.5938
      vertex -10.825 -13 -11.4289
    endloop
  endfacet
  facet normal 0 -1 0
    outer loop
      vertex -12.9 -13 -13.1
      vertex -10.825 -13 -11.4289
      vertex -11.1667 -13 -11.1667
    endloop
  endfacet
  facet normal 0 -1 0
    outer loop
      vertex -12.9 -13 -13.1
      vertex -11.1667 -13 -11.1667
      vertex -11.4289 -13 -10.825
    endloop
  endfacet
  facet normal 0 -1 0
    outer loop
      vertex -12.9 -13 -13.1
      vertex -11.4289 -13 -10.825
      vertex -11.5938 -13 -10.4271
    endloop
  endfacet
  facet normal 0 -1 0
    outer loop
      vertex -12.9 -13 -13.1
      vertex -11.5938 -13 -10.4271
      vertex -11.65 -13 -10
    endloop
  endfacet
  facet normal 0 -1 0
    outer loop
      vertex -12.9 -13 -13.1
      vertex -11.5938 -13 -9.57295
      vertex -12.9 -13 -2.9
    endloop
  endfacet
  facet normal 0 -1 0
    outer loop
      vertex -12.9 -13 -13.1
      vertex -11.65 -13 -10
      vertex -11.5938 -13 -9.57295
    endloop
  endfacet
  facet normal 0 -1 0
    outer loop
      vertex -12.9 -13 -13.1
      vertex -12.8012 -13 -13.8506
      vertex -10.4271 -13 -11.5938
    endloop
  endfacet
  facet normal -1 0 0
    outer loop
      vertex -12.9 -13 -13.1
      vertex -12.9 -13 -2.9
      vertex -12.9 0 -2.9
    endloop
  endfacet
  facet normal -0.991448 0 -0.130502
    outer loop
      vertex -12.9 -13 -13.1
      vertex -12.9 0 -13.1
      vertex -12.8012 -13 -13.8506
    endloop
  endfacet
  facet normal -1 0 0
    outer loop
      vertex -12.9 -13 -13.1
      vertex -12.9 0 -2.9
      vertex -12.9 0 -13.1
    endloop
  endfacet
  facet normal 0 -1 0
    outer loop
      vertex -12.9 -13 -2.9
      vertex -10 -13 -8.35
      vertex -9.57295 -13 -8.40622
    endloop
  endfacet
  facet normal 0 -1 0
    outer loop
      vertex -12.9 -13 -2.9
      vertex -10 -13 0
      vertex -10.7506 -13 -0.098815
    endloop
  endfacet
  facet normal 0 -1 0
    outer loop
      vertex -12.9 -13 -2.9
      vertex -10.4271 -13 -8.40622
      vertex -10 -13 -8.35
    endloop
  endfacet
  facet normal 0 -1 0
    outer loop
      vertex -12.9 -13 -2.9
      vertex -10.7506 -13 -0.098815
      vertex -11.45 -13 -0.388526
    endloop
  endfacet
  facet normal 0 -1 0
    outer loop
      vertex -12.9 -13 -2.9
      vertex -10.825 -13 -8.57106
      vertex -10.4271 -13 -8.40622
    endloop
  endfacet
  facet normal 0 -1 0
    outer loop
      vertex -12.9 -13 -2.9
      vertex -11.1667 -13 -8.83327
      vertex -10.825 -13 -8.57106
    endloop
  endfacet
  facet normal 0 -1 0
    outer loop
      vertex -12.9 -13 -2.9
      vertex -11.4289 -13 -9.175
      vertex -11.1667 -13 -8.83327
    endloop
  endfacet
  facet normal 0 -1 0
    outer loop
      vertex -12.9 -13 -2.9
      vertex -11.45 -13 -0.388526
      vertex -12.0506 -13 -0.84939
    endloop
  endfacet
  facet normal 0 -1 0
    outer loop
      vertex -12.9 -13 -2.9
      vertex -11.5938 -13 -9.57295
      vertex -11.4289 -13 -9.175
    endloop
  endfacet
  facet normal 0 -1 0
    outer loop
      vertex -12.9 -13 -2.9
      vertex -12.0506 -13 -0.84939
      vertex -12.5115 -13 -1.45
    endloop
  endfacet
  facet normal 0 -1 0
    outer loop
      vertex -12.9 -13 -2.9
      vertex -12.5115 -13 -1.45
      vertex -12.8012 -13 -2.14942
    endloop
  endfacet
  facet normal -0.991448 0 0.130506
    outer loop
      vertex -12.9 -13 -2.9
      vertex -12.8012 -13 -2.14942
      vertex -12.8012 0 -2.14942
    endloop
  endfacet
  facet normal -0.991448 0 0.130506
    outer loop
      vertex -12.9 -13 -2.9
      vertex -12.8012 0 -2.14942
      vertex -12.9 0 -2.9
    endloop
  endfacet
  facet normal 0 -1 0
    outer loop
      vertex -12.9 -13 -2.9
      vertex -9.57295 -13 -8.40622
      vertex -10 -13 0
    endloop
  endfacet
  facet normal 0 1 0
    outer loop
      vertex -12.9 0 -13.1
      vertex -10.4271 0 -11.5938
      vertex -12.8012 0 -13.8506
    endloop
  endfacet
  facet normal 0 1 0
    outer loop
      vertex -12.9 0 -13.1
      vertex -10.825 0 -11.4289
      vertex -10.4271 0 -11.5938
    endloop
  endfacet
  facet normal 0 1 0
    outer loop
      vertex -12.9 0 -13.1
      vertex -11.1667 0 -11.1667
      vertex -10.825 0 -11.4289
    endloop
  endfacet
  facet normal 0 1 0
    outer loop
      vertex -12.9 0 -13.1
      vertex -11.4289 0 -10.825
      vertex -11.1667 0 -11.1667
    endloop
  endfacet
  facet normal 0 1 0
    outer loop
      vertex -12.9 0 -13.1
      vertex -11.5938 0 -10.4271
      vertex -11.4289 0 -10.825
    endloop
  endfacet
  facet normal 0 1 0
    outer loop
      vertex -12.9 0 -13.1
      vertex -11.5938 0 -9.57295
      vertex -11.65 0 -10
    endloop
  endfacet
  facet normal 0 1 0
    outer loop
      vertex -12.9 0 -13.1
      vertex -11.65 0 -10
      vertex -11.5938 0 -10.4271
    endloop
  endfacet
  facet normal -0.991448 0 -0.130502
    outer loop
      vertex -12.9 0 -13.1
      vertex -12.8012 0 -13.8506
      vertex -12.8012 -13 -13.8506
    endloop
  endfacet
  facet normal 0 1 0
    outer loop
      vertex -12.9 0 -13.1
      vertex -12.9 0 -2.9
      vertex -11.5938 0 -9.57295
    endloop
  endfacet
  facet normal 0 1 0
    outer loop
      vertex -12.9 0 -2.9
      vertex -10 0 -8.35
      vertex -10.4271 0 -8.40622
    endloop
  endfacet
  facet normal 0 1 0
    outer loop
      vertex -12.9 0 -2.9
      vertex -10 0 0
      vertex -8 0 -7.3
    endloop
  endfacet
  facet normal 0 1 0
    outer loop
      vertex -12.9 0 -2.9
      vertex -10.4271 0 -8.40622
      vertex -10.825 0 -8.57106
    endloop
  endfacet
  facet normal 0 1 0
    outer loop
      vertex -12.9 0 -2.9
      vertex -10.7506 0 -0.098815
      vertex -10 0 0
    endloop
  endfacet
  facet normal 0 1 0
    outer loop
      vertex -12.9 0 -2.9
      vertex -10.825 0 -8.57106
      vertex -11.1667 0 -8.83327
    endloop
  endfacet
  facet normal 0 1 0
    outer loop
      vertex -12.9 0 -2.9
      vertex -11.1667 0 -8.83327
      vertex -11.4289 0 -9.175
    endloop
  endfacet
  facet normal 0 1 0
    outer loop
      vertex -12.9 0 -2.9
      vertex -11.4289 0 -9.175
      vertex -11.5938 0 -9.57295
    endloop
  endfacet
  facet normal 0 1 0
    outer loop
      vertex -12.9 0 -2.9
      vertex -11.45 0 -0.388526
      vertex -10.7506 0 -0.098815
    endloop
  endfacet
  facet normal 0 1 0
    outer loop
      vertex -12.9 0 -2.9
      vertex -12.0506 0 -0.84939
      vertex -11.45 0 -0.388526
    endloop
  endfacet
  facet normal 0 1 0
    outer loop
      vertex -12.9 0 -2.9
      vertex -12.5115 0 -1.45
      vertex -12.0506 0 -0.84939
    endloop
  endfacet
  facet normal 0 1 0
    outer loop
      vertex -12.9 0 -2.9
      vertex -12.8012 0 -2.14942
      vertex -12.5115 0 -1.45
    endloop
  endfacet
  facet normal 0 1 0
    outer loop
      vertex -12.9 0 -2.9
      vertex -8 0 -7.3
      vertex -10 0 -8.35
    endloop
  endfacet
  facet normal 0.207909 0.978148 0
    outer loop
      vertex -2.47214 -7.60845 -12.7
      vertex -0.836227 -7.95617 -12.7
      vertex -0.836227 -7.95617 -16
    endloop
  endfacet
  facet normal 0 0 -1
    outer loop
      vertex -2.47214 -7.60845 -12.7
      vertex -1.8541 -5.70634 -12.7
      vertex -0.836227 -7.95617 -12.7
    endloop
  endfacet
  facet normal 0.207909 0.978148 0
    outer loop
      vertex -2.47214 -7.60845 -16
      vertex -2.47214 -7.60845 -12.7
      vertex -0.836227 -7.95617 -16
    endloop
  endfacet
  facet normal 0 0 1
    outer loop
      vertex -2.47214 -7.60845 -7.3
      vertex -0.836227 -7.95617 -7.3
      vertex -1.8541 -5.70634 -7.3
    endloop
  endfacet
  facet normal 0.207909 0.978148 0
    outer loop
      vertex -2.47214 -7.60845 -7.3
      vertex -2.47214 -7.60845 0
      vertex -0.836227 -7.95617 -7.3
    endloop
  endfacet
  facet normal 0.207909 0.978148 0
    outer loop
      vertex -2.47214 -7.60845 0
      vertex -0.836227 -7.95617 0
      vertex -0.836227 -7.95617 -7.3
    endloop
  endfacet
  facet normal 0 0 -1
    outer loop
      vertex -3 -5.19615 -12.7
      vertex -1.8541 -5.70634 -12.7
      vertex -2.47214 -7.60845 -12.7
    endloop
  endfacet
  facet normal 0.406738 0.913545 0
    outer loop
      vertex -3 -5.19615 -12.7
      vertex -3 -5.19615 -7.3
      vertex -1.8541 -5.70634 -12.7
    endloop
  endfacet
  facet normal 0.406738 0.913545 0
    outer loop
      vertex -3 -5.19615 -7.3
      vertex -1.8541 -5.70634 -7.3
      vertex -1.8541 -5.70634 -12.7
    endloop
  endfacet
  facet normal 0 0 1
    outer loop
      vertex -3 -5.19615 -7.3
      vertex -2.47214 -7.60845 -7.3
      vertex -1.8541 -5.70634 -7.3
    endloop
  endfacet
  facet normal 0.406738 0.913545 0
    outer loop
      vertex -4 -6.9282 -12.7
      vertex -2.47214 -7.60845 -12.7
      vertex -2.47214 -7.60845 -16
    endloop
  endfacet
  facet normal 0 0 -1
    outer loop
      vertex -4 -6.9282 -12.7
      vertex -3 -5.19615 -12.7
      vertex -2.47214 -7.60845 -12.7
    endloop
  endfacet
  facet normal 0.406738 0.913545 0
    outer loop
      vertex -4 -6.9282 -16
      vertex -4 -6.9282 -12.7
      vertex -2.47214 -7.60845 -16
    endloop
  endfacet
  facet normal 0 0 1
    outer loop
      vertex -4 -6.9282 -7.3
      vertex -2.47214 -7.60845 -7.3
      vertex -3 -5.19615 -7.3
    endloop
  endfacet
  facet normal 0.406738 0.913545 0
    outer loop
      vertex -4 -6.9282 -7.3
      vertex -4 -6.9282 0
      vertex -2.47214 -7.60845 -7.3
    endloop
  endfacet
  facet normal 0.406738 0.913545 0
    outer loop
      vertex -4 -6.9282 0
      vertex -2.47214 -7.60845 0
      vertex -2.47214 -7.60845 -7.3
    endloop
  endfacet
  facet normal 0 0 -1
    outer loop
      vertex -4.01478 -4.45887 -12.7
      vertex -3 -5.19615 -12.7
      vertex -4 -6.9282 -12.7
    endloop
  endfacet
  facet normal 0.587785 0.809017 0
    outer loop
      vertex -4.01478 -4.45887 -12.7
      vertex -4.01478 -4.45887 -7.3
      vertex -3 -5.19615 -12.7
    endloop
  endfacet
  facet normal 0.587785 0.809017 0
    outer loop
      vertex -4.01478 -4.45887 -7.3
      vertex -3 -5.19615 -7.3
      vertex -3 -5.19615 -12.7
    endloop
  endfacet
  facet normal 0 0 1
    outer loop
      vertex -4.01478 -4.45887 -7.3
      vertex -4 -6.9282 -7.3
      vertex -3 -5.19615 -7.3
    endloop
  endfacet
  facet normal 0.743145 0.66913 0
    outer loop
      vertex -4.8541 -3.52671 -12.7
      vertex -4.01478 -4.45887 -7.3
      vertex -4.01478 -4.45887 -12.7
    endloop
  endfacet
  facet normal 0.743145 0.66913 0
    outer loop
      vertex -4.8541 -3.52671 -12.7
      vertex -4.8541 -3.52671 -7.3
      vertex -4.01478 -4.45887 -7.3
    endloop
  endfacet
  facet normal 0.587785 0.809017 0
    outer loop
      vertex -5.35304 -5.94516 -12.7
      vertex -4 -6.9282 -12.7
      vertex -4 -6.9282 -16
    endloop
  endfacet
  facet normal 0 0 -1
    outer loop
      vertex -5.35304 -5.94516 -12.7
      vertex -4.01478 -4.45887 -12.7
      vertex -4 -6.9282 -12.7
    endloop
  endfacet
  facet normal 0 0 -1
    outer loop
      vertex -5.35304 -5.94516 -12.7
      vertex -4.8541 -3.52671 -12.7
      vertex -4.01478 -4.45887 -12.7
    endloop
  endfacet
  facet normal 0.587785 0.809017 0
    outer loop
      vertex -5.35304 -5.94516 -16
      vertex -5.35304 -5.94516 -12.7
      vertex -4 -6.9282 -16
    endloop
  endfacet
  facet normal 0 0 1
    outer loop
      vertex -5.35304 -5.94516 -7.3
      vertex -4 -6.9282 -7.3
      vertex -4.01478 -4.45887 -7.3
    endloop
  endfacet
  facet normal 0 0 1
    outer loop
      vertex -5.35304 -5.94516 -7.3
      vertex -4.01478 -4.45887 -7.3
      vertex -4.8541 -3.52671 -7.3
    endloop
  endfacet
  facet normal 0.587785 0.809017 0
    outer loop
      vertex -5.35304 -5.94516 -7.3
      vertex -5.35304 -5.94516 0
      vertex -4 -6.9282 -7.3
    endloop
  endfacet
  facet normal 0.587785 0.809017 0
    outer loop
      vertex -5.35304 -5.94516 0
      vertex -4 -6.9282 0
      vertex -4 -6.9282 -7.3
    endloop
  endfacet
  facet normal 0.866025 0.5 0
    outer loop
      vertex -5.48127 -2.44042 -12.7
      vertex -4.8541 -3.52671 -7.3
      vertex -4.8541 -3.52671 -12.7
    endloop
  endfacet
  facet normal 0.866025 0.5 0
    outer loop
      vertex -5.48127 -2.44042 -12.7
      vertex -5.48127 -2.44042 -7.3
      vertex -4.8541 -3.52671 -7.3
    endloop
  endfacet
  facet normal 0.951055 0.309022 0
    outer loop
      vertex -5.86889 -1.24747 -12.7
      vertex -5.48127 -2.44042 -7.3
      vertex -5.48127 -2.44042 -12.7
    endloop
  endfacet
  facet normal 0.951055 0.309022 0
    outer loop
      vertex -5.86889 -1.24747 -12.7
      vertex -5.86889 -1.24747 -7.3
      vertex -5.48127 -2.44042 -7.3
    endloop
  endfacet
  facet normal 0.994522 0.104525 0
    outer loop
      vertex -6 0 -12.7
      vertex -5.86889 -1.24747 -7.3
      vertex -5.86889 -1.24747 -12.7
    endloop
  endfacet
  facet normal 0.994522 0.104525 0
    outer loop
      vertex -6 0 -12.7
      vertex -6 0 -7.3
      vertex -5.86889 -1.24747 -7.3
    endloop
  endfacet
  facet normal 0 0 -1
    outer loop
      vertex -6.47214 -4.70228 -12.7
      vertex -4.8541 -3.52671 -12.7
      vertex -5.35304 -5.94516 -12.7
    endloop
  endfacet
  facet normal 0 0 -1
    outer loop
      vertex -6.47214 -4.70228 -12.7
      vertex -5.48127 -2.44042 -12.7
      vertex -4.8541 -3.52671 -12.7
    endloop
  endfacet
  facet normal 0.743143 0.669133 0
    outer loop
      vertex -6.47214 -4.70228 -16
      vertex -5.35304 -5.94516 -12.7
      vertex -5.35304 -5.94516 -16
    endloop
  endfacet
  facet normal 0.743143 0.669133 0
    outer loop
      vertex -6.47214 -4.70228 -16
      vertex -6.47214 -4.70228 -12.7
      vertex -5.35304 -5.94516 -12.7
    endloop
  endfacet
  facet normal 0 0 1
    outer loop
      vertex -6.47214 -4.70228 -7.3
      vertex -4.8541 -3.52671 -7.3
      vertex -5.48127 -2.44042 -7.3
    endloop
  endfacet
  facet normal 0 0 1
    outer loop
      vertex -6.47214 -4.70228 -7.3
      vertex -5.35304 -5.94516 -7.3
      vertex -4.8541 -3.52671 -7.3
    endloop
  endfacet
  facet normal 0.743143 0.669133 0
    outer loop
      vertex -6.47214 -4.70228 -7.3
      vertex -5.35304 -5.94516 0
      vertex -5.35304 -5.94516 -7.3
    endloop
  endfacet
  facet normal 0.743143 0.669133 0
    outer loop
      vertex -6.47214 -4.70228 -7.3
      vertex -6.47214 -4.70228 0
      vertex -5.35304 -5.94516 0
    endloop
  endfacet
  facet normal 0 0 -1
    outer loop
      vertex -7.30836 -3.25389 -12.7
      vertex -5.48127 -2.44042 -12.7
      vertex -6.47214 -4.70228 -12.7
    endloop
  endfacet
  facet normal 0 0 -1
    outer loop
      vertex -7.30836 -3.25389 -12.7
      vertex -5.86889 -1.24747 -12.7
      vertex -5.48127 -2.44042 -12.7
    endloop
  endfacet
  facet normal 0.866028 0.499996 0
    outer loop
      vertex -7.30836 -3.25389 -16
      vertex -6.47214 -4.70228 -12.7
      vertex -6.47214 -4.70228 -16
    endloop
  endfacet
  facet normal 0.866028 0.499996 0
    outer loop
      vertex -7.30836 -3.25389 -16
      vertex -7.30836 -3.25389 -12.7
      vertex -6.47214 -4.70228 -12.7
    endloop
  endfacet
  facet normal 0 0 1
    outer loop
      vertex -7.30836 -3.25389 -7.3
      vertex -5.48127 -2.44042 -7.3
      vertex -5.86889 -1.24747 -7.3
    endloop
  endfacet
  facet normal 0 0 1
    outer loop
      vertex -7.30836 -3.25389 -7.3
      vertex -6.47214 -4.70228 -7.3
      vertex -5.48127 -2.44042 -7.3
    endloop
  endfacet
  facet normal 0.866028 0.499996 0
    outer loop
      vertex -7.30836 -3.25389 -7.3
      vertex -6.47214 -4.70228 0
      vertex -6.47214 -4.70228 -7.3
    endloop
  endfacet
  facet normal 0.866028 0.499996 0
    outer loop
      vertex -7.30836 -3.25389 -7.3
      vertex -7.30836 -3.25389 0
      vertex -6.47214 -4.70228 0
    endloop
  endfacet
  facet normal 0 0 -1
    outer loop
      vertex -7.82518 -1.66329 -12.7
      vertex -5.86889 -1.24747 -12.7
      vertex -7.30836 -3.25389 -12.7
    endloop
  endfacet
  facet normal 0 0 -1
    outer loop
      vertex -7.82518 -1.66329 -12.7
      vertex -6 0 -12.7
      vertex -5.86889 -1.24747 -12.7
    endloop
  endfacet
  facet normal 0.951056 0.309018 0
    outer loop
      vertex -7.82518 -1.66329 -16
      vertex -7.30836 -3.25389 -12.7
      vertex -7.30836 -3.25389 -16
    endloop
  endfacet
  facet normal 0.951056 0.309018 0
    outer loop
      vertex -7.82518 -1.66329 -16
      vertex -7.82518 -1.66329 -12.7
      vertex -7.30836 -3.25389 -12.7
    endloop
  endfacet
  facet normal 0 0 1
    outer loop
      vertex -7.82518 -1.66329 -7.3
      vertex -5.86889 -1.24747 -7.3
      vertex -6 0 -7.3
    endloop
  endfacet
  facet normal 0 0 1
    outer loop
      vertex -7.82518 -1.66329 -7.3
      vertex -7.30836 -3.25389 -7.3
      vertex -5.86889 -1.24747 -7.3
    endloop
  endfacet
  facet normal 0.951056 0.309018 0
    outer loop
      vertex -7.82518 -1.66329 -7.3
      vertex -7.30836 -3.25389 0
      vertex -7.30836 -3.25389 -7.3
    endloop
  endfacet
  facet normal 0.951056 0.309018 0
    outer loop
      vertex -7.82518 -1.66329 -7.3
      vertex -7.82518 -1.66329 0
      vertex -7.30836 -3.25389 0
    endloop
  endfacet
  facet normal 0 0 -1
    outer loop
      vertex -8 0 -12.7
      vertex -6 0 -12.7
      vertex -7.82518 -1.66329 -12.7
    endloop
  endfacet
  facet normal 0.994522 0.104529 0
    outer loop
      vertex -8 0 -16
      vertex -7.82518 -1.66329 -12.7
      vertex -7.82518 -1.66329 -16
    endloop
  endfacet
  facet normal 0.994522 0.104529 0
    outer loop
      vertex -8 0 -16
      vertex -8 0 -12.7
      vertex -7.82518 -1.66329 -12.7
    endloop
  endfacet
  facet normal 0 0 1
    outer loop
      vertex -8 0 -7.3
      vertex -7.82518 -1.66329 -7.3
      vertex -6 0 -7.3
    endloop
  endfacet
  facet normal 0.994522 0.104529 0
    outer loop
      vertex -8 0 -7.3
      vertex -7.82518 -1.66329 0
      vertex -7.82518 -1.66329 -7.3
    endloop
  endfacet
  facet normal 0.994522 0.104529 0
    outer loop
      vertex -8 0 -7.3
      vertex -8 0 0
      vertex -7.82518 -1.66329 0
    endloop
  endfacet
  facet normal 0 -1 0
    outer loop
      vertex -8.35 -13 -10
      vertex 8.35 -13 -10
      vertex 8.40622 -13 -9.57295
    endloop
  endfacet
  facet normal 0 1 0
    outer loop
      vertex -8.35 0 -10
      vertex -6 0 -7.3
      vertex -6 0 -12.7
    endloop
  endfacet
  facet normal -0.991447 0 0.130506
    outer loop
      vertex -8.40622 -13 -10.4271
      vertex -8.35 -13 -10
      vertex -8.35 0 -10
    endloop
  endfacet
  facet normal -0.991447 0 0.130506
    outer loop
      vertex -8.40622 -13 -10.4271
      vertex -8.35 0 -10
      vertex -8.40622 0 -10.4271
    endloop
  endfacet
  facet normal 0 -1 0
    outer loop
      vertex -8.40622 -13 -10.4271
      vertex 8.35 -13 -10
      vertex -8.35 -13 -10
    endloop
  endfacet
  facet normal 0 -1 0
    outer loop
      vertex -8.40622 -13 -10.4271
      vertex 8.40622 -13 -10.4271
      vertex 8.35 -13 -10
    endloop
  endfacet
  facet normal 0 -1 0
    outer loop
      vertex -8.40622 -13 -9.57295
      vertex -8.35 -13 -10
      vertex 8.40622 -13 -9.57295
    endloop
  endfacet
  facet normal -0.991446 0 -0.130521
    outer loop
      vertex -8.40622 -13 -9.57295
      vertex -8.40622 0 -9.57295
      vertex -8.35 -13 -10
    endloop
  endfacet
  facet normal 0 -1 0
    outer loop
      vertex -8.40622 -13 -9.57295
      vertex 8.40622 -13 -9.57295
      vertex 8.57106 -13 -9.175
    endloop
  endfacet
  facet normal 0 1 0
    outer loop
      vertex -8.40622 0 -10.4271
      vertex -8.35 0 -10
      vertex -6 0 -12.7
    endloop
  endfacet
  facet normal 0 1 0
    outer loop
      vertex -8.40622 0 -9.57295
      vertex -6 0 -7.3
      vertex -8.35 0 -10
    endloop
  endfacet
  facet normal -0.991446 0 -0.130521
    outer loop
      vertex -8.40622 0 -9.57295
      vertex -8.35 0 -10
      vertex -8.35 -13 -10
    endloop
  endfacet
  facet normal -0.923859 0 0.382732
    outer loop
      vertex -8.57106 -13 -10.825
      vertex -8.40622 -13 -10.4271
      vertex -8.40622 0 -10.4271
    endloop
  endfacet
  facet normal -0.923859 0 0.382732
    outer loop
      vertex -8.57106 -13 -10.825
      vertex -8.40622 0 -10.4271
      vertex -8.57106 0 -10.825
    endloop
  endfacet
  facet normal 0 -1 0
    outer loop
      vertex -8.57106 -13 -10.825
      vertex 8.40622 -13 -10.4271
      vertex -8.40622 -13 -10.4271
    endloop
  endfacet
  facet normal 0 -1 0
    outer loop
      vertex -8.57106 -13 -10.825
      vertex 8.57106 -13 -10.825
      vertex 8.40622 -13 -10.4271
    endloop
  endfacet
  facet normal 0 -1 0
    outer loop
      vertex -8.57106 -13 -9.175
      vertex -8.40622 -13 -9.57295
      vertex 8.57106 -13 -9.175
    endloop
  endfacet
  facet normal -0.923876 0 -0.382691
    outer loop
      vertex -8.57106 -13 -9.175
      vertex -8.57106 0 -9.175
      vertex -8.40622 -13 -9.57295
    endloop
  endfacet
  facet normal 0 -1 0
    outer loop
      vertex -8.57106 -13 -9.175
      vertex 8.57106 -13 -9.175
      vertex 10 -13 0
    endloop
  endfacet
  facet normal 0 1 0
    outer loop
      vertex -8.57106 0 -10.825
      vertex -6 0 -12.7
      vertex -8 0 -12.7
    endloop
  endfacet
  facet normal 0 1 0
    outer loop
      vertex -8.57106 0 -10.825
      vertex -8.40622 0 -10.4271
      vertex -6 0 -12.7
    endloop
  endfacet
  facet normal 0 1 0
    outer loop
      vertex -8.57106 0 -9.175
      vertex -6 0 -7.3
      vertex -8.40622 0 -9.57295
    endloop
  endfacet
  facet normal 0 1 0
    outer loop
      vertex -8.57106 0 -9.175
      vertex -8 0 -7.3
      vertex -6 0 -7.3
    endloop
  endfacet
  facet normal -0.923876 0 -0.382691
    outer loop
      vertex -8.57106 0 -9.175
      vertex -8.40622 0 -9.57295
      vertex -8.40622 -13 -9.57295
    endloop
  endfacet
  facet normal -0.793337 0 0.608782
    outer loop
      vertex -8.83327 -13 -11.1667
      vertex -8.57106 -13 -10.825
      vertex -8.57106 0 -10.825
    endloop
  endfacet
  facet normal -0.793337 0 0.608782
    outer loop
      vertex -8.83327 -13 -11.1667
      vertex -8.57106 0 -10.825
      vertex -8.83327 0 -11.1667
    endloop
  endfacet
  facet normal -0.793363 0 -0.608749
    outer loop
      vertex -8.83327 -13 -8.83327
      vertex -8.83327 0 -8.83327
      vertex -8.57106 -13 -9.175
    endloop
  endfacet
  facet normal 0 1 0
    outer loop
      vertex -8.83327 0 -11.1667
      vertex -8.57106 0 -10.825
      vertex -8 0 -12.7
    endloop
  endfacet
  facet normal 0 1 0
    outer loop
      vertex -8.83327 0 -8.83327
      vertex -8 0 -7.3
      vertex -8.57106 0 -9.175
    endloop
  endfacet
  facet normal -0.793363 0 -0.608749
    outer loop
      vertex -8.83327 0 -8.83327
      vertex -8.57106 0 -9.175
      vertex -8.57106 -13 -9.175
    endloop
  endfacet
  facet normal -0.608734 0 0.793374
    outer loop
      vertex -9.175 -13 -11.4289
      vertex -8.83327 -13 -11.1667
      vertex -9.175 0 -11.4289
    endloop
  endfacet
  facet normal -0.608749 0 -0.793363
    outer loop
      vertex -9.175 -13 -8.57106
      vertex -8.83327 0 -8.83327
      vertex -8.83327 -13 -8.83327
    endloop
  endfacet
  facet normal -0.608749 0 -0.793363
    outer loop
      vertex -9.175 -13 -8.57106
      vertex -9.175 0 -8.57106
      vertex -8.83327 0 -8.83327
    endloop
  endfacet
  facet normal -0.608734 0 0.793374
    outer loop
      vertex -9.175 0 -11.4289
      vertex -8.83327 -13 -11.1667
      vertex -8.83327 0 -11.1667
    endloop
  endfacet
  facet normal 0 1 0
    outer loop
      vertex -9.175 0 -11.4289
      vertex -8.83327 0 -11.1667
      vertex -8 0 -12.7
    endloop
  endfacet
  facet normal 0 1 0
    outer loop
      vertex -9.175 0 -8.57106
      vertex -8 0 -7.3
      vertex -8.83327 0 -8.83327
    endloop
  endfacet
  facet normal -0.38281 0 0.923827
    outer loop
      vertex -9.57295 -13 -11.5938
      vertex -9.175 -13 -11.4289
      vertex -9.57295 0 -11.5938
    endloop
  endfacet
  facet normal -0.382691 0 -0.923876
    outer loop
      vertex -9.57295 -13 -8.40622
      vertex -9.175 0 -8.57106
      vertex -9.175 -13 -8.57106
    endloop
  endfacet
  facet normal -0.382691 0 -0.923876
    outer loop
      vertex -9.57295 -13 -8.40622
      vertex -9.57295 0 -8.40622
      vertex -9.175 0 -8.57106
    endloop
  endfacet
  facet normal -0.38281 0 0.923827
    outer loop
      vertex -9.57295 0 -11.5938
      vertex -9.175 -13 -11.4289
      vertex -9.175 0 -11.4289
    endloop
  endfacet
  facet normal 0 1 0
    outer loop
      vertex -9.57295 0 -11.5938
      vertex -9.175 0 -11.4289
      vertex -8 0 -12.7
    endloop
  endfacet
  facet normal 0 1 0
    outer loop
      vertex -9.57295 0 -8.40622
      vertex -8 0 -7.3
      vertex -9.175 0 -8.57106
    endloop
  endfacet
  facet normal -0.20791 0.978148 0
    outer loop
      vertex 0.627171 -5.96713 -12.7
      vertex 0.627171 -5.96713 -7.3
      vertex 1.8541 -5.70634 -12.7
    endloop
  endfacet
  facet normal 0 0 -1
    outer loop
      vertex 0.627171 -5.96713 -12.7
      vertex 1.8541 -5.70634 -12.7
      vertex 0.836227 -7.95617 -12.7
    endloop
  endfacet
  facet normal 0 0 1
    outer loop
      vertex 0.627171 -5.96713 -7.3
      vertex 0.836227 -7.95617 -7.3
      vertex 1.8541 -5.70634 -7.3
    endloop
  endfacet
  facet normal -0.20791 0.978148 0
    outer loop
      vertex 0.627171 -5.96713 -7.3
      vertex 1.8541 -5.70634 -7.3
      vertex 1.8541 -5.70634 -12.7
    endloop
  endfacet
  facet normal 0 0 -1
    outer loop
      vertex 0.836227 -7.95617 -12.7
      vertex 1.8541 -5.70634 -12.7
      vertex 2.47214 -7.60845 -12.7
    endloop
  endfacet
  facet normal -0.207909 0.978148 0
    outer loop
      vertex 0.836227 -7.95617 -12.7
      vertex 2.47214 -7.60845 -12.7
      vertex 2.47214 -7.60845 -16
    endloop
  endfacet
  facet normal -0.207909 0.978148 0
    outer loop
      vertex 0.836227 -7.95617 -16
      vertex 0.836227 -7.95617 -12.7
      vertex 2.47214 -7.60845 -16
    endloop
  endfacet
  facet normal 0 0 -1
    outer loop
      vertex 0.836227 -7.95617 -16
      vertex 2.47214 -7.60845 -16
      vertex 10 -13 -16
    endloop
  endfacet
  facet normal -0.207909 0.978148 0
    outer loop
      vertex 0.836227 -7.95617 -7.3
      vertex 0.836227 -7.95617 0
      vertex 2.47214 -7.60845 -7.3
    endloop
  endfacet
  facet normal 0 0 1
    outer loop
      vertex 0.836227 -7.95617 -7.3
      vertex 2.47214 -7.60845 -7.3
      vertex 1.8541 -5.70634 -7.3
    endloop
  endfacet
  facet normal 0 0 1
    outer loop
      vertex 0.836227 -7.95617 0
      vertex 10 -13 0
      vertex 2.47214 -7.60845 0
    endloop
  endfacet
  facet normal -0.207909 0.978148 0
    outer loop
      vertex 0.836227 -7.95617 0
      vertex 2.47214 -7.60845 0
      vertex 2.47214 -7.60845 -7.3
    endloop
  endfacet
  facet normal -0.406738 0.913545 0
    outer loop
      vertex 1.8541 -5.70634 -12.7
      vertex 1.8541 -5.70634 -7.3
      vertex 3 -5.19615 -12.7
    endloop
  endfacet
  facet normal 0 0 -1
    outer loop
      vertex 1.8541 -5.70634 -12.7
      vertex 3 -5.19615 -12.7
      vertex 2.47214 -7.60845 -12.7
    endloop
  endfacet
  facet normal 0 0 1
    outer loop
      vertex 1.8541 -5.70634 -7.3
      vertex 2.47214 -7.60845 -7.3
      vertex 3 -5.19615 -7.3
    endloop
  endfacet
  facet normal -0.406738 0.913545 0
    outer loop
      vertex 1.8541 -5.70634 -7.3
      vertex 3 -5.19615 -7.3
      vertex 3 -5.19615 -12.7
    endloop
  endfacet
  facet normal -0.130461 0 0.991454
    outer loop
      vertex 10 -13 -11.65
      vertex 10.4271 -13 -11.5938
      vertex 10 0 -11.65
    endloop
  endfacet
  facet normal 0 -1 0
    outer loop
      vertex 10 -13 -11.65
      vertex 10.7506 -13 -15.9012
      vertex 11.45 -13 -15.6115
    endloop
  endfacet
  facet normal 0 -1 0
    outer loop
      vertex 10 -13 -11.65
      vertex 11.45 -13 -15.6115
      vertex 12.0506 -13 -15.1506
    endloop
  endfacet
  facet normal 0 -1 0
    outer loop
      vertex 10 -13 -11.65
      vertex 12.0506 -13 -15.1506
      vertex 10.4271 -13 -11.5938
    endloop
  endfacet
  facet normal 0.130502 0 -0.991448
    outer loop
      vertex 10 -13 -16
      vertex 10 0 -16
      vertex 10.7506 0 -15.9012
    endloop
  endfacet
  facet normal 0 -1 0
    outer loop
      vertex 10 -13 -16
      vertex 10.7506 -13 -15.9012
      vertex 10 -13 -11.65
    endloop
  endfacet
  facet normal 0.130502 0 -0.991448
    outer loop
      vertex 10 -13 -16
      vertex 10.7506 0 -15.9012
      vertex 10.7506 -13 -15.9012
    endloop
  endfacet
  facet normal -0.130506 0 -0.991447
    outer loop
      vertex 10 -13 -8.35
      vertex 10 0 -8.35
      vertex 10.4271 0 -8.40622
    endloop
  endfacet
  facet normal 0 -1 0
    outer loop
      vertex 10 -13 -8.35
      vertex 10.4271 -13 -8.40622
      vertex 12.9 -13 -2.9
    endloop
  endfacet
  facet normal -0.130506 0 -0.991447
    outer loop
      vertex 10 -13 -8.35
      vertex 10.4271 0 -8.40622
      vertex 10.4271 -13 -8.40622
    endloop
  endfacet
  facet normal 0 -1 0
    outer loop
      vertex 10 -13 -8.35
      vertex 12.9 -13 -2.9
      vertex 10 -13 0
    endloop
  endfacet
  facet normal 0.130522 0 0.991445
    outer loop
      vertex 10 -13 0
      vertex 10.7506 -13 -0.098815
      vertex 10 0 0
    endloop
  endfacet
  facet normal 0 -1 0
    outer loop
      vertex 10 -13 0
      vertex 12.9 -13 -2.9
      vertex 10.7506 -13 -0.098815
    endloop
  endfacet
  facet normal -0.130461 0 0.991454
    outer loop
      vertex 10 0 -11.65
      vertex 10.4271 -13 -11.5938
      vertex 10.4271 0 -11.5938
    endloop
  endfacet
  facet normal 0 1 0
    outer loop
      vertex 10 0 -11.65
      vertex 10.4271 0 -11.5938
      vertex 11.45 0 -15.6115
    endloop
  endfacet
  facet normal 0 1 0
    outer loop
      vertex 10 0 -11.65
      vertex 11.45 0 -15.6115
      vertex 10.7506 0 -15.9012
    endloop
  endfacet
  facet normal 0 1 0
    outer loop
      vertex 10 0 -16
      vertex 10 0 -11.65
      vertex 10.7506 0 -15.9012
    endloop
  endfacet
  facet normal 0 1 0
    outer loop
      vertex 10 0 -8.35
      vertex 12.9 0 -2.9
      vertex 10.4271 0 -8.40622
    endloop
  endfacet
  facet normal 0.130522 0 0.991445
    outer loop
      vertex 10 0 0
      vertex 10.7506 -13 -0.098815
      vertex 10.7506 0 -0.098815
    endloop
  endfacet
  facet normal 0 1 0
    outer loop
      vertex 10 0 0
      vertex 10.7506 0 -0.098815
      vertex 12.9 0 -2.9
    endloop
  endfacet
  facet normal -0.382851 0 0.92381
    outer loop
      vertex 10.4271 -13 -11.5938
      vertex 10.825 -13 -11.4289
      vertex 10.4271 0 -11.5938
    endloop
  endfacet
  facet normal 0 -1 0
    outer loop
      vertex 10.4271 -13 -11.5938
      vertex 12.0506 -13 -15.1506
      vertex 12.5115 -13 -14.55
    endloop
  endfacet
  facet normal 0 -1 0
    outer loop
      vertex 10.4271 -13 -11.5938
      vertex 12.5115 -13 -14.55
      vertex 12.8012 -13 -13.8506
    endloop
  endfacet
  facet normal 0 -1 0
    outer loop
      vertex 10.4271 -13 -11.5938
      vertex 12.8012 -13 -13.8506
      vertex 12.9 -13 -13.1
    endloop
  endfacet
  facet normal 0 -1 0
    outer loop
      vertex 10.4271 -13 -11.5938
      vertex 12.9 -13 -13.1
      vertex 10.825 -13 -11.4289
    endloop
  endfacet
  facet normal -0.382732 0 -0.923859
    outer loop
      vertex 10.4271 -13 -8.40622
      vertex 10.4271 0 -8.40622
      vertex 10.825 0 -8.57106
    endloop
  endfacet
  facet normal 0 -1 0
    outer loop
      vertex 10.4271 -13 -8.40622
      vertex 10.825 -13 -8.57106
      vertex 12.9 -13 -2.9
    endloop
  endfacet
  facet normal -0.382732 0 -0.923859
    outer loop
      vertex 10.4271 -13 -8.40622
      vertex 10.825 0 -8.57106
      vertex 10.825 -13 -8.57106
    endloop
  endfacet
  facet normal -0.382851 0 0.92381
    outer loop
      vertex 10.4271 0 -11.5938
      vertex 10.825 -13 -11.4289
      vertex 10.825 0 -11.4289
    endloop
  endfacet
  facet normal 0 1 0
    outer loop
      vertex 10.4271 0 -11.5938
      vertex 10.825 0 -11.4289
      vertex 12.9 0 -13.1
    endloop
  endfacet
  facet normal 0 1 0
    outer loop
      vertex 10.4271 0 -11.5938
      vertex 12.0506 0 -15.1506
      vertex 11.45 0 -15.6115
    endloop
  endfacet
  facet normal 0 1 0
    outer loop
      vertex 10.4271 0 -11.5938
      vertex 12.5115 0 -14.55
      vertex 12.0506 0 -15.1506
    endloop
  endfacet
  facet normal 0 1 0
    outer loop
      vertex 10.4271 0 -11.5938
      vertex 12.8012 0 -13.8506
      vertex 12.5115 0 -14.55
    endloop
  endfacet
  facet normal 0 1 0
    outer loop
      vertex 10.4271 0 -11.5938
      vertex 12.9 0 -13.1
      vertex 12.8012 0 -13.8506
    endloop
  endfacet
  facet normal 0 1 0
    outer loop
      vertex 10.4271 0 -8.40622
      vertex 12.9 0 -2.9
      vertex 10.825 0 -8.57106
    endloop
  endfacet
  facet normal 0.382695 0 0.923875
    outer loop
      vertex 10.7506 -13 -0.098815
      vertex 11.45 -13 -0.388526
      vertex 10.7506 0 -0.098815
    endloop
  endfacet
  facet normal 0 -1 0
    outer loop
      vertex 10.7506 -13 -0.098815
      vertex 12.9 -13 -2.9
      vertex 11.45 -13 -0.388526
    endloop
  endfacet
  facet normal 0.382682 0 -0.92388
    outer loop
      vertex 10.7506 -13 -15.9012
      vertex 10.7506 0 -15.9012
      vertex 11.45 0 -15.6115
    endloop
  endfacet
  facet normal 0.382682 0 -0.92388
    outer loop
      vertex 10.7506 -13 -15.9012
      vertex 11.45 0 -15.6115
      vertex 11.45 -13 -15.6115
    endloop
  endfacet
  facet normal 0.382695 0 0.923875
    outer loop
      vertex 10.7506 0 -0.098815
      vertex 11.45 -13 -0.388526
      vertex 11.45 0 -0.388526
    endloop
  endfacet
  facet normal 0 1 0
    outer loop
      vertex 10.7506 0 -0.098815
      vertex 11.45 0 -0.388526
      vertex 12.9 0 -2.9
    endloop
  endfacet
  facet normal -0.608768 0 0.793348
    outer loop
      vertex 10.825 -13 -11.4289
      vertex 11.1667 -13 -11.1667
      vertex 10.825 0 -11.4289
    endloop
  endfacet
  facet normal 0 -1 0
    outer loop
      vertex 10.825 -13 -11.4289
      vertex 12.9 -13 -13.1
      vertex 11.1667 -13 -11.1667
    endloop
  endfacet
  facet normal -0.608782 0 -0.793337
    outer loop
      vertex 10.825 -13 -8.57106
      vertex 10.825 0 -8.57106
      vertex 11.1667 0 -8.83327
    endloop
  endfacet
  facet normal 0 -1 0
    outer loop
      vertex 10.825 -13 -8.57106
      vertex 11.1667 -13 -8.83327
      vertex 12.9 -13 -2.9
    endloop
  endfacet
  facet normal -0.608782 0 -0.793337
    outer loop
      vertex 10.825 -13 -8.57106
      vertex 11.1667 0 -8.83327
      vertex 11.1667 -13 -8.83327
    endloop
  endfacet
  facet normal -0.608768 0 0.793348
    outer loop
      vertex 10.825 0 -11.4289
      vertex 11.1667 -13 -11.1667
      vertex 11.1667 0 -11.1667
    endloop
  endfacet
  facet normal 0 1 0
    outer loop
      vertex 10.825 0 -11.4289
      vertex 11.1667 0 -11.1667
      vertex 12.9 0 -13.1
    endloop
  endfacet
  facet normal 0 1 0
    outer loop
      vertex 10.825 0 -8.57106
      vertex 12.9 0 -2.9
      vertex 11.1667 0 -8.83327
    endloop
  endfacet
  facet normal -0.793348 0 0.608768
    outer loop
      vertex 11.1667 -13 -11.1667
      vertex 11.4289 -13 -10.825
      vertex 11.4289 0 -10.825
    endloop
  endfacet
  facet normal -0.793348 0 0.608768
    outer loop
      vertex 11.1667 -13 -11.1667
      vertex 11.4289 0 -10.825
      vertex 11.1667 0 -11.1667
    endloop
  endfacet
  facet normal 0 -1 0
    outer loop
      vertex 11.1667 -13 -11.1667
      vertex 12.9 -13 -13.1
      vertex 11.4289 -13 -10.825
    endloop
  endfacet
  facet normal -0.793374 0 -0.608734
    outer loop
      vertex 11.1667 -13 -8.83327
      vertex 11.1667 0 -8.83327
      vertex 11.4289 -13 -9.175
    endloop
  endfacet
  facet normal 0 -1 0
    outer loop
      vertex 11.1667 -13 -8.83327
      vertex 11.4289 -13 -9.175
      vertex 12.9 -13 -2.9
    endloop
  endfacet
  facet normal 0 1 0
    outer loop
      vertex 11.1667 0 -11.1667
      vertex 11.4289 0 -10.825
      vertex 12.9 0 -13.1
    endloop
  endfacet
  facet normal -0.793374 0 -0.608734
    outer loop
      vertex 11.1667 0 -8.83327
      vertex 11.4289 0 -9.175
      vertex 11.4289 -13 -9.175
    endloop
  endfacet
  facet normal 0 1 0
    outer loop
      vertex 11.1667 0 -8.83327
      vertex 12.9 0 -2.9
      vertex 11.4289 0 -9.175
    endloop
  endfacet
  facet normal -0.92381 0 0.382851
    outer loop
      vertex 11.4289 -13 -10.825
      vertex 11.5938 -13 -10.4271
      vertex 11.5938 0 -10.4271
    endloop
  endfacet
  facet normal -0.92381 0 0.382851
    outer loop
      vertex 11.4289 -13 -10.825
      vertex 11.5938 0 -10.4271
      vertex 11.4289 0 -10.825
    endloop
  endfacet
  facet normal 0 -1 0
    outer loop
      vertex 11.4289 -13 -10.825
      vertex 12.9 -13 -13.1
      vertex 11.5938 -13 -10.4271
    endloop
  endfacet
  facet normal -0.923827 0 -0.38281
    outer loop
      vertex 11.4289 -13 -9.175
      vertex 11.4289 0 -9.175
      vertex 11.5938 -13 -9.57295
    endloop
  endfacet
  facet normal 0 -1 0
    outer loop
      vertex 11.4289 -13 -9.175
      vertex 11.5938 -13 -9.57295
      vertex 12.9 -13 -2.9
    endloop
  endfacet
  facet normal 0 1 0
    outer loop
      vertex 11.4289 0 -10.825
      vertex 11.5938 0 -10.4271
      vertex 12.9 0 -13.1
    endloop
  endfacet
  facet normal -0.923827 0 -0.38281
    outer loop
      vertex 11.4289 0 -9.175
      vertex 11.5938 0 -9.57295
      vertex 11.5938 -13 -9.57295
    endloop
  endfacet
  facet normal 0 1 0
    outer loop
      vertex 11.4289 0 -9.175
      vertex 12.9 0 -2.9
      vertex 11.5938 0 -9.57295
    endloop
  endfacet
  facet normal 0.608768 0 0.793349
    outer loop
      vertex 11.45 -13 -0.388526
      vertex 12.0506 -13 -0.84939
      vertex 11.45 0 -0.388526
    endloop
  endfacet
  facet normal 0 -1 0
    outer loop
      vertex 11.45 -13 -0.388526
      vertex 12.9 -13 -2.9
      vertex 12.0506 -13 -0.84939
    endloop
  endfacet
  facet normal 0.608798 0 -0.793326
    outer loop
      vertex 11.45 -13 -15.6115
      vertex 11.45 0 -15.6115
      vertex 12.0506 0 -15.1506
    endloop
  endfacet
  facet normal 0.608798 0 -0.793326
    outer loop
      vertex 11.45 -13 -15.6115
      vertex 12.0506 0 -15.1506
      vertex 12.0506 -13 -15.1506
    endloop
  endfacet
  facet normal 0.608768 0 0.793349
    outer loop
      vertex 11.45 0 -0.388526
      vertex 12.0506 -13 -0.84939
      vertex 12.0506 0 -0.84939
    endloop
  endfacet
  facet normal 0 1 0
    outer loop
      vertex 11.45 0 -0.388526
      vertex 12.0506 0 -0.84939
      vertex 12.9 0 -2.9
    endloop
  endfacet
  facet normal -0.991454 0 0.130461
    outer loop
      vertex 11.5938 -13 -10.4271
      vertex 11.65 -13 -10
      vertex 11.65 0 -10
    endloop
  endfacet
  facet normal -0.991454 0 0.130461
    outer loop
      vertex 11.5938 -13 -10.4271
      vertex 11.65 0 -10
      vertex 11.5938 0 -10.4271
    endloop
  endfacet
  facet normal 0 -1 0
    outer loop
      vertex 11.5938 -13 -10.4271
      vertex 12.9 -13 -13.1
      vertex 11.65 -13 -10
    endloop
  endfacet
  facet normal -0.991452 0 -0.130476
    outer loop
      vertex 11.5938 -13 -9.57295
      vertex 11.5938 0 -9.57295
      vertex 11.65 -13 -10
    endloop
  endfacet
  facet normal 0 -1 0
    outer loop
      vertex 11.5938 -13 -9.57295
      vertex 11.65 -13 -10
      vertex 12.9 -13 -13.1
    endloop
  endfacet
  facet normal 0 -1 0
    outer loop
      vertex 11.5938 -13 -9.57295
      vertex 12.9 -13 -13.1
      vertex 12.9 -13 -2.9
    endloop
  endfacet
  facet normal 0 1 0
    outer loop
      vertex 11.5938 0 -10.4271
      vertex 11.65 0 -10
      vertex 12.9 0 -13.1
    endloop
  endfacet
  facet normal -0.991452 0 -0.130476
    outer loop
      vertex 11.5938 0 -9.57295
      vertex 11.65 0 -10
      vertex 11.65 -13 -10
    endloop
  endfacet
  facet normal 0 1 0
    outer loop
      vertex 11.5938 0 -9.57295
      vertex 12.9 0 -13.1
      vertex 11.65 0 -10
    endloop
  endfacet
  facet normal 0 1 0
    outer loop
      vertex 11.5938 0 -9.57295
      vertex 12.9 0 -2.9
      vertex 12.9 0 -13.1
    endloop
  endfacet
  facet normal 0.793331 0 0.608791
    outer loop
      vertex 12.0506 -13 -0.84939
      vertex 12.5115 -13 -1.45
      vertex 12.5115 0 -1.45
    endloop
  endfacet
  facet normal 0.793331 0 0.608791
    outer loop
      vertex 12.0506 -13 -0.84939
      vertex 12.5115 0 -1.45
      vertex 12.0506 0 -0.84939
    endloop
  endfacet
  facet normal 0 -1 0
    outer loop
      vertex 12.0506 -13 -0.84939
      vertex 12.9 -13 -2.9
      vertex 12.5115 -13 -1.45
    endloop
  endfacet
  facet normal 0.793326 0 -0.608798
    outer loop
      vertex 12.0506 -13 -15.1506
      vertex 12.0506 0 -15.1506
      vertex 12.5115 -13 -14.55
    endloop
  endfacet
  facet normal 0 1 0
    outer loop
      vertex 12.0506 0 -0.84939
      vertex 12.5115 0 -1.45
      vertex 12.9 0 -2.9
    endloop
  endfacet
  facet normal 0.793326 0 -0.608798
    outer loop
      vertex 12.0506 0 -15.1506
      vertex 12.5115 0 -14.55
      vertex 12.5115 -13 -14.55
    endloop
  endfacet
  facet normal 0.923884 0 0.382673
    outer loop
      vertex 12.5115 -13 -1.45
      vertex 12.8012 -13 -2.14942
      vertex 12.8012 0 -2.14942
    endloop
  endfacet
  facet normal 0.923884 0 0.382673
    outer loop
      vertex 12.5115 -13 -1.45
      vertex 12.8012 0 -2.14942
      vertex 12.5115 0 -1.45
    endloop
  endfacet
  facet normal 0 -1 0
    outer loop
      vertex 12.5115 -13 -1.45
      vertex 12.9 -13 -2.9
      vertex 12.8012 -13 -2.14942
    endloop
  endfacet
  facet normal 0.92388 0 -0.382682
    outer loop
      vertex 12.5115 -13 -14.55
      vertex 12.5115 0 -14.55
      vertex 12.8012 -13 -13.8506
    endloop
  endfacet
  facet normal 0 1 0
    outer loop
      vertex 12.5115 0 -1.45
      vertex 12.8012 0 -2.14942
      vertex 12.9 0 -2.9
    endloop
  endfacet
  facet normal 0.92388 0 -0.382682
    outer loop
      vertex 12.5115 0 -14.55
      vertex 12.8012 0 -13.8506
      vertex 12.8012 -13 -13.8506
    endloop
  endfacet
  facet normal 0.991448 0 -0.130502
    outer loop
      vertex 12.8012 -13 -13.8506
      vertex 12.8012 0 -13.8506
      vertex 12.9 -13 -13.1
    endloop
  endfacet
  facet normal 0.991448 0 0.130506
    outer loop
      vertex 12.8012 -13 -2.14942
      vertex 12.9 -13 -2.9
      vertex 12.9 0 -2.9
    endloop
  endfacet
  facet normal 0.991448 0 0.130506
    outer loop
      vertex 12.8012 -13 -2.14942
      vertex 12.9 0 -2.9
      vertex 12.8012 0 -2.14942
    endloop
  endfacet
  facet normal 0.991448 0 -0.130502
    outer loop
      vertex 12.8012 0 -13.8506
      vertex 12.9 0 -13.1
      vertex 12.9 -13 -13.1
    endloop
  endfacet
  facet normal 1 0 0
    outer loop
      vertex 12.9 -13 -13.1
      vertex 12.9 0 -13.1
      vertex 12.9 -13 -2.9
    endloop
  endfacet
  facet normal 1 0 0
    outer loop
      vertex 12.9 -13 -2.9
      vertex 12.9 0 -13.1
      vertex 12.9 0 -2.9
    endloop
  endfacet
  facet normal 0 0 -1
    outer loop
      vertex 2.47214 -7.60845 -12.7
      vertex 3 -5.19615 -12.7
      vertex 4 -6.9282 -12.7
    endloop
  endfacet
  facet normal -0.406738 0.913545 0
    outer loop
      vertex 2.47214 -7.60845 -12.7
      vertex 4 -6.9282 -12.7
      vertex 4 -6.9282 -16
    endloop
  endfacet
  facet normal -0.406738 0.913545 0
    outer loop
      vertex 2.47214 -7.60845 -16
      vertex 2.47214 -7.60845 -12.7
      vertex 4 -6.9282 -16
    endloop
  endfacet
  facet normal 0 0 -1
    outer loop
      vertex 2.47214 -7.60845 -16
      vertex 4 -6.9282 -16
      vertex 10 -13 -16
    endloop
  endfacet
  facet normal -0.406738 0.913545 0
    outer loop
      vertex 2.47214 -7.60845 -7.3
      vertex 2.47214 -7.60845 0
      vertex 4 -6.9282 -7.3
    endloop
  endfacet
  facet normal 0 0 1
    outer loop
      vertex 2.47214 -7.60845 -7.3
      vertex 4 -6.9282 -7.3
      vertex 3 -5.19615 -7.3
    endloop
  endfacet
  facet normal 0 0 1
    outer loop
      vertex 2.47214 -7.60845 0
      vertex 10 -13 0
      vertex 4 -6.9282 0
    endloop
  endfacet
  facet normal -0.406738 0.913545 0
    outer loop
      vertex 2.47214 -7.60845 0
      vertex 4 -6.9282 0
      vertex 4 -6.9282 -7.3
    endloop
  endfacet
  facet normal -0.587785 0.809017 0
    outer loop
      vertex 3 -5.19615 -12.7
      vertex 3 -5.19615 -7.3
      vertex 4.01478 -4.45887 -12.7
    endloop
  endfacet
  facet normal 0 0 -1
    outer loop
      vertex 3 -5.19615 -12.7
      vertex 4.01478 -4.45887 -12.7
      vertex 4 -6.9282 -12.7
    endloop
  endfacet
  facet normal 0 0 1
    outer loop
      vertex 3 -5.19615 -7.3
      vertex 4 -6.9282 -7.3
      vertex 4.01478 -4.45887 -7.3
    endloop
  endfacet
  facet normal -0.587785 0.809017 0
    outer loop
      vertex 3 -5.19615 -7.3
      vertex 4.01478 -4.45887 -7.3
      vertex 4.01478 -4.45887 -12.7
    endloop
  endfacet
  facet normal 0 0 -1
    outer loop
      vertex 4 -6.9282 -12.7
      vertex 4.01478 -4.45887 -12.7
      vertex 5.35304 -5.94516 -12.7
    endloop
  endfacet
  facet normal -0.587785 0.809017 0
    outer loop
      vertex 4 -6.9282 -12.7
      vertex 5.35304 -5.94516 -12.7
      vertex 5.35304 -5.94516 -16
    endloop
  endfacet
  facet normal -0.587785 0.809017 0
    outer loop
      vertex 4 -6.9282 -16
      vertex 4 -6.9282 -12.7
      vertex 5.35304 -5.94516 -16
    endloop
  endfacet
  facet normal 0 0 -1
    outer loop
      vertex 4 -6.9282 -16
      vertex 5.35304 -5.94516 -16
      vertex 10 -13 -16
    endloop
  endfacet
  facet normal -0.587785 0.809017 0
    outer loop
      vertex 4 -6.9282 -7.3
      vertex 4 -6.9282 0
      vertex 5.35304 -5.94516 -7.3
    endloop
  endfacet
  facet normal 0 0 1
    outer loop
      vertex 4 -6.9282 -7.3
      vertex 5.35304 -5.94516 -7.3
      vertex 4.01478 -4.45887 -7.3
    endloop
  endfacet
  facet normal 0 0 1
    outer loop
      vertex 4 -6.9282 0
      vertex 10 -13 0
      vertex 5.35304 -5.94516 0
    endloop
  endfacet
  facet normal -0.587785 0.809017 0
    outer loop
      vertex 4 -6.9282 0
      vertex 5.35304 -5.94516 0
      vertex 5.35304 -5.94516 -7.3
    endloop
  endfacet
  facet normal -0.743145 0.66913 0
    outer loop
      vertex 4.01478 -4.45887 -12.7
      vertex 4.01478 -4.45887 -7.3
      vertex 4.8541 -3.52671 -7.3
    endloop
  endfacet
  facet normal 0 0 -1
    outer loop
      vertex 4.01478 -4.45887 -12.7
      vertex 4.8541 -3.52671 -12.7
      vertex 5.35304 -5.94516 -12.7
    endloop
  endfacet
  facet normal -0.743145 0.66913 0
    outer loop
      vertex 4.01478 -4.45887 -12.7
      vertex 4.8541 -3.52671 -7.3
      vertex 4.8541 -3.52671 -12.7
    endloop
  endfacet
  facet normal 0 0 1
    outer loop
      vertex 4.01478 -4.45887 -7.3
      vertex 5.35304 -5.94516 -7.3
      vertex 4.8541 -3.52671 -7.3
    endloop
  endfacet
  facet normal -0.866025 0.5 0
    outer loop
      vertex 4.8541 -3.52671 -12.7
      vertex 4.8541 -3.52671 -7.3
      vertex 5.48127 -2.44042 -7.3
    endloop
  endfacet
  facet normal 0 0 -1
    outer loop
      vertex 4.8541 -3.52671 -12.7
      vertex 5.48127 -2.44042 -12.7
      vertex 6.47214 -4.70228 -12.7
    endloop
  endfacet
  facet normal -0.866025 0.5 0
    outer loop
      vertex 4.8541 -3.52671 -12.7
      vertex 5.48127 -2.44042 -7.3
      vertex 5.48127 -2.44042 -12.7
    endloop
  endfacet
  facet normal 0 0 -1
    outer loop
      vertex 4.8541 -3.52671 -12.7
      vertex 6.47214 -4.70228 -12.7
      vertex 5.35304 -5.94516 -12.7
    endloop
  endfacet
  facet normal 0 0 1
    outer loop
      vertex 4.8541 -3.52671 -7.3
      vertex 5.35304 -5.94516 -7.3
      vertex 6.47214 -4.70228 -7.3
    endloop
  endfacet
  facet normal 0 0 1
    outer loop
      vertex 4.8541 -3.52671 -7.3
      vertex 6.47214 -4.70228 -7.3
      vertex 5.48127 -2.44042 -7.3
    endloop
  endfacet
  facet normal -0.743143 0.669133 0
    outer loop
      vertex 5.35304 -5.94516 -16
      vertex 5.35304 -5.94516 -12.7
      vertex 6.47214 -4.70228 -12.7
    endloop
  endfacet
  facet normal -0.743143 0.669133 0
    outer loop
      vertex 5.35304 -5.94516 -16
      vertex 6.47214 -4.70228 -12.7
      vertex 6.47214 -4.70228 -16
    endloop
  endfacet
  facet normal 0 0 -1
    outer loop
      vertex 5.35304 -5.94516 -16
      vertex 6.47214 -4.70228 -16
      vertex 10 -13 -16
    endloop
  endfacet
  facet normal -0.743143 0.669133 0
    outer loop
      vertex 5.35304 -5.94516 -7.3
      vertex 5.35304 -5.94516 0
      vertex 6.47214 -4.70228 0
    endloop
  endfacet
  facet normal -0.743143 0.669133 0
    outer loop
      vertex 5.35304 -5.94516 -7.3
      vertex 6.47214 -4.70228 0
      vertex 6.47214 -4.70228 -7.3
    endloop
  endfacet
  facet normal 0 0 1
    outer loop
      vertex 5.35304 -5.94516 0
      vertex 10 -13 0
      vertex 6.47214 -4.70228 0
    endloop
  endfacet
  facet normal -0.951055 0.309022 0
    outer loop
      vertex 5.48127 -2.44042 -12.7
      vertex 5.48127 -2.44042 -7.3
      vertex 5.86889 -1.24747 -7.3
    endloop
  endfacet
  facet normal 0 0 -1
    outer loop
      vertex 5.48127 -2.44042 -12.7
      vertex 5.86889 -1.24747 -12.7
      vertex 7.30836 -3.25389 -12.7
    endloop
  endfacet
  facet normal -0.951055 0.309022 0
    outer loop
      vertex 5.48127 -2.44042 -12.7
      vertex 5.86889 -1.24747 -7.3
      vertex 5.86889 -1.24747 -12.7
    endloop
  endfacet
  facet normal 0 0 -1
    outer loop
      vertex 5.48127 -2.44042 -12.7
      vertex 7.30836 -3.25389 -12.7
      vertex 6.47214 -4.70228 -12.7
    endloop
  endfacet
  facet normal 0 0 1
    outer loop
      vertex 5.48127 -2.44042 -7.3
      vertex 6.47214 -4.70228 -7.3
      vertex 7.30836 -3.25389 -7.3
    endloop
  endfacet
  facet normal 0 0 1
    outer loop
      vertex 5.48127 -2.44042 -7.3
      vertex 7.30836 -3.25389 -7.3
      vertex 5.86889 -1.24747 -7.3
    endloop
  endfacet
  facet normal -0.994522 0.104525 0
    outer loop
      vertex 5.86889 -1.24747 -12.7
      vertex 5.86889 -1.24747 -7.3
      vertex 6 0 -7.3
    endloop
  endfacet
  facet normal 0 0 -1
    outer loop
      vertex 5.86889 -1.24747 -12.7
      vertex 6 0 -12.7
      vertex 8 0 -12.7
    endloop
  endfacet
  facet normal -0.994522 0.104525 0
    outer loop
      vertex 5.86889 -1.24747 -12.7
      vertex 6 0 -7.3
      vertex 6 0 -12.7
    endloop
  endfacet
  facet normal 0 0 -1
    outer loop
      vertex 5.86889 -1.24747 -12.7
      vertex 7.82518 -1.66329 -12.7
      vertex 7.30836 -3.25389 -12.7
    endloop
  endfacet
  facet normal 0 0 -1
    outer loop
      vertex 5.86889 -1.24747 -12.7
      vertex 8 0 -12.7
      vertex 7.82518 -1.66329 -12.7
    endloop
  endfacet
  facet normal 0 0 1
    outer loop
      vertex 5.86889 -1.24747 -7.3
      vertex 7.30836 -3.25389 -7.3
      vertex 7.82518 -1.66329 -7.3
    endloop
  endfacet
  facet normal 0 0 1
    outer loop
      vertex 5.86889 -1.24747 -7.3
      vertex 7.82518 -1.66329 -7.3
      vertex 8 0 -7.3
    endloop
  endfacet
  facet normal 0 0 1
    outer loop
      vertex 5.86889 -1.24747 -7.3
      vertex 8 0 -7.3
      vertex 6 0 -7.3
    endloop
  endfacet
  facet normal 0 1 0
    outer loop
      vertex 6 0 -12.7
      vertex 6 0 -7.3
      vertex 8.35 0 -10
    endloop
  endfacet
  facet normal 0 1 0
    outer loop
      vertex 6 0 -12.7
      vertex 8.35 0 -10
      vertex 8.40622 0 -10.4271
    endloop
  endfacet
  facet normal 0 1 0
    outer loop
      vertex 6 0 -12.7
      vertex 8.40622 0 -10.4271
      vertex 8.57106 0 -10.825
    endloop
  endfacet
  facet normal 0 1 0
    outer loop
      vertex 6 0 -12.7
      vertex 8.57106 0 -10.825
      vertex 8 0 -12.7
    endloop
  endfacet
  facet normal 0 1 0
    outer loop
      vertex 6 0 -7.3
      vertex 8 0 -7.3
      vertex 8.57106 0 -9.175
    endloop
  endfacet
  facet normal 0 1 0
    outer loop
      vertex 6 0 -7.3
      vertex 8.40622 0 -9.57295
      vertex 8.35 0 -10
    endloop
  endfacet
  facet normal 0 1 0
    outer loop
      vertex 6 0 -7.3
      vertex 8.57106 0 -9.175
      vertex 8.40622 0 -9.57295
    endloop
  endfacet
  facet normal -0.866028 0.499996 0
    outer loop
      vertex 6.47214 -4.70228 -16
      vertex 6.47214 -4.70228 -12.7
      vertex 7.30836 -3.25389 -12.7
    endloop
  endfacet
  facet normal -0.866028 0.499996 0
    outer loop
      vertex 6.47214 -4.70228 -16
      vertex 7.30836 -3.25389 -12.7
      vertex 7.30836 -3.25389 -16
    endloop
  endfacet
  facet normal 0 0 -1
    outer loop
      vertex 6.47214 -4.70228 -16
      vertex 7.30836 -3.25389 -16
      vertex 10 -13 -16
    endloop
  endfacet
  facet normal -0.866028 0.499996 0
    outer loop
      vertex 6.47214 -4.70228 -7.3
      vertex 6.47214 -4.70228 0
      vertex 7.30836 -3.25389 0
    endloop
  endfacet
  facet normal -0.866028 0.499996 0
    outer loop
      vertex 6.47214 -4.70228 -7.3
      vertex 7.30836 -3.25389 0
      vertex 7.30836 -3.25389 -7.3
    endloop
  endfacet
  facet normal 0 0 1
    outer loop
      vertex 6.47214 -4.70228 0
      vertex 10 -13 0
      vertex 7.30836 -3.25389 0
    endloop
  endfacet
  facet normal 0 0 -1
    outer loop
      vertex 7.30836 -3.25389 -16
      vertex 10 0 -16
      vertex 10 -13 -16
    endloop
  endfacet
  facet normal -0.951056 0.309018 0
    outer loop
      vertex 7.30836 -3.25389 -16
      vertex 7.30836 -3.25389 -12.7
      vertex 7.82518 -1.66329 -12.7
    endloop
  endfacet
  facet normal -0.951056 0.309018 0
    outer loop
      vertex 7.30836 -3.25389 -16
      vertex 7.82518 -1.66329 -12.7
      vertex 7.82518 -1.66329 -16
    endloop
  endfacet
  facet normal 0 0 -1
    outer loop
      vertex 7.30836 -3.25389 -16
      vertex 7.82518 -1.66329 -16
      vertex 10 0 -16
    endloop
  endfacet
  facet normal -0.951056 0.309018 0
    outer loop
      vertex 7.30836 -3.25389 -7.3
      vertex 7.30836 -3.25389 0
      vertex 7.82518 -1.66329 0
    endloop
  endfacet
  facet normal -0.951056 0.309018 0
    outer loop
      vertex 7.30836 -3.25389 -7.3
      vertex 7.82518 -1.66329 0
      vertex 7.82518 -1.66329 -7.3
    endloop
  endfacet
  facet normal 0 0 1
    outer loop
      vertex 7.30836 -3.25389 0
      vertex 10 -13 0
      vertex 10 0 0
    endloop
  endfacet
  facet normal 0 0 1
    outer loop
      vertex 7.30836 -3.25389 0
      vertex 10 0 0
      vertex 7.82518 -1.66329 0
    endloop
  endfacet
  facet normal -0.994522 0.104529 0
    outer loop
      vertex 7.82518 -1.66329 -16
      vertex 7.82518 -1.66329 -12.7
      vertex 8 0 -12.7
    endloop
  endfacet
  facet normal -0.994522 0.104529 0
    outer loop
      vertex 7.82518 -1.66329 -16
      vertex 8 0 -12.7
      vertex 8 0 -16
    endloop
  endfacet
  facet normal 0 0 -1
    outer loop
      vertex 7.82518 -1.66329 -16
      vertex 8 0 -16
      vertex 10 0 -16
    endloop
  endfacet
  facet normal -0.994522 0.104529 0
    outer loop
      vertex 7.82518 -1.66329 -7.3
      vertex 7.82518 -1.66329 0
      vertex 8 0 0
    endloop
  endfacet
  facet normal -0.994522 0.104529 0
    outer loop
      vertex 7.82518 -1.66329 -7.3
      vertex 8 0 0
      vertex 8 0 -7.3
    endloop
  endfacet
  facet normal 0 0 1
    outer loop
      vertex 7.82518 -1.66329 0
      vertex 10 0 0
      vertex 8 0 0
    endloop
  endfacet
  facet normal 0 1 0
    outer loop
      vertex 8 0 -12.7
      vertex 10 0 -11.65
      vertex 10 0 -16
    endloop
  endfacet
  facet normal 0 1 0
    outer loop
      vertex 8 0 -12.7
      vertex 8.57106 0 -10.825
      vertex 8.83327 0 -11.1667
    endloop
  endfacet
  facet normal 0 1 0
    outer loop
      vertex 8 0 -12.7
      vertex 8.83327 0 -11.1667
      vertex 9.175 0 -11.4289
    endloop
  endfacet
  facet normal 0 1 0
    outer loop
      vertex 8 0 -12.7
      vertex 9.175 0 -11.4289
      vertex 9.57295 0 -11.5938
    endloop
  endfacet
  facet normal 0 1 0
    outer loop
      vertex 8 0 -12.7
      vertex 9.57295 0 -11.5938
      vertex 10 0 -11.65
    endloop
  endfacet
  facet normal 0 1 0
    outer loop
      vertex 8 0 -16
      vertex 8 0 -12.7
      vertex 10 0 -16
    endloop
  endfacet
  facet normal 0 1 0
    outer loop
      vertex 8 0 -7.3
      vertex 10 0 -8.35
      vertex 9.57295 0 -8.40622
    endloop
  endfacet
  facet normal 0 1 0
    outer loop
      vertex 8 0 -7.3
      vertex 10 0 0
      vertex 12.9 0 -2.9
    endloop
  endfacet
  facet normal 0 1 0
    outer loop
      vertex 8 0 -7.3
      vertex 12.9 0 -2.9
      vertex 10 0 -8.35
    endloop
  endfacet
  facet normal 0 1 0
    outer loop
      vertex 8 0 -7.3
      vertex 8 0 0
      vertex 10 0 0
    endloop
  endfacet
  facet normal 0 1 0
    outer loop
      vertex 8 0 -7.3
      vertex 8.83327 0 -8.83327
      vertex 8.57106 0 -9.175
    endloop
  endfacet
  facet normal 0 1 0
    outer loop
      vertex 8 0 -7.3
      vertex 9.175 0 -8.57106
      vertex 8.83327 0 -8.83327
    endloop
  endfacet
  facet normal 0 1 0
    outer loop
      vertex 8 0 -7.3
      vertex 9.57295 0 -8.40622
      vertex 9.175 0 -8.57106
    endloop
  endfacet
  facet normal 0.991446 0 -0.130521
    outer loop
      vertex 8.35 -13 -10
      vertex 8.35 0 -10
      vertex 8.40622 -13 -9.57295
    endloop
  endfacet
  facet normal 0.991447 0 0.130506
    outer loop
      vertex 8.35 -13 -10
      vertex 8.40622 -13 -10.4271
      vertex 8.40622 0 -10.4271
    endloop
  endfacet
  facet normal 0.991447 0 0.130506
    outer loop
      vertex 8.35 -13 -10
      vertex 8.40622 0 -10.4271
      vertex 8.35 0 -10
    endloop
  endfacet
  facet normal 0.991446 0 -0.130521
    outer loop
      vertex 8.35 0 -10
      vertex 8.40622 0 -9.57295
      vertex 8.40622 -13 -9.57295
    endloop
  endfacet
  facet normal 0.923859 0 0.382732
    outer loop
      vertex 8.40622 -13 -10.4271
      vertex 8.57106 -13 -10.825
      vertex 8.57106 0 -10.825
    endloop
  endfacet
  facet normal 0.923859 0 0.382732
    outer loop
      vertex 8.40622 -13 -10.4271
      vertex 8.57106 0 -10.825
      vertex 8.40622 0 -10.4271
    endloop
  endfacet
  facet normal 0.923876 0 -0.382691
    outer loop
      vertex 8.40622 -13 -9.57295
      vertex 8.40622 0 -9.57295
      vertex 8.57106 -13 -9.175
    endloop
  endfacet
  facet normal 0.923876 0 -0.382691
    outer loop
      vertex 8.40622 0 -9.57295
      vertex 8.57106 0 -9.175
      vertex 8.57106 -13 -9.175
    endloop
  endfacet
  facet normal 0 -1 0
    outer loop
      vertex 8.57106 -13 -10.825
      vertex 10 -13 -16
      vertex 8.83327 -13 -11.1667
    endloop
  endfacet
  facet normal 0.793337 0 0.608782
    outer loop
      vertex 8.57106 -13 -10.825
      vertex 8.83327 -13 -11.1667
      vertex 8.83327 0 -11.1667
    endloop
  endfacet
  facet normal 0.793337 0 0.608782
    outer loop
      vertex 8.57106 -13 -10.825
      vertex 8.83327 0 -11.1667
      vertex 8.57106 0 -10.825
    endloop
  endfacet
  facet normal 0.793363 0 -0.608749
    outer loop
      vertex 8.57106 -13 -9.175
      vertex 8.57106 0 -9.175
      vertex 8.83327 -13 -8.83327
    endloop
  endfacet
  facet normal 0 -1 0
    outer loop
      vertex 8.57106 -13 -9.175
      vertex 8.83327 -13 -8.83327
      vertex 10 -13 0
    endloop
  endfacet
  facet normal 0.793363 0 -0.608749
    outer loop
      vertex 8.57106 0 -9.175
      vertex 8.83327 0 -8.83327
      vertex 8.83327 -13 -8.83327
    endloop
  endfacet
  facet normal 0 -1 0
    outer loop
      vertex 8.83327 -13 -11.1667
      vertex 10 -13 -16
      vertex 9.175 -13 -11.4289
    endloop
  endfacet
  facet normal 0.608734 0 0.793374
    outer loop
      vertex 8.83327 -13 -11.1667
      vertex 9.175 -13 -11.4289
      vertex 8.83327 0 -11.1667
    endloop
  endfacet
  facet normal 0.608749 0 -0.793363
    outer loop
      vertex 8.83327 -13 -8.83327
      vertex 8.83327 0 -8.83327
      vertex 9.175 0 -8.57106
    endloop
  endfacet
  facet normal 0 -1 0
    outer loop
      vertex 8.83327 -13 -8.83327
      vertex 9.175 -13 -8.57106
      vertex 10 -13 0
    endloop
  endfacet
  facet normal 0.608749 0 -0.793363
    outer loop
      vertex 8.83327 -13 -8.83327
      vertex 9.175 0 -8.57106
      vertex 9.175 -13 -8.57106
    endloop
  endfacet
  facet normal 0.608734 0 0.793374
    outer loop
      vertex 8.83327 0 -11.1667
      vertex 9.175 -13 -11.4289
      vertex 9.175 0 -11.4289
    endloop
  endfacet
  facet normal 0 -1 0
    outer loop
      vertex 9.175 -13 -11.4289
      vertex 10 -13 -16
      vertex 9.57295 -13 -11.5938
    endloop
  endfacet
  facet normal 0.38281 0 0.923827
    outer loop
      vertex 9.175 -13 -11.4289
      vertex 9.57295 -13 -11.5938
      vertex 9.175 0 -11.4289
    endloop
  endfacet
  facet normal 0.382691 0 -0.923876
    outer loop
      vertex 9.175 -13 -8.57106
      vertex 9.175 0 -8.57106
      vertex 9.57295 0 -8.40622
    endloop
  endfacet
  facet normal 0 -1 0
    outer loop
      vertex 9.175 -13 -8.57106
      vertex 9.57295 -13 -8.40622
      vertex 10 -13 0
    endloop
  endfacet
  facet normal 0.382691 0 -0.923876
    outer loop
      vertex 9.175 -13 -8.57106
      vertex 9.57295 0 -8.40622
      vertex 9.57295 -13 -8.40622
    endloop
  endfacet
  facet normal 0.38281 0 0.923827
    outer loop
      vertex 9.175 0 -11.4289
      vertex 9.57295 -13 -11.5938
      vertex 9.57295 0 -11.5938
    endloop
  endfacet
  facet normal 0.130476 0 0.991452
    outer loop
      vertex 9.57295 -13 -11.5938
      vertex 10 -13 -11.65
      vertex 9.57295 0 -11.5938
    endloop
  endfacet
  facet normal 0 -1 0
    outer loop
      vertex 9.57295 -13 -11.5938
      vertex 10 -13 -16
      vertex 10 -13 -11.65
    endloop
  endfacet
  facet normal 0 -1 0
    outer loop
      vertex 9.57295 -13 -8.40622
      vertex 10 -13 -8.35
      vertex 10 -13 0
    endloop
  endfacet
  facet normal 0.130521 0 -0.991446
    outer loop
      vertex 9.57295 -13 -8.40622
      vertex 10 0 -8.35
      vertex 10 -13 -8.35
    endloop
  endfacet
  facet normal 0.130521 0 -0.991446
    outer loop
      vertex 9.57295 -13 -8.40622
      vertex 9.57295 0 -8.40622
      vertex 10 0 -8.35
    endloop
  endfacet
  facet normal 0.130476 0 0.991452
    outer loop
      vertex 9.57295 0 -11.5938
      vertex 10 -13 -11.65
      vertex 10 0 -11.65
    endloop
  endfacet
endsolid OpenSCAD_Model
