solid OpenSCAD_Model
  facet normal 0 1 0
    outer loop
      vertex -0.626342 -15 -74.8375
      vertex 0 -15 -74.92
      vertex 0 -15 -90.08
    endloop
  endfacet
  facet normal 0.130589 0 0.991437
    outer loop
      vertex -0.626342 -15 -74.8375
      vertex 0 -20 -74.92
      vertex 0 -15 -74.92
    endloop
  endfacet
  facet normal 0 1 0
    outer loop
      vertex -0.626342 -15 -90.1625
      vertex -0.626342 -15 -74.8375
      vertex 0 -15 -90.08
    endloop
  endfacet
  facet normal 0.130589 0 0.991437
    outer loop
      vertex -0.626342 -15 -94.8375
      vertex 0 -20 -94.92
      vertex 0 -15 -94.92
    endloop
  endfacet
  facet normal 0.130589 0 -0.991437
    outer loop
      vertex -0.626342 -20 -70.1625
      vertex -0.626342 -15 -70.1625
      vertex 0 -15 -70.08
    endloop
  endfacet
  facet normal 0.130589 0 -0.991437
    outer loop
      vertex -0.626342 -20 -70.1625
      vertex 0 -15 -70.08
      vertex 0 -20 -70.08
    endloop
  endfacet
  facet normal 0.130589 0 0.991437
    outer loop
      vertex -0.626342 -20 -74.8375
      vertex 0 -20 -74.92
      vertex -0.626342 -15 -74.8375
    endloop
  endfacet
  facet normal 0 -1 0
    outer loop
      vertex -0.626342 -20 -74.8375
      vertex 0 -20 -90.08
      vertex 0 -20 -74.92
    endloop
  endfacet
  facet normal 0.130589 0 -0.991437
    outer loop
      vertex -0.626342 -20 -90.1625
      vertex -0.626342 -15 -90.1625
      vertex 0 -15 -90.08
    endloop
  endfacet
  facet normal 0.130589 0 -0.991437
    outer loop
      vertex -0.626342 -20 -90.1625
      vertex 0 -15 -90.08
      vertex 0 -20 -90.08
    endloop
  endfacet
  facet normal 0 -1 0
    outer loop
      vertex -0.626342 -20 -90.1625
      vertex 0 -20 -90.08
      vertex -0.626342 -20 -74.8375
    endloop
  endfacet
  facet normal 0.130589 0 0.991437
    outer loop
      vertex -0.626342 -20 -94.8375
      vertex 0 -20 -94.92
      vertex -0.626342 -15 -94.8375
    endloop
  endfacet
  facet normal 0.130589 -0.991437 0
    outer loop
      vertex -0.626342 -37.6625 -62.5
      vertex 0 -37.58 -57.5
      vertex -0.626342 -37.6625 -57.5
    endloop
  endfacet
  facet normal 0.130589 -0.991437 0
    outer loop
      vertex -0.626342 -37.6625 -62.5
      vertex 0 -37.58 -62.5
      vertex 0 -37.58 -57.5
    endloop
  endfacet
  facet normal 0.130589 0.991437 0
    outer loop
      vertex -0.626342 -42.3375 -57.5
      vertex 0 -42.42 -57.5
      vertex 0 -42.42 -62.5
    endloop
  endfacet
  facet normal 0.130589 0.991437 0
    outer loop
      vertex -0.626342 -42.3375 -62.5
      vertex -0.626342 -42.3375 -57.5
      vertex 0 -42.42 -62.5
    endloop
  endfacet
  facet normal 0 1 0
    outer loop
      vertex -0.626342 -50 -22.6625
      vertex -0.626342 -50 22.6625
      vertex 0 -50 -22.58
    endloop
  endfacet
  facet normal 0.130589 0 0.991437
    outer loop
      vertex -0.626342 -50 -27.3375
      vertex 0 -55 -27.42
      vertex 0 -50 -27.42
    endloop
  endfacet
  facet normal 0 1 0
    outer loop
      vertex -0.626342 -50 22.6625
      vertex 0 -50 22.58
      vertex 0 -50 -22.58
    endloop
  endfacet
  facet normal 0.130589 0 0.991437
    outer loop
      vertex -0.626342 -50 22.6625
      vertex 0 -55 22.58
      vertex 0 -50 22.58
    endloop
  endfacet
  facet normal 0.130589 0 -0.991437
    outer loop
      vertex -0.626342 -55 -22.6625
      vertex -0.626342 -50 -22.6625
      vertex 0 -50 -22.58
    endloop
  endfacet
  facet normal 0.130589 0 -0.991437
    outer loop
      vertex -0.626342 -55 -22.6625
      vertex 0 -50 -22.58
      vertex 0 -55 -22.58
    endloop
  endfacet
  facet normal 0 -1 0
    outer loop
      vertex -0.626342 -55 -22.6625
      vertex 0 -55 -22.58
      vertex -0.626342 -55 22.6625
    endloop
  endfacet
  facet normal 0.130589 0 0.991437
    outer loop
      vertex -0.626342 -55 -27.3375
      vertex 0 -55 -27.42
      vertex -0.626342 -50 -27.3375
    endloop
  endfacet
  facet normal 0 -1 0
    outer loop
      vertex -0.626342 -55 22.6625
      vertex 0 -55 -22.58
      vertex 0 -55 22.58
    endloop
  endfacet
  facet normal 0.130589 0 0.991437
    outer loop
      vertex -0.626342 -55 22.6625
      vertex 0 -55 22.58
      vertex -0.626342 -50 22.6625
    endloop
  endfacet
  facet normal 0.130589 0 -0.991437
    outer loop
      vertex -0.626342 -55 27.3375
      vertex -0.626342 -50 27.3375
      vertex 0 -50 27.42
    endloop
  endfacet
  facet normal 0.130589 0 -0.991437
    outer loop
      vertex -0.626342 -55 27.3375
      vertex 0 -50 27.42
      vertex 0 -55 27.42
    endloop
  endfacet
  facet normal 0 1 0
    outer loop
      vertex -1.21 -15 -74.5958
      vertex -0.626342 -15 -74.8375
      vertex -0.626342 -15 -90.1625
    endloop
  endfacet
  facet normal 0.382604 0 0.923913
    outer loop
      vertex -1.21 -15 -74.5958
      vertex -0.626342 -20 -74.8375
      vertex -0.626342 -15 -74.8375
    endloop
  endfacet
  facet normal 0 1 0
    outer loop
      vertex -1.21 -15 -90.4042
      vertex -1.21 -15 -74.5958
      vertex -0.626342 -15 -90.1625
    endloop
  endfacet
  facet normal 0.382604 0 0.923913
    outer loop
      vertex -1.21 -15 -94.5958
      vertex -0.626342 -20 -94.8375
      vertex -0.626342 -15 -94.8375
    endloop
  endfacet
  facet normal 0.382604 0 -0.923913
    outer loop
      vertex -1.21 -20 -70.4042
      vertex -0.626342 -15 -70.1625
      vertex -0.626342 -20 -70.1625
    endloop
  endfacet
  facet normal 0.382604 0 -0.923913
    outer loop
      vertex -1.21 -20 -70.4042
      vertex -1.21 -15 -70.4042
      vertex -0.626342 -15 -70.1625
    endloop
  endfacet
  facet normal 0.382604 0 0.923913
    outer loop
      vertex -1.21 -20 -74.5958
      vertex -0.626342 -20 -74.8375
      vertex -1.21 -15 -74.5958
    endloop
  endfacet
  facet normal 0 -1 0
    outer loop
      vertex -1.21 -20 -74.5958
      vertex -0.626342 -20 -90.1625
      vertex -0.626342 -20 -74.8375
    endloop
  endfacet
  facet normal 0.382604 0 -0.923913
    outer loop
      vertex -1.21 -20 -90.4042
      vertex -0.626342 -15 -90.1625
      vertex -0.626342 -20 -90.1625
    endloop
  endfacet
  facet normal 0 -1 0
    outer loop
      vertex -1.21 -20 -90.4042
      vertex -0.626342 -20 -90.1625
      vertex -1.21 -20 -74.5958
    endloop
  endfacet
  facet normal 0.382604 0 -0.923913
    outer loop
      vertex -1.21 -20 -90.4042
      vertex -1.21 -15 -90.4042
      vertex -0.626342 -15 -90.1625
    endloop
  endfacet
  facet normal 0.382604 0 0.923913
    outer loop
      vertex -1.21 -20 -94.5958
      vertex -0.626342 -20 -94.8375
      vertex -1.21 -15 -94.5958
    endloop
  endfacet
  facet normal 0.382604 -0.923913 0
    outer loop
      vertex -1.21 -37.9042 -62.5
      vertex -0.626342 -37.6625 -57.5
      vertex -1.21 -37.9042 -57.5
    endloop
  endfacet
  facet normal 0.382604 -0.923913 0
    outer loop
      vertex -1.21 -37.9042 -62.5
      vertex -0.626342 -37.6625 -62.5
      vertex -0.626342 -37.6625 -57.5
    endloop
  endfacet
  facet normal 0.382604 0.923913 0
    outer loop
      vertex -1.21 -42.0958 -57.5
      vertex -0.626342 -42.3375 -57.5
      vertex -0.626342 -42.3375 -62.5
    endloop
  endfacet
  facet normal 0.382604 0.923913 0
    outer loop
      vertex -1.21 -42.0958 -62.5
      vertex -1.21 -42.0958 -57.5
      vertex -0.626342 -42.3375 -62.5
    endloop
  endfacet
  facet normal 0 1 0
    outer loop
      vertex -1.21 -50 -22.9042
      vertex -1.21 -50 22.9042
      vertex -0.626342 -50 -22.6625
    endloop
  endfacet
  facet normal 0.382604 0 0.923913
    outer loop
      vertex -1.21 -50 -27.0958
      vertex -0.626342 -55 -27.3375
      vertex -0.626342 -50 -27.3375
    endloop
  endfacet
  facet normal 0 1 0
    outer loop
      vertex -1.21 -50 22.9042
      vertex -0.626342 -50 22.6625
      vertex -0.626342 -50 -22.6625
    endloop
  endfacet
  facet normal 0.382604 0 0.923913
    outer loop
      vertex -1.21 -50 22.9042
      vertex -0.626342 -55 22.6625
      vertex -0.626342 -50 22.6625
    endloop
  endfacet
  facet normal 0.382604 0 -0.923913
    outer loop
      vertex -1.21 -55 -22.9042
      vertex -0.626342 -50 -22.6625
      vertex -0.626342 -55 -22.6625
    endloop
  endfacet
  facet normal 0 -1 0
    outer loop
      vertex -1.21 -55 -22.9042
      vertex -0.626342 -55 -22.6625
      vertex -1.21 -55 22.9042
    endloop
  endfacet
  facet normal 0.382604 0 -0.923913
    outer loop
      vertex -1.21 -55 -22.9042
      vertex -1.21 -50 -22.9042
      vertex -0.626342 -50 -22.6625
    endloop
  endfacet
  facet normal 0.382604 0 0.923913
    outer loop
      vertex -1.21 -55 -27.0958
      vertex -0.626342 -55 -27.3375
      vertex -1.21 -50 -27.0958
    endloop
  endfacet
  facet normal 0 -1 0
    outer loop
      vertex -1.21 -55 22.9042
      vertex -0.626342 -55 -22.6625
      vertex -0.626342 -55 22.6625
    endloop
  endfacet
  facet normal 0.382604 0 0.923913
    outer loop
      vertex -1.21 -55 22.9042
      vertex -0.626342 -55 22.6625
      vertex -1.21 -50 22.9042
    endloop
  endfacet
  facet normal 0.382604 0 -0.923913
    outer loop
      vertex -1.21 -55 27.0958
      vertex -0.626342 -50 27.3375
      vertex -0.626342 -55 27.3375
    endloop
  endfacet
  facet normal 0.382604 0 -0.923913
    outer loop
      vertex -1.21 -55 27.0958
      vertex -1.21 -50 27.0958
      vertex -0.626342 -50 27.3375
    endloop
  endfacet
  facet normal 0 1 0
    outer loop
      vertex -1.7112 -15 -74.2112
      vertex -1.21 -15 -74.5958
      vertex -1.21 -15 -90.4042
    endloop
  endfacet
  facet normal 0.608777 0 0.793341
    outer loop
      vertex -1.7112 -15 -74.2112
      vertex -1.21 -20 -74.5958
      vertex -1.21 -15 -74.5958
    endloop
  endfacet
  facet normal 0 1 0
    outer loop
      vertex -1.7112 -15 -90.7888
      vertex -1.7112 -15 -74.2112
      vertex -1.21 -15 -90.4042
    endloop
  endfacet
  facet normal 0.608777 0 0.793341
    outer loop
      vertex -1.7112 -15 -94.2112
      vertex -1.21 -20 -94.5958
      vertex -1.21 -15 -94.5958
    endloop
  endfacet
  facet normal 0.608777 0 -0.793341
    outer loop
      vertex -1.7112 -20 -70.7888
      vertex -1.21 -15 -70.4042
      vertex -1.21 -20 -70.4042
    endloop
  endfacet
  facet normal 0.608777 0 -0.793341
    outer loop
      vertex -1.7112 -20 -70.7888
      vertex -1.7112 -15 -70.7888
      vertex -1.21 -15 -70.4042
    endloop
  endfacet
  facet normal 0.608777 0 0.793341
    outer loop
      vertex -1.7112 -20 -74.2112
      vertex -1.21 -20 -74.5958
      vertex -1.7112 -15 -74.2112
    endloop
  endfacet
  facet normal 0 -1 0
    outer loop
      vertex -1.7112 -20 -74.2112
      vertex -1.21 -20 -90.4042
      vertex -1.21 -20 -74.5958
    endloop
  endfacet
  facet normal 0.608777 0 -0.793341
    outer loop
      vertex -1.7112 -20 -90.7888
      vertex -1.21 -15 -90.4042
      vertex -1.21 -20 -90.4042
    endloop
  endfacet
  facet normal 0 -1 0
    outer loop
      vertex -1.7112 -20 -90.7888
      vertex -1.21 -20 -90.4042
      vertex -1.7112 -20 -74.2112
    endloop
  endfacet
  facet normal 0.608777 0 -0.793341
    outer loop
      vertex -1.7112 -20 -90.7888
      vertex -1.7112 -15 -90.7888
      vertex -1.21 -15 -90.4042
    endloop
  endfacet
  facet normal 0.608777 0 0.793341
    outer loop
      vertex -1.7112 -20 -94.2112
      vertex -1.21 -20 -94.5958
      vertex -1.7112 -15 -94.2112
    endloop
  endfacet
  facet normal 0.608777 -0.793341 0
    outer loop
      vertex -1.7112 -38.2888 -62.5
      vertex -1.21 -37.9042 -57.5
      vertex -1.7112 -38.2888 -57.5
    endloop
  endfacet
  facet normal 0.608777 -0.793341 0
    outer loop
      vertex -1.7112 -38.2888 -62.5
      vertex -1.21 -37.9042 -62.5
      vertex -1.21 -37.9042 -57.5
    endloop
  endfacet
  facet normal 0.608777 0.793341 0
    outer loop
      vertex -1.7112 -41.7112 -57.5
      vertex -1.21 -42.0958 -57.5
      vertex -1.21 -42.0958 -62.5
    endloop
  endfacet
  facet normal 0.608777 0.793341 0
    outer loop
      vertex -1.7112 -41.7112 -62.5
      vertex -1.7112 -41.7112 -57.5
      vertex -1.21 -42.0958 -62.5
    endloop
  endfacet
  facet normal 0 1 0
    outer loop
      vertex -1.7112 -50 -23.2888
      vertex -1.7112 -50 23.2888
      vertex -1.21 -50 -22.9042
    endloop
  endfacet
  facet normal 0.608777 0 0.793341
    outer loop
      vertex -1.7112 -50 -26.7112
      vertex -1.21 -55 -27.0958
      vertex -1.21 -50 -27.0958
    endloop
  endfacet
  facet normal 0 1 0
    outer loop
      vertex -1.7112 -50 23.2888
      vertex -1.21 -50 22.9042
      vertex -1.21 -50 -22.9042
    endloop
  endfacet
  facet normal 0.608777 0 0.793341
    outer loop
      vertex -1.7112 -50 23.2888
      vertex -1.21 -55 22.9042
      vertex -1.21 -50 22.9042
    endloop
  endfacet
  facet normal 0.608777 0 -0.793341
    outer loop
      vertex -1.7112 -55 -23.2888
      vertex -1.21 -50 -22.9042
      vertex -1.21 -55 -22.9042
    endloop
  endfacet
  facet normal 0 -1 0
    outer loop
      vertex -1.7112 -55 -23.2888
      vertex -1.21 -55 -22.9042
      vertex -1.7112 -55 23.2888
    endloop
  endfacet
  facet normal 0.608777 0 -0.793341
    outer loop
      vertex -1.7112 -55 -23.2888
      vertex -1.7112 -50 -23.2888
      vertex -1.21 -50 -22.9042
    endloop
  endfacet
  facet normal 0.608777 0 0.793341
    outer loop
      vertex -1.7112 -55 -26.7112
      vertex -1.21 -55 -27.0958
      vertex -1.7112 -50 -26.7112
    endloop
  endfacet
  facet normal 0 -1 0
    outer loop
      vertex -1.7112 -55 23.2888
      vertex -1.21 -55 -22.9042
      vertex -1.21 -55 22.9042
    endloop
  endfacet
  facet normal 0.608777 0 0.793341
    outer loop
      vertex -1.7112 -55 23.2888
      vertex -1.21 -55 22.9042
      vertex -1.7112 -50 23.2888
    endloop
  endfacet
  facet normal 0.608777 0 -0.793341
    outer loop
      vertex -1.7112 -55 26.7112
      vertex -1.21 -50 27.0958
      vertex -1.21 -55 27.0958
    endloop
  endfacet
  facet normal 0.608777 0 -0.793341
    outer loop
      vertex -1.7112 -55 26.7112
      vertex -1.7112 -50 26.7112
      vertex -1.21 -50 27.0958
    endloop
  endfacet
  facet normal 0 0 1
    outer loop
      vertex -10 -0.25 -57.5
      vertex -0.626342 -37.6625 -57.5
      vertex 0 -37.58 -57.5
    endloop
  endfacet
  facet normal 0 0 1
    outer loop
      vertex -10 -0.25 -57.5
      vertex -1.21 -37.9042 -57.5
      vertex -0.626342 -37.6625 -57.5
    endloop
  endfacet
  facet normal 0 0 1
    outer loop
      vertex -10 -0.25 -57.5
      vertex -1.7112 -38.2888 -57.5
      vertex -1.21 -37.9042 -57.5
    endloop
  endfacet
  facet normal 0 0 1
    outer loop
      vertex -10 -0.25 -57.5
      vertex -2.09578 -38.79 -57.5
      vertex -1.7112 -38.2888 -57.5
    endloop
  endfacet
  facet normal 0 0 1
    outer loop
      vertex -10 -0.25 -57.5
      vertex 0 -37.58 -57.5
      vertex 10 -0.25 -57.5
    endloop
  endfacet
  facet normal 0 1 0
    outer loop
      vertex -10 -0.25 -57.5
      vertex 10 -0.25 -57.5
      vertex 10 -0.25 -62.5
    endloop
  endfacet
  facet normal 0 1 0
    outer loop
      vertex -10 -0.25 -62.5
      vertex -10 -0.25 -57.5
      vertex 10 -0.25 -62.5
    endloop
  endfacet
  facet normal 0 1 0
    outer loop
      vertex -10 -15 -102.5
      vertex -0.626342 -15 -94.8375
      vertex 0 -15 -94.92
    endloop
  endfacet
  facet normal 0 1 0
    outer loop
      vertex -10 -15 -102.5
      vertex -1.21 -15 -94.5958
      vertex -0.626342 -15 -94.8375
    endloop
  endfacet
  facet normal 0 1 0
    outer loop
      vertex -10 -15 -102.5
      vertex -1.7112 -15 -94.2112
      vertex -1.21 -15 -94.5958
    endloop
  endfacet
  facet normal 0 1 0
    outer loop
      vertex -10 -15 -102.5
      vertex -10 -15 -62.5
      vertex -2.33754 -15 -91.8737
    endloop
  endfacet
  facet normal 0 1 0
    outer loop
      vertex -10 -15 -102.5
      vertex -2.09578 -15 -93.71
      vertex -1.7112 -15 -94.2112
    endloop
  endfacet
  facet normal 0 1 0
    outer loop
      vertex -10 -15 -102.5
      vertex -2.33754 -15 -91.8737
      vertex -2.42 -15 -92.5
    endloop
  endfacet
  facet normal 0 1 0
    outer loop
      vertex -10 -15 -102.5
      vertex -2.33754 -15 -93.1263
      vertex -2.09578 -15 -93.71
    endloop
  endfacet
  facet normal 0 1 0
    outer loop
      vertex -10 -15 -102.5
      vertex -2.42 -15 -92.5
      vertex -2.33754 -15 -93.1263
    endloop
  endfacet
  facet normal 0 1 0
    outer loop
      vertex -10 -15 -102.5
      vertex 0 -15 -94.92
      vertex 10 -15 -102.5
    endloop
  endfacet
  facet normal 0 1 0
    outer loop
      vertex -10 -15 -62.5
      vertex -0.626342 -15 -70.1625
      vertex -1.21 -15 -70.4042
    endloop
  endfacet
  facet normal 0 1 0
    outer loop
      vertex -10 -15 -62.5
      vertex -1.21 -15 -70.4042
      vertex -1.7112 -15 -70.7888
    endloop
  endfacet
  facet normal 0 1 0
    outer loop
      vertex -10 -15 -62.5
      vertex -1.7112 -15 -70.7888
      vertex -2.09578 -15 -71.29
    endloop
  endfacet
  facet normal -1 0 0
    outer loop
      vertex -10 -15 -62.5
      vertex -10 -0.25 -57.5
      vertex -10 -0.25 -62.5
    endloop
  endfacet
  facet normal 0 0 -1
    outer loop
      vertex -10 -15 -62.5
      vertex -10 -0.25 -62.5
      vertex 10 -0.25 -62.5
    endloop
  endfacet
  facet normal 0 1 0
    outer loop
      vertex -10 -15 -62.5
      vertex -2.09578 -15 -71.29
      vertex -2.33754 -15 -71.8737
    endloop
  endfacet
  facet normal 0 1 0
    outer loop
      vertex -10 -15 -62.5
      vertex -2.33754 -15 -71.8737
      vertex -2.42 -15 -72.5
    endloop
  endfacet
  facet normal 0 1 0
    outer loop
      vertex -10 -15 -62.5
      vertex -2.33754 -15 -73.1263
      vertex -2.33754 -15 -91.8737
    endloop
  endfacet
  facet normal 0 1 0
    outer loop
      vertex -10 -15 -62.5
      vertex -2.42 -15 -72.5
      vertex -2.33754 -15 -73.1263
    endloop
  endfacet
  facet normal 0 1 0
    outer loop
      vertex -10 -15 -62.5
      vertex 0 -15 -70.08
      vertex -0.626342 -15 -70.1625
    endloop
  endfacet
  facet normal 0 0 -1
    outer loop
      vertex -10 -15 -62.5
      vertex 10 -0.25 -62.5
      vertex 10 -15 -62.5
    endloop
  endfacet
  facet normal 0 1 0
    outer loop
      vertex -10 -15 -62.5
      vertex 10 -15 -62.5
      vertex 0 -15 -70.08
    endloop
  endfacet
  facet normal 0 -1 0
    outer loop
      vertex -10 -20 -102.5
      vertex -0.626342 -20 -94.8375
      vertex -1.21 -20 -94.5958
    endloop
  endfacet
  facet normal 0 -1 0
    outer loop
      vertex -10 -20 -102.5
      vertex -1.21 -20 -94.5958
      vertex -1.7112 -20 -94.2112
    endloop
  endfacet
  facet normal 0 -1 0
    outer loop
      vertex -10 -20 -102.5
      vertex -1.7112 -20 -94.2112
      vertex -2.09578 -20 -93.71
    endloop
  endfacet
  facet normal 0 0 -1
    outer loop
      vertex -10 -20 -102.5
      vertex -10 -15 -102.5
      vertex 10 -15 -102.5
    endloop
  endfacet
  facet normal -1 0 0
    outer loop
      vertex -10 -20 -102.5
      vertex -10 -15 -62.5
      vertex -10 -15 -102.5
    endloop
  endfacet
  facet normal -1 0 0
    outer loop
      vertex -10 -20 -102.5
      vertex -10 -20 -62.5
      vertex -10 -15 -62.5
    endloop
  endfacet
  facet normal 0 -1 0
    outer loop
      vertex -10 -20 -102.5
      vertex -2.09578 -20 -93.71
      vertex -2.33754 -20 -93.1263
    endloop
  endfacet
  facet normal 0 -1 0
    outer loop
      vertex -10 -20 -102.5
      vertex -2.33754 -20 -91.8737
      vertex -10 -20 -62.5
    endloop
  endfacet
  facet normal 0 -1 0
    outer loop
      vertex -10 -20 -102.5
      vertex -2.33754 -20 -93.1263
      vertex -2.42 -20 -92.5
    endloop
  endfacet
  facet normal 0 -1 0
    outer loop
      vertex -10 -20 -102.5
      vertex -2.42 -20 -92.5
      vertex -2.33754 -20 -91.8737
    endloop
  endfacet
  facet normal 0 -1 0
    outer loop
      vertex -10 -20 -102.5
      vertex 0 -20 -94.92
      vertex -0.626342 -20 -94.8375
    endloop
  endfacet
  facet normal 0 0 -1
    outer loop
      vertex -10 -20 -102.5
      vertex 10 -15 -102.5
      vertex 10 -20 -102.5
    endloop
  endfacet
  facet normal 0 -1 0
    outer loop
      vertex -10 -20 -102.5
      vertex 10 -20 -102.5
      vertex 0 -20 -94.92
    endloop
  endfacet
  facet normal 0 -1 0
    outer loop
      vertex -10 -20 -62.5
      vertex -0.626342 -20 -70.1625
      vertex 0 -20 -70.08
    endloop
  endfacet
  facet normal 0 0 -1
    outer loop
      vertex -10 -20 -62.5
      vertex -0.626342 -37.6625 -62.5
      vertex -1.21 -37.9042 -62.5
    endloop
  endfacet
  facet normal 0 -1 0
    outer loop
      vertex -10 -20 -62.5
      vertex -1.21 -20 -70.4042
      vertex -0.626342 -20 -70.1625
    endloop
  endfacet
  facet normal 0 0 -1
    outer loop
      vertex -10 -20 -62.5
      vertex -1.21 -37.9042 -62.5
      vertex -1.7112 -38.2888 -62.5
    endloop
  endfacet
  facet normal 0 -1 0
    outer loop
      vertex -10 -20 -62.5
      vertex -1.7112 -20 -70.7888
      vertex -1.21 -20 -70.4042
    endloop
  endfacet
  facet normal 0 0 -1
    outer loop
      vertex -10 -20 -62.5
      vertex -1.7112 -38.2888 -62.5
      vertex -2.09578 -38.79 -62.5
    endloop
  endfacet
  facet normal -1 0 0
    outer loop
      vertex -10 -20 -62.5
      vertex -10 -0.25 -57.5
      vertex -10 -15 -62.5
    endloop
  endfacet
  facet normal 0 -1 0
    outer loop
      vertex -10 -20 -62.5
      vertex -2.09578 -20 -71.29
      vertex -1.7112 -20 -70.7888
    endloop
  endfacet
  facet normal 0 0 -1
    outer loop
      vertex -10 -20 -62.5
      vertex -2.09578 -38.79 -62.5
      vertex -2.33754 -39.3737 -62.5
    endloop
  endfacet
  facet normal 0 -1 0
    outer loop
      vertex -10 -20 -62.5
      vertex -2.33754 -20 -71.8737
      vertex -2.09578 -20 -71.29
    endloop
  endfacet
  facet normal 0 -1 0
    outer loop
      vertex -10 -20 -62.5
      vertex -2.33754 -20 -73.1263
      vertex -2.42 -20 -72.5
    endloop
  endfacet
  facet normal 0 -1 0
    outer loop
      vertex -10 -20 -62.5
      vertex -2.33754 -20 -91.8737
      vertex -2.33754 -20 -73.1263
    endloop
  endfacet
  facet normal 0 0 -1
    outer loop
      vertex -10 -20 -62.5
      vertex -2.33754 -39.3737 -62.5
      vertex -2.42 -40 -62.5
    endloop
  endfacet
  facet normal 0 -1 0
    outer loop
      vertex -10 -20 -62.5
      vertex -2.42 -20 -72.5
      vertex -2.33754 -20 -71.8737
    endloop
  endfacet
  facet normal 0 -1 0
    outer loop
      vertex -10 -20 -62.5
      vertex 0 -20 -70.08
      vertex 10 -20 -62.5
    endloop
  endfacet
  facet normal 0 0 -1
    outer loop
      vertex -10 -20 -62.5
      vertex 0 -37.58 -62.5
      vertex -0.626342 -37.6625 -62.5
    endloop
  endfacet
  facet normal 0 0 -1
    outer loop
      vertex -10 -20 -62.5
      vertex 10 -20 -62.5
      vertex 0 -37.58 -62.5
    endloop
  endfacet
  facet normal 0 0 1
    outer loop
      vertex -10 -50 -57.5
      vertex -0.626342 -42.3375 -57.5
      vertex -1.21 -42.0958 -57.5
    endloop
  endfacet
  facet normal 0 1 0
    outer loop
      vertex -10 -50 -57.5
      vertex -0.626342 -50 -27.3375
      vertex 0 -50 -27.42
    endloop
  endfacet
  facet normal 0 0 1
    outer loop
      vertex -10 -50 -57.5
      vertex -1.21 -42.0958 -57.5
      vertex -1.7112 -41.7112 -57.5
    endloop
  endfacet
  facet normal 0 1 0
    outer loop
      vertex -10 -50 -57.5
      vertex -1.21 -50 -27.0958
      vertex -0.626342 -50 -27.3375
    endloop
  endfacet
  facet normal 0 0 1
    outer loop
      vertex -10 -50 -57.5
      vertex -1.7112 -41.7112 -57.5
      vertex -2.09578 -41.21 -57.5
    endloop
  endfacet
  facet normal 0 1 0
    outer loop
      vertex -10 -50 -57.5
      vertex -1.7112 -50 -26.7112
      vertex -1.21 -50 -27.0958
    endloop
  endfacet
  facet normal -1 0 0
    outer loop
      vertex -10 -50 -57.5
      vertex -10 -0.25 -57.5
      vertex -10 -20 -62.5
    endloop
  endfacet
  facet normal 0 1 0
    outer loop
      vertex -10 -50 -57.5
      vertex -10 -50 32
      vertex -2.42 -50 -25
    endloop
  endfacet
  facet normal 0 0 1
    outer loop
      vertex -10 -50 -57.5
      vertex -2.09578 -38.79 -57.5
      vertex -10 -0.25 -57.5
    endloop
  endfacet
  facet normal 0 0 1
    outer loop
      vertex -10 -50 -57.5
      vertex -2.09578 -41.21 -57.5
      vertex -2.33754 -40.6263 -57.5
    endloop
  endfacet
  facet normal 0 1 0
    outer loop
      vertex -10 -50 -57.5
      vertex -2.09578 -50 -26.21
      vertex -1.7112 -50 -26.7112
    endloop
  endfacet
  facet normal 0 0 1
    outer loop
      vertex -10 -50 -57.5
      vertex -2.33754 -39.3737 -57.5
      vertex -2.09578 -38.79 -57.5
    endloop
  endfacet
  facet normal 0 0 1
    outer loop
      vertex -10 -50 -57.5
      vertex -2.33754 -40.6263 -57.5
      vertex -2.42 -40 -57.5
    endloop
  endfacet
  facet normal 0 1 0
    outer loop
      vertex -10 -50 -57.5
      vertex -2.33754 -50 -25.6263
      vertex -2.09578 -50 -26.21
    endloop
  endfacet
  facet normal 0 0 1
    outer loop
      vertex -10 -50 -57.5
      vertex -2.42 -40 -57.5
      vertex -2.33754 -39.3737 -57.5
    endloop
  endfacet
  facet normal 0 1 0
    outer loop
      vertex -10 -50 -57.5
      vertex -2.42 -50 -25
      vertex -2.33754 -50 -25.6263
    endloop
  endfacet
  facet normal 0 0 1
    outer loop
      vertex -10 -50 -57.5
      vertex 0 -42.42 -57.5
      vertex -0.626342 -42.3375 -57.5
    endloop
  endfacet
  facet normal 0 1 0
    outer loop
      vertex -10 -50 -57.5
      vertex 0 -50 -27.42
      vertex 10 -50 -57.5
    endloop
  endfacet
  facet normal 0 0 1
    outer loop
      vertex -10 -50 -57.5
      vertex 10 -50 -57.5
      vertex 0 -42.42 -57.5
    endloop
  endfacet
  facet normal 0 1 0
    outer loop
      vertex -10 -50 32
      vertex -0.626342 -50 27.3375
      vertex -1.21 -50 27.0958
    endloop
  endfacet
  facet normal 0 1 0
    outer loop
      vertex -10 -50 32
      vertex -1.21 -50 27.0958
      vertex -1.7112 -50 26.7112
    endloop
  endfacet
  facet normal 0 1 0
    outer loop
      vertex -10 -50 32
      vertex -1.7112 -50 26.7112
      vertex -2.09578 -50 26.21
    endloop
  endfacet
  facet normal 0 1 0
    outer loop
      vertex -10 -50 32
      vertex -2.09578 -50 -23.79
      vertex -2.33754 -50 -24.3737
    endloop
  endfacet
  facet normal 0 1 0
    outer loop
      vertex -10 -50 32
      vertex -2.09578 -50 23.79
      vertex -2.09578 -50 -23.79
    endloop
  endfacet
  facet normal 0 1 0
    outer loop
      vertex -10 -50 32
      vertex -2.09578 -50 26.21
      vertex -2.33754 -50 25.6263
    endloop
  endfacet
  facet normal 0 1 0
    outer loop
      vertex -10 -50 32
      vertex -2.33754 -50 -24.3737
      vertex -2.42 -50 -25
    endloop
  endfacet
  facet normal 0 1 0
    outer loop
      vertex -10 -50 32
      vertex -2.33754 -50 24.3737
      vertex -2.09578 -50 23.79
    endloop
  endfacet
  facet normal 0 1 0
    outer loop
      vertex -10 -50 32
      vertex -2.33754 -50 25.6263
      vertex -2.42 -50 25
    endloop
  endfacet
  facet normal 0 1 0
    outer loop
      vertex -10 -50 32
      vertex -2.42 -50 25
      vertex -2.33754 -50 24.3737
    endloop
  endfacet
  facet normal 0 1 0
    outer loop
      vertex -10 -50 32
      vertex 0 -50 27.42
      vertex -0.626342 -50 27.3375
    endloop
  endfacet
  facet normal 0 1 0
    outer loop
      vertex -10 -50 32
      vertex 10 -50 32
      vertex 0 -50 27.42
    endloop
  endfacet
  facet normal 0 0 1
    outer loop
      vertex -10 -50 32
      vertex 10 -55 32
      vertex 10 -50 32
    endloop
  endfacet
  facet normal 0 0 -1
    outer loop
      vertex -10 -55 -62.5
      vertex -0.626342 -42.3375 -62.5
      vertex 0 -42.42 -62.5
    endloop
  endfacet
  facet normal 0 -1 0
    outer loop
      vertex -10 -55 -62.5
      vertex -0.626342 -55 -27.3375
      vertex -1.21 -55 -27.0958
    endloop
  endfacet
  facet normal 0 0 -1
    outer loop
      vertex -10 -55 -62.5
      vertex -1.21 -42.0958 -62.5
      vertex -0.626342 -42.3375 -62.5
    endloop
  endfacet
  facet normal 0 -1 0
    outer loop
      vertex -10 -55 -62.5
      vertex -1.21 -55 -27.0958
      vertex -1.7112 -55 -26.7112
    endloop
  endfacet
  facet normal 0 0 -1
    outer loop
      vertex -10 -55 -62.5
      vertex -1.7112 -41.7112 -62.5
      vertex -1.21 -42.0958 -62.5
    endloop
  endfacet
  facet normal 0 -1 0
    outer loop
      vertex -10 -55 -62.5
      vertex -1.7112 -55 -26.7112
      vertex -2.09578 -55 -26.21
    endloop
  endfacet
  facet normal 0 0 -1
    outer loop
      vertex -10 -55 -62.5
      vertex -10 -20 -62.5
      vertex -2.42 -40 -62.5
    endloop
  endfacet
  facet normal -1 0 0
    outer loop
      vertex -10 -55 -62.5
      vertex -10 -50 -57.5
      vertex -10 -20 -62.5
    endloop
  endfacet
  facet normal -1 0 0
    outer loop
      vertex -10 -55 -62.5
      vertex -10 -55 32
      vertex -10 -50 -57.5
    endloop
  endfacet
  facet normal 0 0 -1
    outer loop
      vertex -10 -55 -62.5
      vertex -2.09578 -41.21 -62.5
      vertex -1.7112 -41.7112 -62.5
    endloop
  endfacet
  facet normal 0 -1 0
    outer loop
      vertex -10 -55 -62.5
      vertex -2.09578 -55 -26.21
      vertex -2.33754 -55 -25.6263
    endloop
  endfacet
  facet normal 0 0 -1
    outer loop
      vertex -10 -55 -62.5
      vertex -2.33754 -40.6263 -62.5
      vertex -2.09578 -41.21 -62.5
    endloop
  endfacet
  facet normal 0 -1 0
    outer loop
      vertex -10 -55 -62.5
      vertex -2.33754 -55 -25.6263
      vertex -2.42 -55 -25
    endloop
  endfacet
  facet normal 0 0 -1
    outer loop
      vertex -10 -55 -62.5
      vertex -2.42 -40 -62.5
      vertex -2.33754 -40.6263 -62.5
    endloop
  endfacet
  facet normal 0 -1 0
    outer loop
      vertex -10 -55 -62.5
      vertex -2.42 -55 -25
      vertex -10 -55 32
    endloop
  endfacet
  facet normal 0 0 -1
    outer loop
      vertex -10 -55 -62.5
      vertex 0 -42.42 -62.5
      vertex 10 -55 -62.5
    endloop
  endfacet
  facet normal 0 -1 0
    outer loop
      vertex -10 -55 -62.5
      vertex 0 -55 -27.42
      vertex -0.626342 -55 -27.3375
    endloop
  endfacet
  facet normal 0 -1 0
    outer loop
      vertex -10 -55 -62.5
      vertex 10 -55 -62.5
      vertex 0 -55 -27.42
    endloop
  endfacet
  facet normal 0 -1 0
    outer loop
      vertex -10 -55 32
      vertex -0.626342 -55 27.3375
      vertex 0 -55 27.42
    endloop
  endfacet
  facet normal 0 -1 0
    outer loop
      vertex -10 -55 32
      vertex -1.21 -55 27.0958
      vertex -0.626342 -55 27.3375
    endloop
  endfacet
  facet normal 0 -1 0
    outer loop
      vertex -10 -55 32
      vertex -1.7112 -55 26.7112
      vertex -1.21 -55 27.0958
    endloop
  endfacet
  facet normal -1 0 0
    outer loop
      vertex -10 -55 32
      vertex -10 -50 32
      vertex -10 -50 -57.5
    endloop
  endfacet
  facet normal 0 -1 0
    outer loop
      vertex -10 -55 32
      vertex -2.09578 -55 -23.79
      vertex -2.09578 -55 23.79
    endloop
  endfacet
  facet normal 0 -1 0
    outer loop
      vertex -10 -55 32
      vertex -2.09578 -55 23.79
      vertex -2.33754 -55 24.3737
    endloop
  endfacet
  facet normal 0 -1 0
    outer loop
      vertex -10 -55 32
      vertex -2.09578 -55 26.21
      vertex -1.7112 -55 26.7112
    endloop
  endfacet
  facet normal 0 -1 0
    outer loop
      vertex -10 -55 32
      vertex -2.33754 -55 -24.3737
      vertex -2.09578 -55 -23.79
    endloop
  endfacet
  facet normal 0 -1 0
    outer loop
      vertex -10 -55 32
      vertex -2.33754 -55 24.3737
      vertex -2.42 -55 25
    endloop
  endfacet
  facet normal 0 -1 0
    outer loop
      vertex -10 -55 32
      vertex -2.33754 -55 25.6263
      vertex -2.09578 -55 26.21
    endloop
  endfacet
  facet normal 0 -1 0
    outer loop
      vertex -10 -55 32
      vertex -2.42 -55 -25
      vertex -2.33754 -55 -24.3737
    endloop
  endfacet
  facet normal 0 -1 0
    outer loop
      vertex -10 -55 32
      vertex -2.42 -55 25
      vertex -2.33754 -55 25.6263
    endloop
  endfacet
  facet normal 0 -1 0
    outer loop
      vertex -10 -55 32
      vertex 0 -55 27.42
      vertex 10 -55 32
    endloop
  endfacet
  facet normal 0 0 1
    outer loop
      vertex -10 -55 32
      vertex 10 -55 32
      vertex -10 -50 32
    endloop
  endfacet
  facet normal 0.793357 0 -0.608757
    outer loop
      vertex -2.09578 -15 -71.29
      vertex -1.7112 -15 -70.7888
      vertex -1.7112 -20 -70.7888
    endloop
  endfacet
  facet normal 0 1 0
    outer loop
      vertex -2.09578 -15 -73.71
      vertex -1.7112 -15 -74.2112
      vertex -1.7112 -15 -90.7888
    endloop
  endfacet
  facet normal 0.793357 0 -0.608757
    outer loop
      vertex -2.09578 -15 -91.29
      vertex -1.7112 -15 -90.7888
      vertex -1.7112 -20 -90.7888
    endloop
  endfacet
  facet normal 0 1 0
    outer loop
      vertex -2.09578 -15 -91.29
      vertex -2.09578 -15 -73.71
      vertex -1.7112 -15 -90.7888
    endloop
  endfacet
  facet normal 0.793357 0 -0.608757
    outer loop
      vertex -2.09578 -20 -71.29
      vertex -2.09578 -15 -71.29
      vertex -1.7112 -20 -70.7888
    endloop
  endfacet
  facet normal 0.793357 0 0.608757
    outer loop
      vertex -2.09578 -20 -73.71
      vertex -1.7112 -15 -74.2112
      vertex -2.09578 -15 -73.71
    endloop
  endfacet
  facet normal 0.793357 0 0.608757
    outer loop
      vertex -2.09578 -20 -73.71
      vertex -1.7112 -20 -74.2112
      vertex -1.7112 -15 -74.2112
    endloop
  endfacet
  facet normal 0 -1 0
    outer loop
      vertex -2.09578 -20 -73.71
      vertex -1.7112 -20 -90.7888
      vertex -1.7112 -20 -74.2112
    endloop
  endfacet
  facet normal 0 -1 0
    outer loop
      vertex -2.09578 -20 -91.29
      vertex -1.7112 -20 -90.7888
      vertex -2.09578 -20 -73.71
    endloop
  endfacet
  facet normal 0.793357 0 -0.608757
    outer loop
      vertex -2.09578 -20 -91.29
      vertex -2.09578 -15 -91.29
      vertex -1.7112 -20 -90.7888
    endloop
  endfacet
  facet normal 0.793357 0 0.608757
    outer loop
      vertex -2.09578 -20 -93.71
      vertex -1.7112 -15 -94.2112
      vertex -2.09578 -15 -93.71
    endloop
  endfacet
  facet normal 0.793357 0 0.608757
    outer loop
      vertex -2.09578 -20 -93.71
      vertex -1.7112 -20 -94.2112
      vertex -1.7112 -15 -94.2112
    endloop
  endfacet
  facet normal 0.793357 -0.608757 0
    outer loop
      vertex -2.09578 -38.79 -57.5
      vertex -1.7112 -38.2888 -62.5
      vertex -1.7112 -38.2888 -57.5
    endloop
  endfacet
  facet normal 0.793357 -0.608757 0
    outer loop
      vertex -2.09578 -38.79 -62.5
      vertex -1.7112 -38.2888 -62.5
      vertex -2.09578 -38.79 -57.5
    endloop
  endfacet
  facet normal 0.793357 0.608757 0
    outer loop
      vertex -2.09578 -41.21 -62.5
      vertex -1.7112 -41.7112 -57.5
      vertex -1.7112 -41.7112 -62.5
    endloop
  endfacet
  facet normal 0.793357 0.608757 0
    outer loop
      vertex -2.09578 -41.21 -62.5
      vertex -2.09578 -41.21 -57.5
      vertex -1.7112 -41.7112 -57.5
    endloop
  endfacet
  facet normal 0.793357 0 -0.608757
    outer loop
      vertex -2.09578 -50 -23.79
      vertex -1.7112 -50 -23.2888
      vertex -1.7112 -55 -23.2888
    endloop
  endfacet
  facet normal 0 1 0
    outer loop
      vertex -2.09578 -50 -23.79
      vertex -1.7112 -50 23.2888
      vertex -1.7112 -50 -23.2888
    endloop
  endfacet
  facet normal 0 1 0
    outer loop
      vertex -2.09578 -50 -23.79
      vertex -2.09578 -50 23.79
      vertex -1.7112 -50 23.2888
    endloop
  endfacet
  facet normal 0.793357 0 -0.608757
    outer loop
      vertex -2.09578 -50 26.21
      vertex -1.7112 -50 26.7112
      vertex -1.7112 -55 26.7112
    endloop
  endfacet
  facet normal 0 -1 0
    outer loop
      vertex -2.09578 -55 -23.79
      vertex -1.7112 -55 -23.2888
      vertex -1.7112 -55 23.2888
    endloop
  endfacet
  facet normal 0 -1 0
    outer loop
      vertex -2.09578 -55 -23.79
      vertex -1.7112 -55 23.2888
      vertex -2.09578 -55 23.79
    endloop
  endfacet
  facet normal 0.793357 0 -0.608757
    outer loop
      vertex -2.09578 -55 -23.79
      vertex -2.09578 -50 -23.79
      vertex -1.7112 -55 -23.2888
    endloop
  endfacet
  facet normal 0.793357 0 0.608757
    outer loop
      vertex -2.09578 -55 -26.21
      vertex -1.7112 -50 -26.7112
      vertex -2.09578 -50 -26.21
    endloop
  endfacet
  facet normal 0.793357 0 0.608757
    outer loop
      vertex -2.09578 -55 -26.21
      vertex -1.7112 -55 -26.7112
      vertex -1.7112 -50 -26.7112
    endloop
  endfacet
  facet normal 0.793357 0 0.608757
    outer loop
      vertex -2.09578 -55 23.79
      vertex -1.7112 -50 23.2888
      vertex -2.09578 -50 23.79
    endloop
  endfacet
  facet normal 0.793357 0 0.608757
    outer loop
      vertex -2.09578 -55 23.79
      vertex -1.7112 -55 23.2888
      vertex -1.7112 -50 23.2888
    endloop
  endfacet
  facet normal 0.793357 0 -0.608757
    outer loop
      vertex -2.09578 -55 26.21
      vertex -2.09578 -50 26.21
      vertex -1.7112 -55 26.7112
    endloop
  endfacet
  facet normal 0.923889 0 -0.382661
    outer loop
      vertex -2.33754 -15 -71.8737
      vertex -2.09578 -15 -71.29
      vertex -2.09578 -20 -71.29
    endloop
  endfacet
  facet normal 0 1 0
    outer loop
      vertex -2.33754 -15 -91.8737
      vertex -2.09578 -15 -73.71
      vertex -2.09578 -15 -91.29
    endloop
  endfacet
  facet normal 0.923889 0 -0.382661
    outer loop
      vertex -2.33754 -15 -91.8737
      vertex -2.09578 -15 -91.29
      vertex -2.09578 -20 -91.29
    endloop
  endfacet
  facet normal 0 1 0
    outer loop
      vertex -2.33754 -15 -91.8737
      vertex -2.33754 -15 -73.1263
      vertex -2.09578 -15 -73.71
    endloop
  endfacet
  facet normal 0.923889 0 -0.382661
    outer loop
      vertex -2.33754 -20 -71.8737
      vertex -2.33754 -15 -71.8737
      vertex -2.09578 -20 -71.29
    endloop
  endfacet
  facet normal 0.923889 0 0.382661
    outer loop
      vertex -2.33754 -20 -73.1263
      vertex -2.09578 -15 -73.71
      vertex -2.33754 -15 -73.1263
    endloop
  endfacet
  facet normal 0.923889 0 0.382661
    outer loop
      vertex -2.33754 -20 -73.1263
      vertex -2.09578 -20 -73.71
      vertex -2.09578 -15 -73.71
    endloop
  endfacet
  facet normal 0 -1 0
    outer loop
      vertex -2.33754 -20 -91.8737
      vertex -2.09578 -20 -73.71
      vertex -2.33754 -20 -73.1263
    endloop
  endfacet
  facet normal 0 -1 0
    outer loop
      vertex -2.33754 -20 -91.8737
      vertex -2.09578 -20 -91.29
      vertex -2.09578 -20 -73.71
    endloop
  endfacet
  facet normal 0.923889 0 -0.382661
    outer loop
      vertex -2.33754 -20 -91.8737
      vertex -2.33754 -15 -91.8737
      vertex -2.09578 -20 -91.29
    endloop
  endfacet
  facet normal 0.923889 0 0.382661
    outer loop
      vertex -2.33754 -20 -93.1263
      vertex -2.09578 -15 -93.71
      vertex -2.33754 -15 -93.1263
    endloop
  endfacet
  facet normal 0.923889 0 0.382661
    outer loop
      vertex -2.33754 -20 -93.1263
      vertex -2.09578 -20 -93.71
      vertex -2.09578 -15 -93.71
    endloop
  endfacet
  facet normal 0.923889 -0.382661 0
    outer loop
      vertex -2.33754 -39.3737 -57.5
      vertex -2.09578 -38.79 -62.5
      vertex -2.09578 -38.79 -57.5
    endloop
  endfacet
  facet normal 0.923889 -0.382661 0
    outer loop
      vertex -2.33754 -39.3737 -62.5
      vertex -2.09578 -38.79 -62.5
      vertex -2.33754 -39.3737 -57.5
    endloop
  endfacet
  facet normal 0.923889 0.382661 0
    outer loop
      vertex -2.33754 -40.6263 -62.5
      vertex -2.09578 -41.21 -57.5
      vertex -2.09578 -41.21 -62.5
    endloop
  endfacet
  facet normal 0.923889 0.382661 0
    outer loop
      vertex -2.33754 -40.6263 -62.5
      vertex -2.33754 -40.6263 -57.5
      vertex -2.09578 -41.21 -57.5
    endloop
  endfacet
  facet normal 0.923889 0 -0.382661
    outer loop
      vertex -2.33754 -50 -24.3737
      vertex -2.09578 -50 -23.79
      vertex -2.09578 -55 -23.79
    endloop
  endfacet
  facet normal 0.923889 0 -0.382661
    outer loop
      vertex -2.33754 -50 25.6263
      vertex -2.09578 -50 26.21
      vertex -2.09578 -55 26.21
    endloop
  endfacet
  facet normal 0.923889 0 -0.382661
    outer loop
      vertex -2.33754 -55 -24.3737
      vertex -2.33754 -50 -24.3737
      vertex -2.09578 -55 -23.79
    endloop
  endfacet
  facet normal 0.923889 0 0.382661
    outer loop
      vertex -2.33754 -55 -25.6263
      vertex -2.09578 -50 -26.21
      vertex -2.33754 -50 -25.6263
    endloop
  endfacet
  facet normal 0.923889 0 0.382661
    outer loop
      vertex -2.33754 -55 -25.6263
      vertex -2.09578 -55 -26.21
      vertex -2.09578 -50 -26.21
    endloop
  endfacet
  facet normal 0.923889 0 0.382661
    outer loop
      vertex -2.33754 -55 24.3737
      vertex -2.09578 -50 23.79
      vertex -2.33754 -50 24.3737
    endloop
  endfacet
  facet normal 0.923889 0 0.382661
    outer loop
      vertex -2.33754 -55 24.3737
      vertex -2.09578 -55 23.79
      vertex -2.09578 -50 23.79
    endloop
  endfacet
  facet normal 0.923889 0 -0.382661
    outer loop
      vertex -2.33754 -55 25.6263
      vertex -2.33754 -50 25.6263
      vertex -2.09578 -55 26.21
    endloop
  endfacet
  facet normal 0.991444 0 -0.130536
    outer loop
      vertex -2.42 -15 -72.5
      vertex -2.33754 -15 -71.8737
      vertex -2.33754 -20 -71.8737
    endloop
  endfacet
  facet normal 0.991444 0 -0.130536
    outer loop
      vertex -2.42 -15 -92.5
      vertex -2.33754 -15 -91.8737
      vertex -2.33754 -20 -91.8737
    endloop
  endfacet
  facet normal 0.991444 0 0.130536
    outer loop
      vertex -2.42 -20 -72.5
      vertex -2.33754 -15 -73.1263
      vertex -2.42 -15 -72.5
    endloop
  endfacet
  facet normal 0.991444 0 0.130536
    outer loop
      vertex -2.42 -20 -72.5
      vertex -2.33754 -20 -73.1263
      vertex -2.33754 -15 -73.1263
    endloop
  endfacet
  facet normal 0.991444 0 -0.130536
    outer loop
      vertex -2.42 -20 -72.5
      vertex -2.42 -15 -72.5
      vertex -2.33754 -20 -71.8737
    endloop
  endfacet
  facet normal 0.991444 0 0.130536
    outer loop
      vertex -2.42 -20 -92.5
      vertex -2.33754 -15 -93.1263
      vertex -2.42 -15 -92.5
    endloop
  endfacet
  facet normal 0.991444 0 0.130536
    outer loop
      vertex -2.42 -20 -92.5
      vertex -2.33754 -20 -93.1263
      vertex -2.33754 -15 -93.1263
    endloop
  endfacet
  facet normal 0.991444 0 -0.130536
    outer loop
      vertex -2.42 -20 -92.5
      vertex -2.42 -15 -92.5
      vertex -2.33754 -20 -91.8737
    endloop
  endfacet
  facet normal 0.991444 -0.130536 0
    outer loop
      vertex -2.42 -40 -57.5
      vertex -2.33754 -39.3737 -62.5
      vertex -2.33754 -39.3737 -57.5
    endloop
  endfacet
  facet normal 0.991444 -0.130536 0
    outer loop
      vertex -2.42 -40 -62.5
      vertex -2.33754 -39.3737 -62.5
      vertex -2.42 -40 -57.5
    endloop
  endfacet
  facet normal 0.991444 0.130536 0
    outer loop
      vertex -2.42 -40 -62.5
      vertex -2.33754 -40.6263 -57.5
      vertex -2.33754 -40.6263 -62.5
    endloop
  endfacet
  facet normal 0.991444 0.130536 0
    outer loop
      vertex -2.42 -40 -62.5
      vertex -2.42 -40 -57.5
      vertex -2.33754 -40.6263 -57.5
    endloop
  endfacet
  facet normal 0.991444 0 -0.130536
    outer loop
      vertex -2.42 -50 -25
      vertex -2.33754 -50 -24.3737
      vertex -2.33754 -55 -24.3737
    endloop
  endfacet
  facet normal 0.991444 0 -0.130536
    outer loop
      vertex -2.42 -50 25
      vertex -2.33754 -50 25.6263
      vertex -2.33754 -55 25.6263
    endloop
  endfacet
  facet normal 0.991444 0 0.130536
    outer loop
      vertex -2.42 -55 -25
      vertex -2.33754 -50 -25.6263
      vertex -2.42 -50 -25
    endloop
  endfacet
  facet normal 0.991444 0 0.130536
    outer loop
      vertex -2.42 -55 -25
      vertex -2.33754 -55 -25.6263
      vertex -2.33754 -50 -25.6263
    endloop
  endfacet
  facet normal 0.991444 0 -0.130536
    outer loop
      vertex -2.42 -55 -25
      vertex -2.42 -50 -25
      vertex -2.33754 -55 -24.3737
    endloop
  endfacet
  facet normal 0.991444 0 0.130536
    outer loop
      vertex -2.42 -55 25
      vertex -2.33754 -50 24.3737
      vertex -2.42 -50 25
    endloop
  endfacet
  facet normal 0.991444 0 0.130536
    outer loop
      vertex -2.42 -55 25
      vertex -2.33754 -55 24.3737
      vertex -2.33754 -50 24.3737
    endloop
  endfacet
  facet normal 0.991444 0 -0.130536
    outer loop
      vertex -2.42 -55 25
      vertex -2.42 -50 25
      vertex -2.33754 -55 25.6263
    endloop
  endfacet
  facet normal 0 1 0
    outer loop
      vertex 0 -15 -70.08
      vertex 10 -15 -62.5
      vertex 0.626342 -15 -70.1625
    endloop
  endfacet
  facet normal -0.130589 0 0.991437
    outer loop
      vertex 0 -15 -74.92
      vertex 0.626342 -20 -74.8375
      vertex 0.626342 -15 -74.8375
    endloop
  endfacet
  facet normal 0 1 0
    outer loop
      vertex 0 -15 -90.08
      vertex 0 -15 -74.92
      vertex 0.626342 -15 -74.8375
    endloop
  endfacet
  facet normal 0 1 0
    outer loop
      vertex 0 -15 -90.08
      vertex 0.626342 -15 -74.8375
      vertex 0.626342 -15 -90.1625
    endloop
  endfacet
  facet normal 0 1 0
    outer loop
      vertex 0 -15 -94.92
      vertex 0.626342 -15 -94.8375
      vertex 10 -15 -102.5
    endloop
  endfacet
  facet normal -0.130589 0 0.991437
    outer loop
      vertex 0 -15 -94.92
      vertex 0.626342 -20 -94.8375
      vertex 0.626342 -15 -94.8375
    endloop
  endfacet
  facet normal -0.130589 0 -0.991437
    outer loop
      vertex 0 -20 -70.08
      vertex 0 -15 -70.08
      vertex 0.626342 -15 -70.1625
    endloop
  endfacet
  facet normal -0.130589 0 -0.991437
    outer loop
      vertex 0 -20 -70.08
      vertex 0.626342 -15 -70.1625
      vertex 0.626342 -20 -70.1625
    endloop
  endfacet
  facet normal 0 -1 0
    outer loop
      vertex 0 -20 -70.08
      vertex 0.626342 -20 -70.1625
      vertex 10 -20 -62.5
    endloop
  endfacet
  facet normal -0.130589 0 0.991437
    outer loop
      vertex 0 -20 -74.92
      vertex 0.626342 -20 -74.8375
      vertex 0 -15 -74.92
    endloop
  endfacet
  facet normal -0.130589 0 -0.991437
    outer loop
      vertex 0 -20 -90.08
      vertex 0 -15 -90.08
      vertex 0.626342 -15 -90.1625
    endloop
  endfacet
  facet normal -0.130589 0 -0.991437
    outer loop
      vertex 0 -20 -90.08
      vertex 0.626342 -15 -90.1625
      vertex 0.626342 -20 -90.1625
    endloop
  endfacet
  facet normal 0 -1 0
    outer loop
      vertex 0 -20 -90.08
      vertex 0.626342 -20 -74.8375
      vertex 0 -20 -74.92
    endloop
  endfacet
  facet normal 0 -1 0
    outer loop
      vertex 0 -20 -90.08
      vertex 0.626342 -20 -90.1625
      vertex 0.626342 -20 -74.8375
    endloop
  endfacet
  facet normal -0.130589 0 0.991437
    outer loop
      vertex 0 -20 -94.92
      vertex 0.626342 -20 -94.8375
      vertex 0 -15 -94.92
    endloop
  endfacet
  facet normal 0 -1 0
    outer loop
      vertex 0 -20 -94.92
      vertex 10 -20 -102.5
      vertex 0.626342 -20 -94.8375
    endloop
  endfacet
  facet normal 0 0 1
    outer loop
      vertex 0 -37.58 -57.5
      vertex 0.626342 -37.6625 -57.5
      vertex 10 -0.25 -57.5
    endloop
  endfacet
  facet normal -0.130589 -0.991437 0
    outer loop
      vertex 0 -37.58 -62.5
      vertex 0.626342 -37.6625 -57.5
      vertex 0 -37.58 -57.5
    endloop
  endfacet
  facet normal -0.130589 -0.991437 0
    outer loop
      vertex 0 -37.58 -62.5
      vertex 0.626342 -37.6625 -62.5
      vertex 0.626342 -37.6625 -57.5
    endloop
  endfacet
  facet normal 0 0 -1
    outer loop
      vertex 0 -37.58 -62.5
      vertex 10 -20 -62.5
      vertex 0.626342 -37.6625 -62.5
    endloop
  endfacet
  facet normal -0.130589 0.991437 0
    outer loop
      vertex 0 -42.42 -57.5
      vertex 0.626342 -42.3375 -57.5
      vertex 0.626342 -42.3375 -62.5
    endloop
  endfacet
  facet normal 0 0 1
    outer loop
      vertex 0 -42.42 -57.5
      vertex 10 -50 -57.5
      vertex 0.626342 -42.3375 -57.5
    endloop
  endfacet
  facet normal -0.130589 0.991437 0
    outer loop
      vertex 0 -42.42 -62.5
      vertex 0 -42.42 -57.5
      vertex 0.626342 -42.3375 -62.5
    endloop
  endfacet
  facet normal 0 0 -1
    outer loop
      vertex 0 -42.42 -62.5
      vertex 0.626342 -42.3375 -62.5
      vertex 10 -55 -62.5
    endloop
  endfacet
  facet normal 0 1 0
    outer loop
      vertex 0 -50 -22.58
      vertex 0 -50 22.58
      vertex 0.626342 -50 22.6625
    endloop
  endfacet
  facet normal 0 1 0
    outer loop
      vertex 0 -50 -22.58
      vertex 0.626342 -50 22.6625
      vertex 0.626342 -50 -22.6625
    endloop
  endfacet
  facet normal 0 1 0
    outer loop
      vertex 0 -50 -27.42
      vertex 0.626342 -50 -27.3375
      vertex 10 -50 -57.5
    endloop
  endfacet
  facet normal -0.130589 0 0.991437
    outer loop
      vertex 0 -50 -27.42
      vertex 0.626342 -55 -27.3375
      vertex 0.626342 -50 -27.3375
    endloop
  endfacet
  facet normal -0.130589 0 0.991437
    outer loop
      vertex 0 -50 22.58
      vertex 0.626342 -55 22.6625
      vertex 0.626342 -50 22.6625
    endloop
  endfacet
  facet normal 0 1 0
    outer loop
      vertex 0 -50 27.42
      vertex 10 -50 32
      vertex 0.626342 -50 27.3375
    endloop
  endfacet
  facet normal -0.130589 0 -0.991437
    outer loop
      vertex 0 -55 -22.58
      vertex 0 -50 -22.58
      vertex 0.626342 -50 -22.6625
    endloop
  endfacet
  facet normal -0.130589 0 -0.991437
    outer loop
      vertex 0 -55 -22.58
      vertex 0.626342 -50 -22.6625
      vertex 0.626342 -55 -22.6625
    endloop
  endfacet
  facet normal 0 -1 0
    outer loop
      vertex 0 -55 -22.58
      vertex 0.626342 -55 -22.6625
      vertex 0.626342 -55 22.6625
    endloop
  endfacet
  facet normal 0 -1 0
    outer loop
      vertex 0 -55 -22.58
      vertex 0.626342 -55 22.6625
      vertex 0 -55 22.58
    endloop
  endfacet
  facet normal -0.130589 0 0.991437
    outer loop
      vertex 0 -55 -27.42
      vertex 0.626342 -55 -27.3375
      vertex 0 -50 -27.42
    endloop
  endfacet
  facet normal 0 -1 0
    outer loop
      vertex 0 -55 -27.42
      vertex 10 -55 -62.5
      vertex 0.626342 -55 -27.3375
    endloop
  endfacet
  facet normal -0.130589 0 0.991437
    outer loop
      vertex 0 -55 22.58
      vertex 0.626342 -55 22.6625
      vertex 0 -50 22.58
    endloop
  endfacet
  facet normal -0.130589 0 -0.991437
    outer loop
      vertex 0 -55 27.42
      vertex 0 -50 27.42
      vertex 0.626342 -50 27.3375
    endloop
  endfacet
  facet normal -0.130589 0 -0.991437
    outer loop
      vertex 0 -55 27.42
      vertex 0.626342 -50 27.3375
      vertex 0.626342 -55 27.3375
    endloop
  endfacet
  facet normal 0 -1 0
    outer loop
      vertex 0 -55 27.42
      vertex 0.626342 -55 27.3375
      vertex 10 -55 32
    endloop
  endfacet
  facet normal 0 1 0
    outer loop
      vertex 0.626342 -15 -70.1625
      vertex 10 -15 -62.5
      vertex 1.21 -15 -70.4042
    endloop
  endfacet
  facet normal -0.382604 0 0.923913
    outer loop
      vertex 0.626342 -15 -74.8375
      vertex 1.21 -20 -74.5958
      vertex 1.21 -15 -74.5958
    endloop
  endfacet
  facet normal 0 1 0
    outer loop
      vertex 0.626342 -15 -90.1625
      vertex 0.626342 -15 -74.8375
      vertex 1.21 -15 -74.5958
    endloop
  endfacet
  facet normal 0 1 0
    outer loop
      vertex 0.626342 -15 -90.1625
      vertex 1.21 -15 -74.5958
      vertex 1.21 -15 -90.4042
    endloop
  endfacet
  facet normal 0 1 0
    outer loop
      vertex 0.626342 -15 -94.8375
      vertex 1.21 -15 -94.5958
      vertex 10 -15 -102.5
    endloop
  endfacet
  facet normal -0.382604 0 0.923913
    outer loop
      vertex 0.626342 -15 -94.8375
      vertex 1.21 -20 -94.5958
      vertex 1.21 -15 -94.5958
    endloop
  endfacet
  facet normal -0.382604 0 -0.923913
    outer loop
      vertex 0.626342 -20 -70.1625
      vertex 0.626342 -15 -70.1625
      vertex 1.21 -15 -70.4042
    endloop
  endfacet
  facet normal -0.382604 0 -0.923913
    outer loop
      vertex 0.626342 -20 -70.1625
      vertex 1.21 -15 -70.4042
      vertex 1.21 -20 -70.4042
    endloop
  endfacet
  facet normal 0 -1 0
    outer loop
      vertex 0.626342 -20 -70.1625
      vertex 1.21 -20 -70.4042
      vertex 10 -20 -62.5
    endloop
  endfacet
  facet normal -0.382604 0 0.923913
    outer loop
      vertex 0.626342 -20 -74.8375
      vertex 1.21 -20 -74.5958
      vertex 0.626342 -15 -74.8375
    endloop
  endfacet
  facet normal -0.382604 0 -0.923913
    outer loop
      vertex 0.626342 -20 -90.1625
      vertex 0.626342 -15 -90.1625
      vertex 1.21 -15 -90.4042
    endloop
  endfacet
  facet normal -0.382604 0 -0.923913
    outer loop
      vertex 0.626342 -20 -90.1625
      vertex 1.21 -15 -90.4042
      vertex 1.21 -20 -90.4042
    endloop
  endfacet
  facet normal 0 -1 0
    outer loop
      vertex 0.626342 -20 -90.1625
      vertex 1.21 -20 -74.5958
      vertex 0.626342 -20 -74.8375
    endloop
  endfacet
  facet normal 0 -1 0
    outer loop
      vertex 0.626342 -20 -90.1625
      vertex 1.21 -20 -90.4042
      vertex 1.21 -20 -74.5958
    endloop
  endfacet
  facet normal -0.382604 0 0.923913
    outer loop
      vertex 0.626342 -20 -94.8375
      vertex 1.21 -20 -94.5958
      vertex 0.626342 -15 -94.8375
    endloop
  endfacet
  facet normal 0 -1 0
    outer loop
      vertex 0.626342 -20 -94.8375
      vertex 10 -20 -102.5
      vertex 1.21 -20 -94.5958
    endloop
  endfacet
  facet normal 0 0 1
    outer loop
      vertex 0.626342 -37.6625 -57.5
      vertex 1.21 -37.9042 -57.5
      vertex 10 -0.25 -57.5
    endloop
  endfacet
  facet normal -0.382604 -0.923913 0
    outer loop
      vertex 0.626342 -37.6625 -62.5
      vertex 1.21 -37.9042 -57.5
      vertex 0.626342 -37.6625 -57.5
    endloop
  endfacet
  facet normal -0.382604 -0.923913 0
    outer loop
      vertex 0.626342 -37.6625 -62.5
      vertex 1.21 -37.9042 -62.5
      vertex 1.21 -37.9042 -57.5
    endloop
  endfacet
  facet normal 0 0 -1
    outer loop
      vertex 0.626342 -37.6625 -62.5
      vertex 10 -20 -62.5
      vertex 1.21 -37.9042 -62.5
    endloop
  endfacet
  facet normal -0.382604 0.923913 0
    outer loop
      vertex 0.626342 -42.3375 -57.5
      vertex 1.21 -42.0958 -57.5
      vertex 1.21 -42.0958 -62.5
    endloop
  endfacet
  facet normal 0 0 1
    outer loop
      vertex 0.626342 -42.3375 -57.5
      vertex 10 -50 -57.5
      vertex 1.21 -42.0958 -57.5
    endloop
  endfacet
  facet normal -0.382604 0.923913 0
    outer loop
      vertex 0.626342 -42.3375 -62.5
      vertex 0.626342 -42.3375 -57.5
      vertex 1.21 -42.0958 -62.5
    endloop
  endfacet
  facet normal 0 0 -1
    outer loop
      vertex 0.626342 -42.3375 -62.5
      vertex 1.21 -42.0958 -62.5
      vertex 10 -55 -62.5
    endloop
  endfacet
  facet normal 0 1 0
    outer loop
      vertex 0.626342 -50 -22.6625
      vertex 0.626342 -50 22.6625
      vertex 1.21 -50 22.9042
    endloop
  endfacet
  facet normal 0 1 0
    outer loop
      vertex 0.626342 -50 -22.6625
      vertex 1.21 -50 22.9042
      vertex 1.21 -50 -22.9042
    endloop
  endfacet
  facet normal 0 1 0
    outer loop
      vertex 0.626342 -50 -27.3375
      vertex 1.21 -50 -27.0958
      vertex 10 -50 -57.5
    endloop
  endfacet
  facet normal -0.382604 0 0.923913
    outer loop
      vertex 0.626342 -50 -27.3375
      vertex 1.21 -55 -27.0958
      vertex 1.21 -50 -27.0958
    endloop
  endfacet
  facet normal -0.382604 0 0.923913
    outer loop
      vertex 0.626342 -50 22.6625
      vertex 1.21 -55 22.9042
      vertex 1.21 -50 22.9042
    endloop
  endfacet
  facet normal 0 1 0
    outer loop
      vertex 0.626342 -50 27.3375
      vertex 10 -50 32
      vertex 1.21 -50 27.0958
    endloop
  endfacet
  facet normal -0.382604 0 -0.923913
    outer loop
      vertex 0.626342 -55 -22.6625
      vertex 0.626342 -50 -22.6625
      vertex 1.21 -50 -22.9042
    endloop
  endfacet
  facet normal -0.382604 0 -0.923913
    outer loop
      vertex 0.626342 -55 -22.6625
      vertex 1.21 -50 -22.9042
      vertex 1.21 -55 -22.9042
    endloop
  endfacet
  facet normal 0 -1 0
    outer loop
      vertex 0.626342 -55 -22.6625
      vertex 1.21 -55 -22.9042
      vertex 1.21 -55 22.9042
    endloop
  endfacet
  facet normal 0 -1 0
    outer loop
      vertex 0.626342 -55 -22.6625
      vertex 1.21 -55 22.9042
      vertex 0.626342 -55 22.6625
    endloop
  endfacet
  facet normal -0.382604 0 0.923913
    outer loop
      vertex 0.626342 -55 -27.3375
      vertex 1.21 -55 -27.0958
      vertex 0.626342 -50 -27.3375
    endloop
  endfacet
  facet normal 0 -1 0
    outer loop
      vertex 0.626342 -55 -27.3375
      vertex 10 -55 -62.5
      vertex 1.21 -55 -27.0958
    endloop
  endfacet
  facet normal -0.382604 0 0.923913
    outer loop
      vertex 0.626342 -55 22.6625
      vertex 1.21 -55 22.9042
      vertex 0.626342 -50 22.6625
    endloop
  endfacet
  facet normal -0.382604 0 -0.923913
    outer loop
      vertex 0.626342 -55 27.3375
      vertex 0.626342 -50 27.3375
      vertex 1.21 -50 27.0958
    endloop
  endfacet
  facet normal -0.382604 0 -0.923913
    outer loop
      vertex 0.626342 -55 27.3375
      vertex 1.21 -50 27.0958
      vertex 1.21 -55 27.0958
    endloop
  endfacet
  facet normal 0 -1 0
    outer loop
      vertex 0.626342 -55 27.3375
      vertex 1.21 -55 27.0958
      vertex 10 -55 32
    endloop
  endfacet
  facet normal 0 1 0
    outer loop
      vertex 1.21 -15 -70.4042
      vertex 10 -15 -62.5
      vertex 1.7112 -15 -70.7888
    endloop
  endfacet
  facet normal -0.608777 0 0.793341
    outer loop
      vertex 1.21 -15 -74.5958
      vertex 1.7112 -20 -74.2112
      vertex 1.7112 -15 -74.2112
    endloop
  endfacet
  facet normal 0 1 0
    outer loop
      vertex 1.21 -15 -90.4042
      vertex 1.21 -15 -74.5958
      vertex 1.7112 -15 -74.2112
    endloop
  endfacet
  facet normal 0 1 0
    outer loop
      vertex 1.21 -15 -90.4042
      vertex 1.7112 -15 -74.2112
      vertex 1.7112 -15 -90.7888
    endloop
  endfacet
  facet normal 0 1 0
    outer loop
      vertex 1.21 -15 -94.5958
      vertex 1.7112 -15 -94.2112
      vertex 10 -15 -102.5
    endloop
  endfacet
  facet normal -0.608777 0 0.793341
    outer loop
      vertex 1.21 -15 -94.5958
      vertex 1.7112 -20 -94.2112
      vertex 1.7112 -15 -94.2112
    endloop
  endfacet
  facet normal -0.608777 0 -0.793341
    outer loop
      vertex 1.21 -20 -70.4042
      vertex 1.21 -15 -70.4042
      vertex 1.7112 -15 -70.7888
    endloop
  endfacet
  facet normal -0.608777 0 -0.793341
    outer loop
      vertex 1.21 -20 -70.4042
      vertex 1.7112 -15 -70.7888
      vertex 1.7112 -20 -70.7888
    endloop
  endfacet
  facet normal 0 -1 0
    outer loop
      vertex 1.21 -20 -70.4042
      vertex 1.7112 -20 -70.7888
      vertex 10 -20 -62.5
    endloop
  endfacet
  facet normal -0.608777 0 0.793341
    outer loop
      vertex 1.21 -20 -74.5958
      vertex 1.7112 -20 -74.2112
      vertex 1.21 -15 -74.5958
    endloop
  endfacet
  facet normal -0.608777 0 -0.793341
    outer loop
      vertex 1.21 -20 -90.4042
      vertex 1.21 -15 -90.4042
      vertex 1.7112 -15 -90.7888
    endloop
  endfacet
  facet normal -0.608777 0 -0.793341
    outer loop
      vertex 1.21 -20 -90.4042
      vertex 1.7112 -15 -90.7888
      vertex 1.7112 -20 -90.7888
    endloop
  endfacet
  facet normal 0 -1 0
    outer loop
      vertex 1.21 -20 -90.4042
      vertex 1.7112 -20 -74.2112
      vertex 1.21 -20 -74.5958
    endloop
  endfacet
  facet normal 0 -1 0
    outer loop
      vertex 1.21 -20 -90.4042
      vertex 1.7112 -20 -90.7888
      vertex 1.7112 -20 -74.2112
    endloop
  endfacet
  facet normal -0.608777 0 0.793341
    outer loop
      vertex 1.21 -20 -94.5958
      vertex 1.7112 -20 -94.2112
      vertex 1.21 -15 -94.5958
    endloop
  endfacet
  facet normal 0 -1 0
    outer loop
      vertex 1.21 -20 -94.5958
      vertex 10 -20 -102.5
      vertex 1.7112 -20 -94.2112
    endloop
  endfacet
  facet normal 0 0 1
    outer loop
      vertex 1.21 -37.9042 -57.5
      vertex 1.7112 -38.2888 -57.5
      vertex 10 -0.25 -57.5
    endloop
  endfacet
  facet normal -0.608777 -0.793341 0
    outer loop
      vertex 1.21 -37.9042 -62.5
      vertex 1.7112 -38.2888 -57.5
      vertex 1.21 -37.9042 -57.5
    endloop
  endfacet
  facet normal -0.608777 -0.793341 0
    outer loop
      vertex 1.21 -37.9042 -62.5
      vertex 1.7112 -38.2888 -62.5
      vertex 1.7112 -38.2888 -57.5
    endloop
  endfacet
  facet normal 0 0 -1
    outer loop
      vertex 1.21 -37.9042 -62.5
      vertex 10 -20 -62.5
      vertex 1.7112 -38.2888 -62.5
    endloop
  endfacet
  facet normal -0.608777 0.793341 0
    outer loop
      vertex 1.21 -42.0958 -57.5
      vertex 1.7112 -41.7112 -57.5
      vertex 1.7112 -41.7112 -62.5
    endloop
  endfacet
  facet normal 0 0 1
    outer loop
      vertex 1.21 -42.0958 -57.5
      vertex 10 -50 -57.5
      vertex 1.7112 -41.7112 -57.5
    endloop
  endfacet
  facet normal -0.608777 0.793341 0
    outer loop
      vertex 1.21 -42.0958 -62.5
      vertex 1.21 -42.0958 -57.5
      vertex 1.7112 -41.7112 -62.5
    endloop
  endfacet
  facet normal 0 0 -1
    outer loop
      vertex 1.21 -42.0958 -62.5
      vertex 1.7112 -41.7112 -62.5
      vertex 10 -55 -62.5
    endloop
  endfacet
  facet normal 0 1 0
    outer loop
      vertex 1.21 -50 -22.9042
      vertex 1.21 -50 22.9042
      vertex 1.7112 -50 23.2888
    endloop
  endfacet
  facet normal 0 1 0
    outer loop
      vertex 1.21 -50 -22.9042
      vertex 1.7112 -50 23.2888
      vertex 1.7112 -50 -23.2888
    endloop
  endfacet
  facet normal 0 1 0
    outer loop
      vertex 1.21 -50 -27.0958
      vertex 1.7112 -50 -26.7112
      vertex 10 -50 -57.5
    endloop
  endfacet
  facet normal -0.608777 0 0.793341
    outer loop
      vertex 1.21 -50 -27.0958
      vertex 1.7112 -55 -26.7112
      vertex 1.7112 -50 -26.7112
    endloop
  endfacet
  facet normal -0.608777 0 0.793341
    outer loop
      vertex 1.21 -50 22.9042
      vertex 1.7112 -55 23.2888
      vertex 1.7112 -50 23.2888
    endloop
  endfacet
  facet normal 0 1 0
    outer loop
      vertex 1.21 -50 27.0958
      vertex 10 -50 32
      vertex 1.7112 -50 26.7112
    endloop
  endfacet
  facet normal -0.608777 0 -0.793341
    outer loop
      vertex 1.21 -55 -22.9042
      vertex 1.21 -50 -22.9042
      vertex 1.7112 -50 -23.2888
    endloop
  endfacet
  facet normal -0.608777 0 -0.793341
    outer loop
      vertex 1.21 -55 -22.9042
      vertex 1.7112 -50 -23.2888
      vertex 1.7112 -55 -23.2888
    endloop
  endfacet
  facet normal 0 -1 0
    outer loop
      vertex 1.21 -55 -22.9042
      vertex 1.7112 -55 -23.2888
      vertex 1.7112 -55 23.2888
    endloop
  endfacet
  facet normal 0 -1 0
    outer loop
      vertex 1.21 -55 -22.9042
      vertex 1.7112 -55 23.2888
      vertex 1.21 -55 22.9042
    endloop
  endfacet
  facet normal -0.608777 0 0.793341
    outer loop
      vertex 1.21 -55 -27.0958
      vertex 1.7112 -55 -26.7112
      vertex 1.21 -50 -27.0958
    endloop
  endfacet
  facet normal 0 -1 0
    outer loop
      vertex 1.21 -55 -27.0958
      vertex 10 -55 -62.5
      vertex 1.7112 -55 -26.7112
    endloop
  endfacet
  facet normal -0.608777 0 0.793341
    outer loop
      vertex 1.21 -55 22.9042
      vertex 1.7112 -55 23.2888
      vertex 1.21 -50 22.9042
    endloop
  endfacet
  facet normal -0.608777 0 -0.793341
    outer loop
      vertex 1.21 -55 27.0958
      vertex 1.21 -50 27.0958
      vertex 1.7112 -50 26.7112
    endloop
  endfacet
  facet normal -0.608777 0 -0.793341
    outer loop
      vertex 1.21 -55 27.0958
      vertex 1.7112 -50 26.7112
      vertex 1.7112 -55 26.7112
    endloop
  endfacet
  facet normal 0 -1 0
    outer loop
      vertex 1.21 -55 27.0958
      vertex 1.7112 -55 26.7112
      vertex 10 -55 32
    endloop
  endfacet
  facet normal 0 1 0
    outer loop
      vertex 1.7112 -15 -70.7888
      vertex 10 -15 -62.5
      vertex 2.09578 -15 -71.29
    endloop
  endfacet
  facet normal -0.793357 0 -0.608757
    outer loop
      vertex 1.7112 -15 -70.7888
      vertex 2.09578 -15 -71.29
      vertex 2.09578 -20 -71.29
    endloop
  endfacet
  facet normal 0 1 0
    outer loop
      vertex 1.7112 -15 -90.7888
      vertex 1.7112 -15 -74.2112
      vertex 2.09578 -15 -73.71
    endloop
  endfacet
  facet normal 0 1 0
    outer loop
      vertex 1.7112 -15 -90.7888
      vertex 2.09578 -15 -73.71
      vertex 2.09578 -15 -91.29
    endloop
  endfacet
  facet normal -0.793357 0 -0.608757
    outer loop
      vertex 1.7112 -15 -90.7888
      vertex 2.09578 -15 -91.29
      vertex 2.09578 -20 -91.29
    endloop
  endfacet
  facet normal 0 1 0
    outer loop
      vertex 1.7112 -15 -94.2112
      vertex 2.09578 -15 -93.71
      vertex 10 -15 -102.5
    endloop
  endfacet
  facet normal -0.793357 0 -0.608757
    outer loop
      vertex 1.7112 -20 -70.7888
      vertex 1.7112 -15 -70.7888
      vertex 2.09578 -20 -71.29
    endloop
  endfacet
  facet normal 0 -1 0
    outer loop
      vertex 1.7112 -20 -70.7888
      vertex 2.09578 -20 -71.29
      vertex 10 -20 -62.5
    endloop
  endfacet
  facet normal -0.793357 0 0.608757
    outer loop
      vertex 1.7112 -20 -74.2112
      vertex 2.09578 -15 -73.71
      vertex 1.7112 -15 -74.2112
    endloop
  endfacet
  facet normal -0.793357 0 0.608757
    outer loop
      vertex 1.7112 -20 -74.2112
      vertex 2.09578 -20 -73.71
      vertex 2.09578 -15 -73.71
    endloop
  endfacet
  facet normal -0.793357 0 -0.608757
    outer loop
      vertex 1.7112 -20 -90.7888
      vertex 1.7112 -15 -90.7888
      vertex 2.09578 -20 -91.29
    endloop
  endfacet
  facet normal 0 -1 0
    outer loop
      vertex 1.7112 -20 -90.7888
      vertex 2.09578 -20 -73.71
      vertex 1.7112 -20 -74.2112
    endloop
  endfacet
  facet normal 0 -1 0
    outer loop
      vertex 1.7112 -20 -90.7888
      vertex 2.09578 -20 -91.29
      vertex 2.09578 -20 -73.71
    endloop
  endfacet
  facet normal 0 -1 0
    outer loop
      vertex 1.7112 -20 -94.2112
      vertex 10 -20 -102.5
      vertex 2.09578 -20 -93.71
    endloop
  endfacet
  facet normal -0.793357 0 0.608757
    outer loop
      vertex 1.7112 -20 -94.2112
      vertex 2.09578 -15 -93.71
      vertex 1.7112 -15 -94.2112
    endloop
  endfacet
  facet normal -0.793357 0 0.608757
    outer loop
      vertex 1.7112 -20 -94.2112
      vertex 2.09578 -20 -93.71
      vertex 2.09578 -15 -93.71
    endloop
  endfacet
  facet normal 0 0 1
    outer loop
      vertex 1.7112 -38.2888 -57.5
      vertex 2.09578 -38.79 -57.5
      vertex 10 -0.25 -57.5
    endloop
  endfacet
  facet normal -0.793357 -0.608757 0
    outer loop
      vertex 1.7112 -38.2888 -57.5
      vertex 2.09578 -38.79 -62.5
      vertex 2.09578 -38.79 -57.5
    endloop
  endfacet
  facet normal 0 0 -1
    outer loop
      vertex 1.7112 -38.2888 -62.5
      vertex 10 -20 -62.5
      vertex 2.09578 -38.79 -62.5
    endloop
  endfacet
  facet normal -0.793357 -0.608757 0
    outer loop
      vertex 1.7112 -38.2888 -62.5
      vertex 2.09578 -38.79 -62.5
      vertex 1.7112 -38.2888 -57.5
    endloop
  endfacet
  facet normal 0 0 1
    outer loop
      vertex 1.7112 -41.7112 -57.5
      vertex 10 -50 -57.5
      vertex 2.09578 -41.21 -57.5
    endloop
  endfacet
  facet normal -0.793357 0.608757 0
    outer loop
      vertex 1.7112 -41.7112 -62.5
      vertex 1.7112 -41.7112 -57.5
      vertex 2.09578 -41.21 -57.5
    endloop
  endfacet
  facet normal -0.793357 0.608757 0
    outer loop
      vertex 1.7112 -41.7112 -62.5
      vertex 2.09578 -41.21 -57.5
      vertex 2.09578 -41.21 -62.5
    endloop
  endfacet
  facet normal 0 0 -1
    outer loop
      vertex 1.7112 -41.7112 -62.5
      vertex 2.09578 -41.21 -62.5
      vertex 10 -55 -62.5
    endloop
  endfacet
  facet normal 0 1 0
    outer loop
      vertex 1.7112 -50 -23.2888
      vertex 1.7112 -50 23.2888
      vertex 2.09578 -50 -23.79
    endloop
  endfacet
  facet normal -0.793357 0 -0.608757
    outer loop
      vertex 1.7112 -50 -23.2888
      vertex 2.09578 -50 -23.79
      vertex 2.09578 -55 -23.79
    endloop
  endfacet
  facet normal 0 1 0
    outer loop
      vertex 1.7112 -50 -26.7112
      vertex 2.09578 -50 -26.21
      vertex 10 -50 -57.5
    endloop
  endfacet
  facet normal 0 1 0
    outer loop
      vertex 1.7112 -50 23.2888
      vertex 2.09578 -50 23.79
      vertex 2.09578 -50 -23.79
    endloop
  endfacet
  facet normal 0 1 0
    outer loop
      vertex 1.7112 -50 26.7112
      vertex 10 -50 32
      vertex 2.09578 -50 26.21
    endloop
  endfacet
  facet normal -0.793357 0 -0.608757
    outer loop
      vertex 1.7112 -50 26.7112
      vertex 2.09578 -50 26.21
      vertex 2.09578 -55 26.21
    endloop
  endfacet
  facet normal -0.793357 0 -0.608757
    outer loop
      vertex 1.7112 -55 -23.2888
      vertex 1.7112 -50 -23.2888
      vertex 2.09578 -55 -23.79
    endloop
  endfacet
  facet normal 0 -1 0
    outer loop
      vertex 1.7112 -55 -23.2888
      vertex 2.09578 -55 -23.79
      vertex 1.7112 -55 23.2888
    endloop
  endfacet
  facet normal 0 -1 0
    outer loop
      vertex 1.7112 -55 -26.7112
      vertex 10 -55 -62.5
      vertex 2.09578 -55 -26.21
    endloop
  endfacet
  facet normal -0.793357 0 0.608757
    outer loop
      vertex 1.7112 -55 -26.7112
      vertex 2.09578 -50 -26.21
      vertex 1.7112 -50 -26.7112
    endloop
  endfacet
  facet normal -0.793357 0 0.608757
    outer loop
      vertex 1.7112 -55 -26.7112
      vertex 2.09578 -55 -26.21
      vertex 2.09578 -50 -26.21
    endloop
  endfacet
  facet normal -0.793357 0 0.608757
    outer loop
      vertex 1.7112 -55 23.2888
      vertex 2.09578 -50 23.79
      vertex 1.7112 -50 23.2888
    endloop
  endfacet
  facet normal 0 -1 0
    outer loop
      vertex 1.7112 -55 23.2888
      vertex 2.09578 -55 -23.79
      vertex 2.09578 -55 23.79
    endloop
  endfacet
  facet normal -0.793357 0 0.608757
    outer loop
      vertex 1.7112 -55 23.2888
      vertex 2.09578 -55 23.79
      vertex 2.09578 -50 23.79
    endloop
  endfacet
  facet normal -0.793357 0 -0.608757
    outer loop
      vertex 1.7112 -55 26.7112
      vertex 1.7112 -50 26.7112
      vertex 2.09578 -55 26.21
    endloop
  endfacet
  facet normal 0 -1 0
    outer loop
      vertex 1.7112 -55 26.7112
      vertex 2.09578 -55 26.21
      vertex 10 -55 32
    endloop
  endfacet
  facet normal 1 0 0
    outer loop
      vertex 10 -15 -62.5
      vertex 10 -0.25 -62.5
      vertex 10 -0.25 -57.5
    endloop
  endfacet
  facet normal 1 0 0
    outer loop
      vertex 10 -20 -102.5
      vertex 10 -15 -102.5
      vertex 10 -20 -62.5
    endloop
  endfacet
  facet normal 1 0 0
    outer loop
      vertex 10 -20 -62.5
      vertex 10 -15 -102.5
      vertex 10 -15 -62.5
    endloop
  endfacet
  facet normal 1 0 0
    outer loop
      vertex 10 -20 -62.5
      vertex 10 -15 -62.5
      vertex 10 -0.25 -57.5
    endloop
  endfacet
  facet normal 1 0 0
    outer loop
      vertex 10 -50 -57.5
      vertex 10 -20 -62.5
      vertex 10 -0.25 -57.5
    endloop
  endfacet
  facet normal 1 0 0
    outer loop
      vertex 10 -55 -62.5
      vertex 10 -20 -62.5
      vertex 10 -50 -57.5
    endloop
  endfacet
  facet normal 1 0 0
    outer loop
      vertex 10 -55 -62.5
      vertex 10 -50 -57.5
      vertex 10 -55 32
    endloop
  endfacet
  facet normal 1 0 0
    outer loop
      vertex 10 -55 32
      vertex 10 -50 -57.5
      vertex 10 -50 32
    endloop
  endfacet
  facet normal 0 1 0
    outer loop
      vertex 2.09578 -15 -71.29
      vertex 10 -15 -62.5
      vertex 2.33754 -15 -71.8737
    endloop
  endfacet
  facet normal -0.923889 0 -0.382661
    outer loop
      vertex 2.09578 -15 -71.29
      vertex 2.33754 -15 -71.8737
      vertex 2.33754 -20 -71.8737
    endloop
  endfacet
  facet normal 0 1 0
    outer loop
      vertex 2.09578 -15 -73.71
      vertex 2.33754 -15 -73.1263
      vertex 2.33754 -15 -91.8737
    endloop
  endfacet
  facet normal 0 1 0
    outer loop
      vertex 2.09578 -15 -91.29
      vertex 2.09578 -15 -73.71
      vertex 2.33754 -15 -91.8737
    endloop
  endfacet
  facet normal -0.923889 0 -0.382661
    outer loop
      vertex 2.09578 -15 -91.29
      vertex 2.33754 -15 -91.8737
      vertex 2.33754 -20 -91.8737
    endloop
  endfacet
  facet normal 0 1 0
    outer loop
      vertex 2.09578 -15 -93.71
      vertex 2.33754 -15 -93.1263
      vertex 10 -15 -102.5
    endloop
  endfacet
  facet normal -0.923889 0 -0.382661
    outer loop
      vertex 2.09578 -20 -71.29
      vertex 2.09578 -15 -71.29
      vertex 2.33754 -20 -71.8737
    endloop
  endfacet
  facet normal 0 -1 0
    outer loop
      vertex 2.09578 -20 -71.29
      vertex 2.33754 -20 -71.8737
      vertex 10 -20 -62.5
    endloop
  endfacet
  facet normal -0.923889 0 0.382661
    outer loop
      vertex 2.09578 -20 -73.71
      vertex 2.33754 -15 -73.1263
      vertex 2.09578 -15 -73.71
    endloop
  endfacet
  facet normal -0.923889 0 0.382661
    outer loop
      vertex 2.09578 -20 -73.71
      vertex 2.33754 -20 -73.1263
      vertex 2.33754 -15 -73.1263
    endloop
  endfacet
  facet normal 0 -1 0
    outer loop
      vertex 2.09578 -20 -73.71
      vertex 2.33754 -20 -91.8737
      vertex 2.33754 -20 -73.1263
    endloop
  endfacet
  facet normal -0.923889 0 -0.382661
    outer loop
      vertex 2.09578 -20 -91.29
      vertex 2.09578 -15 -91.29
      vertex 2.33754 -20 -91.8737
    endloop
  endfacet
  facet normal 0 -1 0
    outer loop
      vertex 2.09578 -20 -91.29
      vertex 2.33754 -20 -91.8737
      vertex 2.09578 -20 -73.71
    endloop
  endfacet
  facet normal 0 -1 0
    outer loop
      vertex 2.09578 -20 -93.71
      vertex 10 -20 -102.5
      vertex 2.33754 -20 -93.1263
    endloop
  endfacet
  facet normal -0.923889 0 0.382661
    outer loop
      vertex 2.09578 -20 -93.71
      vertex 2.33754 -15 -93.1263
      vertex 2.09578 -15 -93.71
    endloop
  endfacet
  facet normal -0.923889 0 0.382661
    outer loop
      vertex 2.09578 -20 -93.71
      vertex 2.33754 -20 -93.1263
      vertex 2.33754 -15 -93.1263
    endloop
  endfacet
  facet normal 0 0 1
    outer loop
      vertex 2.09578 -38.79 -57.5
      vertex 10 -50 -57.5
      vertex 10 -0.25 -57.5
    endloop
  endfacet
  facet normal 0 0 1
    outer loop
      vertex 2.09578 -38.79 -57.5
      vertex 2.33754 -39.3737 -57.5
      vertex 10 -50 -57.5
    endloop
  endfacet
  facet normal -0.923889 -0.382661 0
    outer loop
      vertex 2.09578 -38.79 -57.5
      vertex 2.33754 -39.3737 -62.5
      vertex 2.33754 -39.3737 -57.5
    endloop
  endfacet
  facet normal 0 0 -1
    outer loop
      vertex 2.09578 -38.79 -62.5
      vertex 10 -20 -62.5
      vertex 2.33754 -39.3737 -62.5
    endloop
  endfacet
  facet normal -0.923889 -0.382661 0
    outer loop
      vertex 2.09578 -38.79 -62.5
      vertex 2.33754 -39.3737 -62.5
      vertex 2.09578 -38.79 -57.5
    endloop
  endfacet
  facet normal 0 0 1
    outer loop
      vertex 2.09578 -41.21 -57.5
      vertex 10 -50 -57.5
      vertex 2.33754 -40.6263 -57.5
    endloop
  endfacet
  facet normal -0.923889 0.382661 0
    outer loop
      vertex 2.09578 -41.21 -62.5
      vertex 2.09578 -41.21 -57.5
      vertex 2.33754 -40.6263 -57.5
    endloop
  endfacet
  facet normal -0.923889 0.382661 0
    outer loop
      vertex 2.09578 -41.21 -62.5
      vertex 2.33754 -40.6263 -57.5
      vertex 2.33754 -40.6263 -62.5
    endloop
  endfacet
  facet normal 0 0 -1
    outer loop
      vertex 2.09578 -41.21 -62.5
      vertex 2.33754 -40.6263 -62.5
      vertex 10 -55 -62.5
    endloop
  endfacet
  facet normal 0 1 0
    outer loop
      vertex 2.09578 -50 -23.79
      vertex 10 -50 32
      vertex 2.33754 -50 -24.3737
    endloop
  endfacet
  facet normal 0 1 0
    outer loop
      vertex 2.09578 -50 -23.79
      vertex 2.09578 -50 23.79
      vertex 10 -50 32
    endloop
  endfacet
  facet normal -0.923889 0 -0.382661
    outer loop
      vertex 2.09578 -50 -23.79
      vertex 2.33754 -50 -24.3737
      vertex 2.33754 -55 -24.3737
    endloop
  endfacet
  facet normal 0 1 0
    outer loop
      vertex 2.09578 -50 -26.21
      vertex 2.33754 -50 -25.6263
      vertex 10 -50 -57.5
    endloop
  endfacet
  facet normal 0 1 0
    outer loop
      vertex 2.09578 -50 23.79
      vertex 2.33754 -50 24.3737
      vertex 10 -50 32
    endloop
  endfacet
  facet normal 0 1 0
    outer loop
      vertex 2.09578 -50 26.21
      vertex 10 -50 32
      vertex 2.33754 -50 25.6263
    endloop
  endfacet
  facet normal -0.923889 0 -0.382661
    outer loop
      vertex 2.09578 -50 26.21
      vertex 2.33754 -50 25.6263
      vertex 2.33754 -55 25.6263
    endloop
  endfacet
  facet normal 0 -1 0
    outer loop
      vertex 2.09578 -55 -23.79
      vertex 10 -55 32
      vertex 2.09578 -55 23.79
    endloop
  endfacet
  facet normal -0.923889 0 -0.382661
    outer loop
      vertex 2.09578 -55 -23.79
      vertex 2.09578 -50 -23.79
      vertex 2.33754 -55 -24.3737
    endloop
  endfacet
  facet normal 0 -1 0
    outer loop
      vertex 2.09578 -55 -23.79
      vertex 2.33754 -55 -24.3737
      vertex 10 -55 32
    endloop
  endfacet
  facet normal 0 -1 0
    outer loop
      vertex 2.09578 -55 -26.21
      vertex 10 -55 -62.5
      vertex 2.33754 -55 -25.6263
    endloop
  endfacet
  facet normal -0.923889 0 0.382661
    outer loop
      vertex 2.09578 -55 -26.21
      vertex 2.33754 -50 -25.6263
      vertex 2.09578 -50 -26.21
    endloop
  endfacet
  facet normal -0.923889 0 0.382661
    outer loop
      vertex 2.09578 -55 -26.21
      vertex 2.33754 -55 -25.6263
      vertex 2.33754 -50 -25.6263
    endloop
  endfacet
  facet normal 0 -1 0
    outer loop
      vertex 2.09578 -55 23.79
      vertex 10 -55 32
      vertex 2.33754 -55 24.3737
    endloop
  endfacet
  facet normal -0.923889 0 0.382661
    outer loop
      vertex 2.09578 -55 23.79
      vertex 2.33754 -50 24.3737
      vertex 2.09578 -50 23.79
    endloop
  endfacet
  facet normal -0.923889 0 0.382661
    outer loop
      vertex 2.09578 -55 23.79
      vertex 2.33754 -55 24.3737
      vertex 2.33754 -50 24.3737
    endloop
  endfacet
  facet normal -0.923889 0 -0.382661
    outer loop
      vertex 2.09578 -55 26.21
      vertex 2.09578 -50 26.21
      vertex 2.33754 -55 25.6263
    endloop
  endfacet
  facet normal 0 -1 0
    outer loop
      vertex 2.09578 -55 26.21
      vertex 2.33754 -55 25.6263
      vertex 10 -55 32
    endloop
  endfacet
  facet normal 0 1 0
    outer loop
      vertex 2.33754 -15 -71.8737
      vertex 10 -15 -62.5
      vertex 2.42 -15 -72.5
    endloop
  endfacet
  facet normal -0.991444 0 -0.130536
    outer loop
      vertex 2.33754 -15 -71.8737
      vertex 2.42 -15 -72.5
      vertex 2.42 -20 -72.5
    endloop
  endfacet
  facet normal 0 1 0
    outer loop
      vertex 2.33754 -15 -73.1263
      vertex 2.42 -15 -72.5
      vertex 10 -15 -62.5
    endloop
  endfacet
  facet normal 0 1 0
    outer loop
      vertex 2.33754 -15 -91.8737
      vertex 10 -15 -102.5
      vertex 2.42 -15 -92.5
    endloop
  endfacet
  facet normal 0 1 0
    outer loop
      vertex 2.33754 -15 -91.8737
      vertex 10 -15 -62.5
      vertex 10 -15 -102.5
    endloop
  endfacet
  facet normal 0 1 0
    outer loop
      vertex 2.33754 -15 -91.8737
      vertex 2.33754 -15 -73.1263
      vertex 10 -15 -62.5
    endloop
  endfacet
  facet normal -0.991444 0 -0.130536
    outer loop
      vertex 2.33754 -15 -91.8737
      vertex 2.42 -15 -92.5
      vertex 2.42 -20 -92.5
    endloop
  endfacet
  facet normal 0 1 0
    outer loop
      vertex 2.33754 -15 -93.1263
      vertex 2.42 -15 -92.5
      vertex 10 -15 -102.5
    endloop
  endfacet
  facet normal -0.991444 0 -0.130536
    outer loop
      vertex 2.33754 -20 -71.8737
      vertex 2.33754 -15 -71.8737
      vertex 2.42 -20 -72.5
    endloop
  endfacet
  facet normal 0 -1 0
    outer loop
      vertex 2.33754 -20 -71.8737
      vertex 2.42 -20 -72.5
      vertex 10 -20 -62.5
    endloop
  endfacet
  facet normal 0 -1 0
    outer loop
      vertex 2.33754 -20 -73.1263
      vertex 10 -20 -62.5
      vertex 2.42 -20 -72.5
    endloop
  endfacet
  facet normal -0.991444 0 0.130536
    outer loop
      vertex 2.33754 -20 -73.1263
      vertex 2.42 -15 -72.5
      vertex 2.33754 -15 -73.1263
    endloop
  endfacet
  facet normal -0.991444 0 0.130536
    outer loop
      vertex 2.33754 -20 -73.1263
      vertex 2.42 -20 -72.5
      vertex 2.42 -15 -72.5
    endloop
  endfacet
  facet normal 0 -1 0
    outer loop
      vertex 2.33754 -20 -91.8737
      vertex 10 -20 -102.5
      vertex 10 -20 -62.5
    endloop
  endfacet
  facet normal 0 -1 0
    outer loop
      vertex 2.33754 -20 -91.8737
      vertex 10 -20 -62.5
      vertex 2.33754 -20 -73.1263
    endloop
  endfacet
  facet normal -0.991444 0 -0.130536
    outer loop
      vertex 2.33754 -20 -91.8737
      vertex 2.33754 -15 -91.8737
      vertex 2.42 -20 -92.5
    endloop
  endfacet
  facet normal 0 -1 0
    outer loop
      vertex 2.33754 -20 -91.8737
      vertex 2.42 -20 -92.5
      vertex 10 -20 -102.5
    endloop
  endfacet
  facet normal 0 -1 0
    outer loop
      vertex 2.33754 -20 -93.1263
      vertex 10 -20 -102.5
      vertex 2.42 -20 -92.5
    endloop
  endfacet
  facet normal -0.991444 0 0.130536
    outer loop
      vertex 2.33754 -20 -93.1263
      vertex 2.42 -15 -92.5
      vertex 2.33754 -15 -93.1263
    endloop
  endfacet
  facet normal -0.991444 0 0.130536
    outer loop
      vertex 2.33754 -20 -93.1263
      vertex 2.42 -20 -92.5
      vertex 2.42 -15 -92.5
    endloop
  endfacet
  facet normal 0 0 1
    outer loop
      vertex 2.33754 -39.3737 -57.5
      vertex 2.42 -40 -57.5
      vertex 10 -50 -57.5
    endloop
  endfacet
  facet normal -0.991444 -0.130536 0
    outer loop
      vertex 2.33754 -39.3737 -57.5
      vertex 2.42 -40 -62.5
      vertex 2.42 -40 -57.5
    endloop
  endfacet
  facet normal 0 0 -1
    outer loop
      vertex 2.33754 -39.3737 -62.5
      vertex 10 -20 -62.5
      vertex 2.42 -40 -62.5
    endloop
  endfacet
  facet normal -0.991444 -0.130536 0
    outer loop
      vertex 2.33754 -39.3737 -62.5
      vertex 2.42 -40 -62.5
      vertex 2.33754 -39.3737 -57.5
    endloop
  endfacet
  facet normal 0 0 1
    outer loop
      vertex 2.33754 -40.6263 -57.5
      vertex 10 -50 -57.5
      vertex 2.42 -40 -57.5
    endloop
  endfacet
  facet normal -0.991444 0.130536 0
    outer loop
      vertex 2.33754 -40.6263 -62.5
      vertex 2.33754 -40.6263 -57.5
      vertex 2.42 -40 -57.5
    endloop
  endfacet
  facet normal -0.991444 0.130536 0
    outer loop
      vertex 2.33754 -40.6263 -62.5
      vertex 2.42 -40 -57.5
      vertex 2.42 -40 -62.5
    endloop
  endfacet
  facet normal 0 0 -1
    outer loop
      vertex 2.33754 -40.6263 -62.5
      vertex 2.42 -40 -62.5
      vertex 10 -55 -62.5
    endloop
  endfacet
  facet normal 0 1 0
    outer loop
      vertex 2.33754 -50 -24.3737
      vertex 10 -50 32
      vertex 2.42 -50 -25
    endloop
  endfacet
  facet normal -0.991444 0 -0.130536
    outer loop
      vertex 2.33754 -50 -24.3737
      vertex 2.42 -50 -25
      vertex 2.42 -55 -25
    endloop
  endfacet
  facet normal 0 1 0
    outer loop
      vertex 2.33754 -50 -25.6263
      vertex 2.42 -50 -25
      vertex 10 -50 -57.5
    endloop
  endfacet
  facet normal 0 1 0
    outer loop
      vertex 2.33754 -50 24.3737
      vertex 2.42 -50 25
      vertex 10 -50 32
    endloop
  endfacet
  facet normal 0 1 0
    outer loop
      vertex 2.33754 -50 25.6263
      vertex 10 -50 32
      vertex 2.42 -50 25
    endloop
  endfacet
  facet normal -0.991444 0 -0.130536
    outer loop
      vertex 2.33754 -50 25.6263
      vertex 2.42 -50 25
      vertex 2.42 -55 25
    endloop
  endfacet
  facet normal -0.991444 0 -0.130536
    outer loop
      vertex 2.33754 -55 -24.3737
      vertex 2.33754 -50 -24.3737
      vertex 2.42 -55 -25
    endloop
  endfacet
  facet normal 0 -1 0
    outer loop
      vertex 2.33754 -55 -24.3737
      vertex 2.42 -55 -25
      vertex 10 -55 32
    endloop
  endfacet
  facet normal 0 -1 0
    outer loop
      vertex 2.33754 -55 -25.6263
      vertex 10 -55 -62.5
      vertex 2.42 -55 -25
    endloop
  endfacet
  facet normal -0.991444 0 0.130536
    outer loop
      vertex 2.33754 -55 -25.6263
      vertex 2.42 -50 -25
      vertex 2.33754 -50 -25.6263
    endloop
  endfacet
  facet normal -0.991444 0 0.130536
    outer loop
      vertex 2.33754 -55 -25.6263
      vertex 2.42 -55 -25
      vertex 2.42 -50 -25
    endloop
  endfacet
  facet normal 0 -1 0
    outer loop
      vertex 2.33754 -55 24.3737
      vertex 10 -55 32
      vertex 2.42 -55 25
    endloop
  endfacet
  facet normal -0.991444 0 0.130536
    outer loop
      vertex 2.33754 -55 24.3737
      vertex 2.42 -50 25
      vertex 2.33754 -50 24.3737
    endloop
  endfacet
  facet normal -0.991444 0 0.130536
    outer loop
      vertex 2.33754 -55 24.3737
      vertex 2.42 -55 25
      vertex 2.42 -50 25
    endloop
  endfacet
  facet normal -0.991444 0 -0.130536
    outer loop
      vertex 2.33754 -55 25.6263
      vertex 2.33754 -50 25.6263
      vertex 2.42 -55 25
    endloop
  endfacet
  facet normal 0 -1 0
    outer loop
      vertex 2.33754 -55 25.6263
      vertex 2.42 -55 25
      vertex 10 -55 32
    endloop
  endfacet
  facet normal 0 0 -1
    outer loop
      vertex 2.42 -40 -62.5
      vertex 10 -20 -62.5
      vertex 10 -55 -62.5
    endloop
  endfacet
  facet normal 0 1 0
    outer loop
      vertex 2.42 -50 -25
      vertex 10 -50 32
      vertex 10 -50 -57.5
    endloop
  endfacet
  facet normal 0 -1 0
    outer loop
      vertex 2.42 -55 -25
      vertex 10 -55 -62.5
      vertex 10 -55 32
    endloop
  endfacet
endsolid OpenSCAD_Model
