solid OpenSCAD_Model
  facet normal 0.130589 -0.991437 0
    outer loop
      vertex -0.569402 -17.875 0
      vertex 0 -17.8 0
      vertex 0 -17.8 5
    endloop
  endfacet
  facet normal 0.130589 -0.991437 0
    outer loop
      vertex -0.569402 -17.875 0
      vertex 0 -17.8 5
      vertex -0.569402 -17.875 5
    endloop
  endfacet
  facet normal 0 0 -1
    outer loop
      vertex -0.569402 -17.875 0
      vertex 0 -2.65 0
      vertex 0 -17.8 0
    endloop
  endfacet
  facet normal 0 0 1
    outer loop
      vertex -0.569402 -17.875 5
      vertex 0 -17.8 5
      vertex 0 -2.65 5
    endloop
  endfacet
  facet normal 0.130589 0.991437 0
    outer loop
      vertex -0.569402 -22.125 0
      vertex -0.569402 -22.125 5
      vertex 0 -22.2 0
    endloop
  endfacet
  facet normal 0.130589 0.991437 0
    outer loop
      vertex -0.569402 -22.125 5
      vertex 0 -22.2 5
      vertex 0 -22.2 0
    endloop
  endfacet
  facet normal 0 0 1
    outer loop
      vertex -0.569402 -22.125 5
      vertex 0 -37.8 5
      vertex 0 -22.2 5
    endloop
  endfacet
  facet normal 0 0 -1
    outer loop
      vertex -0.569402 -37.875 0
      vertex -0.569402 -22.125 0
      vertex 0 -22.2 0
    endloop
  endfacet
  facet normal 0 0 -1
    outer loop
      vertex -0.569402 -37.875 0
      vertex 0 -22.2 0
      vertex 0 -37.8 0
    endloop
  endfacet
  facet normal 0.130589 -0.991437 0
    outer loop
      vertex -0.569402 -37.875 0
      vertex 0 -37.8 0
      vertex 0 -37.8 5
    endloop
  endfacet
  facet normal 0.130589 -0.991437 0
    outer loop
      vertex -0.569402 -37.875 0
      vertex 0 -37.8 5
      vertex -0.569402 -37.875 5
    endloop
  endfacet
  facet normal 0 0 1
    outer loop
      vertex -0.569402 -37.875 5
      vertex 0 -37.8 5
      vertex -0.569402 -22.125 5
    endloop
  endfacet
  facet normal 0.130589 0.991437 0
    outer loop
      vertex -0.569402 -42.125 0
      vertex -0.569402 -42.125 5
      vertex 0 -42.2 0
    endloop
  endfacet
  facet normal 0.130589 0.991437 0
    outer loop
      vertex -0.569402 -42.125 5
      vertex 0 -42.2 5
      vertex 0 -42.2 0
    endloop
  endfacet
  facet normal 0.130531 0.991444 0
    outer loop
      vertex -0.68587 -2.5597 0
      vertex -0.68587 -2.5597 5
      vertex 0 -2.65 0
    endloop
  endfacet
  facet normal 0 0 -1
    outer loop
      vertex -0.68587 -2.5597 0
      vertex 0 -2.65 0
      vertex -0.569402 -17.875 0
    endloop
  endfacet
  facet normal 0 0 1
    outer loop
      vertex -0.68587 -2.5597 5
      vertex -0.569402 -17.875 5
      vertex 0 -2.65 5
    endloop
  endfacet
  facet normal 0.130531 0.991444 0
    outer loop
      vertex -0.68587 -2.5597 5
      vertex 0 -2.65 5
      vertex 0 -2.65 0
    endloop
  endfacet
  facet normal 0.130531 -0.991444 0
    outer loop
      vertex -0.68587 2.5597 0
      vertex 0 2.65 0
      vertex 0 2.65 5
    endloop
  endfacet
  facet normal 0.130531 -0.991444 0
    outer loop
      vertex -0.68587 2.5597 0
      vertex 0 2.65 5
      vertex -0.68587 2.5597 5
    endloop
  endfacet
  facet normal 0 0 -1
    outer loop
      vertex -0.68587 2.5597 0
      vertex 5 10 0
      vertex 0 2.65 0
    endloop
  endfacet
  facet normal 0 0 1
    outer loop
      vertex -0.68587 2.5597 5
      vertex 0 2.65 5
      vertex 5 10 5
    endloop
  endfacet
  facet normal 0.382563 -0.923929 0
    outer loop
      vertex -1.1 -18.0947 0
      vertex -0.569402 -17.875 0
      vertex -0.569402 -17.875 5
    endloop
  endfacet
  facet normal 0.382563 -0.923929 0
    outer loop
      vertex -1.1 -18.0947 0
      vertex -0.569402 -17.875 5
      vertex -1.1 -18.0947 5
    endloop
  endfacet
  facet normal 0 0 -1
    outer loop
      vertex -1.1 -18.0947 0
      vertex -0.68587 -2.5597 0
      vertex -0.569402 -17.875 0
    endloop
  endfacet
  facet normal 0.382563 0.923929 0
    outer loop
      vertex -1.1 -21.9053 0
      vertex -1.1 -21.9053 5
      vertex -0.569402 -22.125 0
    endloop
  endfacet
  facet normal 0.382563 0.923929 0
    outer loop
      vertex -1.1 -21.9053 5
      vertex -0.569402 -22.125 5
      vertex -0.569402 -22.125 0
    endloop
  endfacet
  facet normal 0 0 1
    outer loop
      vertex -1.1 -21.9053 5
      vertex -0.569402 -37.875 5
      vertex -0.569402 -22.125 5
    endloop
  endfacet
  facet normal 0 0 -1
    outer loop
      vertex -1.1 -38.0947 0
      vertex -0.569402 -22.125 0
      vertex -0.569402 -37.875 0
    endloop
  endfacet
  facet normal 0.382563 -0.923929 0
    outer loop
      vertex -1.1 -38.0947 0
      vertex -0.569402 -37.875 0
      vertex -0.569402 -37.875 5
    endloop
  endfacet
  facet normal 0.382563 -0.923929 0
    outer loop
      vertex -1.1 -38.0947 0
      vertex -0.569402 -37.875 5
      vertex -1.1 -38.0947 5
    endloop
  endfacet
  facet normal 0 0 -1
    outer loop
      vertex -1.1 -38.0947 0
      vertex -1.1 -21.9053 0
      vertex -0.569402 -22.125 0
    endloop
  endfacet
  facet normal 0 0 1
    outer loop
      vertex -1.1 -38.0947 5
      vertex -0.569402 -37.875 5
      vertex -1.1 -21.9053 5
    endloop
  endfacet
  facet normal 0.382563 0.923929 0
    outer loop
      vertex -1.1 -41.9053 0
      vertex -1.1 -41.9053 5
      vertex -0.569402 -42.125 0
    endloop
  endfacet
  facet normal 0.382563 0.923929 0
    outer loop
      vertex -1.1 -41.9053 5
      vertex -0.569402 -42.125 5
      vertex -0.569402 -42.125 0
    endloop
  endfacet
  facet normal 0 0 -1
    outer loop
      vertex -1.325 -2.29497 0
      vertex -0.68587 -2.5597 0
      vertex -1.1 -18.0947 0
    endloop
  endfacet
  facet normal 0.382676 0.923883 0
    outer loop
      vertex -1.325 -2.29497 0
      vertex -1.325 -2.29497 5
      vertex -0.68587 -2.5597 0
    endloop
  endfacet
  facet normal 0.382676 0.923883 0
    outer loop
      vertex -1.325 -2.29497 5
      vertex -0.68587 -2.5597 5
      vertex -0.68587 -2.5597 0
    endloop
  endfacet
  facet normal 0.382676 -0.923883 0
    outer loop
      vertex -1.325 2.29497 0
      vertex -0.68587 2.5597 0
      vertex -0.68587 2.5597 5
    endloop
  endfacet
  facet normal 0.382676 -0.923883 0
    outer loop
      vertex -1.325 2.29497 0
      vertex -0.68587 2.5597 5
      vertex -1.325 2.29497 5
    endloop
  endfacet
  facet normal 0 0 -1
    outer loop
      vertex -1.325 2.29497 0
      vertex 5 10 0
      vertex -0.68587 2.5597 0
    endloop
  endfacet
  facet normal 0 0 1
    outer loop
      vertex -1.325 2.29497 5
      vertex -0.68587 2.5597 5
      vertex 5 10 5
    endloop
  endfacet
  facet normal 0.608852 -0.793284 0
    outer loop
      vertex -1.55563 -18.4444 0
      vertex -1.1 -18.0947 0
      vertex -1.1 -18.0947 5
    endloop
  endfacet
  facet normal 0.608852 -0.793284 0
    outer loop
      vertex -1.55563 -18.4444 0
      vertex -1.1 -18.0947 5
      vertex -1.55563 -18.4444 5
    endloop
  endfacet
  facet normal 0 0 -1
    outer loop
      vertex -1.55563 -18.4444 0
      vertex -1.325 -2.29497 0
      vertex -1.1 -18.0947 0
    endloop
  endfacet
  facet normal 0.608852 0.793284 0
    outer loop
      vertex -1.55563 -21.5556 0
      vertex -1.55563 -21.5556 5
      vertex -1.1 -21.9053 0
    endloop
  endfacet
  facet normal 0.608852 0.793284 0
    outer loop
      vertex -1.55563 -21.5556 5
      vertex -1.1 -21.9053 5
      vertex -1.1 -21.9053 0
    endloop
  endfacet
  facet normal 0 0 1
    outer loop
      vertex -1.55563 -21.5556 5
      vertex -1.1 -38.0947 5
      vertex -1.1 -21.9053 5
    endloop
  endfacet
  facet normal 0 0 -1
    outer loop
      vertex -1.55563 -38.4444 0
      vertex -1.1 -21.9053 0
      vertex -1.1 -38.0947 0
    endloop
  endfacet
  facet normal 0.608852 -0.793284 0
    outer loop
      vertex -1.55563 -38.4444 0
      vertex -1.1 -38.0947 0
      vertex -1.1 -38.0947 5
    endloop
  endfacet
  facet normal 0.608852 -0.793284 0
    outer loop
      vertex -1.55563 -38.4444 0
      vertex -1.1 -38.0947 5
      vertex -1.55563 -38.4444 5
    endloop
  endfacet
  facet normal 0 0 -1
    outer loop
      vertex -1.55563 -38.4444 0
      vertex -1.55563 -21.5556 0
      vertex -1.1 -21.9053 0
    endloop
  endfacet
  facet normal 0 0 1
    outer loop
      vertex -1.55563 -38.4444 5
      vertex -1.1 -38.0947 5
      vertex -1.55563 -21.5556 5
    endloop
  endfacet
  facet normal 0.608852 0.793284 0
    outer loop
      vertex -1.55563 -41.5556 0
      vertex -1.55563 -41.5556 5
      vertex -1.1 -41.9053 0
    endloop
  endfacet
  facet normal 0.608852 0.793284 0
    outer loop
      vertex -1.55563 -41.5556 5
      vertex -1.1 -41.9053 5
      vertex -1.1 -41.9053 0
    endloop
  endfacet
  facet normal 0 0 -1
    outer loop
      vertex -1.87383 -1.87383 0
      vertex -1.325 -2.29497 0
      vertex -1.55563 -18.4444 0
    endloop
  endfacet
  facet normal 0.608769 0.793348 0
    outer loop
      vertex -1.87383 -1.87383 0
      vertex -1.87383 -1.87383 5
      vertex -1.325 -2.29497 0
    endloop
  endfacet
  facet normal 0.608769 0.793348 0
    outer loop
      vertex -1.87383 -1.87383 5
      vertex -1.325 -2.29497 5
      vertex -1.325 -2.29497 0
    endloop
  endfacet
  facet normal 0.608769 -0.793348 0
    outer loop
      vertex -1.87383 1.87383 0
      vertex -1.325 2.29497 0
      vertex -1.325 2.29497 5
    endloop
  endfacet
  facet normal 0.608769 -0.793348 0
    outer loop
      vertex -1.87383 1.87383 0
      vertex -1.325 2.29497 5
      vertex -1.87383 1.87383 5
    endloop
  endfacet
  facet normal 0.793323 -0.608801 0
    outer loop
      vertex -1.90526 -18.9 0
      vertex -1.55563 -18.4444 0
      vertex -1.90526 -18.9 5
    endloop
  endfacet
  facet normal 0 0 -1
    outer loop
      vertex -1.90526 -18.9 0
      vertex -1.87383 -1.87383 0
      vertex -1.55563 -18.4444 0
    endloop
  endfacet
  facet normal 0.793323 -0.608801 0
    outer loop
      vertex -1.90526 -18.9 5
      vertex -1.55563 -18.4444 0
      vertex -1.55563 -18.4444 5
    endloop
  endfacet
  facet normal 0.793323 0.608801 0
    outer loop
      vertex -1.90526 -21.1 0
      vertex -1.55563 -21.5556 5
      vertex -1.55563 -21.5556 0
    endloop
  endfacet
  facet normal 0.793323 0.608801 0
    outer loop
      vertex -1.90526 -21.1 0
      vertex -1.90526 -21.1 5
      vertex -1.55563 -21.5556 5
    endloop
  endfacet
  facet normal 0 0 1
    outer loop
      vertex -1.90526 -21.1 5
      vertex -1.55563 -38.4444 5
      vertex -1.55563 -21.5556 5
    endloop
  endfacet
  facet normal 0 0 -1
    outer loop
      vertex -1.90526 -38.9 0
      vertex -1.55563 -21.5556 0
      vertex -1.55563 -38.4444 0
    endloop
  endfacet
  facet normal 0.793323 -0.608801 0
    outer loop
      vertex -1.90526 -38.9 0
      vertex -1.55563 -38.4444 0
      vertex -1.90526 -38.9 5
    endloop
  endfacet
  facet normal 0 0 -1
    outer loop
      vertex -1.90526 -38.9 0
      vertex -1.90526 -21.1 0
      vertex -1.55563 -21.5556 0
    endloop
  endfacet
  facet normal 0.793323 -0.608801 0
    outer loop
      vertex -1.90526 -38.9 5
      vertex -1.55563 -38.4444 0
      vertex -1.55563 -38.4444 5
    endloop
  endfacet
  facet normal 0 0 1
    outer loop
      vertex -1.90526 -38.9 5
      vertex -1.55563 -38.4444 5
      vertex -1.90526 -21.1 5
    endloop
  endfacet
  facet normal 0.793323 0.608801 0
    outer loop
      vertex -1.90526 -41.1 0
      vertex -1.55563 -41.5556 5
      vertex -1.55563 -41.5556 0
    endloop
  endfacet
  facet normal 0.793323 0.608801 0
    outer loop
      vertex -1.90526 -41.1 0
      vertex -1.90526 -41.1 5
      vertex -1.55563 -41.5556 5
    endloop
  endfacet
  facet normal 0 0 -1
    outer loop
      vertex -10 -10 0
      vertex -2.2 -20 0
      vertex -2.12504 -20.5694 0
    endloop
  endfacet
  facet normal 0 0 -1
    outer loop
      vertex -10 -10 0
      vertex -2.29497 -1.325 0
      vertex -2.2 -20 0
    endloop
  endfacet
  facet normal 0 0 -1
    outer loop
      vertex -10 -10 0
      vertex -2.5597 -0.68587 0
      vertex -2.29497 -1.325 0
    endloop
  endfacet
  facet normal 0 0 1
    outer loop
      vertex -10 -10 5
      vertex -0.569402 -17.875 5
      vertex -0.68587 -2.5597 5
    endloop
  endfacet
  facet normal 0 0 1
    outer loop
      vertex -10 -10 5
      vertex -0.68587 -2.5597 5
      vertex -1.325 -2.29497 5
    endloop
  endfacet
  facet normal 0 0 1
    outer loop
      vertex -10 -10 5
      vertex -1.1 -18.0947 5
      vertex -0.569402 -17.875 5
    endloop
  endfacet
  facet normal 0 0 1
    outer loop
      vertex -10 -10 5
      vertex -1.325 -2.29497 5
      vertex -1.87383 -1.87383 5
    endloop
  endfacet
  facet normal 0 0 1
    outer loop
      vertex -10 -10 5
      vertex -1.55563 -18.4444 5
      vertex -1.1 -18.0947 5
    endloop
  endfacet
  facet normal 0 0 1
    outer loop
      vertex -10 -10 5
      vertex -1.87383 -1.87383 5
      vertex -2.29497 -1.325 5
    endloop
  endfacet
  facet normal 0 0 1
    outer loop
      vertex -10 -10 5
      vertex -1.90526 -18.9 5
      vertex -1.55563 -18.4444 5
    endloop
  endfacet
  facet normal 0 0 1
    outer loop
      vertex -10 -10 5
      vertex -2.12504 -19.4306 5
      vertex -1.90526 -18.9 5
    endloop
  endfacet
  facet normal 0 0 1
    outer loop
      vertex -10 -10 5
      vertex -2.12504 -20.5694 5
      vertex -2.2 -20 5
    endloop
  endfacet
  facet normal 0 0 1
    outer loop
      vertex -10 -10 5
      vertex -2.2 -20 5
      vertex -2.12504 -19.4306 5
    endloop
  endfacet
  facet normal 0 0 1
    outer loop
      vertex -10 -10 5
      vertex -2.29497 -1.325 5
      vertex -2.5597 -0.68587 5
    endloop
  endfacet
  facet normal 0 0 -1
    outer loop
      vertex -10 -45 0
      vertex -1.55563 -41.5556 0
      vertex -5 -50 0
    endloop
  endfacet
  facet normal 0 0 -1
    outer loop
      vertex -10 -45 0
      vertex -1.90526 -21.1 0
      vertex -1.90526 -38.9 0
    endloop
  endfacet
  facet normal 0 0 -1
    outer loop
      vertex -10 -45 0
      vertex -1.90526 -38.9 0
      vertex -2.12504 -39.4306 0
    endloop
  endfacet
  facet normal 0 0 -1
    outer loop
      vertex -10 -45 0
      vertex -1.90526 -41.1 0
      vertex -1.55563 -41.5556 0
    endloop
  endfacet
  facet normal 0 0 -1
    outer loop
      vertex -10 -45 0
      vertex -10 -10 0
      vertex -2.12504 -20.5694 0
    endloop
  endfacet
  facet normal -1 0 0
    outer loop
      vertex -10 -45 0
      vertex -10 -10 5
      vertex -10 -10 0
    endloop
  endfacet
  facet normal -1 0 0
    outer loop
      vertex -10 -45 0
      vertex -10 -45 5
      vertex -10 -10 5
    endloop
  endfacet
  facet normal 0 0 -1
    outer loop
      vertex -10 -45 0
      vertex -2.12504 -20.5694 0
      vertex -1.90526 -21.1 0
    endloop
  endfacet
  facet normal 0 0 -1
    outer loop
      vertex -10 -45 0
      vertex -2.12504 -39.4306 0
      vertex -2.2 -40 0
    endloop
  endfacet
  facet normal 0 0 -1
    outer loop
      vertex -10 -45 0
      vertex -2.12504 -40.5694 0
      vertex -1.90526 -41.1 0
    endloop
  endfacet
  facet normal 0 0 -1
    outer loop
      vertex -10 -45 0
      vertex -2.2 -40 0
      vertex -2.12504 -40.5694 0
    endloop
  endfacet
  facet normal 0 0 -1
    outer loop
      vertex -10 -45 0
      vertex -5 -50 0
      vertex -6.2941 -49.8296 0
    endloop
  endfacet
  facet normal 0 0 -1
    outer loop
      vertex -10 -45 0
      vertex -6.2941 -49.8296 0
      vertex -7.5 -49.3301 0
    endloop
  endfacet
  facet normal 0 0 -1
    outer loop
      vertex -10 -45 0
      vertex -7.5 -49.3301 0
      vertex -8.53553 -48.5355 0
    endloop
  endfacet
  facet normal 0 0 -1
    outer loop
      vertex -10 -45 0
      vertex -8.53553 -48.5355 0
      vertex -9.33013 -47.5 0
    endloop
  endfacet
  facet normal 0 0 -1
    outer loop
      vertex -10 -45 0
      vertex -9.33013 -47.5 0
      vertex -9.82963 -46.2941 0
    endloop
  endfacet
  facet normal -0.991445 -0.130525 0
    outer loop
      vertex -10 -45 0
      vertex -9.82963 -46.2941 0
      vertex -10 -45 5
    endloop
  endfacet
  facet normal 0 0 1
    outer loop
      vertex -10 -45 5
      vertex -1.55563 -41.5556 5
      vertex -1.90526 -41.1 5
    endloop
  endfacet
  facet normal 0 0 1
    outer loop
      vertex -10 -45 5
      vertex -1.90526 -21.1 5
      vertex -2.12504 -20.5694 5
    endloop
  endfacet
  facet normal 0 0 1
    outer loop
      vertex -10 -45 5
      vertex -1.90526 -38.9 5
      vertex -1.90526 -21.1 5
    endloop
  endfacet
  facet normal 0 0 1
    outer loop
      vertex -10 -45 5
      vertex -1.90526 -41.1 5
      vertex -2.12504 -40.5694 5
    endloop
  endfacet
  facet normal 0 0 1
    outer loop
      vertex -10 -45 5
      vertex -2.12504 -20.5694 5
      vertex -10 -10 5
    endloop
  endfacet
  facet normal 0 0 1
    outer loop
      vertex -10 -45 5
      vertex -2.12504 -39.4306 5
      vertex -1.90526 -38.9 5
    endloop
  endfacet
  facet normal 0 0 1
    outer loop
      vertex -10 -45 5
      vertex -2.12504 -40.5694 5
      vertex -2.2 -40 5
    endloop
  endfacet
  facet normal 0 0 1
    outer loop
      vertex -10 -45 5
      vertex -2.2 -40 5
      vertex -2.12504 -39.4306 5
    endloop
  endfacet
  facet normal 0 0 1
    outer loop
      vertex -10 -45 5
      vertex -6.2941 -49.8296 5
      vertex -1.55563 -41.5556 5
    endloop
  endfacet
  facet normal -0.991445 -0.130525 0
    outer loop
      vertex -10 -45 5
      vertex -9.82963 -46.2941 0
      vertex -9.82963 -46.2941 5
    endloop
  endfacet
  facet normal 0 0 1
    outer loop
      vertex -10 -45 5
      vertex -9.82963 -46.2941 5
      vertex -6.2941 -49.8296 5
    endloop
  endfacet
  facet normal 0 0 -1
    outer loop
      vertex -17.35 0 0
      vertex -2.5597 0.68587 0
      vertex -2.65 0 0
    endloop
  endfacet
  facet normal 0 0 -1
    outer loop
      vertex -17.35 0 0
      vertex -2.65 0 0
      vertex -2.5597 -0.68587 0
    endloop
  endfacet
  facet normal 0 0 1
    outer loop
      vertex -17.35 0 5
      vertex -2.5597 -0.68587 5
      vertex -2.65 0 5
    endloop
  endfacet
  facet normal 0 0 1
    outer loop
      vertex -17.35 0 5
      vertex -2.65 0 5
      vertex -2.5597 0.68587 5
    endloop
  endfacet
  facet normal 0 0 -1
    outer loop
      vertex -17.4403 -0.68587 0
      vertex -17.35 0 0
      vertex -2.5597 -0.68587 0
    endloop
  endfacet
  facet normal -0.991444 0.130531 0
    outer loop
      vertex -17.4403 -0.68587 0
      vertex -17.35 0 5
      vertex -17.35 0 0
    endloop
  endfacet
  facet normal -0.991444 0.130531 0
    outer loop
      vertex -17.4403 -0.68587 0
      vertex -17.4403 -0.68587 5
      vertex -17.35 0 5
    endloop
  endfacet
  facet normal 0 0 -1
    outer loop
      vertex -17.4403 -0.68587 0
      vertex -2.5597 -0.68587 0
      vertex -10 -10 0
    endloop
  endfacet
  facet normal 0 0 1
    outer loop
      vertex -17.4403 -0.68587 5
      vertex -10 -10 5
      vertex -2.5597 -0.68587 5
    endloop
  endfacet
  facet normal 0 0 1
    outer loop
      vertex -17.4403 -0.68587 5
      vertex -2.5597 -0.68587 5
      vertex -17.35 0 5
    endloop
  endfacet
  facet normal -0.991444 -0.130531 0
    outer loop
      vertex -17.4403 0.68587 0
      vertex -17.35 0 0
      vertex -17.4403 0.68587 5
    endloop
  endfacet
  facet normal 0 0 -1
    outer loop
      vertex -17.4403 0.68587 0
      vertex -2.29497 1.325 0
      vertex -2.5597 0.68587 0
    endloop
  endfacet
  facet normal 0 0 -1
    outer loop
      vertex -17.4403 0.68587 0
      vertex -2.5597 0.68587 0
      vertex -17.35 0 0
    endloop
  endfacet
  facet normal -0.991444 -0.130531 0
    outer loop
      vertex -17.4403 0.68587 5
      vertex -17.35 0 0
      vertex -17.35 0 5
    endloop
  endfacet
  facet normal 0 0 1
    outer loop
      vertex -17.4403 0.68587 5
      vertex -17.35 0 5
      vertex -2.5597 0.68587 5
    endloop
  endfacet
  facet normal 0 0 1
    outer loop
      vertex -17.4403 0.68587 5
      vertex -2.5597 0.68587 5
      vertex -2.29497 1.325 5
    endloop
  endfacet
  facet normal 0 0 -1
    outer loop
      vertex -17.705 -1.325 0
      vertex -17.4403 -0.68587 0
      vertex -10 -10 0
    endloop
  endfacet
  facet normal -0.923898 0.382639 0
    outer loop
      vertex -17.705 -1.325 0
      vertex -17.4403 -0.68587 5
      vertex -17.4403 -0.68587 0
    endloop
  endfacet
  facet normal -0.923898 0.382639 0
    outer loop
      vertex -17.705 -1.325 0
      vertex -17.705 -1.325 5
      vertex -17.4403 -0.68587 5
    endloop
  endfacet
  facet normal 0 0 1
    outer loop
      vertex -17.705 -1.325 5
      vertex -10 -10 5
      vertex -17.4403 -0.68587 5
    endloop
  endfacet
  facet normal 0 0 -1
    outer loop
      vertex -17.705 1.325 0
      vertex -1.87383 1.87383 0
      vertex -2.29497 1.325 0
    endloop
  endfacet
  facet normal -0.923898 -0.382639 0
    outer loop
      vertex -17.705 1.325 0
      vertex -17.4403 0.68587 0
      vertex -17.705 1.325 5
    endloop
  endfacet
  facet normal 0 0 -1
    outer loop
      vertex -17.705 1.325 0
      vertex -2.29497 1.325 0
      vertex -17.4403 0.68587 0
    endloop
  endfacet
  facet normal -0.923898 -0.382639 0
    outer loop
      vertex -17.705 1.325 5
      vertex -17.4403 0.68587 0
      vertex -17.4403 0.68587 5
    endloop
  endfacet
  facet normal 0 0 1
    outer loop
      vertex -17.705 1.325 5
      vertex -17.4403 0.68587 5
      vertex -2.29497 1.325 5
    endloop
  endfacet
  facet normal 0 0 1
    outer loop
      vertex -17.705 1.325 5
      vertex -2.29497 1.325 5
      vertex -1.87383 1.87383 5
    endloop
  endfacet
  facet normal 0 0 -1
    outer loop
      vertex -18.1262 -1.87383 0
      vertex -17.705 -1.325 0
      vertex -10 -10 0
    endloop
  endfacet
  facet normal -0.793306 0.608823 0
    outer loop
      vertex -18.1262 -1.87383 0
      vertex -17.705 -1.325 5
      vertex -17.705 -1.325 0
    endloop
  endfacet
  facet normal -0.793306 0.608823 0
    outer loop
      vertex -18.1262 -1.87383 0
      vertex -18.1262 -1.87383 5
      vertex -17.705 -1.325 5
    endloop
  endfacet
  facet normal 0 0 1
    outer loop
      vertex -18.1262 -1.87383 5
      vertex -10 -10 5
      vertex -17.705 -1.325 5
    endloop
  endfacet
  facet normal 0 0 -1
    outer loop
      vertex -18.1262 1.87383 0
      vertex -1.87383 1.87383 0
      vertex -17.705 1.325 0
    endloop
  endfacet
  facet normal -0.793306 -0.608823 0
    outer loop
      vertex -18.1262 1.87383 0
      vertex -17.705 1.325 0
      vertex -18.1262 1.87383 5
    endloop
  endfacet
  facet normal -0.793306 -0.608823 0
    outer loop
      vertex -18.1262 1.87383 5
      vertex -17.705 1.325 0
      vertex -17.705 1.325 5
    endloop
  endfacet
  facet normal 0 0 1
    outer loop
      vertex -18.1262 1.87383 5
      vertex -17.705 1.325 5
      vertex -1.87383 1.87383 5
    endloop
  endfacet
  facet normal 0 0 -1
    outer loop
      vertex -18.675 -2.29497 0
      vertex -18.1262 -1.87383 0
      vertex -10 -10 0
    endloop
  endfacet
  facet normal -0.60879 0.793332 0
    outer loop
      vertex -18.675 -2.29497 0
      vertex -18.675 -2.29497 5
      vertex -18.1262 -1.87383 0
    endloop
  endfacet
  facet normal 0 0 1
    outer loop
      vertex -18.675 -2.29497 5
      vertex -10 -10 5
      vertex -18.1262 -1.87383 5
    endloop
  endfacet
  facet normal -0.60879 0.793332 0
    outer loop
      vertex -18.675 -2.29497 5
      vertex -18.1262 -1.87383 5
      vertex -18.1262 -1.87383 0
    endloop
  endfacet
  facet normal 0 0 -1
    outer loop
      vertex -18.675 2.29497 0
      vertex -1.325 2.29497 0
      vertex -1.87383 1.87383 0
    endloop
  endfacet
  facet normal 0 0 -1
    outer loop
      vertex -18.675 2.29497 0
      vertex -1.87383 1.87383 0
      vertex -18.1262 1.87383 0
    endloop
  endfacet
  facet normal -0.60879 -0.793332 0
    outer loop
      vertex -18.675 2.29497 0
      vertex -18.1262 1.87383 0
      vertex -18.1262 1.87383 5
    endloop
  endfacet
  facet normal -0.60879 -0.793332 0
    outer loop
      vertex -18.675 2.29497 0
      vertex -18.1262 1.87383 5
      vertex -18.675 2.29497 5
    endloop
  endfacet
  facet normal 0 0 -1
    outer loop
      vertex -18.675 2.29497 0
      vertex 5 10 0
      vertex -1.325 2.29497 0
    endloop
  endfacet
  facet normal 0 0 1
    outer loop
      vertex -18.675 2.29497 5
      vertex -1.325 2.29497 5
      vertex 5 10 5
    endloop
  endfacet
  facet normal 0 0 1
    outer loop
      vertex -18.675 2.29497 5
      vertex -1.87383 1.87383 5
      vertex -1.325 2.29497 5
    endloop
  endfacet
  facet normal 0 0 1
    outer loop
      vertex -18.675 2.29497 5
      vertex -18.1262 1.87383 5
      vertex -1.87383 1.87383 5
    endloop
  endfacet
  facet normal 0 0 -1
    outer loop
      vertex -19.3141 -2.5597 0
      vertex -18.675 -2.29497 0
      vertex -10 -10 0
    endloop
  endfacet
  facet normal -0.382691 0.923876 0
    outer loop
      vertex -19.3141 -2.5597 0
      vertex -19.3141 -2.5597 5
      vertex -18.675 -2.29497 0
    endloop
  endfacet
  facet normal 0 0 1
    outer loop
      vertex -19.3141 -2.5597 5
      vertex -10 -10 5
      vertex -18.675 -2.29497 5
    endloop
  endfacet
  facet normal -0.382691 0.923876 0
    outer loop
      vertex -19.3141 -2.5597 5
      vertex -18.675 -2.29497 5
      vertex -18.675 -2.29497 0
    endloop
  endfacet
  facet normal -0.382691 -0.923876 0
    outer loop
      vertex -19.3141 2.5597 0
      vertex -18.675 2.29497 0
      vertex -18.675 2.29497 5
    endloop
  endfacet
  facet normal -0.382691 -0.923876 0
    outer loop
      vertex -19.3141 2.5597 0
      vertex -18.675 2.29497 5
      vertex -19.3141 2.5597 5
    endloop
  endfacet
  facet normal 0 0 -1
    outer loop
      vertex -19.3141 2.5597 0
      vertex 5 10 0
      vertex -18.675 2.29497 0
    endloop
  endfacet
  facet normal 0 0 1
    outer loop
      vertex -19.3141 2.5597 5
      vertex -18.675 2.29497 5
      vertex 5 10 5
    endloop
  endfacet
  facet normal 0.923881 -0.382681 0
    outer loop
      vertex -2.12504 -19.4306 0
      vertex -1.90526 -18.9 0
      vertex -2.12504 -19.4306 5
    endloop
  endfacet
  facet normal 0.923881 -0.382681 0
    outer loop
      vertex -2.12504 -19.4306 5
      vertex -1.90526 -18.9 0
      vertex -1.90526 -18.9 5
    endloop
  endfacet
  facet normal 0.923881 0.382681 0
    outer loop
      vertex -2.12504 -20.5694 0
      vertex -1.90526 -21.1 5
      vertex -1.90526 -21.1 0
    endloop
  endfacet
  facet normal 0.923881 0.382681 0
    outer loop
      vertex -2.12504 -20.5694 0
      vertex -2.12504 -20.5694 5
      vertex -1.90526 -21.1 5
    endloop
  endfacet
  facet normal 0.923881 -0.382681 0
    outer loop
      vertex -2.12504 -39.4306 0
      vertex -1.90526 -38.9 0
      vertex -2.12504 -39.4306 5
    endloop
  endfacet
  facet normal 0.923881 -0.382681 0
    outer loop
      vertex -2.12504 -39.4306 5
      vertex -1.90526 -38.9 0
      vertex -1.90526 -38.9 5
    endloop
  endfacet
  facet normal 0.923881 0.382681 0
    outer loop
      vertex -2.12504 -40.5694 0
      vertex -1.90526 -41.1 5
      vertex -1.90526 -41.1 0
    endloop
  endfacet
  facet normal 0.923881 0.382681 0
    outer loop
      vertex -2.12504 -40.5694 0
      vertex -2.12504 -40.5694 5
      vertex -1.90526 -41.1 5
    endloop
  endfacet
  facet normal 0.991446 -0.130521 0
    outer loop
      vertex -2.2 -20 0
      vertex -2.12504 -19.4306 0
      vertex -2.2 -20 5
    endloop
  endfacet
  facet normal 0.991446 0.130521 0
    outer loop
      vertex -2.2 -20 0
      vertex -2.12504 -20.5694 5
      vertex -2.12504 -20.5694 0
    endloop
  endfacet
  facet normal 0.991446 0.130521 0
    outer loop
      vertex -2.2 -20 0
      vertex -2.2 -20 5
      vertex -2.12504 -20.5694 5
    endloop
  endfacet
  facet normal 0.991446 -0.130521 0
    outer loop
      vertex -2.2 -20 5
      vertex -2.12504 -19.4306 0
      vertex -2.12504 -19.4306 5
    endloop
  endfacet
  facet normal 0.991446 -0.130521 0
    outer loop
      vertex -2.2 -40 0
      vertex -2.12504 -39.4306 0
      vertex -2.2 -40 5
    endloop
  endfacet
  facet normal 0.991446 0.130521 0
    outer loop
      vertex -2.2 -40 0
      vertex -2.12504 -40.5694 5
      vertex -2.12504 -40.5694 0
    endloop
  endfacet
  facet normal 0.991446 0.130521 0
    outer loop
      vertex -2.2 -40 0
      vertex -2.2 -40 5
      vertex -2.12504 -40.5694 5
    endloop
  endfacet
  facet normal 0.991446 -0.130521 0
    outer loop
      vertex -2.2 -40 5
      vertex -2.12504 -39.4306 0
      vertex -2.12504 -39.4306 5
    endloop
  endfacet
  facet normal 0 0 -1
    outer loop
      vertex -2.29497 -1.325 0
      vertex -1.87383 -1.87383 0
      vertex -1.90526 -18.9 0
    endloop
  endfacet
  facet normal 0.793348 0.608769 0
    outer loop
      vertex -2.29497 -1.325 0
      vertex -1.87383 -1.87383 5
      vertex -1.87383 -1.87383 0
    endloop
  endfacet
  facet normal 0 0 -1
    outer loop
      vertex -2.29497 -1.325 0
      vertex -1.90526 -18.9 0
      vertex -2.12504 -19.4306 0
    endloop
  endfacet
  facet normal 0 0 -1
    outer loop
      vertex -2.29497 -1.325 0
      vertex -2.12504 -19.4306 0
      vertex -2.2 -20 0
    endloop
  endfacet
  facet normal 0.793348 0.608769 0
    outer loop
      vertex -2.29497 -1.325 0
      vertex -2.29497 -1.325 5
      vertex -1.87383 -1.87383 5
    endloop
  endfacet
  facet normal 0.793348 -0.608769 0
    outer loop
      vertex -2.29497 1.325 0
      vertex -1.87383 1.87383 0
      vertex -2.29497 1.325 5
    endloop
  endfacet
  facet normal 0.793348 -0.608769 0
    outer loop
      vertex -2.29497 1.325 5
      vertex -1.87383 1.87383 0
      vertex -1.87383 1.87383 5
    endloop
  endfacet
  facet normal 0.923883 0.382676 0
    outer loop
      vertex -2.5597 -0.68587 0
      vertex -2.29497 -1.325 5
      vertex -2.29497 -1.325 0
    endloop
  endfacet
  facet normal 0.923883 0.382676 0
    outer loop
      vertex -2.5597 -0.68587 0
      vertex -2.5597 -0.68587 5
      vertex -2.29497 -1.325 5
    endloop
  endfacet
  facet normal 0.923883 -0.382676 0
    outer loop
      vertex -2.5597 0.68587 0
      vertex -2.29497 1.325 0
      vertex -2.5597 0.68587 5
    endloop
  endfacet
  facet normal 0.923883 -0.382676 0
    outer loop
      vertex -2.5597 0.68587 5
      vertex -2.29497 1.325 0
      vertex -2.29497 1.325 5
    endloop
  endfacet
  facet normal 0.991444 0.130531 0
    outer loop
      vertex -2.65 0 0
      vertex -2.5597 -0.68587 5
      vertex -2.5597 -0.68587 0
    endloop
  endfacet
  facet normal 0.991444 -0.130531 0
    outer loop
      vertex -2.65 0 0
      vertex -2.5597 0.68587 0
      vertex -2.65 0 5
    endloop
  endfacet
  facet normal 0.991444 0.130531 0
    outer loop
      vertex -2.65 0 0
      vertex -2.65 0 5
      vertex -2.5597 -0.68587 5
    endloop
  endfacet
  facet normal 0.991444 -0.130531 0
    outer loop
      vertex -2.65 0 5
      vertex -2.5597 0.68587 0
      vertex -2.5597 0.68587 5
    endloop
  endfacet
  facet normal 0 0 -1
    outer loop
      vertex -20 -2.65 0
      vertex -19.3141 -2.5597 0
      vertex -10 -10 0
    endloop
  endfacet
  facet normal -0.130526 0.991445 0
    outer loop
      vertex -20 -2.65 0
      vertex -20 -2.65 5
      vertex -19.3141 -2.5597 0
    endloop
  endfacet
  facet normal 0 0 1
    outer loop
      vertex -20 -2.65 5
      vertex -10 -10 5
      vertex -19.3141 -2.5597 5
    endloop
  endfacet
  facet normal -0.130526 0.991445 0
    outer loop
      vertex -20 -2.65 5
      vertex -19.3141 -2.5597 5
      vertex -19.3141 -2.5597 0
    endloop
  endfacet
  facet normal -0.130526 -0.991445 0
    outer loop
      vertex -20 2.65 0
      vertex -19.3141 2.5597 0
      vertex -19.3141 2.5597 5
    endloop
  endfacet
  facet normal -0.130526 -0.991445 0
    outer loop
      vertex -20 2.65 0
      vertex -19.3141 2.5597 5
      vertex -20 2.65 5
    endloop
  endfacet
  facet normal 0 0 -1
    outer loop
      vertex -20 2.65 0
      vertex 5 10 0
      vertex -19.3141 2.5597 0
    endloop
  endfacet
  facet normal 0 0 1
    outer loop
      vertex -20 2.65 5
      vertex -19.3141 2.5597 5
      vertex 5 10 5
    endloop
  endfacet
  facet normal 0 0 -1
    outer loop
      vertex -20.6859 -2.5597 0
      vertex -20 -2.65 0
      vertex -10 -10 0
    endloop
  endfacet
  facet normal 0.130526 0.991445 0
    outer loop
      vertex -20.6859 -2.5597 0
      vertex -20.6859 -2.5597 5
      vertex -20 -2.65 0
    endloop
  endfacet
  facet normal 0 0 1
    outer loop
      vertex -20.6859 -2.5597 5
      vertex -10 -10 5
      vertex -20 -2.65 5
    endloop
  endfacet
  facet normal 0.130526 0.991445 0
    outer loop
      vertex -20.6859 -2.5597 5
      vertex -20 -2.65 5
      vertex -20 -2.65 0
    endloop
  endfacet
  facet normal 0.130526 -0.991445 0
    outer loop
      vertex -20.6859 2.5597 0
      vertex -20 2.65 0
      vertex -20 2.65 5
    endloop
  endfacet
  facet normal 0.130526 -0.991445 0
    outer loop
      vertex -20.6859 2.5597 0
      vertex -20 2.65 5
      vertex -20.6859 2.5597 5
    endloop
  endfacet
  facet normal 0.382691 0.923876 0
    outer loop
      vertex -21.325 -2.29497 0
      vertex -21.325 -2.29497 5
      vertex -20.6859 -2.5597 0
    endloop
  endfacet
  facet normal 0.382691 0.923876 0
    outer loop
      vertex -21.325 -2.29497 5
      vertex -20.6859 -2.5597 5
      vertex -20.6859 -2.5597 0
    endloop
  endfacet
  facet normal 0.382691 -0.923876 0
    outer loop
      vertex -21.325 2.29497 0
      vertex -20.6859 2.5597 0
      vertex -20.6859 2.5597 5
    endloop
  endfacet
  facet normal 0.382691 -0.923876 0
    outer loop
      vertex -21.325 2.29497 0
      vertex -20.6859 2.5597 5
      vertex -21.325 2.29497 5
    endloop
  endfacet
  facet normal 0.60879 0.793332 0
    outer loop
      vertex -21.8738 -1.87383 0
      vertex -21.8738 -1.87383 5
      vertex -21.325 -2.29497 0
    endloop
  endfacet
  facet normal 0.60879 0.793332 0
    outer loop
      vertex -21.8738 -1.87383 5
      vertex -21.325 -2.29497 5
      vertex -21.325 -2.29497 0
    endloop
  endfacet
  facet normal 0.60879 -0.793332 0
    outer loop
      vertex -21.8738 1.87383 0
      vertex -21.325 2.29497 0
      vertex -21.325 2.29497 5
    endloop
  endfacet
  facet normal 0.60879 -0.793332 0
    outer loop
      vertex -21.8738 1.87383 0
      vertex -21.325 2.29497 5
      vertex -21.8738 1.87383 5
    endloop
  endfacet
  facet normal 0.793306 0.608823 0
    outer loop
      vertex -22.295 -1.325 0
      vertex -21.8738 -1.87383 5
      vertex -21.8738 -1.87383 0
    endloop
  endfacet
  facet normal 0.793306 0.608823 0
    outer loop
      vertex -22.295 -1.325 0
      vertex -22.295 -1.325 5
      vertex -21.8738 -1.87383 5
    endloop
  endfacet
  facet normal 0.793306 -0.608823 0
    outer loop
      vertex -22.295 1.325 0
      vertex -21.8738 1.87383 0
      vertex -22.295 1.325 5
    endloop
  endfacet
  facet normal 0.793306 -0.608823 0
    outer loop
      vertex -22.295 1.325 5
      vertex -21.8738 1.87383 0
      vertex -21.8738 1.87383 5
    endloop
  endfacet
  facet normal 0.923898 0.382639 0
    outer loop
      vertex -22.5597 -0.68587 0
      vertex -22.295 -1.325 5
      vertex -22.295 -1.325 0
    endloop
  endfacet
  facet normal 0.923898 0.382639 0
    outer loop
      vertex -22.5597 -0.68587 0
      vertex -22.5597 -0.68587 5
      vertex -22.295 -1.325 5
    endloop
  endfacet
  facet normal 0.923898 -0.382639 0
    outer loop
      vertex -22.5597 0.68587 0
      vertex -22.295 1.325 0
      vertex -22.5597 0.68587 5
    endloop
  endfacet
  facet normal 0.923898 -0.382639 0
    outer loop
      vertex -22.5597 0.68587 5
      vertex -22.295 1.325 0
      vertex -22.295 1.325 5
    endloop
  endfacet
  facet normal 0.991444 0.130531 0
    outer loop
      vertex -22.65 0 0
      vertex -22.5597 -0.68587 5
      vertex -22.5597 -0.68587 0
    endloop
  endfacet
  facet normal 0.991444 -0.130531 0
    outer loop
      vertex -22.65 0 0
      vertex -22.5597 0.68587 0
      vertex -22.65 0 5
    endloop
  endfacet
  facet normal 0.991444 0.130531 0
    outer loop
      vertex -22.65 0 0
      vertex -22.65 0 5
      vertex -22.5597 -0.68587 5
    endloop
  endfacet
  facet normal 0.991444 -0.130531 0
    outer loop
      vertex -22.65 0 5
      vertex -22.5597 0.68587 0
      vertex -22.5597 0.68587 5
    endloop
  endfacet
  facet normal 0 0 -1
    outer loop
      vertex -37.8 0 0
      vertex -22.5597 0.68587 0
      vertex -22.65 0 0
    endloop
  endfacet
  facet normal 0 0 -1
    outer loop
      vertex -37.8 0 0
      vertex -22.65 0 0
      vertex -22.5597 -0.68587 0
    endloop
  endfacet
  facet normal 0 0 1
    outer loop
      vertex -37.8 0 5
      vertex -22.5597 -0.68587 5
      vertex -22.65 0 5
    endloop
  endfacet
  facet normal 0 0 1
    outer loop
      vertex -37.8 0 5
      vertex -22.65 0 5
      vertex -22.5597 0.68587 5
    endloop
  endfacet
  facet normal 0 0 -1
    outer loop
      vertex -37.875 -0.569402 0
      vertex -37.8 0 0
      vertex -22.5597 -0.68587 0
    endloop
  endfacet
  facet normal -0.991437 0.130589 0
    outer loop
      vertex -37.875 -0.569402 0
      vertex -37.8 0 5
      vertex -37.8 0 0
    endloop
  endfacet
  facet normal -0.991437 0.130589 0
    outer loop
      vertex -37.875 -0.569402 0
      vertex -37.875 -0.569402 5
      vertex -37.8 0 5
    endloop
  endfacet
  facet normal 0 0 1
    outer loop
      vertex -37.875 -0.569402 5
      vertex -22.5597 -0.68587 5
      vertex -37.8 0 5
    endloop
  endfacet
  facet normal 0 0 -1
    outer loop
      vertex -37.875 0.569402 0
      vertex -22.5597 0.68587 0
      vertex -37.8 0 0
    endloop
  endfacet
  facet normal -0.991437 -0.130589 0
    outer loop
      vertex -37.875 0.569402 0
      vertex -37.8 0 0
      vertex -37.875 0.569402 5
    endloop
  endfacet
  facet normal -0.991437 -0.130589 0
    outer loop
      vertex -37.875 0.569402 5
      vertex -37.8 0 0
      vertex -37.8 0 5
    endloop
  endfacet
  facet normal 0 0 1
    outer loop
      vertex -37.875 0.569402 5
      vertex -37.8 0 5
      vertex -22.5597 0.68587 5
    endloop
  endfacet
  facet normal 0 0 -1
    outer loop
      vertex -38.0947 -1.1 0
      vertex -22.5597 -0.68587 0
      vertex -22.295 -1.325 0
    endloop
  endfacet
  facet normal 0 0 -1
    outer loop
      vertex -38.0947 -1.1 0
      vertex -37.875 -0.569402 0
      vertex -22.5597 -0.68587 0
    endloop
  endfacet
  facet normal -0.923929 0.382563 0
    outer loop
      vertex -38.0947 -1.1 0
      vertex -37.875 -0.569402 5
      vertex -37.875 -0.569402 0
    endloop
  endfacet
  facet normal -0.923929 0.382563 0
    outer loop
      vertex -38.0947 -1.1 0
      vertex -38.0947 -1.1 5
      vertex -37.875 -0.569402 5
    endloop
  endfacet
  facet normal 0 0 1
    outer loop
      vertex -38.0947 -1.1 5
      vertex -22.295 -1.325 5
      vertex -22.5597 -0.68587 5
    endloop
  endfacet
  facet normal 0 0 1
    outer loop
      vertex -38.0947 -1.1 5
      vertex -22.5597 -0.68587 5
      vertex -37.875 -0.569402 5
    endloop
  endfacet
  facet normal 0 0 -1
    outer loop
      vertex -38.0947 1.1 0
      vertex -22.295 1.325 0
      vertex -22.5597 0.68587 0
    endloop
  endfacet
  facet normal 0 0 -1
    outer loop
      vertex -38.0947 1.1 0
      vertex -22.5597 0.68587 0
      vertex -37.875 0.569402 0
    endloop
  endfacet
  facet normal -0.923929 -0.382563 0
    outer loop
      vertex -38.0947 1.1 0
      vertex -37.875 0.569402 0
      vertex -38.0947 1.1 5
    endloop
  endfacet
  facet normal 0 0 1
    outer loop
      vertex -38.0947 1.1 5
      vertex -22.5597 0.68587 5
      vertex -22.295 1.325 5
    endloop
  endfacet
  facet normal -0.923929 -0.382563 0
    outer loop
      vertex -38.0947 1.1 5
      vertex -37.875 0.569402 0
      vertex -37.875 0.569402 5
    endloop
  endfacet
  facet normal 0 0 1
    outer loop
      vertex -38.0947 1.1 5
      vertex -37.875 0.569402 5
      vertex -22.5597 0.68587 5
    endloop
  endfacet
  facet normal 0 0 -1
    outer loop
      vertex -38.4444 -1.55563 0
      vertex -22.295 -1.325 0
      vertex -21.8738 -1.87383 0
    endloop
  endfacet
  facet normal 0 0 -1
    outer loop
      vertex -38.4444 -1.55563 0
      vertex -38.0947 -1.1 0
      vertex -22.295 -1.325 0
    endloop
  endfacet
  facet normal -0.793284 0.608852 0
    outer loop
      vertex -38.4444 -1.55563 0
      vertex -38.0947 -1.1 5
      vertex -38.0947 -1.1 0
    endloop
  endfacet
  facet normal -0.793284 0.608852 0
    outer loop
      vertex -38.4444 -1.55563 0
      vertex -38.4444 -1.55563 5
      vertex -38.0947 -1.1 5
    endloop
  endfacet
  facet normal 0 0 1
    outer loop
      vertex -38.4444 -1.55563 5
      vertex -21.8738 -1.87383 5
      vertex -22.295 -1.325 5
    endloop
  endfacet
  facet normal 0 0 1
    outer loop
      vertex -38.4444 -1.55563 5
      vertex -22.295 -1.325 5
      vertex -38.0947 -1.1 5
    endloop
  endfacet
  facet normal 0 0 -1
    outer loop
      vertex -38.4444 1.55563 0
      vertex -21.8738 1.87383 0
      vertex -22.295 1.325 0
    endloop
  endfacet
  facet normal 0 0 -1
    outer loop
      vertex -38.4444 1.55563 0
      vertex -22.295 1.325 0
      vertex -38.0947 1.1 0
    endloop
  endfacet
  facet normal -0.793284 -0.608852 0
    outer loop
      vertex -38.4444 1.55563 0
      vertex -38.0947 1.1 0
      vertex -38.4444 1.55563 5
    endloop
  endfacet
  facet normal 0 0 1
    outer loop
      vertex -38.4444 1.55563 5
      vertex -22.295 1.325 5
      vertex -21.8738 1.87383 5
    endloop
  endfacet
  facet normal -0.793284 -0.608852 0
    outer loop
      vertex -38.4444 1.55563 5
      vertex -38.0947 1.1 0
      vertex -38.0947 1.1 5
    endloop
  endfacet
  facet normal 0 0 1
    outer loop
      vertex -38.4444 1.55563 5
      vertex -38.0947 1.1 5
      vertex -22.295 1.325 5
    endloop
  endfacet
  facet normal 0 0 -1
    outer loop
      vertex -38.9 -1.90526 0
      vertex -21.8738 -1.87383 0
      vertex -21.325 -2.29497 0
    endloop
  endfacet
  facet normal 0 0 -1
    outer loop
      vertex -38.9 -1.90526 0
      vertex -38.4444 -1.55563 0
      vertex -21.8738 -1.87383 0
    endloop
  endfacet
  facet normal -0.608801 0.793323 0
    outer loop
      vertex -38.9 -1.90526 0
      vertex -38.9 -1.90526 5
      vertex -38.4444 -1.55563 0
    endloop
  endfacet
  facet normal 0 0 1
    outer loop
      vertex -38.9 -1.90526 5
      vertex -21.325 -2.29497 5
      vertex -21.8738 -1.87383 5
    endloop
  endfacet
  facet normal 0 0 1
    outer loop
      vertex -38.9 -1.90526 5
      vertex -21.8738 -1.87383 5
      vertex -38.4444 -1.55563 5
    endloop
  endfacet
  facet normal -0.608801 0.793323 0
    outer loop
      vertex -38.9 -1.90526 5
      vertex -38.4444 -1.55563 5
      vertex -38.4444 -1.55563 0
    endloop
  endfacet
  facet normal 0 0 -1
    outer loop
      vertex -38.9 1.90526 0
      vertex -21.325 2.29497 0
      vertex -21.8738 1.87383 0
    endloop
  endfacet
  facet normal 0 0 -1
    outer loop
      vertex -38.9 1.90526 0
      vertex -21.8738 1.87383 0
      vertex -38.4444 1.55563 0
    endloop
  endfacet
  facet normal -0.608801 -0.793323 0
    outer loop
      vertex -38.9 1.90526 0
      vertex -38.4444 1.55563 0
      vertex -38.4444 1.55563 5
    endloop
  endfacet
  facet normal -0.608801 -0.793323 0
    outer loop
      vertex -38.9 1.90526 0
      vertex -38.4444 1.55563 5
      vertex -38.9 1.90526 5
    endloop
  endfacet
  facet normal 0 0 1
    outer loop
      vertex -38.9 1.90526 5
      vertex -21.8738 1.87383 5
      vertex -21.325 2.29497 5
    endloop
  endfacet
  facet normal 0 0 1
    outer loop
      vertex -38.9 1.90526 5
      vertex -38.4444 1.55563 5
      vertex -21.8738 1.87383 5
    endloop
  endfacet
  facet normal -0.382681 0.923881 0
    outer loop
      vertex -39.4306 -2.12504 0
      vertex -39.4306 -2.12504 5
      vertex -38.9 -1.90526 0
    endloop
  endfacet
  facet normal -0.382681 0.923881 0
    outer loop
      vertex -39.4306 -2.12504 5
      vertex -38.9 -1.90526 5
      vertex -38.9 -1.90526 0
    endloop
  endfacet
  facet normal -0.382681 -0.923881 0
    outer loop
      vertex -39.4306 2.12504 0
      vertex -38.9 1.90526 0
      vertex -38.9 1.90526 5
    endloop
  endfacet
  facet normal -0.382681 -0.923881 0
    outer loop
      vertex -39.4306 2.12504 0
      vertex -38.9 1.90526 5
      vertex -39.4306 2.12504 5
    endloop
  endfacet
  facet normal -0.130521 0.991446 0
    outer loop
      vertex -40 -2.2 0
      vertex -40 -2.2 5
      vertex -39.4306 -2.12504 0
    endloop
  endfacet
  facet normal -0.130521 0.991446 0
    outer loop
      vertex -40 -2.2 5
      vertex -39.4306 -2.12504 5
      vertex -39.4306 -2.12504 0
    endloop
  endfacet
  facet normal -0.130521 -0.991446 0
    outer loop
      vertex -40 2.2 0
      vertex -39.4306 2.12504 0
      vertex -39.4306 2.12504 5
    endloop
  endfacet
  facet normal -0.130521 -0.991446 0
    outer loop
      vertex -40 2.2 0
      vertex -39.4306 2.12504 5
      vertex -40 2.2 5
    endloop
  endfacet
  facet normal 0.130521 0.991446 0
    outer loop
      vertex -40.5694 -2.12504 0
      vertex -40.5694 -2.12504 5
      vertex -40 -2.2 0
    endloop
  endfacet
  facet normal 0.130521 0.991446 0
    outer loop
      vertex -40.5694 -2.12504 5
      vertex -40 -2.2 5
      vertex -40 -2.2 0
    endloop
  endfacet
  facet normal 0.130521 -0.991446 0
    outer loop
      vertex -40.5694 2.12504 0
      vertex -40 2.2 0
      vertex -40 2.2 5
    endloop
  endfacet
  facet normal 0.130521 -0.991446 0
    outer loop
      vertex -40.5694 2.12504 0
      vertex -40 2.2 5
      vertex -40.5694 2.12504 5
    endloop
  endfacet
  facet normal 0.382681 0.923881 0
    outer loop
      vertex -41.1 -1.90526 0
      vertex -41.1 -1.90526 5
      vertex -40.5694 -2.12504 0
    endloop
  endfacet
  facet normal 0.382681 0.923881 0
    outer loop
      vertex -41.1 -1.90526 5
      vertex -40.5694 -2.12504 5
      vertex -40.5694 -2.12504 0
    endloop
  endfacet
  facet normal 0.382681 -0.923881 0
    outer loop
      vertex -41.1 1.90526 0
      vertex -40.5694 2.12504 0
      vertex -40.5694 2.12504 5
    endloop
  endfacet
  facet normal 0.382681 -0.923881 0
    outer loop
      vertex -41.1 1.90526 0
      vertex -40.5694 2.12504 5
      vertex -41.1 1.90526 5
    endloop
  endfacet
  facet normal 0.608801 0.793323 0
    outer loop
      vertex -41.5556 -1.55563 0
      vertex -41.5556 -1.55563 5
      vertex -41.1 -1.90526 0
    endloop
  endfacet
  facet normal 0.608801 0.793323 0
    outer loop
      vertex -41.5556 -1.55563 5
      vertex -41.1 -1.90526 5
      vertex -41.1 -1.90526 0
    endloop
  endfacet
  facet normal 0.608801 -0.793323 0
    outer loop
      vertex -41.5556 1.55563 0
      vertex -41.1 1.90526 0
      vertex -41.1 1.90526 5
    endloop
  endfacet
  facet normal 0.608801 -0.793323 0
    outer loop
      vertex -41.5556 1.55563 0
      vertex -41.1 1.90526 5
      vertex -41.5556 1.55563 5
    endloop
  endfacet
  facet normal 0.793284 0.608852 0
    outer loop
      vertex -41.9053 -1.1 0
      vertex -41.5556 -1.55563 5
      vertex -41.5556 -1.55563 0
    endloop
  endfacet
  facet normal 0.793284 0.608852 0
    outer loop
      vertex -41.9053 -1.1 0
      vertex -41.9053 -1.1 5
      vertex -41.5556 -1.55563 5
    endloop
  endfacet
  facet normal 0.793284 -0.608852 0
    outer loop
      vertex -41.9053 1.1 0
      vertex -41.5556 1.55563 0
      vertex -41.9053 1.1 5
    endloop
  endfacet
  facet normal 0.793284 -0.608852 0
    outer loop
      vertex -41.9053 1.1 5
      vertex -41.5556 1.55563 0
      vertex -41.5556 1.55563 5
    endloop
  endfacet
  facet normal 0.923929 0.382563 0
    outer loop
      vertex -42.125 -0.569402 0
      vertex -41.9053 -1.1 5
      vertex -41.9053 -1.1 0
    endloop
  endfacet
  facet normal 0.923929 0.382563 0
    outer loop
      vertex -42.125 -0.569402 0
      vertex -42.125 -0.569402 5
      vertex -41.9053 -1.1 5
    endloop
  endfacet
  facet normal 0.923929 -0.382563 0
    outer loop
      vertex -42.125 0.569402 0
      vertex -41.9053 1.1 0
      vertex -42.125 0.569402 5
    endloop
  endfacet
  facet normal 0.923929 -0.382563 0
    outer loop
      vertex -42.125 0.569402 5
      vertex -41.9053 1.1 0
      vertex -41.9053 1.1 5
    endloop
  endfacet
  facet normal 0.991437 0.130589 0
    outer loop
      vertex -42.2 0 0
      vertex -42.125 -0.569402 5
      vertex -42.125 -0.569402 0
    endloop
  endfacet
  facet normal 0.991437 -0.130589 0
    outer loop
      vertex -42.2 0 0
      vertex -42.125 0.569402 0
      vertex -42.2 0 5
    endloop
  endfacet
  facet normal 0.991437 0.130589 0
    outer loop
      vertex -42.2 0 0
      vertex -42.2 0 5
      vertex -42.125 -0.569402 5
    endloop
  endfacet
  facet normal 0.991437 -0.130589 0
    outer loop
      vertex -42.2 0 5
      vertex -42.125 0.569402 0
      vertex -42.125 0.569402 5
    endloop
  endfacet
  facet normal 0 -1 0
    outer loop
      vertex -45 -10 0
      vertex -10 -10 0
      vertex -10 -10 5
    endloop
  endfacet
  facet normal 0 -1 0
    outer loop
      vertex -45 -10 0
      vertex -10 -10 5
      vertex -45 -10 5
    endloop
  endfacet
  facet normal 0 0 -1
    outer loop
      vertex -45 -10 0
      vertex -20.6859 -2.5597 0
      vertex -10 -10 0
    endloop
  endfacet
  facet normal 0 0 -1
    outer loop
      vertex -45 -10 0
      vertex -21.325 -2.29497 0
      vertex -20.6859 -2.5597 0
    endloop
  endfacet
  facet normal 0 0 -1
    outer loop
      vertex -45 -10 0
      vertex -38.9 -1.90526 0
      vertex -21.325 -2.29497 0
    endloop
  endfacet
  facet normal 0 0 -1
    outer loop
      vertex -45 -10 0
      vertex -39.4306 -2.12504 0
      vertex -38.9 -1.90526 0
    endloop
  endfacet
  facet normal 0 0 -1
    outer loop
      vertex -45 -10 0
      vertex -40 -2.2 0
      vertex -39.4306 -2.12504 0
    endloop
  endfacet
  facet normal 0 0 -1
    outer loop
      vertex -45 -10 0
      vertex -40.5694 -2.12504 0
      vertex -40 -2.2 0
    endloop
  endfacet
  facet normal 0 0 -1
    outer loop
      vertex -45 -10 0
      vertex -41.1 -1.90526 0
      vertex -40.5694 -2.12504 0
    endloop
  endfacet
  facet normal 0 0 -1
    outer loop
      vertex -45 -10 0
      vertex -41.5556 -1.55563 0
      vertex -41.1 -1.90526 0
    endloop
  endfacet
  facet normal 0 0 1
    outer loop
      vertex -45 -10 5
      vertex -10 -10 5
      vertex -20.6859 -2.5597 5
    endloop
  endfacet
  facet normal 0 0 1
    outer loop
      vertex -45 -10 5
      vertex -20.6859 -2.5597 5
      vertex -21.325 -2.29497 5
    endloop
  endfacet
  facet normal 0 0 1
    outer loop
      vertex -45 -10 5
      vertex -21.325 -2.29497 5
      vertex -38.9 -1.90526 5
    endloop
  endfacet
  facet normal 0 0 1
    outer loop
      vertex -45 -10 5
      vertex -38.9 -1.90526 5
      vertex -39.4306 -2.12504 5
    endloop
  endfacet
  facet normal 0 0 1
    outer loop
      vertex -45 -10 5
      vertex -39.4306 -2.12504 5
      vertex -40 -2.2 5
    endloop
  endfacet
  facet normal 0 0 1
    outer loop
      vertex -45 -10 5
      vertex -40 -2.2 5
      vertex -40.5694 -2.12504 5
    endloop
  endfacet
  facet normal 0 0 1
    outer loop
      vertex -45 -10 5
      vertex -40.5694 -2.12504 5
      vertex -41.1 -1.90526 5
    endloop
  endfacet
  facet normal 0 0 1
    outer loop
      vertex -45 -10 5
      vertex -41.1 -1.90526 5
      vertex -41.5556 -1.55563 5
    endloop
  endfacet
  facet normal 0 0 -1
    outer loop
      vertex -45 10 0
      vertex -20 2.65 0
      vertex -20.6859 2.5597 0
    endloop
  endfacet
  facet normal 0 0 -1
    outer loop
      vertex -45 10 0
      vertex -20.6859 2.5597 0
      vertex -21.325 2.29497 0
    endloop
  endfacet
  facet normal 0 0 -1
    outer loop
      vertex -45 10 0
      vertex -21.325 2.29497 0
      vertex -38.9 1.90526 0
    endloop
  endfacet
  facet normal 0 0 -1
    outer loop
      vertex -45 10 0
      vertex -38.9 1.90526 0
      vertex -39.4306 2.12504 0
    endloop
  endfacet
  facet normal 0 0 -1
    outer loop
      vertex -45 10 0
      vertex -39.4306 2.12504 0
      vertex -40 2.2 0
    endloop
  endfacet
  facet normal 0 0 -1
    outer loop
      vertex -45 10 0
      vertex -40 2.2 0
      vertex -40.5694 2.12504 0
    endloop
  endfacet
  facet normal 0 0 -1
    outer loop
      vertex -45 10 0
      vertex -40.5694 2.12504 0
      vertex -41.1 1.90526 0
    endloop
  endfacet
  facet normal 0 0 -1
    outer loop
      vertex -45 10 0
      vertex -41.1 1.90526 0
      vertex -41.5556 1.55563 0
    endloop
  endfacet
  facet normal 0 1 0
    outer loop
      vertex -45 10 0
      vertex -45 10 5
      vertex 5 10 0
    endloop
  endfacet
  facet normal 0 0 -1
    outer loop
      vertex -45 10 0
      vertex 5 10 0
      vertex -20 2.65 0
    endloop
  endfacet
  facet normal 0 0 1
    outer loop
      vertex -45 10 5
      vertex -20 2.65 5
      vertex 5 10 5
    endloop
  endfacet
  facet normal 0 0 1
    outer loop
      vertex -45 10 5
      vertex -20.6859 2.5597 5
      vertex -20 2.65 5
    endloop
  endfacet
  facet normal 0 0 1
    outer loop
      vertex -45 10 5
      vertex -21.325 2.29497 5
      vertex -20.6859 2.5597 5
    endloop
  endfacet
  facet normal 0 0 1
    outer loop
      vertex -45 10 5
      vertex -38.9 1.90526 5
      vertex -21.325 2.29497 5
    endloop
  endfacet
  facet normal 0 0 1
    outer loop
      vertex -45 10 5
      vertex -39.4306 2.12504 5
      vertex -38.9 1.90526 5
    endloop
  endfacet
  facet normal 0 0 1
    outer loop
      vertex -45 10 5
      vertex -40 2.2 5
      vertex -39.4306 2.12504 5
    endloop
  endfacet
  facet normal 0 0 1
    outer loop
      vertex -45 10 5
      vertex -40.5694 2.12504 5
      vertex -40 2.2 5
    endloop
  endfacet
  facet normal 0 0 1
    outer loop
      vertex -45 10 5
      vertex -41.1 1.90526 5
      vertex -40.5694 2.12504 5
    endloop
  endfacet
  facet normal 0 0 1
    outer loop
      vertex -45 10 5
      vertex -41.5556 1.55563 5
      vertex -41.1 1.90526 5
    endloop
  endfacet
  facet normal 0 1 0
    outer loop
      vertex -45 10 5
      vertex 5 10 5
      vertex 5 10 0
    endloop
  endfacet
  facet normal -0.130525 -0.991445 0
    outer loop
      vertex -46.2941 -9.82963 0
      vertex -45 -10 0
      vertex -45 -10 5
    endloop
  endfacet
  facet normal -0.130525 -0.991445 0
    outer loop
      vertex -46.2941 -9.82963 0
      vertex -45 -10 5
      vertex -46.2941 -9.82963 5
    endloop
  endfacet
  facet normal 0 0 1
    outer loop
      vertex -46.2941 -9.82963 5
      vertex -45 -10 5
      vertex -41.5556 -1.55563 5
    endloop
  endfacet
  facet normal 0 0 -1
    outer loop
      vertex -46.2941 9.82963 0
      vertex -45 10 0
      vertex -41.5556 1.55563 0
    endloop
  endfacet
  facet normal -0.130525 0.991445 0
    outer loop
      vertex -46.2941 9.82963 0
      vertex -46.2941 9.82963 5
      vertex -45 10 0
    endloop
  endfacet
  facet normal -0.130525 0.991445 0
    outer loop
      vertex -46.2941 9.82963 5
      vertex -45 10 5
      vertex -45 10 0
    endloop
  endfacet
  facet normal -0.382683 -0.92388 0
    outer loop
      vertex -47.5 -9.33013 0
      vertex -46.2941 -9.82963 0
      vertex -46.2941 -9.82963 5
    endloop
  endfacet
  facet normal -0.382683 -0.92388 0
    outer loop
      vertex -47.5 -9.33013 0
      vertex -46.2941 -9.82963 5
      vertex -47.5 -9.33013 5
    endloop
  endfacet
  facet normal -0.382683 0.92388 0
    outer loop
      vertex -47.5 9.33013 0
      vertex -47.5 9.33013 5
      vertex -46.2941 9.82963 0
    endloop
  endfacet
  facet normal -0.382683 0.92388 0
    outer loop
      vertex -47.5 9.33013 5
      vertex -46.2941 9.82963 5
      vertex -46.2941 9.82963 0
    endloop
  endfacet
  facet normal -0.608777 -0.793341 0
    outer loop
      vertex -48.5355 -8.53553 0
      vertex -47.5 -9.33013 0
      vertex -47.5 -9.33013 5
    endloop
  endfacet
  facet normal -0.608777 -0.793341 0
    outer loop
      vertex -48.5355 -8.53553 0
      vertex -47.5 -9.33013 5
      vertex -48.5355 -8.53553 5
    endloop
  endfacet
  facet normal -0.608777 0.793341 0
    outer loop
      vertex -48.5355 8.53553 0
      vertex -48.5355 8.53553 5
      vertex -47.5 9.33013 0
    endloop
  endfacet
  facet normal -0.608777 0.793341 0
    outer loop
      vertex -48.5355 8.53553 5
      vertex -47.5 9.33013 5
      vertex -47.5 9.33013 0
    endloop
  endfacet
  facet normal -0.79335 -0.608766 0
    outer loop
      vertex -49.3301 -7.5 0
      vertex -48.5355 -8.53553 0
      vertex -49.3301 -7.5 5
    endloop
  endfacet
  facet normal -0.79335 -0.608766 0
    outer loop
      vertex -49.3301 -7.5 5
      vertex -48.5355 -8.53553 0
      vertex -48.5355 -8.53553 5
    endloop
  endfacet
  facet normal -0.79335 0.608766 0
    outer loop
      vertex -49.3301 7.5 0
      vertex -48.5355 8.53553 5
      vertex -48.5355 8.53553 0
    endloop
  endfacet
  facet normal -0.79335 0.608766 0
    outer loop
      vertex -49.3301 7.5 0
      vertex -49.3301 7.5 5
      vertex -48.5355 8.53553 5
    endloop
  endfacet
  facet normal -0.92388 -0.382683 0
    outer loop
      vertex -49.8296 -6.2941 0
      vertex -49.3301 -7.5 0
      vertex -49.8296 -6.2941 5
    endloop
  endfacet
  facet normal -0.92388 -0.382683 0
    outer loop
      vertex -49.8296 -6.2941 5
      vertex -49.3301 -7.5 0
      vertex -49.3301 -7.5 5
    endloop
  endfacet
  facet normal -0.92388 0.382683 0
    outer loop
      vertex -49.8296 6.2941 0
      vertex -49.3301 7.5 5
      vertex -49.3301 7.5 0
    endloop
  endfacet
  facet normal -0.92388 0.382683 0
    outer loop
      vertex -49.8296 6.2941 0
      vertex -49.8296 6.2941 5
      vertex -49.3301 7.5 5
    endloop
  endfacet
  facet normal 0 0 -1
    outer loop
      vertex -5 -50 0
      vertex -0.569402 -42.125 0
      vertex 0 -42.2 0
    endloop
  endfacet
  facet normal 0 0 -1
    outer loop
      vertex -5 -50 0
      vertex -1.1 -41.9053 0
      vertex -0.569402 -42.125 0
    endloop
  endfacet
  facet normal 0 0 -1
    outer loop
      vertex -5 -50 0
      vertex -1.55563 -41.5556 0
      vertex -1.1 -41.9053 0
    endloop
  endfacet
  facet normal 0 0 -1
    outer loop
      vertex -5 -50 0
      vertex 0 -42.2 0
      vertex 5 -50 0
    endloop
  endfacet
  facet normal 0 -1 0
    outer loop
      vertex -5 -50 0
      vertex 5 -50 0
      vertex 5 -50 5
    endloop
  endfacet
  facet normal 0 -1 0
    outer loop
      vertex -5 -50 0
      vertex 5 -50 5
      vertex -5 -50 5
    endloop
  endfacet
  facet normal 0 0 1
    outer loop
      vertex -5 -50 5
      vertex -0.569402 -42.125 5
      vertex -1.1 -41.9053 5
    endloop
  endfacet
  facet normal 0 0 1
    outer loop
      vertex -5 -50 5
      vertex -1.1 -41.9053 5
      vertex -1.55563 -41.5556 5
    endloop
  endfacet
  facet normal 0 0 1
    outer loop
      vertex -5 -50 5
      vertex 0 -42.2 5
      vertex -0.569402 -42.125 5
    endloop
  endfacet
  facet normal 0 0 1
    outer loop
      vertex -5 -50 5
      vertex 5 -50 5
      vertex 0 -42.2 5
    endloop
  endfacet
  facet normal 0 0 -1
    outer loop
      vertex -50 -5 0
      vertex -41.5556 -1.55563 0
      vertex -45 -10 0
    endloop
  endfacet
  facet normal 0 0 -1
    outer loop
      vertex -50 -5 0
      vertex -41.9053 -1.1 0
      vertex -41.5556 -1.55563 0
    endloop
  endfacet
  facet normal 0 0 -1
    outer loop
      vertex -50 -5 0
      vertex -42.125 -0.569402 0
      vertex -41.9053 -1.1 0
    endloop
  endfacet
  facet normal 0 0 -1
    outer loop
      vertex -50 -5 0
      vertex -42.2 0 0
      vertex -42.125 -0.569402 0
    endloop
  endfacet
  facet normal 0 0 -1
    outer loop
      vertex -50 -5 0
      vertex -45 -10 0
      vertex -46.2941 -9.82963 0
    endloop
  endfacet
  facet normal 0 0 -1
    outer loop
      vertex -50 -5 0
      vertex -46.2941 -9.82963 0
      vertex -47.5 -9.33013 0
    endloop
  endfacet
  facet normal 0 0 -1
    outer loop
      vertex -50 -5 0
      vertex -47.5 -9.33013 0
      vertex -48.5355 -8.53553 0
    endloop
  endfacet
  facet normal 0 0 -1
    outer loop
      vertex -50 -5 0
      vertex -48.5355 -8.53553 0
      vertex -49.3301 -7.5 0
    endloop
  endfacet
  facet normal 0 0 -1
    outer loop
      vertex -50 -5 0
      vertex -49.3301 -7.5 0
      vertex -49.8296 -6.2941 0
    endloop
  endfacet
  facet normal -0.991442 -0.130548 0
    outer loop
      vertex -50 -5 0
      vertex -49.8296 -6.2941 0
      vertex -50 -5 5
    endloop
  endfacet
  facet normal -1 0 0
    outer loop
      vertex -50 -5 0
      vertex -50 -5 5
      vertex -50 5 5
    endloop
  endfacet
  facet normal 0 0 -1
    outer loop
      vertex -50 -5 0
      vertex -50 5 0
      vertex -42.2 0 0
    endloop
  endfacet
  facet normal -1 0 0
    outer loop
      vertex -50 -5 0
      vertex -50 5 5
      vertex -50 5 0
    endloop
  endfacet
  facet normal 0 0 1
    outer loop
      vertex -50 -5 5
      vertex -41.5556 -1.55563 5
      vertex -41.9053 -1.1 5
    endloop
  endfacet
  facet normal 0 0 1
    outer loop
      vertex -50 -5 5
      vertex -41.9053 -1.1 5
      vertex -42.125 -0.569402 5
    endloop
  endfacet
  facet normal 0 0 1
    outer loop
      vertex -50 -5 5
      vertex -42.125 -0.569402 5
      vertex -42.2 0 5
    endloop
  endfacet
  facet normal 0 0 1
    outer loop
      vertex -50 -5 5
      vertex -42.2 0 5
      vertex -50 5 5
    endloop
  endfacet
  facet normal 0 0 1
    outer loop
      vertex -50 -5 5
      vertex -46.2941 -9.82963 5
      vertex -41.5556 -1.55563 5
    endloop
  endfacet
  facet normal 0 0 1
    outer loop
      vertex -50 -5 5
      vertex -47.5 -9.33013 5
      vertex -46.2941 -9.82963 5
    endloop
  endfacet
  facet normal 0 0 1
    outer loop
      vertex -50 -5 5
      vertex -48.5355 -8.53553 5
      vertex -47.5 -9.33013 5
    endloop
  endfacet
  facet normal 0 0 1
    outer loop
      vertex -50 -5 5
      vertex -49.3301 -7.5 5
      vertex -48.5355 -8.53553 5
    endloop
  endfacet
  facet normal -0.991442 -0.130548 0
    outer loop
      vertex -50 -5 5
      vertex -49.8296 -6.2941 0
      vertex -49.8296 -6.2941 5
    endloop
  endfacet
  facet normal 0 0 1
    outer loop
      vertex -50 -5 5
      vertex -49.8296 -6.2941 5
      vertex -49.3301 -7.5 5
    endloop
  endfacet
  facet normal 0 0 -1
    outer loop
      vertex -50 5 0
      vertex -41.5556 1.55563 0
      vertex -41.9053 1.1 0
    endloop
  endfacet
  facet normal 0 0 -1
    outer loop
      vertex -50 5 0
      vertex -41.9053 1.1 0
      vertex -42.125 0.569402 0
    endloop
  endfacet
  facet normal 0 0 -1
    outer loop
      vertex -50 5 0
      vertex -42.125 0.569402 0
      vertex -42.2 0 0
    endloop
  endfacet
  facet normal 0 0 -1
    outer loop
      vertex -50 5 0
      vertex -46.2941 9.82963 0
      vertex -41.5556 1.55563 0
    endloop
  endfacet
  facet normal 0 0 -1
    outer loop
      vertex -50 5 0
      vertex -47.5 9.33013 0
      vertex -46.2941 9.82963 0
    endloop
  endfacet
  facet normal 0 0 -1
    outer loop
      vertex -50 5 0
      vertex -48.5355 8.53553 0
      vertex -47.5 9.33013 0
    endloop
  endfacet
  facet normal 0 0 -1
    outer loop
      vertex -50 5 0
      vertex -49.3301 7.5 0
      vertex -48.5355 8.53553 0
    endloop
  endfacet
  facet normal 0 0 -1
    outer loop
      vertex -50 5 0
      vertex -49.8296 6.2941 0
      vertex -49.3301 7.5 0
    endloop
  endfacet
  facet normal -0.991442 0.130548 0
    outer loop
      vertex -50 5 0
      vertex -49.8296 6.2941 5
      vertex -49.8296 6.2941 0
    endloop
  endfacet
  facet normal -0.991442 0.130548 0
    outer loop
      vertex -50 5 0
      vertex -50 5 5
      vertex -49.8296 6.2941 5
    endloop
  endfacet
  facet normal 0 0 1
    outer loop
      vertex -50 5 5
      vertex -41.5556 1.55563 5
      vertex -45 10 5
    endloop
  endfacet
  facet normal 0 0 1
    outer loop
      vertex -50 5 5
      vertex -41.9053 1.1 5
      vertex -41.5556 1.55563 5
    endloop
  endfacet
  facet normal 0 0 1
    outer loop
      vertex -50 5 5
      vertex -42.125 0.569402 5
      vertex -41.9053 1.1 5
    endloop
  endfacet
  facet normal 0 0 1
    outer loop
      vertex -50 5 5
      vertex -42.2 0 5
      vertex -42.125 0.569402 5
    endloop
  endfacet
  facet normal 0 0 1
    outer loop
      vertex -50 5 5
      vertex -45 10 5
      vertex -46.2941 9.82963 5
    endloop
  endfacet
  facet normal 0 0 1
    outer loop
      vertex -50 5 5
      vertex -46.2941 9.82963 5
      vertex -47.5 9.33013 5
    endloop
  endfacet
  facet normal 0 0 1
    outer loop
      vertex -50 5 5
      vertex -47.5 9.33013 5
      vertex -48.5355 8.53553 5
    endloop
  endfacet
  facet normal 0 0 1
    outer loop
      vertex -50 5 5
      vertex -48.5355 8.53553 5
      vertex -49.3301 7.5 5
    endloop
  endfacet
  facet normal 0 0 1
    outer loop
      vertex -50 5 5
      vertex -49.3301 7.5 5
      vertex -49.8296 6.2941 5
    endloop
  endfacet
  facet normal -0.130548 -0.991442 0
    outer loop
      vertex -6.2941 -49.8296 0
      vertex -5 -50 0
      vertex -5 -50 5
    endloop
  endfacet
  facet normal -0.130548 -0.991442 0
    outer loop
      vertex -6.2941 -49.8296 0
      vertex -5 -50 5
      vertex -6.2941 -49.8296 5
    endloop
  endfacet
  facet normal 0 0 1
    outer loop
      vertex -6.2941 -49.8296 5
      vertex -5 -50 5
      vertex -1.55563 -41.5556 5
    endloop
  endfacet
  facet normal -0.382683 -0.92388 0
    outer loop
      vertex -7.5 -49.3301 0
      vertex -6.2941 -49.8296 0
      vertex -6.2941 -49.8296 5
    endloop
  endfacet
  facet normal -0.382683 -0.92388 0
    outer loop
      vertex -7.5 -49.3301 0
      vertex -6.2941 -49.8296 5
      vertex -7.5 -49.3301 5
    endloop
  endfacet
  facet normal -0.608766 -0.79335 0
    outer loop
      vertex -8.53553 -48.5355 0
      vertex -7.5 -49.3301 0
      vertex -7.5 -49.3301 5
    endloop
  endfacet
  facet normal -0.608766 -0.79335 0
    outer loop
      vertex -8.53553 -48.5355 0
      vertex -7.5 -49.3301 5
      vertex -8.53553 -48.5355 5
    endloop
  endfacet
  facet normal -0.793341 -0.608777 0
    outer loop
      vertex -9.33013 -47.5 0
      vertex -8.53553 -48.5355 0
      vertex -9.33013 -47.5 5
    endloop
  endfacet
  facet normal -0.793341 -0.608777 0
    outer loop
      vertex -9.33013 -47.5 5
      vertex -8.53553 -48.5355 0
      vertex -8.53553 -48.5355 5
    endloop
  endfacet
  facet normal -0.92388 -0.382683 0
    outer loop
      vertex -9.82963 -46.2941 0
      vertex -9.33013 -47.5 0
      vertex -9.82963 -46.2941 5
    endloop
  endfacet
  facet normal 0 0 1
    outer loop
      vertex -9.82963 -46.2941 5
      vertex -7.5 -49.3301 5
      vertex -6.2941 -49.8296 5
    endloop
  endfacet
  facet normal 0 0 1
    outer loop
      vertex -9.82963 -46.2941 5
      vertex -8.53553 -48.5355 5
      vertex -7.5 -49.3301 5
    endloop
  endfacet
  facet normal -0.92388 -0.382683 0
    outer loop
      vertex -9.82963 -46.2941 5
      vertex -9.33013 -47.5 0
      vertex -9.33013 -47.5 5
    endloop
  endfacet
  facet normal 0 0 1
    outer loop
      vertex -9.82963 -46.2941 5
      vertex -9.33013 -47.5 5
      vertex -8.53553 -48.5355 5
    endloop
  endfacet
  facet normal 0 0 -1
    outer loop
      vertex 0 -17.8 0
      vertex 0 -2.65 0
      vertex 0.68587 -2.5597 0
    endloop
  endfacet
  facet normal -0.130589 -0.991437 0
    outer loop
      vertex 0 -17.8 0
      vertex 0.569402 -17.875 0
      vertex 0.569402 -17.875 5
    endloop
  endfacet
  facet normal -0.130589 -0.991437 0
    outer loop
      vertex 0 -17.8 0
      vertex 0.569402 -17.875 5
      vertex 0 -17.8 5
    endloop
  endfacet
  facet normal 0 0 -1
    outer loop
      vertex 0 -17.8 0
      vertex 0.68587 -2.5597 0
      vertex 0.569402 -17.875 0
    endloop
  endfacet
  facet normal 0 0 1
    outer loop
      vertex 0 -17.8 5
      vertex 0.569402 -17.875 5
      vertex 0 -2.65 5
    endloop
  endfacet
  facet normal -0.130531 0.991444 0
    outer loop
      vertex 0 -2.65 0
      vertex 0 -2.65 5
      vertex 0.68587 -2.5597 0
    endloop
  endfacet
  facet normal 0 0 1
    outer loop
      vertex 0 -2.65 5
      vertex 0.569402 -17.875 5
      vertex 0.68587 -2.5597 5
    endloop
  endfacet
  facet normal -0.130531 0.991444 0
    outer loop
      vertex 0 -2.65 5
      vertex 0.68587 -2.5597 5
      vertex 0.68587 -2.5597 0
    endloop
  endfacet
  facet normal -0.130589 0.991437 0
    outer loop
      vertex 0 -22.2 0
      vertex 0 -22.2 5
      vertex 0.569402 -22.125 0
    endloop
  endfacet
  facet normal -0.130589 0.991437 0
    outer loop
      vertex 0 -22.2 5
      vertex 0.569402 -22.125 5
      vertex 0.569402 -22.125 0
    endloop
  endfacet
  facet normal 0 0 1
    outer loop
      vertex 0 -22.2 5
      vertex 0.569402 -37.875 5
      vertex 0.569402 -22.125 5
    endloop
  endfacet
  facet normal 0 0 -1
    outer loop
      vertex 0 -37.8 0
      vertex 0 -22.2 0
      vertex 0.569402 -22.125 0
    endloop
  endfacet
  facet normal 0 0 -1
    outer loop
      vertex 0 -37.8 0
      vertex 0.569402 -22.125 0
      vertex 0.569402 -37.875 0
    endloop
  endfacet
  facet normal -0.130589 -0.991437 0
    outer loop
      vertex 0 -37.8 0
      vertex 0.569402 -37.875 0
      vertex 0.569402 -37.875 5
    endloop
  endfacet
  facet normal -0.130589 -0.991437 0
    outer loop
      vertex 0 -37.8 0
      vertex 0.569402 -37.875 5
      vertex 0 -37.8 5
    endloop
  endfacet
  facet normal 0 0 1
    outer loop
      vertex 0 -37.8 5
      vertex 0.569402 -37.875 5
      vertex 0 -22.2 5
    endloop
  endfacet
  facet normal -0.130589 0.991437 0
    outer loop
      vertex 0 -42.2 0
      vertex 0 -42.2 5
      vertex 0.569402 -42.125 0
    endloop
  endfacet
  facet normal 0 0 -1
    outer loop
      vertex 0 -42.2 0
      vertex 0.569402 -42.125 0
      vertex 5 -50 0
    endloop
  endfacet
  facet normal -0.130589 0.991437 0
    outer loop
      vertex 0 -42.2 5
      vertex 0.569402 -42.125 5
      vertex 0.569402 -42.125 0
    endloop
  endfacet
  facet normal 0 0 1
    outer loop
      vertex 0 -42.2 5
      vertex 5 -50 5
      vertex 0.569402 -42.125 5
    endloop
  endfacet
  facet normal -0.130531 -0.991444 0
    outer loop
      vertex 0 2.65 0
      vertex 0.68587 2.5597 0
      vertex 0.68587 2.5597 5
    endloop
  endfacet
  facet normal -0.130531 -0.991444 0
    outer loop
      vertex 0 2.65 0
      vertex 0.68587 2.5597 5
      vertex 0 2.65 5
    endloop
  endfacet
  facet normal 0 0 -1
    outer loop
      vertex 0 2.65 0
      vertex 5 10 0
      vertex 0.68587 2.5597 0
    endloop
  endfacet
  facet normal 0 0 1
    outer loop
      vertex 0 2.65 5
      vertex 0.68587 2.5597 5
      vertex 5 10 5
    endloop
  endfacet
  facet normal 0 0 -1
    outer loop
      vertex 0.569402 -17.875 0
      vertex 0.68587 -2.5597 0
      vertex 1.1 -18.0947 0
    endloop
  endfacet
  facet normal -0.382563 -0.923929 0
    outer loop
      vertex 0.569402 -17.875 0
      vertex 1.1 -18.0947 0
      vertex 1.1 -18.0947 5
    endloop
  endfacet
  facet normal -0.382563 -0.923929 0
    outer loop
      vertex 0.569402 -17.875 0
      vertex 1.1 -18.0947 5
      vertex 0.569402 -17.875 5
    endloop
  endfacet
  facet normal 0 0 1
    outer loop
      vertex 0.569402 -17.875 5
      vertex 1.1 -18.0947 5
      vertex 0.68587 -2.5597 5
    endloop
  endfacet
  facet normal -0.382563 0.923929 0
    outer loop
      vertex 0.569402 -22.125 0
      vertex 0.569402 -22.125 5
      vertex 1.1 -21.9053 0
    endloop
  endfacet
  facet normal -0.382563 0.923929 0
    outer loop
      vertex 0.569402 -22.125 5
      vertex 1.1 -21.9053 5
      vertex 1.1 -21.9053 0
    endloop
  endfacet
  facet normal 0 0 1
    outer loop
      vertex 0.569402 -22.125 5
      vertex 1.1 -38.0947 5
      vertex 1.1 -21.9053 5
    endloop
  endfacet
  facet normal 0 0 -1
    outer loop
      vertex 0.569402 -37.875 0
      vertex 0.569402 -22.125 0
      vertex 1.1 -21.9053 0
    endloop
  endfacet
  facet normal 0 0 -1
    outer loop
      vertex 0.569402 -37.875 0
      vertex 1.1 -21.9053 0
      vertex 1.1 -38.0947 0
    endloop
  endfacet
  facet normal -0.382563 -0.923929 0
    outer loop
      vertex 0.569402 -37.875 0
      vertex 1.1 -38.0947 0
      vertex 1.1 -38.0947 5
    endloop
  endfacet
  facet normal -0.382563 -0.923929 0
    outer loop
      vertex 0.569402 -37.875 0
      vertex 1.1 -38.0947 5
      vertex 0.569402 -37.875 5
    endloop
  endfacet
  facet normal 0 0 1
    outer loop
      vertex 0.569402 -37.875 5
      vertex 1.1 -38.0947 5
      vertex 0.569402 -22.125 5
    endloop
  endfacet
  facet normal -0.382563 0.923929 0
    outer loop
      vertex 0.569402 -42.125 0
      vertex 0.569402 -42.125 5
      vertex 1.1 -41.9053 0
    endloop
  endfacet
  facet normal 0 0 -1
    outer loop
      vertex 0.569402 -42.125 0
      vertex 1.1 -41.9053 0
      vertex 5 -50 0
    endloop
  endfacet
  facet normal -0.382563 0.923929 0
    outer loop
      vertex 0.569402 -42.125 5
      vertex 1.1 -41.9053 5
      vertex 1.1 -41.9053 0
    endloop
  endfacet
  facet normal 0 0 1
    outer loop
      vertex 0.569402 -42.125 5
      vertex 5 -50 5
      vertex 1.1 -41.9053 5
    endloop
  endfacet
  facet normal -0.382676 0.923883 0
    outer loop
      vertex 0.68587 -2.5597 0
      vertex 0.68587 -2.5597 5
      vertex 1.325 -2.29497 0
    endloop
  endfacet
  facet normal 0 0 -1
    outer loop
      vertex 0.68587 -2.5597 0
      vertex 1.325 -2.29497 0
      vertex 1.1 -18.0947 0
    endloop
  endfacet
  facet normal 0 0 1
    outer loop
      vertex 0.68587 -2.5597 5
      vertex 1.1 -18.0947 5
      vertex 1.325 -2.29497 5
    endloop
  endfacet
  facet normal -0.382676 0.923883 0
    outer loop
      vertex 0.68587 -2.5597 5
      vertex 1.325 -2.29497 5
      vertex 1.325 -2.29497 0
    endloop
  endfacet
  facet normal -0.382676 -0.923883 0
    outer loop
      vertex 0.68587 2.5597 0
      vertex 1.325 2.29497 0
      vertex 1.325 2.29497 5
    endloop
  endfacet
  facet normal -0.382676 -0.923883 0
    outer loop
      vertex 0.68587 2.5597 0
      vertex 1.325 2.29497 5
      vertex 0.68587 2.5597 5
    endloop
  endfacet
  facet normal 0 0 -1
    outer loop
      vertex 0.68587 2.5597 0
      vertex 5 10 0
      vertex 1.325 2.29497 0
    endloop
  endfacet
  facet normal 0 0 1
    outer loop
      vertex 0.68587 2.5597 5
      vertex 1.325 2.29497 5
      vertex 5 10 5
    endloop
  endfacet
  facet normal 0 0 -1
    outer loop
      vertex 1.1 -18.0947 0
      vertex 1.325 -2.29497 0
      vertex 1.55563 -18.4444 0
    endloop
  endfacet
  facet normal -0.608852 -0.793284 0
    outer loop
      vertex 1.1 -18.0947 0
      vertex 1.55563 -18.4444 0
      vertex 1.55563 -18.4444 5
    endloop
  endfacet
  facet normal -0.608852 -0.793284 0
    outer loop
      vertex 1.1 -18.0947 0
      vertex 1.55563 -18.4444 5
      vertex 1.1 -18.0947 5
    endloop
  endfacet
  facet normal 0 0 1
    outer loop
      vertex 1.1 -18.0947 5
      vertex 1.55563 -18.4444 5
      vertex 1.325 -2.29497 5
    endloop
  endfacet
  facet normal -0.608852 0.793284 0
    outer loop
      vertex 1.1 -21.9053 0
      vertex 1.1 -21.9053 5
      vertex 1.55563 -21.5556 0
    endloop
  endfacet
  facet normal -0.608852 0.793284 0
    outer loop
      vertex 1.1 -21.9053 5
      vertex 1.55563 -21.5556 5
      vertex 1.55563 -21.5556 0
    endloop
  endfacet
  facet normal 0 0 1
    outer loop
      vertex 1.1 -21.9053 5
      vertex 1.55563 -38.4444 5
      vertex 1.55563 -21.5556 5
    endloop
  endfacet
  facet normal 0 0 -1
    outer loop
      vertex 1.1 -38.0947 0
      vertex 1.1 -21.9053 0
      vertex 1.55563 -21.5556 0
    endloop
  endfacet
  facet normal 0 0 -1
    outer loop
      vertex 1.1 -38.0947 0
      vertex 1.55563 -21.5556 0
      vertex 1.55563 -38.4444 0
    endloop
  endfacet
  facet normal -0.608852 -0.793284 0
    outer loop
      vertex 1.1 -38.0947 0
      vertex 1.55563 -38.4444 0
      vertex 1.55563 -38.4444 5
    endloop
  endfacet
  facet normal -0.608852 -0.793284 0
    outer loop
      vertex 1.1 -38.0947 0
      vertex 1.55563 -38.4444 5
      vertex 1.1 -38.0947 5
    endloop
  endfacet
  facet normal 0 0 1
    outer loop
      vertex 1.1 -38.0947 5
      vertex 1.55563 -38.4444 5
      vertex 1.1 -21.9053 5
    endloop
  endfacet
  facet normal -0.608852 0.793284 0
    outer loop
      vertex 1.1 -41.9053 0
      vertex 1.1 -41.9053 5
      vertex 1.55563 -41.5556 0
    endloop
  endfacet
  facet normal 0 0 -1
    outer loop
      vertex 1.1 -41.9053 0
      vertex 1.55563 -41.5556 0
      vertex 5 -50 0
    endloop
  endfacet
  facet normal -0.608852 0.793284 0
    outer loop
      vertex 1.1 -41.9053 5
      vertex 1.55563 -41.5556 5
      vertex 1.55563 -41.5556 0
    endloop
  endfacet
  facet normal 0 0 1
    outer loop
      vertex 1.1 -41.9053 5
      vertex 5 -50 5
      vertex 1.55563 -41.5556 5
    endloop
  endfacet
  facet normal -0.608769 0.793348 0
    outer loop
      vertex 1.325 -2.29497 0
      vertex 1.325 -2.29497 5
      vertex 1.87383 -1.87383 0
    endloop
  endfacet
  facet normal 0 0 -1
    outer loop
      vertex 1.325 -2.29497 0
      vertex 1.87383 -1.87383 0
      vertex 1.55563 -18.4444 0
    endloop
  endfacet
  facet normal 0 0 1
    outer loop
      vertex 1.325 -2.29497 5
      vertex 1.55563 -18.4444 5
      vertex 1.87383 -1.87383 5
    endloop
  endfacet
  facet normal -0.608769 0.793348 0
    outer loop
      vertex 1.325 -2.29497 5
      vertex 1.87383 -1.87383 5
      vertex 1.87383 -1.87383 0
    endloop
  endfacet
  facet normal -0.608769 -0.793348 0
    outer loop
      vertex 1.325 2.29497 0
      vertex 1.87383 1.87383 0
      vertex 1.87383 1.87383 5
    endloop
  endfacet
  facet normal -0.608769 -0.793348 0
    outer loop
      vertex 1.325 2.29497 0
      vertex 1.87383 1.87383 5
      vertex 1.325 2.29497 5
    endloop
  endfacet
  facet normal 0 0 -1
    outer loop
      vertex 1.325 2.29497 0
      vertex 5 10 0
      vertex 1.87383 1.87383 0
    endloop
  endfacet
  facet normal 0 0 1
    outer loop
      vertex 1.325 2.29497 5
      vertex 1.87383 1.87383 5
      vertex 5 10 5
    endloop
  endfacet
  facet normal 0 0 -1
    outer loop
      vertex 1.55563 -18.4444 0
      vertex 1.87383 -1.87383 0
      vertex 1.90526 -18.9 0
    endloop
  endfacet
  facet normal -0.793323 -0.608801 0
    outer loop
      vertex 1.55563 -18.4444 0
      vertex 1.90526 -18.9 0
      vertex 1.55563 -18.4444 5
    endloop
  endfacet
  facet normal -0.793323 -0.608801 0
    outer loop
      vertex 1.55563 -18.4444 5
      vertex 1.90526 -18.9 0
      vertex 1.90526 -18.9 5
    endloop
  endfacet
  facet normal 0 0 1
    outer loop
      vertex 1.55563 -18.4444 5
      vertex 1.90526 -18.9 5
      vertex 1.87383 -1.87383 5
    endloop
  endfacet
  facet normal -0.793323 0.608801 0
    outer loop
      vertex 1.55563 -21.5556 0
      vertex 1.55563 -21.5556 5
      vertex 1.90526 -21.1 5
    endloop
  endfacet
  facet normal -0.793323 0.608801 0
    outer loop
      vertex 1.55563 -21.5556 0
      vertex 1.90526 -21.1 5
      vertex 1.90526 -21.1 0
    endloop
  endfacet
  facet normal 0 0 1
    outer loop
      vertex 1.55563 -21.5556 5
      vertex 1.90526 -38.9 5
      vertex 1.90526 -21.1 5
    endloop
  endfacet
  facet normal 0 0 -1
    outer loop
      vertex 1.55563 -38.4444 0
      vertex 1.55563 -21.5556 0
      vertex 1.90526 -21.1 0
    endloop
  endfacet
  facet normal 0 0 -1
    outer loop
      vertex 1.55563 -38.4444 0
      vertex 1.90526 -21.1 0
      vertex 1.90526 -38.9 0
    endloop
  endfacet
  facet normal -0.793323 -0.608801 0
    outer loop
      vertex 1.55563 -38.4444 0
      vertex 1.90526 -38.9 0
      vertex 1.55563 -38.4444 5
    endloop
  endfacet
  facet normal -0.793323 -0.608801 0
    outer loop
      vertex 1.55563 -38.4444 5
      vertex 1.90526 -38.9 0
      vertex 1.90526 -38.9 5
    endloop
  endfacet
  facet normal 0 0 1
    outer loop
      vertex 1.55563 -38.4444 5
      vertex 1.90526 -38.9 5
      vertex 1.55563 -21.5556 5
    endloop
  endfacet
  facet normal -0.793323 0.608801 0
    outer loop
      vertex 1.55563 -41.5556 0
      vertex 1.55563 -41.5556 5
      vertex 1.90526 -41.1 5
    endloop
  endfacet
  facet normal 0 0 -1
    outer loop
      vertex 1.55563 -41.5556 0
      vertex 1.90526 -41.1 0
      vertex 10 -45 0
    endloop
  endfacet
  facet normal -0.793323 0.608801 0
    outer loop
      vertex 1.55563 -41.5556 0
      vertex 1.90526 -41.1 5
      vertex 1.90526 -41.1 0
    endloop
  endfacet
  facet normal 0 0 -1
    outer loop
      vertex 1.55563 -41.5556 0
      vertex 10 -45 0
      vertex 9.82963 -46.2941 0
    endloop
  endfacet
  facet normal 0 0 -1
    outer loop
      vertex 1.55563 -41.5556 0
      vertex 6.2941 -49.8296 0
      vertex 5 -50 0
    endloop
  endfacet
  facet normal 0 0 -1
    outer loop
      vertex 1.55563 -41.5556 0
      vertex 7.5 -49.3301 0
      vertex 6.2941 -49.8296 0
    endloop
  endfacet
  facet normal 0 0 -1
    outer loop
      vertex 1.55563 -41.5556 0
      vertex 8.53553 -48.5355 0
      vertex 7.5 -49.3301 0
    endloop
  endfacet
  facet normal 0 0 -1
    outer loop
      vertex 1.55563 -41.5556 0
      vertex 9.33013 -47.5 0
      vertex 8.53553 -48.5355 0
    endloop
  endfacet
  facet normal 0 0 -1
    outer loop
      vertex 1.55563 -41.5556 0
      vertex 9.82963 -46.2941 0
      vertex 9.33013 -47.5 0
    endloop
  endfacet
  facet normal 0 0 1
    outer loop
      vertex 1.55563 -41.5556 5
      vertex 10 -45 5
      vertex 1.90526 -41.1 5
    endloop
  endfacet
  facet normal 0 0 1
    outer loop
      vertex 1.55563 -41.5556 5
      vertex 5 -50 5
      vertex 6.2941 -49.8296 5
    endloop
  endfacet
  facet normal 0 0 1
    outer loop
      vertex 1.55563 -41.5556 5
      vertex 6.2941 -49.8296 5
      vertex 7.5 -49.3301 5
    endloop
  endfacet
  facet normal 0 0 1
    outer loop
      vertex 1.55563 -41.5556 5
      vertex 7.5 -49.3301 5
      vertex 8.53553 -48.5355 5
    endloop
  endfacet
  facet normal 0 0 1
    outer loop
      vertex 1.55563 -41.5556 5
      vertex 8.53553 -48.5355 5
      vertex 9.33013 -47.5 5
    endloop
  endfacet
  facet normal 0 0 1
    outer loop
      vertex 1.55563 -41.5556 5
      vertex 9.33013 -47.5 5
      vertex 9.82963 -46.2941 5
    endloop
  endfacet
  facet normal 0 0 1
    outer loop
      vertex 1.55563 -41.5556 5
      vertex 9.82963 -46.2941 5
      vertex 10 -45 5
    endloop
  endfacet
  facet normal -0.793348 0.608769 0
    outer loop
      vertex 1.87383 -1.87383 0
      vertex 1.87383 -1.87383 5
      vertex 2.29497 -1.325 5
    endloop
  endfacet
  facet normal 0 0 -1
    outer loop
      vertex 1.87383 -1.87383 0
      vertex 2.29497 -1.325 0
      vertex 1.90526 -18.9 0
    endloop
  endfacet
  facet normal -0.793348 0.608769 0
    outer loop
      vertex 1.87383 -1.87383 0
      vertex 2.29497 -1.325 5
      vertex 2.29497 -1.325 0
    endloop
  endfacet
  facet normal 0 0 1
    outer loop
      vertex 1.87383 -1.87383 5
      vertex 1.90526 -18.9 5
      vertex 2.29497 -1.325 5
    endloop
  endfacet
  facet normal 0 0 -1
    outer loop
      vertex 1.87383 1.87383 0
      vertex 10 5 0
      vertex 2.29497 1.325 0
    endloop
  endfacet
  facet normal -0.793348 -0.608769 0
    outer loop
      vertex 1.87383 1.87383 0
      vertex 2.29497 1.325 0
      vertex 1.87383 1.87383 5
    endloop
  endfacet
  facet normal 0 0 -1
    outer loop
      vertex 1.87383 1.87383 0
      vertex 5 10 0
      vertex 6.2941 9.82963 0
    endloop
  endfacet
  facet normal 0 0 -1
    outer loop
      vertex 1.87383 1.87383 0
      vertex 6.2941 9.82963 0
      vertex 7.5 9.33013 0
    endloop
  endfacet
  facet normal 0 0 -1
    outer loop
      vertex 1.87383 1.87383 0
      vertex 7.5 9.33013 0
      vertex 8.53553 8.53553 0
    endloop
  endfacet
  facet normal 0 0 -1
    outer loop
      vertex 1.87383 1.87383 0
      vertex 8.53553 8.53553 0
      vertex 9.33013 7.5 0
    endloop
  endfacet
  facet normal 0 0 -1
    outer loop
      vertex 1.87383 1.87383 0
      vertex 9.33013 7.5 0
      vertex 9.82963 6.2941 0
    endloop
  endfacet
  facet normal 0 0 -1
    outer loop
      vertex 1.87383 1.87383 0
      vertex 9.82963 6.2941 0
      vertex 10 5 0
    endloop
  endfacet
  facet normal 0 0 1
    outer loop
      vertex 1.87383 1.87383 5
      vertex 10 5 5
      vertex 9.82963 6.2941 5
    endloop
  endfacet
  facet normal -0.793348 -0.608769 0
    outer loop
      vertex 1.87383 1.87383 5
      vertex 2.29497 1.325 0
      vertex 2.29497 1.325 5
    endloop
  endfacet
  facet normal 0 0 1
    outer loop
      vertex 1.87383 1.87383 5
      vertex 2.29497 1.325 5
      vertex 10 5 5
    endloop
  endfacet
  facet normal 0 0 1
    outer loop
      vertex 1.87383 1.87383 5
      vertex 6.2941 9.82963 5
      vertex 5 10 5
    endloop
  endfacet
  facet normal 0 0 1
    outer loop
      vertex 1.87383 1.87383 5
      vertex 7.5 9.33013 5
      vertex 6.2941 9.82963 5
    endloop
  endfacet
  facet normal 0 0 1
    outer loop
      vertex 1.87383 1.87383 5
      vertex 8.53553 8.53553 5
      vertex 7.5 9.33013 5
    endloop
  endfacet
  facet normal 0 0 1
    outer loop
      vertex 1.87383 1.87383 5
      vertex 9.33013 7.5 5
      vertex 8.53553 8.53553 5
    endloop
  endfacet
  facet normal 0 0 1
    outer loop
      vertex 1.87383 1.87383 5
      vertex 9.82963 6.2941 5
      vertex 9.33013 7.5 5
    endloop
  endfacet
  facet normal 0 0 -1
    outer loop
      vertex 1.90526 -18.9 0
      vertex 10 5 0
      vertex 2.12504 -19.4306 0
    endloop
  endfacet
  facet normal -0.923881 -0.382681 0
    outer loop
      vertex 1.90526 -18.9 0
      vertex 2.12504 -19.4306 0
      vertex 1.90526 -18.9 5
    endloop
  endfacet
  facet normal 0 0 -1
    outer loop
      vertex 1.90526 -18.9 0
      vertex 2.29497 -1.325 0
      vertex 10 5 0
    endloop
  endfacet
  facet normal 0 0 1
    outer loop
      vertex 1.90526 -18.9 5
      vertex 10 5 5
      vertex 2.29497 -1.325 5
    endloop
  endfacet
  facet normal -0.923881 -0.382681 0
    outer loop
      vertex 1.90526 -18.9 5
      vertex 2.12504 -19.4306 0
      vertex 2.12504 -19.4306 5
    endloop
  endfacet
  facet normal 0 0 1
    outer loop
      vertex 1.90526 -18.9 5
      vertex 2.12504 -19.4306 5
      vertex 10 5 5
    endloop
  endfacet
  facet normal -0.923881 0.382681 0
    outer loop
      vertex 1.90526 -21.1 0
      vertex 1.90526 -21.1 5
      vertex 2.12504 -20.5694 5
    endloop
  endfacet
  facet normal 0 0 -1
    outer loop
      vertex 1.90526 -21.1 0
      vertex 2.12504 -20.5694 0
      vertex 10 -45 0
    endloop
  endfacet
  facet normal -0.923881 0.382681 0
    outer loop
      vertex 1.90526 -21.1 0
      vertex 2.12504 -20.5694 5
      vertex 2.12504 -20.5694 0
    endloop
  endfacet
  facet normal 0 0 1
    outer loop
      vertex 1.90526 -21.1 5
      vertex 10 -45 5
      vertex 2.12504 -20.5694 5
    endloop
  endfacet
  facet normal 0 0 -1
    outer loop
      vertex 1.90526 -38.9 0
      vertex 1.90526 -21.1 0
      vertex 10 -45 0
    endloop
  endfacet
  facet normal 0 0 -1
    outer loop
      vertex 1.90526 -38.9 0
      vertex 10 -45 0
      vertex 2.12504 -39.4306 0
    endloop
  endfacet
  facet normal -0.923881 -0.382681 0
    outer loop
      vertex 1.90526 -38.9 0
      vertex 2.12504 -39.4306 0
      vertex 1.90526 -38.9 5
    endloop
  endfacet
  facet normal 0 0 1
    outer loop
      vertex 1.90526 -38.9 5
      vertex 10 -45 5
      vertex 1.90526 -21.1 5
    endloop
  endfacet
  facet normal -0.923881 -0.382681 0
    outer loop
      vertex 1.90526 -38.9 5
      vertex 2.12504 -39.4306 0
      vertex 2.12504 -39.4306 5
    endloop
  endfacet
  facet normal 0 0 1
    outer loop
      vertex 1.90526 -38.9 5
      vertex 2.12504 -39.4306 5
      vertex 10 -45 5
    endloop
  endfacet
  facet normal -0.923881 0.382681 0
    outer loop
      vertex 1.90526 -41.1 0
      vertex 1.90526 -41.1 5
      vertex 2.12504 -40.5694 5
    endloop
  endfacet
  facet normal 0 0 -1
    outer loop
      vertex 1.90526 -41.1 0
      vertex 2.12504 -40.5694 0
      vertex 10 -45 0
    endloop
  endfacet
  facet normal -0.923881 0.382681 0
    outer loop
      vertex 1.90526 -41.1 0
      vertex 2.12504 -40.5694 5
      vertex 2.12504 -40.5694 0
    endloop
  endfacet
  facet normal 0 0 1
    outer loop
      vertex 1.90526 -41.1 5
      vertex 10 -45 5
      vertex 2.12504 -40.5694 5
    endloop
  endfacet
  facet normal 1 0 0
    outer loop
      vertex 10 -45 0
      vertex 10 5 0
      vertex 10 -45 5
    endloop
  endfacet
  facet normal 1 0 0
    outer loop
      vertex 10 -45 5
      vertex 10 5 0
      vertex 10 5 5
    endloop
  endfacet
  facet normal 0 0 -1
    outer loop
      vertex 2.12504 -19.4306 0
      vertex 10 5 0
      vertex 2.2 -20 0
    endloop
  endfacet
  facet normal -0.991446 -0.130521 0
    outer loop
      vertex 2.12504 -19.4306 0
      vertex 2.2 -20 0
      vertex 2.12504 -19.4306 5
    endloop
  endfacet
  facet normal -0.991446 -0.130521 0
    outer loop
      vertex 2.12504 -19.4306 5
      vertex 2.2 -20 0
      vertex 2.2 -20 5
    endloop
  endfacet
  facet normal 0 0 1
    outer loop
      vertex 2.12504 -19.4306 5
      vertex 2.2 -20 5
      vertex 10 5 5
    endloop
  endfacet
  facet normal -0.991446 0.130521 0
    outer loop
      vertex 2.12504 -20.5694 0
      vertex 2.12504 -20.5694 5
      vertex 2.2 -20 5
    endloop
  endfacet
  facet normal 0 0 -1
    outer loop
      vertex 2.12504 -20.5694 0
      vertex 2.2 -20 0
      vertex 10 -45 0
    endloop
  endfacet
  facet normal -0.991446 0.130521 0
    outer loop
      vertex 2.12504 -20.5694 0
      vertex 2.2 -20 5
      vertex 2.2 -20 0
    endloop
  endfacet
  facet normal 0 0 1
    outer loop
      vertex 2.12504 -20.5694 5
      vertex 10 -45 5
      vertex 2.2 -20 5
    endloop
  endfacet
  facet normal 0 0 -1
    outer loop
      vertex 2.12504 -39.4306 0
      vertex 10 -45 0
      vertex 2.2 -40 0
    endloop
  endfacet
  facet normal -0.991446 -0.130521 0
    outer loop
      vertex 2.12504 -39.4306 0
      vertex 2.2 -40 0
      vertex 2.12504 -39.4306 5
    endloop
  endfacet
  facet normal -0.991446 -0.130521 0
    outer loop
      vertex 2.12504 -39.4306 5
      vertex 2.2 -40 0
      vertex 2.2 -40 5
    endloop
  endfacet
  facet normal 0 0 1
    outer loop
      vertex 2.12504 -39.4306 5
      vertex 2.2 -40 5
      vertex 10 -45 5
    endloop
  endfacet
  facet normal -0.991446 0.130521 0
    outer loop
      vertex 2.12504 -40.5694 0
      vertex 2.12504 -40.5694 5
      vertex 2.2 -40 5
    endloop
  endfacet
  facet normal 0 0 -1
    outer loop
      vertex 2.12504 -40.5694 0
      vertex 2.2 -40 0
      vertex 10 -45 0
    endloop
  endfacet
  facet normal -0.991446 0.130521 0
    outer loop
      vertex 2.12504 -40.5694 0
      vertex 2.2 -40 5
      vertex 2.2 -40 0
    endloop
  endfacet
  facet normal 0 0 1
    outer loop
      vertex 2.12504 -40.5694 5
      vertex 10 -45 5
      vertex 2.2 -40 5
    endloop
  endfacet
  facet normal 0 0 -1
    outer loop
      vertex 2.2 -20 0
      vertex 10 5 0
      vertex 10 -45 0
    endloop
  endfacet
  facet normal 0 0 1
    outer loop
      vertex 2.2 -20 5
      vertex 10 -45 5
      vertex 10 5 5
    endloop
  endfacet
  facet normal -0.923883 0.382676 0
    outer loop
      vertex 2.29497 -1.325 0
      vertex 2.29497 -1.325 5
      vertex 2.5597 -0.68587 5
    endloop
  endfacet
  facet normal 0 0 -1
    outer loop
      vertex 2.29497 -1.325 0
      vertex 2.5597 -0.68587 0
      vertex 10 5 0
    endloop
  endfacet
  facet normal -0.923883 0.382676 0
    outer loop
      vertex 2.29497 -1.325 0
      vertex 2.5597 -0.68587 5
      vertex 2.5597 -0.68587 0
    endloop
  endfacet
  facet normal 0 0 1
    outer loop
      vertex 2.29497 -1.325 5
      vertex 10 5 5
      vertex 2.5597 -0.68587 5
    endloop
  endfacet
  facet normal 0 0 -1
    outer loop
      vertex 2.29497 1.325 0
      vertex 10 5 0
      vertex 2.5597 0.68587 0
    endloop
  endfacet
  facet normal -0.923883 -0.382676 0
    outer loop
      vertex 2.29497 1.325 0
      vertex 2.5597 0.68587 0
      vertex 2.29497 1.325 5
    endloop
  endfacet
  facet normal -0.923883 -0.382676 0
    outer loop
      vertex 2.29497 1.325 5
      vertex 2.5597 0.68587 0
      vertex 2.5597 0.68587 5
    endloop
  endfacet
  facet normal 0 0 1
    outer loop
      vertex 2.29497 1.325 5
      vertex 2.5597 0.68587 5
      vertex 10 5 5
    endloop
  endfacet
  facet normal -0.991444 0.130531 0
    outer loop
      vertex 2.5597 -0.68587 0
      vertex 2.5597 -0.68587 5
      vertex 2.65 0 5
    endloop
  endfacet
  facet normal 0 0 -1
    outer loop
      vertex 2.5597 -0.68587 0
      vertex 2.65 0 0
      vertex 10 5 0
    endloop
  endfacet
  facet normal -0.991444 0.130531 0
    outer loop
      vertex 2.5597 -0.68587 0
      vertex 2.65 0 5
      vertex 2.65 0 0
    endloop
  endfacet
  facet normal 0 0 1
    outer loop
      vertex 2.5597 -0.68587 5
      vertex 10 5 5
      vertex 2.65 0 5
    endloop
  endfacet
  facet normal 0 0 -1
    outer loop
      vertex 2.5597 0.68587 0
      vertex 10 5 0
      vertex 2.65 0 0
    endloop
  endfacet
  facet normal -0.991444 -0.130531 0
    outer loop
      vertex 2.5597 0.68587 0
      vertex 2.65 0 0
      vertex 2.5597 0.68587 5
    endloop
  endfacet
  facet normal -0.991444 -0.130531 0
    outer loop
      vertex 2.5597 0.68587 5
      vertex 2.65 0 0
      vertex 2.65 0 5
    endloop
  endfacet
  facet normal 0 0 1
    outer loop
      vertex 2.5597 0.68587 5
      vertex 2.65 0 5
      vertex 10 5 5
    endloop
  endfacet
  facet normal 0.130548 -0.991442 0
    outer loop
      vertex 5 -50 0
      vertex 6.2941 -49.8296 0
      vertex 6.2941 -49.8296 5
    endloop
  endfacet
  facet normal 0.130548 -0.991442 0
    outer loop
      vertex 5 -50 0
      vertex 6.2941 -49.8296 5
      vertex 5 -50 5
    endloop
  endfacet
  facet normal 0.130525 0.991445 0
    outer loop
      vertex 5 10 0
      vertex 5 10 5
      vertex 6.2941 9.82963 0
    endloop
  endfacet
  facet normal 0.130525 0.991445 0
    outer loop
      vertex 5 10 5
      vertex 6.2941 9.82963 5
      vertex 6.2941 9.82963 0
    endloop
  endfacet
  facet normal 0.382683 -0.92388 0
    outer loop
      vertex 6.2941 -49.8296 0
      vertex 7.5 -49.3301 0
      vertex 7.5 -49.3301 5
    endloop
  endfacet
  facet normal 0.382683 -0.92388 0
    outer loop
      vertex 6.2941 -49.8296 0
      vertex 7.5 -49.3301 5
      vertex 6.2941 -49.8296 5
    endloop
  endfacet
  facet normal 0.382683 0.92388 0
    outer loop
      vertex 6.2941 9.82963 0
      vertex 6.2941 9.82963 5
      vertex 7.5 9.33013 0
    endloop
  endfacet
  facet normal 0.382683 0.92388 0
    outer loop
      vertex 6.2941 9.82963 5
      vertex 7.5 9.33013 5
      vertex 7.5 9.33013 0
    endloop
  endfacet
  facet normal 0.608766 -0.79335 0
    outer loop
      vertex 7.5 -49.3301 0
      vertex 8.53553 -48.5355 0
      vertex 8.53553 -48.5355 5
    endloop
  endfacet
  facet normal 0.608766 -0.79335 0
    outer loop
      vertex 7.5 -49.3301 0
      vertex 8.53553 -48.5355 5
      vertex 7.5 -49.3301 5
    endloop
  endfacet
  facet normal 0.608766 0.79335 0
    outer loop
      vertex 7.5 9.33013 0
      vertex 7.5 9.33013 5
      vertex 8.53553 8.53553 0
    endloop
  endfacet
  facet normal 0.608766 0.79335 0
    outer loop
      vertex 7.5 9.33013 5
      vertex 8.53553 8.53553 5
      vertex 8.53553 8.53553 0
    endloop
  endfacet
  facet normal 0.793341 -0.608777 0
    outer loop
      vertex 8.53553 -48.5355 0
      vertex 9.33013 -47.5 0
      vertex 8.53553 -48.5355 5
    endloop
  endfacet
  facet normal 0.793341 -0.608777 0
    outer loop
      vertex 8.53553 -48.5355 5
      vertex 9.33013 -47.5 0
      vertex 9.33013 -47.5 5
    endloop
  endfacet
  facet normal 0.79335 0.608766 0
    outer loop
      vertex 8.53553 8.53553 0
      vertex 8.53553 8.53553 5
      vertex 9.33013 7.5 5
    endloop
  endfacet
  facet normal 0.79335 0.608766 0
    outer loop
      vertex 8.53553 8.53553 0
      vertex 9.33013 7.5 5
      vertex 9.33013 7.5 0
    endloop
  endfacet
  facet normal 0.92388 -0.382683 0
    outer loop
      vertex 9.33013 -47.5 0
      vertex 9.82963 -46.2941 0
      vertex 9.33013 -47.5 5
    endloop
  endfacet
  facet normal 0.92388 -0.382683 0
    outer loop
      vertex 9.33013 -47.5 5
      vertex 9.82963 -46.2941 0
      vertex 9.82963 -46.2941 5
    endloop
  endfacet
  facet normal 0.92388 0.382683 0
    outer loop
      vertex 9.33013 7.5 0
      vertex 9.33013 7.5 5
      vertex 9.82963 6.2941 5
    endloop
  endfacet
  facet normal 0.92388 0.382683 0
    outer loop
      vertex 9.33013 7.5 0
      vertex 9.82963 6.2941 5
      vertex 9.82963 6.2941 0
    endloop
  endfacet
  facet normal 0.991445 -0.130525 0
    outer loop
      vertex 9.82963 -46.2941 0
      vertex 10 -45 0
      vertex 9.82963 -46.2941 5
    endloop
  endfacet
  facet normal 0.991445 -0.130525 0
    outer loop
      vertex 9.82963 -46.2941 5
      vertex 10 -45 0
      vertex 10 -45 5
    endloop
  endfacet
  facet normal 0.991445 0.130525 0
    outer loop
      vertex 9.82963 6.2941 0
      vertex 10 5 5
      vertex 10 5 0
    endloop
  endfacet
  facet normal 0.991445 0.130525 0
    outer loop
      vertex 9.82963 6.2941 0
      vertex 9.82963 6.2941 5
      vertex 10 5 5
    endloop
  endfacet
endsolid OpenSCAD_Model
