solid OpenSCAD_Model
  facet normal 0 0 -1
    outer loop
      vertex -10 -0.728738 -8.75
      vertex -10 1.25 -8.75
      vertex 10 1.25 -8.75
    endloop
  endfacet
  facet normal -1 0 0
    outer loop
      vertex -10 -0.728738 -8.75
      vertex -10 1.92291 -2.5
      vertex -10 1.25 -8.75
    endloop
  endfacet
  facet normal 0 0 -1
    outer loop
      vertex -10 -0.728738 -8.75
      vertex 10 -0.728738 -8.75
      vertex 15.2028 -2.4965 -8.75
    endloop
  endfacet
  facet normal 0 0 -1
    outer loop
      vertex -10 -0.728738 -8.75
      vertex 10 1.25 -8.75
      vertex 10 -0.728738 -8.75
    endloop
  endfacet
  facet normal 0 0 -1
    outer loop
      vertex -10 -1.25 -2.75
      vertex -8.31499 -1.25 -2.75
      vertex -8.18977 -1.48191 -2.75
    endloop
  endfacet
  facet normal 0 -1 0
    outer loop
      vertex -10 -1.25 -2.75
      vertex -8.75 -1.25 -4.14545
      vertex -8.31499 -1.25 -2.75
    endloop
  endfacet
  facet normal -1 0 0
    outer loop
      vertex -10 -1.25 -5.67307
      vertex -10 -1.25 -2.75
      vertex -10 -0.0658255 -2.75
    endloop
  endfacet
  facet normal 0 -1 0
    outer loop
      vertex -10 -1.25 -5.67307
      vertex -8.75 -1.25 -4.14545
      vertex -10 -1.25 -2.75
    endloop
  endfacet
  facet normal 0 -1 0
    outer loop
      vertex -10 -1.25 -5.67307
      vertex -8.75 -1.25 -5.67307
      vertex -8.75 -1.25 -4.14545
    endloop
  endfacet
  facet normal 0 -0.926835 0.375468
    outer loop
      vertex -10 -1.25 -5.67307
      vertex -8.75 -1.55977 -6.43773
      vertex -8.75 -1.25 -5.67307
    endloop
  endfacet
  facet normal -1 0 0
    outer loop
      vertex -10 -2.5 2.5
      vertex -10 -2.5 5
      vertex -10 1.92291 0.25
    endloop
  endfacet
  facet normal 0 -1 0
    outer loop
      vertex -10 -2.5 2.5
      vertex -7.5 -2.5 2.5
      vertex -7.5 -2.5 5
    endloop
  endfacet
  facet normal 0 -1 0
    outer loop
      vertex -10 -2.5 2.5
      vertex -7.5 -2.5 5
      vertex -10 -2.5 5
    endloop
  endfacet
  facet normal -1 0 0
    outer loop
      vertex -10 -2.5 5
      vertex -10 2.35 0
      vertex -10 1.92291 0.25
    endloop
  endfacet
  facet normal -1 0 0
    outer loop
      vertex -10 -2.5 5
      vertex -10 22.65 0.0196572
      vertex -10 2.35 0
    endloop
  endfacet
  facet normal -1 0 0
    outer loop
      vertex -10 -2.5 5
      vertex -10 47.3 11.55
      vertex -10 22.65 0.0196572
    endloop
  endfacet
  facet normal 0 -0.130403 0.991461
    outer loop
      vertex -10 -2.5 5
      vertex -7.5 -2.5 5
      vertex -10 47.3 11.55
    endloop
  endfacet
  facet normal -1 0 0
    outer loop
      vertex -10 -2.65 0.25
      vertex -10 -2.5 2.5
      vertex -10 1.92291 0.25
    endloop
  endfacet
  facet normal -1 0 0
    outer loop
      vertex -10 -2.65 0.25
      vertex -10 -2.65 2.5
      vertex -10 -2.5 2.5
    endloop
  endfacet
  facet normal 0 -1 0
    outer loop
      vertex -10 -2.65 0.25
      vertex 10 -2.65 0.25
      vertex 10 -2.65 2.5
    endloop
  endfacet
  facet normal 0 -1 0
    outer loop
      vertex -10 -2.65 0.25
      vertex 10 -2.65 2.5
      vertex -10 -2.65 2.5
    endloop
  endfacet
  facet normal 0 0 1
    outer loop
      vertex -10 -2.65 0.25
      vertex 14.4957 -3.38039 0.25
      vertex 10 -2.65 0.25
    endloop
  endfacet
  facet normal 0 0 1
    outer loop
      vertex -10 -2.65 2.5
      vertex -7.5 -2.5 2.5
      vertex -10 -2.5 2.5
    endloop
  endfacet
  facet normal 0 0 1
    outer loop
      vertex -10 -2.65 2.5
      vertex 10 -2.65 2.5
      vertex -7.5 -2.5 2.5
    endloop
  endfacet
  facet normal -1 0 0
    outer loop
      vertex -10 1.25 -8.75
      vertex -10 1.92291 -2.5
      vertex -10 22.65 -2.5
    endloop
  endfacet
  facet normal 0 0.280344 -0.959899
    outer loop
      vertex -10 1.25 -8.75
      vertex -10 22.65 -2.5
      vertex 10 22.65 -2.5
    endloop
  endfacet
  facet normal 0 0.280344 -0.959899
    outer loop
      vertex -10 1.25 -8.75
      vertex 10 22.65 -2.5
      vertex 10 1.25 -8.75
    endloop
  endfacet
  facet normal 0 1 0
    outer loop
      vertex -10 1.92291 -0.148294
      vertex -10 1.92291 0
      vertex -7.93684 1.92291 -0.148294
    endloop
  endfacet
  facet normal 0 -0.328009 0.944674
    outer loop
      vertex -10 1.92291 -0.148294
      vertex -7.93684 1.92291 -0.148294
      vertex -10 2.35 0
    endloop
  endfacet
  facet normal -1 0 0
    outer loop
      vertex -10 1.92291 -2.5
      vertex -10 1.92291 -0.148294
      vertex -10 2.35 0
    endloop
  endfacet
  facet normal -1 0 0
    outer loop
      vertex -10 1.92291 -2.5
      vertex -10 2.35 0
      vertex -10 22.65 -2.5
    endloop
  endfacet
  facet normal -1 0 0
    outer loop
      vertex -10 1.92291 0
      vertex -10 1.92291 0.25
      vertex -10 2.35 0
    endloop
  endfacet
  facet normal 0 0 -1
    outer loop
      vertex -10 1.92291 0
      vertex -10 2.35 0
      vertex -7.89051 2.35 0
    endloop
  endfacet
  facet normal 0 1 0
    outer loop
      vertex -10 1.92291 0
      vertex -7.89051 1.92291 0
      vertex -7.93684 1.92291 -0.148294
    endloop
  endfacet
  facet normal 0 0 -1
    outer loop
      vertex -10 1.92291 0
      vertex -7.89051 2.35 0
      vertex -7.89051 1.92291 0
    endloop
  endfacet
  facet normal -1 0 0
    outer loop
      vertex -10 2.35 0
      vertex -10 22.65 0.0196572
      vertex -10 22.65 -2.5
    endloop
  endfacet
  facet normal 0 -0.328009 0.944674
    outer loop
      vertex -10 2.35 0
      vertex -7.93684 1.92291 -0.148294
      vertex -7.89051 2.35 0
    endloop
  endfacet
  facet normal 0 1 0
    outer loop
      vertex -10 22.65 -2.5
      vertex -10 22.65 0.0196572
      vertex -7.5 22.65 0.0196572
    endloop
  endfacet
  facet normal 0 1 0
    outer loop
      vertex -10 22.65 -2.5
      vertex -7.5 22.65 0.0196572
      vertex 10 22.65 -2.5
    endloop
  endfacet
  facet normal -1 0 0
    outer loop
      vertex -10 22.65 0.0196572
      vertex -10 45.65 7.39999
      vertex -10 45.7062 6.97295
    endloop
  endfacet
  facet normal -1 0 0
    outer loop
      vertex -10 22.65 0.0196572
      vertex -10 45.7062 6.97295
      vertex -10 45.871 6.575
    endloop
  endfacet
  facet normal -1 0 0
    outer loop
      vertex -10 22.65 0.0196572
      vertex -10 45.7062 7.82704
      vertex -10 45.65 7.39999
    endloop
  endfacet
  facet normal -1 0 0
    outer loop
      vertex -10 22.65 0.0196572
      vertex -10 45.871 6.575
      vertex -10 47.3 3.25
    endloop
  endfacet
  facet normal -1 0 0
    outer loop
      vertex -10 22.65 0.0196572
      vertex -10 45.871 8.22499
      vertex -10 45.7062 7.82704
    endloop
  endfacet
  facet normal -1 0 0
    outer loop
      vertex -10 22.65 0.0196572
      vertex -10 47.3 11.55
      vertex -10 45.871 8.22499
    endloop
  endfacet
  facet normal 0 0.129937 -0.991522
    outer loop
      vertex -10 22.65 0.0196572
      vertex -10 47.3 3.25
      vertex -7.5 47.3 3.25
    endloop
  endfacet
  facet normal 0 0.129937 -0.991522
    outer loop
      vertex -10 22.65 0.0196572
      vertex -7.5 47.3 3.25
      vertex -7.5 22.65 0.0196572
    endloop
  endfacet
  facet normal 0 0.991452 -0.130476
    outer loop
      vertex -10 45.65 7.39999
      vertex -10 45.7062 7.82704
      vertex -7.5 45.65 7.39999
    endloop
  endfacet
  facet normal 0 0.991451 0.130479
    outer loop
      vertex -10 45.65 7.39999
      vertex -7.5 45.65 7.39999
      vertex -7.5 45.7062 6.97295
    endloop
  endfacet
  facet normal 0 0.991451 0.130479
    outer loop
      vertex -10 45.65 7.39999
      vertex -7.5 45.7062 6.97295
      vertex -10 45.7062 6.97295
    endloop
  endfacet
  facet normal 0 0.923909 0.382612
    outer loop
      vertex -10 45.7062 6.97295
      vertex -7.5 45.7062 6.97295
      vertex -7.5 45.871 6.575
    endloop
  endfacet
  facet normal 0 0.923909 0.382612
    outer loop
      vertex -10 45.7062 6.97295
      vertex -7.5 45.871 6.575
      vertex -10 45.871 6.575
    endloop
  endfacet
  facet normal 0 0.923909 -0.382612
    outer loop
      vertex -10 45.7062 7.82704
      vertex -10 45.871 8.22499
      vertex -7.5 45.7062 7.82704
    endloop
  endfacet
  facet normal 0 0.991452 -0.130476
    outer loop
      vertex -10 45.7062 7.82704
      vertex -7.5 45.7062 7.82704
      vertex -7.5 45.65 7.39999
    endloop
  endfacet
  facet normal -1 0 0
    outer loop
      vertex -10 45.871 6.575
      vertex -10 46.1333 6.23326
      vertex -10 47.3 3.25
    endloop
  endfacet
  facet normal 0 0.793271 0.608869
    outer loop
      vertex -10 45.871 6.575
      vertex -7.5 45.871 6.575
      vertex -7.5 46.1333 6.23326
    endloop
  endfacet
  facet normal 0 0.793271 0.608869
    outer loop
      vertex -10 45.871 6.575
      vertex -7.5 46.1333 6.23326
      vertex -10 46.1333 6.23326
    endloop
  endfacet
  facet normal 0 0.793254 -0.608891
    outer loop
      vertex -10 45.871 8.22499
      vertex -10 46.1333 8.56671
      vertex -7.5 45.871 8.22499
    endloop
  endfacet
  facet normal -1 0 0
    outer loop
      vertex -10 45.871 8.22499
      vertex -10 47.3 11.55
      vertex -10 46.1333 8.56671
    endloop
  endfacet
  facet normal 0 0.923909 -0.382612
    outer loop
      vertex -10 45.871 8.22499
      vertex -7.5 45.871 8.22499
      vertex -7.5 45.7062 7.82704
    endloop
  endfacet
  facet normal -1 0 0
    outer loop
      vertex -10 46.1333 6.23326
      vertex -10 46.475 5.97105
      vertex -10 47.3 3.25
    endloop
  endfacet
  facet normal 0 0.608782 0.793337
    outer loop
      vertex -10 46.1333 6.23326
      vertex -7.5 46.1333 6.23326
      vertex -10 46.475 5.97105
    endloop
  endfacet
  facet normal 0 0.608797 -0.793326
    outer loop
      vertex -10 46.1333 8.56671
      vertex -10 46.475 8.82893
      vertex -7.5 46.475 8.82893
    endloop
  endfacet
  facet normal -1 0 0
    outer loop
      vertex -10 46.1333 8.56671
      vertex -10 47.3 11.55
      vertex -10 46.475 8.82893
    endloop
  endfacet
  facet normal 0 0.793254 -0.608891
    outer loop
      vertex -10 46.1333 8.56671
      vertex -7.5 46.1333 8.56671
      vertex -7.5 45.871 8.22499
    endloop
  endfacet
  facet normal 0 0.608797 -0.793326
    outer loop
      vertex -10 46.1333 8.56671
      vertex -7.5 46.475 8.82893
      vertex -7.5 46.1333 8.56671
    endloop
  endfacet
  facet normal -1 0 0
    outer loop
      vertex -10 46.475 5.97105
      vertex -10 46.8729 5.80621
      vertex -10 47.3 3.25
    endloop
  endfacet
  facet normal 0 0.608782 0.793337
    outer loop
      vertex -10 46.475 5.97105
      vertex -7.5 46.1333 6.23326
      vertex -7.5 46.475 5.97105
    endloop
  endfacet
  facet normal 0 0.382732 0.923859
    outer loop
      vertex -10 46.475 5.97105
      vertex -7.5 46.475 5.97105
      vertex -10 46.8729 5.80621
    endloop
  endfacet
  facet normal 0 0.382732 -0.923859
    outer loop
      vertex -10 46.475 8.82893
      vertex -10 46.8729 8.99377
      vertex -7.5 46.8729 8.99377
    endloop
  endfacet
  facet normal -1 0 0
    outer loop
      vertex -10 46.475 8.82893
      vertex -10 47.3 11.55
      vertex -10 46.8729 8.99377
    endloop
  endfacet
  facet normal 0 0.382732 -0.923859
    outer loop
      vertex -10 46.475 8.82893
      vertex -7.5 46.8729 8.99377
      vertex -7.5 46.475 8.82893
    endloop
  endfacet
  facet normal -1 0 0
    outer loop
      vertex -10 46.8729 5.80621
      vertex -10 47.3 5.75
      vertex -10 47.3 3.25
    endloop
  endfacet
  facet normal 0 0.382732 0.923859
    outer loop
      vertex -10 46.8729 5.80621
      vertex -7.5 46.475 5.97105
      vertex -7.5 46.8729 5.80621
    endloop
  endfacet
  facet normal 0 0.130483 0.991451
    outer loop
      vertex -10 46.8729 5.80621
      vertex -7.5 46.8729 5.80621
      vertex -10 47.3 5.75
    endloop
  endfacet
  facet normal -1 0 0
    outer loop
      vertex -10 46.8729 8.99377
      vertex -10 47.3 11.55
      vertex -10 47.3 9.04999
    endloop
  endfacet
  facet normal 0 0.130506 -0.991447
    outer loop
      vertex -10 46.8729 8.99377
      vertex -10 47.3 9.04999
      vertex -7.5 47.3 9.04999
    endloop
  endfacet
  facet normal 0 0.130506 -0.991447
    outer loop
      vertex -10 46.8729 8.99377
      vertex -7.5 47.3 9.04999
      vertex -7.5 46.8729 8.99377
    endloop
  endfacet
  facet normal 0 -0.130403 0.991461
    outer loop
      vertex -10 47.3 11.55
      vertex -7.5 -2.5 5
      vertex -7.5 47.3 11.55
    endloop
  endfacet
  facet normal 0 0.130519 0.991446
    outer loop
      vertex -10 47.3 11.55
      vertex -7.5 47.3 11.55
      vertex -10 48.3741 11.4086
    endloop
  endfacet
  facet normal -1 0 0
    outer loop
      vertex -10 47.3 3.25
      vertex -10 47.3 5.75
      vertex -10 47.7271 5.80621
    endloop
  endfacet
  facet normal -1 0 0
    outer loop
      vertex -10 47.3 3.25
      vertex -10 47.7271 5.80621
      vertex -10 48.3741 3.3914
    endloop
  endfacet
  facet normal 0 0.130519 -0.991446
    outer loop
      vertex -10 47.3 3.25
      vertex -10 48.3741 3.3914
      vertex -7.5 48.3741 3.3914
    endloop
  endfacet
  facet normal 0 0.130519 -0.991446
    outer loop
      vertex -10 47.3 3.25
      vertex -7.5 48.3741 3.3914
      vertex -7.5 47.3 3.25
    endloop
  endfacet
  facet normal 0 0.130483 0.991451
    outer loop
      vertex -10 47.3 5.75
      vertex -7.5 46.8729 5.80621
      vertex -7.5 47.3 5.75
    endloop
  endfacet
  facet normal 0 -0.130483 0.991451
    outer loop
      vertex -10 47.3 5.75
      vertex -7.5 47.3 5.75
      vertex -10 47.7271 5.80621
    endloop
  endfacet
  facet normal -1 0 0
    outer loop
      vertex -10 47.3 9.04999
      vertex -10 47.3 11.55
      vertex -10 48.3741 11.4086
    endloop
  endfacet
  facet normal 0 -0.130506 -0.991447
    outer loop
      vertex -10 47.3 9.04999
      vertex -10 47.7271 8.99377
      vertex -7.5 47.7271 8.99377
    endloop
  endfacet
  facet normal -1 0 0
    outer loop
      vertex -10 47.3 9.04999
      vertex -10 48.3741 11.4086
      vertex -10 47.7271 8.99377
    endloop
  endfacet
  facet normal 0 -0.130506 -0.991447
    outer loop
      vertex -10 47.3 9.04999
      vertex -7.5 47.7271 8.99377
      vertex -7.5 47.3 9.04999
    endloop
  endfacet
  facet normal -1 0 0
    outer loop
      vertex -10 47.7271 5.80621
      vertex -10 48.125 5.97105
      vertex -10 48.3741 3.3914
    endloop
  endfacet
  facet normal 0 -0.130483 0.991451
    outer loop
      vertex -10 47.7271 5.80621
      vertex -7.5 47.3 5.75
      vertex -7.5 47.7271 5.80621
    endloop
  endfacet
  facet normal 0 -0.382732 0.923859
    outer loop
      vertex -10 47.7271 5.80621
      vertex -7.5 47.7271 5.80621
      vertex -10 48.125 5.97105
    endloop
  endfacet
  facet normal 0 -0.382732 -0.923859
    outer loop
      vertex -10 47.7271 8.99377
      vertex -10 48.125 8.82893
      vertex -7.5 48.125 8.82893
    endloop
  endfacet
  facet normal -1 0 0
    outer loop
      vertex -10 47.7271 8.99377
      vertex -10 48.3741 11.4086
      vertex -10 48.125 8.82893
    endloop
  endfacet
  facet normal 0 -0.382732 -0.923859
    outer loop
      vertex -10 47.7271 8.99377
      vertex -7.5 48.125 8.82893
      vertex -7.5 47.7271 8.99377
    endloop
  endfacet
  facet normal -1 0 0
    outer loop
      vertex -10 48.125 5.97105
      vertex -10 48.4667 6.23326
      vertex -10 49.375 3.80598
    endloop
  endfacet
  facet normal -1 0 0
    outer loop
      vertex -10 48.125 5.97105
      vertex -10 49.375 3.80598
      vertex -10 48.3741 3.3914
    endloop
  endfacet
  facet normal 0 -0.382732 0.923859
    outer loop
      vertex -10 48.125 5.97105
      vertex -7.5 47.7271 5.80621
      vertex -7.5 48.125 5.97105
    endloop
  endfacet
  facet normal 0 -0.608782 0.793337
    outer loop
      vertex -10 48.125 5.97105
      vertex -7.5 48.125 5.97105
      vertex -10 48.4667 6.23326
    endloop
  endfacet
  facet normal -1 0 0
    outer loop
      vertex -10 48.125 8.82893
      vertex -10 48.3741 11.4086
      vertex -10 49.375 10.994
    endloop
  endfacet
  facet normal 0 -0.608797 -0.793326
    outer loop
      vertex -10 48.125 8.82893
      vertex -10 48.4667 8.56671
      vertex -7.5 48.4667 8.56671
    endloop
  endfacet
  facet normal -1 0 0
    outer loop
      vertex -10 48.125 8.82893
      vertex -10 49.375 10.994
      vertex -10 48.4667 8.56671
    endloop
  endfacet
  facet normal 0 -0.608797 -0.793326
    outer loop
      vertex -10 48.125 8.82893
      vertex -7.5 48.4667 8.56671
      vertex -7.5 48.125 8.82893
    endloop
  endfacet
  facet normal 0 0.130519 0.991446
    outer loop
      vertex -10 48.3741 11.4086
      vertex -7.5 47.3 11.55
      vertex -7.5 48.3741 11.4086
    endloop
  endfacet
  facet normal 0 0.382694 0.923875
    outer loop
      vertex -10 48.3741 11.4086
      vertex -7.5 48.3741 11.4086
      vertex -10 49.375 10.994
    endloop
  endfacet
  facet normal 0 0.382678 -0.923882
    outer loop
      vertex -10 48.3741 3.3914
      vertex -10 49.375 3.80598
      vertex -7.5 49.375 3.80598
    endloop
  endfacet
  facet normal 0 0.382678 -0.923882
    outer loop
      vertex -10 48.3741 3.3914
      vertex -7.5 49.375 3.80598
      vertex -7.5 48.3741 3.3914
    endloop
  endfacet
  facet normal -1 0 0
    outer loop
      vertex -10 48.4667 6.23326
      vertex -10 48.7289 6.575
      vertex -10 50.2345 4.4655
    endloop
  endfacet
  facet normal -1 0 0
    outer loop
      vertex -10 48.4667 6.23326
      vertex -10 50.2345 4.4655
      vertex -10 49.375 3.80598
    endloop
  endfacet
  facet normal 0 -0.608782 0.793337
    outer loop
      vertex -10 48.4667 6.23326
      vertex -7.5 48.125 5.97105
      vertex -7.5 48.4667 6.23326
    endloop
  endfacet
  facet normal 0 -0.793383 0.608723
    outer loop
      vertex -10 48.4667 6.23326
      vertex -7.5 48.4667 6.23326
      vertex -7.5 48.7289 6.575
    endloop
  endfacet
  facet normal 0 -0.793383 0.608723
    outer loop
      vertex -10 48.4667 6.23326
      vertex -7.5 48.7289 6.575
      vertex -10 48.7289 6.575
    endloop
  endfacet
  facet normal 0 -0.793366 -0.608745
    outer loop
      vertex -10 48.4667 8.56671
      vertex -10 48.7289 8.22499
      vertex -7.5 48.4667 8.56671
    endloop
  endfacet
  facet normal -1 0 0
    outer loop
      vertex -10 48.4667 8.56671
      vertex -10 49.375 10.994
      vertex -10 50.2345 10.3345
    endloop
  endfacet
  facet normal -1 0 0
    outer loop
      vertex -10 48.4667 8.56671
      vertex -10 50.2345 10.3345
      vertex -10 48.7289 8.22499
    endloop
  endfacet
  facet normal -1 0 0
    outer loop
      vertex -10 48.7289 6.575
      vertex -10 48.8938 6.97295
      vertex -10 50.894 5.325
    endloop
  endfacet
  facet normal -1 0 0
    outer loop
      vertex -10 48.7289 6.575
      vertex -10 50.894 5.325
      vertex -10 50.2345 4.4655
    endloop
  endfacet
  facet normal 0 -0.923827 0.38281
    outer loop
      vertex -10 48.7289 6.575
      vertex -7.5 48.7289 6.575
      vertex -7.5 48.8938 6.97295
    endloop
  endfacet
  facet normal 0 -0.923827 0.38281
    outer loop
      vertex -10 48.7289 6.575
      vertex -7.5 48.8938 6.97295
      vertex -10 48.8938 6.97295
    endloop
  endfacet
  facet normal 0 -0.923827 -0.38281
    outer loop
      vertex -10 48.7289 8.22499
      vertex -10 48.8938 7.82704
      vertex -7.5 48.7289 8.22499
    endloop
  endfacet
  facet normal -1 0 0
    outer loop
      vertex -10 48.7289 8.22499
      vertex -10 50.2345 10.3345
      vertex -10 50.894 9.47499
    endloop
  endfacet
  facet normal -1 0 0
    outer loop
      vertex -10 48.7289 8.22499
      vertex -10 50.894 9.47499
      vertex -10 48.8938 7.82704
    endloop
  endfacet
  facet normal 0 -0.793366 -0.608745
    outer loop
      vertex -10 48.7289 8.22499
      vertex -7.5 48.7289 8.22499
      vertex -7.5 48.4667 8.56671
    endloop
  endfacet
  facet normal -1 0 0
    outer loop
      vertex -10 48.8938 6.97295
      vertex -10 48.95 7.39999
      vertex -10 51.3086 6.3259
    endloop
  endfacet
  facet normal -1 0 0
    outer loop
      vertex -10 48.8938 6.97295
      vertex -10 51.3086 6.3259
      vertex -10 50.894 5.325
    endloop
  endfacet
  facet normal 0 -0.991451 0.130479
    outer loop
      vertex -10 48.8938 6.97295
      vertex -7.5 48.8938 6.97295
      vertex -7.5 48.95 7.39999
    endloop
  endfacet
  facet normal 0 -0.991451 0.130479
    outer loop
      vertex -10 48.8938 6.97295
      vertex -7.5 48.95 7.39999
      vertex -10 48.95 7.39999
    endloop
  endfacet
  facet normal 0 -0.991452 -0.130476
    outer loop
      vertex -10 48.8938 7.82704
      vertex -10 48.95 7.39999
      vertex -7.5 48.8938 7.82704
    endloop
  endfacet
  facet normal -1 0 0
    outer loop
      vertex -10 48.8938 7.82704
      vertex -10 50.894 9.47499
      vertex -10 51.3086 8.47409
    endloop
  endfacet
  facet normal -1 0 0
    outer loop
      vertex -10 48.8938 7.82704
      vertex -10 51.3086 8.47409
      vertex -10 48.95 7.39999
    endloop
  endfacet
  facet normal 0 -0.923827 -0.38281
    outer loop
      vertex -10 48.8938 7.82704
      vertex -7.5 48.8938 7.82704
      vertex -7.5 48.7289 8.22499
    endloop
  endfacet
  facet normal -1 0 0
    outer loop
      vertex -10 48.95 7.39999
      vertex -10 51.3086 8.47409
      vertex -10 51.45 7.39999
    endloop
  endfacet
  facet normal -1 0 0
    outer loop
      vertex -10 48.95 7.39999
      vertex -10 51.45 7.39999
      vertex -10 51.3086 6.3259
    endloop
  endfacet
  facet normal 0 -0.991452 -0.130476
    outer loop
      vertex -10 48.95 7.39999
      vertex -7.5 48.95 7.39999
      vertex -7.5 48.8938 7.82704
    endloop
  endfacet
  facet normal 0 0.382694 0.923875
    outer loop
      vertex -10 49.375 10.994
      vertex -7.5 48.3741 11.4086
      vertex -7.5 49.375 10.994
    endloop
  endfacet
  facet normal 0 0.608751 0.793361
    outer loop
      vertex -10 49.375 10.994
      vertex -7.5 49.375 10.994
      vertex -10 50.2345 10.3345
    endloop
  endfacet
  facet normal 0 0.608763 -0.793352
    outer loop
      vertex -10 49.375 3.80598
      vertex -10 50.2345 4.4655
      vertex -7.5 50.2345 4.4655
    endloop
  endfacet
  facet normal 0 0.608763 -0.793352
    outer loop
      vertex -10 49.375 3.80598
      vertex -7.5 50.2345 4.4655
      vertex -7.5 49.375 3.80598
    endloop
  endfacet
  facet normal 0 0.608751 0.793361
    outer loop
      vertex -10 50.2345 10.3345
      vertex -7.5 49.375 10.994
      vertex -7.5 50.2345 10.3345
    endloop
  endfacet
  facet normal 0 0.793365 0.608747
    outer loop
      vertex -10 50.2345 10.3345
      vertex -7.5 50.2345 10.3345
      vertex -7.5 50.894 9.47499
    endloop
  endfacet
  facet normal 0 0.793365 0.608747
    outer loop
      vertex -10 50.2345 10.3345
      vertex -7.5 50.894 9.47499
      vertex -10 50.894 9.47499
    endloop
  endfacet
  facet normal 0 0.793361 -0.608751
    outer loop
      vertex -10 50.2345 4.4655
      vertex -10 50.894 5.325
      vertex -7.5 50.2345 4.4655
    endloop
  endfacet
  facet normal 0 0.923875 -0.382694
    outer loop
      vertex -10 50.894 5.325
      vertex -10 51.3086 6.3259
      vertex -7.5 50.894 5.325
    endloop
  endfacet
  facet normal 0 0.793361 -0.608751
    outer loop
      vertex -10 50.894 5.325
      vertex -7.5 50.894 5.325
      vertex -7.5 50.2345 4.4655
    endloop
  endfacet
  facet normal 0 0.923875 0.382694
    outer loop
      vertex -10 50.894 9.47499
      vertex -7.5 50.894 9.47499
      vertex -7.5 51.3086 8.47409
    endloop
  endfacet
  facet normal 0 0.923875 0.382694
    outer loop
      vertex -10 50.894 9.47499
      vertex -7.5 51.3086 8.47409
      vertex -10 51.3086 8.47409
    endloop
  endfacet
  facet normal 0 0.991446 -0.13052
    outer loop
      vertex -10 51.3086 6.3259
      vertex -10 51.45 7.39999
      vertex -7.5 51.3086 6.3259
    endloop
  endfacet
  facet normal 0 0.923875 -0.382694
    outer loop
      vertex -10 51.3086 6.3259
      vertex -7.5 51.3086 6.3259
      vertex -7.5 50.894 5.325
    endloop
  endfacet
  facet normal 0 0.991446 0.130519
    outer loop
      vertex -10 51.3086 8.47409
      vertex -7.5 51.3086 8.47409
      vertex -7.5 51.45 7.39999
    endloop
  endfacet
  facet normal 0 0.991446 0.130519
    outer loop
      vertex -10 51.3086 8.47409
      vertex -7.5 51.45 7.39999
      vertex -10 51.45 7.39999
    endloop
  endfacet
  facet normal 0 0.991446 -0.13052
    outer loop
      vertex -10 51.45 7.39999
      vertex -7.5 51.45 7.39999
      vertex -7.5 51.3086 6.3259
    endloop
  endfacet
  facet normal 0 0 -1
    outer loop
      vertex -11.844 -36.305 -8.75
      vertex 11.844 -36.305 -8.75
      vertex 13.6118 -38.5148 -8.75
    endloop
  endfacet
  facet normal 0 -0.938385 0.345592
    outer loop
      vertex -11.844 -6.69495 -8.75
      vertex 11.844 -6.69495 -8.75
      vertex 14.4957 -3.38039 0.25
    endloop
  endfacet
  facet normal 0 0 -1
    outer loop
      vertex -11.844 -6.69495 -8.75
      vertex 13.6118 -4.48524 -8.75
      vertex 11.844 -6.69495 -8.75
    endloop
  endfacet
  facet normal 0 0 -1
    outer loop
      vertex -13.6118 -38.5148 -8.75
      vertex -11.844 -36.305 -8.75
      vertex 13.6118 -38.5148 -8.75
    endloop
  endfacet
  facet normal 0 0 -1
    outer loop
      vertex -13.6118 -38.5148 -8.75
      vertex -11.844 -6.69495 -8.75
      vertex -11.844 -36.305 -8.75
    endloop
  endfacet
  facet normal 0 0 -1
    outer loop
      vertex -13.6118 -38.5148 -8.75
      vertex -13.6118 -4.48524 -8.75
      vertex -11.844 -6.69495 -8.75
    endloop
  endfacet
  facet normal 0 -0.938385 -0.345592
    outer loop
      vertex -13.6118 -38.5148 -8.75
      vertex 13.6118 -38.5148 -8.75
      vertex 15.3796 -40.7245 -2.75
    endloop
  endfacet
  facet normal 0 0 -1
    outer loop
      vertex -13.6118 -4.48524 -8.75
      vertex 13.6118 -4.48524 -8.75
      vertex -11.844 -6.69495 -8.75
    endloop
  endfacet
  facet normal 0 0 1
    outer loop
      vertex -14.4957 -3.38039 0.25
      vertex -10 -2.65 0.25
      vertex -10 1.92291 0.25
    endloop
  endfacet
  facet normal 0.959231 0 0.282622
    outer loop
      vertex -14.4957 -3.38039 0.25
      vertex -11.844 -36.305 -8.75
      vertex -11.844 -6.69495 -8.75
    endloop
  endfacet
  facet normal 0 -0.938385 0.345592
    outer loop
      vertex -14.4957 -3.38039 0.25
      vertex -11.844 -6.69495 -8.75
      vertex 14.4957 -3.38039 0.25
    endloop
  endfacet
  facet normal 0 0 1
    outer loop
      vertex -14.4957 -3.38039 0.25
      vertex 14.4957 -3.38039 0.25
      vertex -10 -2.65 0.25
    endloop
  endfacet
  facet normal 0.959231 0 0.282622
    outer loop
      vertex -14.4957 -39.6196 0.25
      vertex -11.844 -36.305 -8.75
      vertex -14.4957 -3.38039 0.25
    endloop
  endfacet
  facet normal 0 0.938383 0.345596
    outer loop
      vertex -14.4957 -39.6196 0.25
      vertex 11.844 -36.305 -8.75
      vertex -11.844 -36.305 -8.75
    endloop
  endfacet
  facet normal 0 0.938383 0.345596
    outer loop
      vertex -14.4957 -39.6196 0.25
      vertex 14.4957 -39.6196 0.25
      vertex 11.844 -36.305 -8.75
    endloop
  endfacet
  facet normal 0 0 1
    outer loop
      vertex -14.4957 -39.6196 0.25
      vertex 18.7383 -44.9229 0.25
      vertex 14.4957 -39.6196 0.25
    endloop
  endfacet
  facet normal 0 0 -1
    outer loop
      vertex -15.2028 -2.4965 -8.75
      vertex -10 -0.728738 -8.75
      vertex 15.2028 -2.4965 -8.75
    endloop
  endfacet
  facet normal 9.57557e-07 -0.926835 0.37547
    outer loop
      vertex -15.2028 -2.4965 -8.75
      vertex -8.75 -1.55977 -6.43773
      vertex -10 -1.25 -5.67307
    endloop
  endfacet
  facet normal 0 -0.926834 0.375472
    outer loop
      vertex -15.2028 -2.4965 -8.75
      vertex 15.2028 -2.4965 -8.75
      vertex 8.75 -1.55977 -6.43773
    endloop
  endfacet
  facet normal 0 -0.926834 0.375472
    outer loop
      vertex -15.2028 -2.4965 -8.75
      vertex 8.75 -1.55977 -6.43773
      vertex -8.75 -1.55977 -6.43773
    endloop
  endfacet
  facet normal 0 0 -1
    outer loop
      vertex -15.2028 -40.5035 -8.75
      vertex 15.2028 -40.5035 -8.75
      vertex 16.617 -42.2713 -8.75
    endloop
  endfacet
  facet normal 0 0 -1
    outer loop
      vertex -15.3796 -2.27553 -2.75
      vertex -10 -0.0658255 -2.75
      vertex -10 -1.25 -2.75
    endloop
  endfacet
  facet normal 0 0 -1
    outer loop
      vertex -15.3796 -2.27553 -2.75
      vertex -10 -1.25 -2.75
      vertex -8.18977 -1.48191 -2.75
    endloop
  endfacet
  facet normal -0.959231 0 -0.282622
    outer loop
      vertex -15.3796 -2.27553 -2.75
      vertex -13.6118 -4.48524 -8.75
      vertex -13.6118 -38.5148 -8.75
    endloop
  endfacet
  facet normal 0 0 -1
    outer loop
      vertex -15.3796 -2.27553 -2.75
      vertex -8.18977 -1.48191 -2.75
      vertex 15.3796 -2.27553 -2.75
    endloop
  endfacet
  facet normal 0 0.938385 -0.345593
    outer loop
      vertex -15.3796 -2.27553 -2.75
      vertex 13.6118 -4.48524 -8.75
      vertex -13.6118 -4.48524 -8.75
    endloop
  endfacet
  facet normal 0 0.938385 -0.345593
    outer loop
      vertex -15.3796 -2.27553 -2.75
      vertex 15.3796 -2.27553 -2.75
      vertex 13.6118 -4.48524 -8.75
    endloop
  endfacet
  facet normal 0 -0.938385 -0.345592
    outer loop
      vertex -15.3796 -40.7245 -2.75
      vertex -13.6118 -38.5148 -8.75
      vertex 15.3796 -40.7245 -2.75
    endloop
  endfacet
  facet normal -0.959231 0 -0.282622
    outer loop
      vertex -15.3796 -40.7245 -2.75
      vertex -15.3796 -2.27553 -2.75
      vertex -13.6118 -38.5148 -8.75
    endloop
  endfacet
  facet normal 0 0 -1
    outer loop
      vertex -15.3796 -40.7245 -2.75
      vertex 15.3796 -40.7245 -2.75
      vertex 17.1473 -42.9342 -2.75
    endloop
  endfacet
  facet normal 0 0 -1
    outer loop
      vertex -16.617 -0.728738 -8.75
      vertex -10 -0.728738 -8.75
      vertex -15.2028 -2.4965 -8.75
    endloop
  endfacet
  facet normal 0 0.920575 -0.390566
    outer loop
      vertex -16.617 -0.728738 -8.75
      vertex -10 1.92291 -2.5
      vertex -10 -0.728738 -8.75
    endloop
  endfacet
  facet normal 0 0 -1
    outer loop
      vertex -16.617 -42.2713 -8.75
      vertex -15.2028 -2.4965 -8.75
      vertex -15.2028 -40.5035 -8.75
    endloop
  endfacet
  facet normal 0 0 -1
    outer loop
      vertex -16.617 -42.2713 -8.75
      vertex -15.2028 -40.5035 -8.75
      vertex 16.617 -42.2713 -8.75
    endloop
  endfacet
  facet normal 0 0 -1
    outer loop
      vertex -16.617 -42.2713 -8.75
      vertex -16.617 -0.728738 -8.75
      vertex -15.2028 -2.4965 -8.75
    endloop
  endfacet
  facet normal 0 -0.920577 -0.39056
    outer loop
      vertex -16.617 -42.2713 -8.75
      vertex 16.617 -42.2713 -8.75
      vertex 18.7383 -44.9229 -2.5
    endloop
  endfacet
  facet normal 0 0 -1
    outer loop
      vertex -17.1473 -0.0658255 -2.75
      vertex -10 -0.0658255 -2.75
      vertex -15.3796 -2.27553 -2.75
    endloop
  endfacet
  facet normal 0 -0.926834 0.375473
    outer loop
      vertex -17.1473 -0.0658255 -2.75
      vertex -10 -1.25 -5.67307
      vertex -10 -0.0658255 -2.75
    endloop
  endfacet
  facet normal -3.80932e-07 -0.926834 0.375472
    outer loop
      vertex -17.1473 -0.0658255 -2.75
      vertex -15.2028 -2.4965 -8.75
      vertex -10 -1.25 -5.67307
    endloop
  endfacet
  facet normal 0.95129 0 0.308297
    outer loop
      vertex -17.1473 -0.0658255 -2.75
      vertex -15.2028 -40.5035 -8.75
      vertex -15.2028 -2.4965 -8.75
    endloop
  endfacet
  facet normal 0.95129 0 0.308297
    outer loop
      vertex -17.1473 -42.9342 -2.75
      vertex -15.2028 -40.5035 -8.75
      vertex -17.1473 -0.0658255 -2.75
    endloop
  endfacet
  facet normal 0 0 -1
    outer loop
      vertex -17.1473 -42.9342 -2.75
      vertex -15.3796 -2.27553 -2.75
      vertex -15.3796 -40.7245 -2.75
    endloop
  endfacet
  facet normal 0 0 -1
    outer loop
      vertex -17.1473 -42.9342 -2.75
      vertex -15.3796 -40.7245 -2.75
      vertex 17.1473 -42.9342 -2.75
    endloop
  endfacet
  facet normal 0 0 -1
    outer loop
      vertex -17.1473 -42.9342 -2.75
      vertex -17.1473 -0.0658255 -2.75
      vertex -15.3796 -2.27553 -2.75
    endloop
  endfacet
  facet normal 0 0.926832 0.375475
    outer loop
      vertex -17.1473 -42.9342 -2.75
      vertex 15.2028 -40.5035 -8.75
      vertex -15.2028 -40.5035 -8.75
    endloop
  endfacet
  facet normal 0 0.926832 0.375475
    outer loop
      vertex -17.1473 -42.9342 -2.75
      vertex 17.1473 -42.9342 -2.75
      vertex 15.2028 -40.5035 -8.75
    endloop
  endfacet
  facet normal 0 -0.920577 -0.39056
    outer loop
      vertex -18.7383 -44.9229 -2.5
      vertex -16.617 -42.2713 -8.75
      vertex 18.7383 -44.9229 -2.5
    endloop
  endfacet
  facet normal -1 0 0
    outer loop
      vertex -18.7383 -44.9229 -2.5
      vertex -18.7383 -44.9229 0.25
      vertex -18.7383 1.92291 0.25
    endloop
  endfacet
  facet normal -0.946943 0 -0.3214
    outer loop
      vertex -18.7383 -44.9229 -2.5
      vertex -18.7383 1.92291 -2.5
      vertex -16.617 -42.2713 -8.75
    endloop
  endfacet
  facet normal -1 0 0
    outer loop
      vertex -18.7383 -44.9229 -2.5
      vertex -18.7383 1.92291 0.25
      vertex -18.7383 1.92291 -2.5
    endloop
  endfacet
  facet normal 0 -1 0
    outer loop
      vertex -18.7383 -44.9229 -2.5
      vertex 18.7383 -44.9229 -2.5
      vertex 18.7383 -44.9229 0.25
    endloop
  endfacet
  facet normal 0 -1 0
    outer loop
      vertex -18.7383 -44.9229 -2.5
      vertex 18.7383 -44.9229 0.25
      vertex -18.7383 -44.9229 0.25
    endloop
  endfacet
  facet normal 0 0 1
    outer loop
      vertex -18.7383 -44.9229 0.25
      vertex -14.4957 -39.6196 0.25
      vertex -18.7383 1.92291 0.25
    endloop
  endfacet
  facet normal 0 0 1
    outer loop
      vertex -18.7383 -44.9229 0.25
      vertex 18.7383 -44.9229 0.25
      vertex -14.4957 -39.6196 0.25
    endloop
  endfacet
  facet normal 0 1 0
    outer loop
      vertex -18.7383 1.92291 -2.5
      vertex -10 1.92291 -0.148294
      vertex -10 1.92291 -2.5
    endloop
  endfacet
  facet normal 0 0.920575 -0.390566
    outer loop
      vertex -18.7383 1.92291 -2.5
      vertex -10 1.92291 -2.5
      vertex -16.617 -0.728738 -8.75
    endloop
  endfacet
  facet normal -0.946943 0 -0.3214
    outer loop
      vertex -18.7383 1.92291 -2.5
      vertex -16.617 -0.728738 -8.75
      vertex -16.617 -42.2713 -8.75
    endloop
  endfacet
  facet normal 0 1 0
    outer loop
      vertex -18.7383 1.92291 -2.5
      vertex -18.7383 1.92291 0.25
      vertex -10 1.92291 -0.148294
    endloop
  endfacet
  facet normal 0 1 0
    outer loop
      vertex -18.7383 1.92291 0.25
      vertex -10 1.92291 0
      vertex -10 1.92291 -0.148294
    endloop
  endfacet
  facet normal 0 1 0
    outer loop
      vertex -18.7383 1.92291 0.25
      vertex -10 1.92291 0.25
      vertex -10 1.92291 0
    endloop
  endfacet
  facet normal 0 0 1
    outer loop
      vertex -18.7383 1.92291 0.25
      vertex -14.4957 -3.38039 0.25
      vertex -10 1.92291 0.25
    endloop
  endfacet
  facet normal 0 0 1
    outer loop
      vertex -18.7383 1.92291 0.25
      vertex -14.4957 -39.6196 0.25
      vertex -14.4957 -3.38039 0.25
    endloop
  endfacet
  facet normal 0 1 0
    outer loop
      vertex -7.5 -0.45 0
      vertex -7.5 -0.45 2.5
      vertex 7.5 -0.45 0
    endloop
  endfacet
  facet normal 1 0 0
    outer loop
      vertex -7.5 -0.45 0
      vertex -7.5 19.85 0
      vertex -7.5 -0.45 2.5
    endloop
  endfacet
  facet normal 0 0 -1
    outer loop
      vertex -7.5 -0.45 0
      vertex 7.5 -0.45 0
      vertex 7.71555 -0.772473 0
    endloop
  endfacet
  facet normal 1 0 0
    outer loop
      vertex -7.5 -0.45 2.5
      vertex -7.5 19.85 0
      vertex -7.5 20.45 2.5
    endloop
  endfacet
  facet normal 0 1 0
    outer loop
      vertex -7.5 -0.45 2.5
      vertex 7.5 -0.45 2.5
      vertex 7.5 -0.45 0
    endloop
  endfacet
  facet normal 0 0 1
    outer loop
      vertex -7.5 -0.45 2.5
      vertex 7.5 -2.5 2.5
      vertex 7.5 -0.45 2.5
    endloop
  endfacet
  facet normal 1 0 0
    outer loop
      vertex -7.5 -2.5 2.5
      vertex -7.5 -0.45 2.5
      vertex -7.5 -2.5 5
    endloop
  endfacet
  facet normal 0 0 1
    outer loop
      vertex -7.5 -2.5 2.5
      vertex 10 -2.65 2.5
      vertex 7.5 -2.5 2.5
    endloop
  endfacet
  facet normal 0 0 1
    outer loop
      vertex -7.5 -2.5 2.5
      vertex 7.5 -2.5 2.5
      vertex -7.5 -0.45 2.5
    endloop
  endfacet
  facet normal 1 0 0
    outer loop
      vertex -7.5 -2.5 5
      vertex -7.5 -0.45 2.5
      vertex -7.5 20.45 2.5
    endloop
  endfacet
  facet normal 1 0 0
    outer loop
      vertex -7.5 -2.5 5
      vertex -7.5 20.45 2.5
      vertex -7.5 47.3 11.55
    endloop
  endfacet
  facet normal 0 -1 0
    outer loop
      vertex -7.5 19.85 -1.25
      vertex 7.5 19.85 -1.25
      vertex 7.5 19.85 0
    endloop
  endfacet
  facet normal 0 -1 0
    outer loop
      vertex -7.5 19.85 -1.25
      vertex 7.5 19.85 0
      vertex -7.5 19.85 0
    endloop
  endfacet
  facet normal 0 -0.28723 0.957862
    outer loop
      vertex -7.5 19.85 -1.25
      vertex 8.75 -0.154967 -7.2488
      vertex 7.5 19.85 -1.25
    endloop
  endfacet
  facet normal 1 0 0
    outer loop
      vertex -7.5 19.85 0
      vertex -7.5 20.45 0
      vertex -7.5 20.45 2.5
    endloop
  endfacet
  facet normal 0 0 1
    outer loop
      vertex -7.5 19.85 0
      vertex 7.5 19.85 0
      vertex -7.5 20.45 0
    endloop
  endfacet
  facet normal 0 0 1
    outer loop
      vertex -7.5 20.45 0
      vertex 7.5 19.85 0
      vertex 7.5 20.45 0
    endloop
  endfacet
  facet normal 0 -1 0
    outer loop
      vertex -7.5 20.45 0
      vertex 7.5 20.45 0
      vertex 7.5 20.45 2.5
    endloop
  endfacet
  facet normal 0 -1 0
    outer loop
      vertex -7.5 20.45 0
      vertex 7.5 20.45 2.5
      vertex -7.5 20.45 2.5
    endloop
  endfacet
  facet normal 1 0 0
    outer loop
      vertex -7.5 20.45 2.5
      vertex -7.5 22.65 2.5
      vertex -7.5 47.3 11.55
    endloop
  endfacet
  facet normal 0 0 1
    outer loop
      vertex -7.5 20.45 2.5
      vertex 7.5 20.45 2.5
      vertex -7.5 22.65 2.5
    endloop
  endfacet
  facet normal 0 1 0
    outer loop
      vertex -7.5 22.65 0.0196572
      vertex -7.5 22.65 2.5
      vertex 7.5 22.65 0.0196572
    endloop
  endfacet
  facet normal 1 0 0
    outer loop
      vertex -7.5 22.65 0.0196572
      vertex -7.5 45.871 6.575
      vertex -7.5 22.65 2.5
    endloop
  endfacet
  facet normal 1 0 0
    outer loop
      vertex -7.5 22.65 0.0196572
      vertex -7.5 47.3 3.25
      vertex -7.5 45.871 6.575
    endloop
  endfacet
  facet normal 0 1 0
    outer loop
      vertex -7.5 22.65 0.0196572
      vertex 7.5 22.65 0.0196572
      vertex 10 22.65 -2.5
    endloop
  endfacet
  facet normal 1 0 0
    outer loop
      vertex -7.5 22.65 2.5
      vertex -7.5 45.65 7.39999
      vertex -7.5 45.7062 7.82704
    endloop
  endfacet
  facet normal 1 0 0
    outer loop
      vertex -7.5 22.65 2.5
      vertex -7.5 45.7062 6.97295
      vertex -7.5 45.65 7.39999
    endloop
  endfacet
  facet normal 1 0 0
    outer loop
      vertex -7.5 22.65 2.5
      vertex -7.5 45.7062 7.82704
      vertex -7.5 45.871 8.22499
    endloop
  endfacet
  facet normal 1 0 0
    outer loop
      vertex -7.5 22.65 2.5
      vertex -7.5 45.871 6.575
      vertex -7.5 45.7062 6.97295
    endloop
  endfacet
  facet normal 1 0 0
    outer loop
      vertex -7.5 22.65 2.5
      vertex -7.5 45.871 8.22499
      vertex -7.5 47.3 11.55
    endloop
  endfacet
  facet normal 0 0 1
    outer loop
      vertex -7.5 22.65 2.5
      vertex 7.5 20.45 2.5
      vertex 7.5 22.65 2.5
    endloop
  endfacet
  facet normal 0 1 0
    outer loop
      vertex -7.5 22.65 2.5
      vertex 7.5 22.65 2.5
      vertex 7.5 22.65 0.0196572
    endloop
  endfacet
  facet normal 1 0 0
    outer loop
      vertex -7.5 45.871 6.575
      vertex -7.5 47.3 3.25
      vertex -7.5 46.1333 6.23326
    endloop
  endfacet
  facet normal 1 0 0
    outer loop
      vertex -7.5 45.871 8.22499
      vertex -7.5 46.1333 8.56671
      vertex -7.5 47.3 11.55
    endloop
  endfacet
  facet normal 1 0 0
    outer loop
      vertex -7.5 46.1333 6.23326
      vertex -7.5 47.3 3.25
      vertex -7.5 46.475 5.97105
    endloop
  endfacet
  facet normal 1 0 0
    outer loop
      vertex -7.5 46.1333 8.56671
      vertex -7.5 46.475 8.82893
      vertex -7.5 47.3 11.55
    endloop
  endfacet
  facet normal 1 0 0
    outer loop
      vertex -7.5 46.475 5.97105
      vertex -7.5 47.3 3.25
      vertex -7.5 46.8729 5.80621
    endloop
  endfacet
  facet normal 1 0 0
    outer loop
      vertex -7.5 46.475 8.82893
      vertex -7.5 46.8729 8.99377
      vertex -7.5 47.3 11.55
    endloop
  endfacet
  facet normal 1 0 0
    outer loop
      vertex -7.5 46.8729 5.80621
      vertex -7.5 47.3 3.25
      vertex -7.5 47.3 5.75
    endloop
  endfacet
  facet normal 1 0 0
    outer loop
      vertex -7.5 46.8729 8.99377
      vertex -7.5 47.3 9.04999
      vertex -7.5 47.3 11.55
    endloop
  endfacet
  facet normal 1 0 0
    outer loop
      vertex -7.5 47.3 11.55
      vertex -7.5 47.7271 8.99377
      vertex -7.5 48.3741 11.4086
    endloop
  endfacet
  facet normal 1 0 0
    outer loop
      vertex -7.5 47.3 3.25
      vertex -7.5 48.3741 3.3914
      vertex -7.5 47.3 5.75
    endloop
  endfacet
  facet normal 1 0 0
    outer loop
      vertex -7.5 47.3 5.75
      vertex -7.5 48.3741 3.3914
      vertex -7.5 47.7271 5.80621
    endloop
  endfacet
  facet normal 1 0 0
    outer loop
      vertex -7.5 47.3 9.04999
      vertex -7.5 47.7271 8.99377
      vertex -7.5 47.3 11.55
    endloop
  endfacet
  facet normal 1 0 0
    outer loop
      vertex -7.5 47.7271 5.80621
      vertex -7.5 48.3741 3.3914
      vertex -7.5 48.125 5.97105
    endloop
  endfacet
  facet normal 1 0 0
    outer loop
      vertex -7.5 47.7271 8.99377
      vertex -7.5 48.125 8.82893
      vertex -7.5 48.3741 11.4086
    endloop
  endfacet
  facet normal 1 0 0
    outer loop
      vertex -7.5 48.125 5.97105
      vertex -7.5 48.3741 3.3914
      vertex -7.5 49.375 3.80598
    endloop
  endfacet
  facet normal 1 0 0
    outer loop
      vertex -7.5 48.125 5.97105
      vertex -7.5 49.375 3.80598
      vertex -7.5 48.4667 6.23326
    endloop
  endfacet
  facet normal 1 0 0
    outer loop
      vertex -7.5 48.125 8.82893
      vertex -7.5 48.4667 8.56671
      vertex -7.5 49.375 10.994
    endloop
  endfacet
  facet normal 1 0 0
    outer loop
      vertex -7.5 48.125 8.82893
      vertex -7.5 49.375 10.994
      vertex -7.5 48.3741 11.4086
    endloop
  endfacet
  facet normal 1 0 0
    outer loop
      vertex -7.5 48.4667 6.23326
      vertex -7.5 49.375 3.80598
      vertex -7.5 50.2345 4.4655
    endloop
  endfacet
  facet normal 1 0 0
    outer loop
      vertex -7.5 48.4667 6.23326
      vertex -7.5 50.2345 4.4655
      vertex -7.5 48.7289 6.575
    endloop
  endfacet
  facet normal 1 0 0
    outer loop
      vertex -7.5 48.4667 8.56671
      vertex -7.5 48.7289 8.22499
      vertex -7.5 50.2345 10.3345
    endloop
  endfacet
  facet normal 1 0 0
    outer loop
      vertex -7.5 48.4667 8.56671
      vertex -7.5 50.2345 10.3345
      vertex -7.5 49.375 10.994
    endloop
  endfacet
  facet normal 1 0 0
    outer loop
      vertex -7.5 48.7289 6.575
      vertex -7.5 50.2345 4.4655
      vertex -7.5 50.894 5.325
    endloop
  endfacet
  facet normal 1 0 0
    outer loop
      vertex -7.5 48.7289 6.575
      vertex -7.5 50.894 5.325
      vertex -7.5 48.8938 6.97295
    endloop
  endfacet
  facet normal 1 0 0
    outer loop
      vertex -7.5 48.7289 8.22499
      vertex -7.5 48.8938 7.82704
      vertex -7.5 50.894 9.47499
    endloop
  endfacet
  facet normal 1 0 0
    outer loop
      vertex -7.5 48.7289 8.22499
      vertex -7.5 50.894 9.47499
      vertex -7.5 50.2345 10.3345
    endloop
  endfacet
  facet normal 1 0 0
    outer loop
      vertex -7.5 48.8938 6.97295
      vertex -7.5 50.894 5.325
      vertex -7.5 51.3086 6.3259
    endloop
  endfacet
  facet normal 1 0 0
    outer loop
      vertex -7.5 48.8938 6.97295
      vertex -7.5 51.3086 6.3259
      vertex -7.5 48.95 7.39999
    endloop
  endfacet
  facet normal 1 0 0
    outer loop
      vertex -7.5 48.8938 7.82704
      vertex -7.5 48.95 7.39999
      vertex -7.5 51.3086 8.47409
    endloop
  endfacet
  facet normal 1 0 0
    outer loop
      vertex -7.5 48.8938 7.82704
      vertex -7.5 51.3086 8.47409
      vertex -7.5 50.894 9.47499
    endloop
  endfacet
  facet normal 1 0 0
    outer loop
      vertex -7.5 48.95 7.39999
      vertex -7.5 51.3086 6.3259
      vertex -7.5 51.45 7.39999
    endloop
  endfacet
  facet normal 1 0 0
    outer loop
      vertex -7.5 48.95 7.39999
      vertex -7.5 51.45 7.39999
      vertex -7.5 51.3086 8.47409
    endloop
  endfacet
  facet normal 0 0 -1
    outer loop
      vertex -7.71555 -0.772473 0
      vertex -7.5 -0.45 0
      vertex 7.71555 -0.772473 0
    endloop
  endfacet
  facet normal 0 0.968298 -0.249799
    outer loop
      vertex -7.71555 -0.772473 0
      vertex 7.71555 -0.772473 0
      vertex 8.18977 -1.48191 -2.75
    endloop
  endfacet
  facet normal 0.997632 -0.0687827 0
    outer loop
      vertex -7.79755 15.5343 0
      vertex -7.5 19.85 -1.25
      vertex -7.5 19.85 0
    endloop
  endfacet
  facet normal 0 0 -1
    outer loop
      vertex -7.79755 15.5343 0
      vertex -7.5 19.85 0
      vertex -7.5 -0.45 0
    endloop
  endfacet
  facet normal 0 0 -1
    outer loop
      vertex -7.89051 -0.448448 0
      vertex -7.5 -0.45 0
      vertex -7.71555 -0.772473 0
    endloop
  endfacet
  facet normal 0 0 -1
    outer loop
      vertex -7.89051 -0.448448 0
      vertex -7.89051 1.92291 0
      vertex -7.5 -0.45 0
    endloop
  endfacet
  facet normal 0 0 -1
    outer loop
      vertex -7.89051 1.92291 0
      vertex -7.89051 2.35 0
      vertex -7.5 -0.45 0
    endloop
  endfacet
  facet normal 0 0 -1
    outer loop
      vertex -7.89051 13.5097 0
      vertex -7.79755 15.5343 0
      vertex -7.5 -0.45 0
    endloop
  endfacet
  facet normal 0 0 -1
    outer loop
      vertex -7.89051 2.35 0
      vertex -7.89051 13.5097 0
      vertex -7.5 -0.45 0
    endloop
  endfacet
  facet normal 0.954502 0 -0.298205
    outer loop
      vertex -7.93684 1.92291 -0.148294
      vertex -7.89051 1.92291 0
      vertex -7.89051 -0.448448 0
    endloop
  endfacet
  facet normal 0 0.968298 -0.249799
    outer loop
      vertex -8.18977 -1.48191 -2.75
      vertex -7.71555 -0.772473 0
      vertex 8.18977 -1.48191 -2.75
    endloop
  endfacet
  facet normal 0 0 -1
    outer loop
      vertex -8.18977 -1.48191 -2.75
      vertex 8.18977 -1.48191 -2.75
      vertex 15.3796 -2.27553 -2.75
    endloop
  endfacet
  facet normal 0.848577 0.45819 -0.264534
    outer loop
      vertex -8.31499 -1.25 -2.75
      vertex -7.71555 -0.772473 0
      vertex -8.18977 -1.48191 -2.75
    endloop
  endfacet
  facet normal 0.996215 -0.0752812 0.0434635
    outer loop
      vertex -8.75 -0.154967 -7.2488
      vertex -7.5 19.85 -1.25
      vertex -8.75 1.72003 -4.0012
    endloop
  endfacet
  facet normal 0 -0.28723 0.957862
    outer loop
      vertex -8.75 -0.154967 -7.2488
      vertex 8.75 -0.154967 -7.2488
      vertex -7.5 19.85 -1.25
    endloop
  endfacet
  facet normal 0 0.500003 0.866024
    outer loop
      vertex -8.75 -0.154967 -7.2488
      vertex 8.75 -1.55977 -6.43773
      vertex 8.75 -0.154967 -7.2488
    endloop
  endfacet
  facet normal 0.848581 0.458184 -0.264534
    outer loop
      vertex -8.75 -0.445031 -2.7512
      vertex -7.71555 -0.772473 0
      vertex -8.31499 -1.25 -2.75
    endloop
  endfacet
  facet normal 0.848576 0.458195 -0.264531
    outer loop
      vertex -8.75 -0.445031 -2.7512
      vertex -7.89051 -0.448448 0
      vertex -7.71555 -0.772473 0
    endloop
  endfacet
  facet normal 0.954506 0 -0.298193
    outer loop
      vertex -8.75 -0.445031 -2.7512
      vertex -7.89051 13.5097 0
      vertex -7.89051 2.35 0
    endloop
  endfacet
  facet normal 0.954508 -7.38725e-06 -0.298186
    outer loop
      vertex -8.75 -0.445031 -2.7512
      vertex -7.89051 2.35 0
      vertex -7.93684 1.92291 -0.148294
    endloop
  endfacet
  facet normal 0.954506 8.61209e-07 -0.298193
    outer loop
      vertex -8.75 -0.445031 -2.7512
      vertex -7.93684 1.92291 -0.148294
      vertex -7.89051 -0.448448 0
    endloop
  endfacet
  facet normal 0.99581 -0.0457207 -0.0791905
    outer loop
      vertex -8.75 -0.445031 -2.7512
      vertex -8.75 1.72003 -4.0012
      vertex -7.89051 13.5097 0
    endloop
  endfacet
  facet normal 0.848581 0.458184 -0.264532
    outer loop
      vertex -8.75 -1.25 -4.14545
      vertex -8.75 -0.445031 -2.7512
      vertex -8.31499 -1.25 -2.75
    endloop
  endfacet
  facet normal 1 0 0
    outer loop
      vertex -8.75 -1.25 -4.14545
      vertex -8.75 1.72003 -4.0012
      vertex -8.75 -0.445031 -2.7512
    endloop
  endfacet
  facet normal 1 0 0
    outer loop
      vertex -8.75 -1.25 -5.67307
      vertex -8.75 -0.154967 -7.2488
      vertex -8.75 1.72003 -4.0012
    endloop
  endfacet
  facet normal 1 0 0
    outer loop
      vertex -8.75 -1.25 -5.67307
      vertex -8.75 1.72003 -4.0012
      vertex -8.75 -1.25 -4.14545
    endloop
  endfacet
  facet normal 1 0 0
    outer loop
      vertex -8.75 -1.55977 -6.43773
      vertex -8.75 -0.154967 -7.2488
      vertex -8.75 -1.25 -5.67307
    endloop
  endfacet
  facet normal 0 0.500003 0.866024
    outer loop
      vertex -8.75 -1.55977 -6.43773
      vertex 8.75 -1.55977 -6.43773
      vertex -8.75 -0.154967 -7.2488
    endloop
  endfacet
  facet normal 0.997632 -0.0687831 -1.51444e-06
    outer loop
      vertex -8.75 1.72003 -4.0012
      vertex -7.5 19.85 -1.25
      vertex -7.79755 15.5343 0
    endloop
  endfacet
  facet normal 0.995811 -0.0457229 -0.0791841
    outer loop
      vertex -8.75 1.72003 -4.0012
      vertex -7.79755 15.5343 0
      vertex -7.89051 13.5097 0
    endloop
  endfacet
  facet normal 0 0 -1
    outer loop
      vertex 10 -0.0658255 -2.75
      vertex 17.1473 -0.0658255 -2.75
      vertex 15.3796 -2.27553 -2.75
    endloop
  endfacet
  facet normal 1 0 0
    outer loop
      vertex 10 -0.728738 -8.75
      vertex 10 1.25 -8.75
      vertex 10 1.92291 -2.5
    endloop
  endfacet
  facet normal 0 0.920575 -0.390566
    outer loop
      vertex 10 -0.728738 -8.75
      vertex 10 1.92291 -2.5
      vertex 16.617 -0.728738 -8.75
    endloop
  endfacet
  facet normal 0 0 -1
    outer loop
      vertex 10 -0.728738 -8.75
      vertex 16.617 -0.728738 -8.75
      vertex 15.2028 -2.4965 -8.75
    endloop
  endfacet
  facet normal 0 0 -1
    outer loop
      vertex 10 -1.25 -2.75
      vertex 10 -0.0658255 -2.75
      vertex 15.3796 -2.27553 -2.75
    endloop
  endfacet
  facet normal 1 0 0
    outer loop
      vertex 10 -1.25 -5.67307
      vertex 10 -0.0658255 -2.75
      vertex 10 -1.25 -2.75
    endloop
  endfacet
  facet normal 3.80932e-07 -0.926834 0.375472
    outer loop
      vertex 10 -1.25 -5.67307
      vertex 15.2028 -2.4965 -8.75
      vertex 17.1473 -0.0658255 -2.75
    endloop
  endfacet
  facet normal 0 -0.926834 0.375473
    outer loop
      vertex 10 -1.25 -5.67307
      vertex 17.1473 -0.0658255 -2.75
      vertex 10 -0.0658255 -2.75
    endloop
  endfacet
  facet normal 1 0 0
    outer loop
      vertex 10 -2.5 2.5
      vertex 10 1.92291 0.25
      vertex 10 -2.5 5
    endloop
  endfacet
  facet normal 1 0 0
    outer loop
      vertex 10 -2.5 5
      vertex 10 1.92291 0.25
      vertex 10 2.35 0
    endloop
  endfacet
  facet normal 1 0 0
    outer loop
      vertex 10 -2.5 5
      vertex 10 2.35 0
      vertex 10 22.65 0.0196572
    endloop
  endfacet
  facet normal 1 0 0
    outer loop
      vertex 10 -2.5 5
      vertex 10 22.65 0.0196572
      vertex 10 47.3 11.55
    endloop
  endfacet
  facet normal 1 0 0
    outer loop
      vertex 10 -2.65 0.25
      vertex 10 -2.5 2.5
      vertex 10 -2.65 2.5
    endloop
  endfacet
  facet normal 1 0 0
    outer loop
      vertex 10 -2.65 0.25
      vertex 10 1.92291 0.25
      vertex 10 -2.5 2.5
    endloop
  endfacet
  facet normal 0 0 1
    outer loop
      vertex 10 -2.65 0.25
      vertex 14.4957 -3.38039 0.25
      vertex 10 1.92291 0.25
    endloop
  endfacet
  facet normal 1 0 0
    outer loop
      vertex 10 1.25 -8.75
      vertex 10 22.65 -2.5
      vertex 10 1.92291 -2.5
    endloop
  endfacet
  facet normal 0 1 0
    outer loop
      vertex 10 1.92291 -0.148294
      vertex 10 1.92291 0
      vertex 18.7383 1.92291 0.25
    endloop
  endfacet
  facet normal 0 1 0
    outer loop
      vertex 10 1.92291 -0.148294
      vertex 18.7383 1.92291 0.25
      vertex 18.7383 1.92291 -2.5
    endloop
  endfacet
  facet normal 0 1 0
    outer loop
      vertex 10 1.92291 -2.5
      vertex 10 1.92291 -0.148294
      vertex 18.7383 1.92291 -2.5
    endloop
  endfacet
  facet normal 1 0 0
    outer loop
      vertex 10 1.92291 -2.5
      vertex 10 2.35 0
      vertex 10 1.92291 -0.148294
    endloop
  endfacet
  facet normal 1 0 0
    outer loop
      vertex 10 1.92291 -2.5
      vertex 10 22.65 -2.5
      vertex 10 2.35 0
    endloop
  endfacet
  facet normal 0 0.920575 -0.390566
    outer loop
      vertex 10 1.92291 -2.5
      vertex 18.7383 1.92291 -2.5
      vertex 16.617 -0.728738 -8.75
    endloop
  endfacet
  facet normal 0 1 0
    outer loop
      vertex 10 1.92291 0
      vertex 10 1.92291 0.25
      vertex 18.7383 1.92291 0.25
    endloop
  endfacet
  facet normal 1 0 0
    outer loop
      vertex 10 1.92291 0
      vertex 10 2.35 0
      vertex 10 1.92291 0.25
    endloop
  endfacet
  facet normal 0 0 1
    outer loop
      vertex 10 1.92291 0.25
      vertex 14.4957 -3.38039 0.25
      vertex 18.7383 1.92291 0.25
    endloop
  endfacet
  facet normal 1 0 0
    outer loop
      vertex 10 2.35 0
      vertex 10 22.65 -2.5
      vertex 10 22.65 0.0196572
    endloop
  endfacet
  facet normal 1 0 0
    outer loop
      vertex 10 22.65 0.0196572
      vertex 10 45.65 7.39999
      vertex 10 45.7062 7.82704
    endloop
  endfacet
  facet normal 1 0 0
    outer loop
      vertex 10 22.65 0.0196572
      vertex 10 45.7062 6.97295
      vertex 10 45.65 7.39999
    endloop
  endfacet
  facet normal 1 0 0
    outer loop
      vertex 10 22.65 0.0196572
      vertex 10 45.7062 7.82704
      vertex 10 45.871 8.22499
    endloop
  endfacet
  facet normal 1 0 0
    outer loop
      vertex 10 22.65 0.0196572
      vertex 10 45.871 6.575
      vertex 10 45.7062 6.97295
    endloop
  endfacet
  facet normal 1 0 0
    outer loop
      vertex 10 22.65 0.0196572
      vertex 10 45.871 8.22499
      vertex 10 47.3 11.55
    endloop
  endfacet
  facet normal 1 0 0
    outer loop
      vertex 10 22.65 0.0196572
      vertex 10 47.3 3.25
      vertex 10 45.871 6.575
    endloop
  endfacet
  facet normal 1 0 0
    outer loop
      vertex 10 45.871 6.575
      vertex 10 47.3 3.25
      vertex 10 46.1333 6.23326
    endloop
  endfacet
  facet normal 1 0 0
    outer loop
      vertex 10 45.871 8.22499
      vertex 10 46.1333 8.56671
      vertex 10 47.3 11.55
    endloop
  endfacet
  facet normal 1 0 0
    outer loop
      vertex 10 46.1333 6.23326
      vertex 10 47.3 3.25
      vertex 10 46.475 5.97105
    endloop
  endfacet
  facet normal 1 0 0
    outer loop
      vertex 10 46.1333 8.56671
      vertex 10 46.475 8.82893
      vertex 10 47.3 11.55
    endloop
  endfacet
  facet normal 1 0 0
    outer loop
      vertex 10 46.475 5.97105
      vertex 10 47.3 3.25
      vertex 10 46.8729 5.80621
    endloop
  endfacet
  facet normal 1 0 0
    outer loop
      vertex 10 46.475 8.82893
      vertex 10 46.8729 8.99377
      vertex 10 47.3 11.55
    endloop
  endfacet
  facet normal 1 0 0
    outer loop
      vertex 10 46.8729 5.80621
      vertex 10 47.3 3.25
      vertex 10 47.3 5.75
    endloop
  endfacet
  facet normal 1 0 0
    outer loop
      vertex 10 46.8729 8.99377
      vertex 10 47.3 9.04999
      vertex 10 47.3 11.55
    endloop
  endfacet
  facet normal 1 0 0
    outer loop
      vertex 10 47.3 11.55
      vertex 10 47.7271 8.99377
      vertex 10 48.3741 11.4086
    endloop
  endfacet
  facet normal 1 0 0
    outer loop
      vertex 10 47.3 3.25
      vertex 10 48.3741 3.3914
      vertex 10 47.3 5.75
    endloop
  endfacet
  facet normal 1 0 0
    outer loop
      vertex 10 47.3 5.75
      vertex 10 48.3741 3.3914
      vertex 10 47.7271 5.80621
    endloop
  endfacet
  facet normal 1 0 0
    outer loop
      vertex 10 47.3 9.04999
      vertex 10 47.7271 8.99377
      vertex 10 47.3 11.55
    endloop
  endfacet
  facet normal 1 0 0
    outer loop
      vertex 10 47.7271 5.80621
      vertex 10 48.3741 3.3914
      vertex 10 48.125 5.97105
    endloop
  endfacet
  facet normal 1 0 0
    outer loop
      vertex 10 47.7271 8.99377
      vertex 10 48.125 8.82893
      vertex 10 48.3741 11.4086
    endloop
  endfacet
  facet normal 1 0 0
    outer loop
      vertex 10 48.125 5.97105
      vertex 10 48.3741 3.3914
      vertex 10 49.375 3.80598
    endloop
  endfacet
  facet normal 1 0 0
    outer loop
      vertex 10 48.125 5.97105
      vertex 10 49.375 3.80598
      vertex 10 48.4667 6.23326
    endloop
  endfacet
  facet normal 1 0 0
    outer loop
      vertex 10 48.125 8.82893
      vertex 10 48.4667 8.56671
      vertex 10 49.375 10.994
    endloop
  endfacet
  facet normal 1 0 0
    outer loop
      vertex 10 48.125 8.82893
      vertex 10 49.375 10.994
      vertex 10 48.3741 11.4086
    endloop
  endfacet
  facet normal 1 0 0
    outer loop
      vertex 10 48.4667 6.23326
      vertex 10 49.375 3.80598
      vertex 10 50.2345 4.4655
    endloop
  endfacet
  facet normal 1 0 0
    outer loop
      vertex 10 48.4667 6.23326
      vertex 10 50.2345 4.4655
      vertex 10 48.7289 6.575
    endloop
  endfacet
  facet normal 1 0 0
    outer loop
      vertex 10 48.4667 8.56671
      vertex 10 48.7289 8.22499
      vertex 10 50.2345 10.3345
    endloop
  endfacet
  facet normal 1 0 0
    outer loop
      vertex 10 48.4667 8.56671
      vertex 10 50.2345 10.3345
      vertex 10 49.375 10.994
    endloop
  endfacet
  facet normal 1 0 0
    outer loop
      vertex 10 48.7289 6.575
      vertex 10 50.2345 4.4655
      vertex 10 50.894 5.325
    endloop
  endfacet
  facet normal 1 0 0
    outer loop
      vertex 10 48.7289 6.575
      vertex 10 50.894 5.325
      vertex 10 48.8938 6.97295
    endloop
  endfacet
  facet normal 1 0 0
    outer loop
      vertex 10 48.7289 8.22499
      vertex 10 48.8938 7.82704
      vertex 10 50.894 9.47499
    endloop
  endfacet
  facet normal 1 0 0
    outer loop
      vertex 10 48.7289 8.22499
      vertex 10 50.894 9.47499
      vertex 10 50.2345 10.3345
    endloop
  endfacet
  facet normal 1 0 0
    outer loop
      vertex 10 48.8938 6.97295
      vertex 10 50.894 5.325
      vertex 10 51.3086 6.3259
    endloop
  endfacet
  facet normal 1 0 0
    outer loop
      vertex 10 48.8938 6.97295
      vertex 10 51.3086 6.3259
      vertex 10 48.95 7.39999
    endloop
  endfacet
  facet normal 1 0 0
    outer loop
      vertex 10 48.8938 7.82704
      vertex 10 48.95 7.39999
      vertex 10 51.3086 8.47409
    endloop
  endfacet
  facet normal 1 0 0
    outer loop
      vertex 10 48.8938 7.82704
      vertex 10 51.3086 8.47409
      vertex 10 50.894 9.47499
    endloop
  endfacet
  facet normal 1 0 0
    outer loop
      vertex 10 48.95 7.39999
      vertex 10 51.3086 6.3259
      vertex 10 51.45 7.39999
    endloop
  endfacet
  facet normal 1 0 0
    outer loop
      vertex 10 48.95 7.39999
      vertex 10 51.45 7.39999
      vertex 10 51.3086 8.47409
    endloop
  endfacet
  facet normal 0 0 -1
    outer loop
      vertex 11.844 -36.305 -8.75
      vertex 11.844 -6.69495 -8.75
      vertex 13.6118 -4.48524 -8.75
    endloop
  endfacet
  facet normal 0 0 -1
    outer loop
      vertex 11.844 -36.305 -8.75
      vertex 13.6118 -4.48524 -8.75
      vertex 13.6118 -38.5148 -8.75
    endloop
  endfacet
  facet normal -0.959231 0 0.282622
    outer loop
      vertex 11.844 -36.305 -8.75
      vertex 14.4957 -3.38039 0.25
      vertex 11.844 -6.69495 -8.75
    endloop
  endfacet
  facet normal -0.959231 0 0.282622
    outer loop
      vertex 11.844 -36.305 -8.75
      vertex 14.4957 -39.6196 0.25
      vertex 14.4957 -3.38039 0.25
    endloop
  endfacet
  facet normal 0.959231 0 -0.282622
    outer loop
      vertex 13.6118 -38.5148 -8.75
      vertex 13.6118 -4.48524 -8.75
      vertex 15.3796 -2.27553 -2.75
    endloop
  endfacet
  facet normal 0.959231 0 -0.282622
    outer loop
      vertex 13.6118 -38.5148 -8.75
      vertex 15.3796 -2.27553 -2.75
      vertex 15.3796 -40.7245 -2.75
    endloop
  endfacet
  facet normal 0 0 1
    outer loop
      vertex 14.4957 -3.38039 0.25
      vertex 18.7383 -44.9229 0.25
      vertex 18.7383 1.92291 0.25
    endloop
  endfacet
  facet normal 0 0 1
    outer loop
      vertex 14.4957 -39.6196 0.25
      vertex 18.7383 -44.9229 0.25
      vertex 14.4957 -3.38039 0.25
    endloop
  endfacet
  facet normal 0 0 -1
    outer loop
      vertex 15.2028 -40.5035 -8.75
      vertex 15.2028 -2.4965 -8.75
      vertex 16.617 -0.728738 -8.75
    endloop
  endfacet
  facet normal 0 0 -1
    outer loop
      vertex 15.2028 -40.5035 -8.75
      vertex 16.617 -0.728738 -8.75
      vertex 16.617 -42.2713 -8.75
    endloop
  endfacet
  facet normal -0.95129 0 0.308297
    outer loop
      vertex 15.2028 -40.5035 -8.75
      vertex 17.1473 -0.0658255 -2.75
      vertex 15.2028 -2.4965 -8.75
    endloop
  endfacet
  facet normal -0.95129 0 0.308297
    outer loop
      vertex 15.2028 -40.5035 -8.75
      vertex 17.1473 -42.9342 -2.75
      vertex 17.1473 -0.0658255 -2.75
    endloop
  endfacet
  facet normal 0 0 -1
    outer loop
      vertex 15.3796 -40.7245 -2.75
      vertex 15.3796 -2.27553 -2.75
      vertex 17.1473 -0.0658255 -2.75
    endloop
  endfacet
  facet normal 0 0 -1
    outer loop
      vertex 15.3796 -40.7245 -2.75
      vertex 17.1473 -0.0658255 -2.75
      vertex 17.1473 -42.9342 -2.75
    endloop
  endfacet
  facet normal 0.946943 0 -0.3214
    outer loop
      vertex 16.617 -42.2713 -8.75
      vertex 16.617 -0.728738 -8.75
      vertex 18.7383 1.92291 -2.5
    endloop
  endfacet
  facet normal 0.946943 0 -0.3214
    outer loop
      vertex 16.617 -42.2713 -8.75
      vertex 18.7383 1.92291 -2.5
      vertex 18.7383 -44.9229 -2.5
    endloop
  endfacet
  facet normal 1 0 0
    outer loop
      vertex 18.7383 -44.9229 -2.5
      vertex 18.7383 1.92291 -2.5
      vertex 18.7383 -44.9229 0.25
    endloop
  endfacet
  facet normal 1 0 0
    outer loop
      vertex 18.7383 -44.9229 0.25
      vertex 18.7383 1.92291 -2.5
      vertex 18.7383 1.92291 0.25
    endloop
  endfacet
  facet normal -1 0 0
    outer loop
      vertex 7.5 -0.45 0
      vertex 7.5 -0.45 2.5
      vertex 7.5 19.85 0
    endloop
  endfacet
  facet normal 0 0 -1
    outer loop
      vertex 7.5 -0.45 0
      vertex 7.5 19.85 0
      vertex 7.79755 15.5343 0
    endloop
  endfacet
  facet normal 0 0 -1
    outer loop
      vertex 7.5 -0.45 0
      vertex 7.79755 15.5343 0
      vertex 7.89051 13.5097 0
    endloop
  endfacet
  facet normal 0 0 -1
    outer loop
      vertex 7.5 -0.45 0
      vertex 7.89051 -0.448448 0
      vertex 7.71555 -0.772473 0
    endloop
  endfacet
  facet normal 0 0 -1
    outer loop
      vertex 7.5 -0.45 0
      vertex 7.89051 1.92291 0
      vertex 7.89051 -0.448448 0
    endloop
  endfacet
  facet normal 0 0 -1
    outer loop
      vertex 7.5 -0.45 0
      vertex 7.89051 13.5097 0
      vertex 7.89051 2.35 0
    endloop
  endfacet
  facet normal 0 0 -1
    outer loop
      vertex 7.5 -0.45 0
      vertex 7.89051 2.35 0
      vertex 7.89051 1.92291 0
    endloop
  endfacet
  facet normal -1 0 0
    outer loop
      vertex 7.5 -0.45 2.5
      vertex 7.5 20.45 2.5
      vertex 7.5 19.85 0
    endloop
  endfacet
  facet normal 0 -1 0
    outer loop
      vertex 7.5 -2.5 2.5
      vertex 10 -2.5 2.5
      vertex 10 -2.5 5
    endloop
  endfacet
  facet normal 0 -1 0
    outer loop
      vertex 7.5 -2.5 2.5
      vertex 10 -2.5 5
      vertex 7.5 -2.5 5
    endloop
  endfacet
  facet normal 0 0 1
    outer loop
      vertex 7.5 -2.5 2.5
      vertex 10 -2.65 2.5
      vertex 10 -2.5 2.5
    endloop
  endfacet
  facet normal -1 0 0
    outer loop
      vertex 7.5 -2.5 2.5
      vertex 7.5 -2.5 5
      vertex 7.5 -0.45 2.5
    endloop
  endfacet
  facet normal 0 -0.130403 0.991461
    outer loop
      vertex 7.5 -2.5 5
      vertex 10 -2.5 5
      vertex 7.5 47.3 11.55
    endloop
  endfacet
  facet normal -1 0 0
    outer loop
      vertex 7.5 -2.5 5
      vertex 7.5 20.45 2.5
      vertex 7.5 -0.45 2.5
    endloop
  endfacet
  facet normal -1 0 0
    outer loop
      vertex 7.5 -2.5 5
      vertex 7.5 47.3 11.55
      vertex 7.5 20.45 2.5
    endloop
  endfacet
  facet normal -0.997632 -0.0687827 0
    outer loop
      vertex 7.5 19.85 -1.25
      vertex 7.79755 15.5343 0
      vertex 7.5 19.85 0
    endloop
  endfacet
  facet normal -0.996215 -0.0752812 0.0434635
    outer loop
      vertex 7.5 19.85 -1.25
      vertex 8.75 -0.154967 -7.2488
      vertex 8.75 1.72003 -4.0012
    endloop
  endfacet
  facet normal -0.997632 -0.0687831 -1.51444e-06
    outer loop
      vertex 7.5 19.85 -1.25
      vertex 8.75 1.72003 -4.0012
      vertex 7.79755 15.5343 0
    endloop
  endfacet
  facet normal -1 0 0
    outer loop
      vertex 7.5 19.85 0
      vertex 7.5 20.45 2.5
      vertex 7.5 20.45 0
    endloop
  endfacet
  facet normal -1 0 0
    outer loop
      vertex 7.5 20.45 2.5
      vertex 7.5 47.3 11.55
      vertex 7.5 22.65 2.5
    endloop
  endfacet
  facet normal 0 1 0
    outer loop
      vertex 7.5 22.65 0.0196572
      vertex 10 22.65 0.0196572
      vertex 10 22.65 -2.5
    endloop
  endfacet
  facet normal 0 0.129937 -0.991522
    outer loop
      vertex 7.5 22.65 0.0196572
      vertex 10 47.3 3.25
      vertex 10 22.65 0.0196572
    endloop
  endfacet
  facet normal -1 0 0
    outer loop
      vertex 7.5 22.65 0.0196572
      vertex 7.5 22.65 2.5
      vertex 7.5 45.871 6.575
    endloop
  endfacet
  facet normal -1 0 0
    outer loop
      vertex 7.5 22.65 0.0196572
      vertex 7.5 45.871 6.575
      vertex 7.5 47.3 3.25
    endloop
  endfacet
  facet normal 0 0.129937 -0.991522
    outer loop
      vertex 7.5 22.65 0.0196572
      vertex 7.5 47.3 3.25
      vertex 10 47.3 3.25
    endloop
  endfacet
  facet normal -1 0 0
    outer loop
      vertex 7.5 22.65 2.5
      vertex 7.5 45.65 7.39999
      vertex 7.5 45.7062 6.97295
    endloop
  endfacet
  facet normal -1 0 0
    outer loop
      vertex 7.5 22.65 2.5
      vertex 7.5 45.7062 6.97295
      vertex 7.5 45.871 6.575
    endloop
  endfacet
  facet normal -1 0 0
    outer loop
      vertex 7.5 22.65 2.5
      vertex 7.5 45.7062 7.82704
      vertex 7.5 45.65 7.39999
    endloop
  endfacet
  facet normal -1 0 0
    outer loop
      vertex 7.5 22.65 2.5
      vertex 7.5 45.871 8.22499
      vertex 7.5 45.7062 7.82704
    endloop
  endfacet
  facet normal -1 0 0
    outer loop
      vertex 7.5 22.65 2.5
      vertex 7.5 47.3 11.55
      vertex 7.5 45.871 8.22499
    endloop
  endfacet
  facet normal 0 0.991451 0.130479
    outer loop
      vertex 7.5 45.65 7.39999
      vertex 10 45.65 7.39999
      vertex 10 45.7062 6.97295
    endloop
  endfacet
  facet normal 0 0.991451 0.130479
    outer loop
      vertex 7.5 45.65 7.39999
      vertex 10 45.7062 6.97295
      vertex 7.5 45.7062 6.97295
    endloop
  endfacet
  facet normal 0 0.991452 -0.130476
    outer loop
      vertex 7.5 45.65 7.39999
      vertex 7.5 45.7062 7.82704
      vertex 10 45.65 7.39999
    endloop
  endfacet
  facet normal 0 0.923909 0.382612
    outer loop
      vertex 7.5 45.7062 6.97295
      vertex 10 45.7062 6.97295
      vertex 10 45.871 6.575
    endloop
  endfacet
  facet normal 0 0.923909 0.382612
    outer loop
      vertex 7.5 45.7062 6.97295
      vertex 10 45.871 6.575
      vertex 7.5 45.871 6.575
    endloop
  endfacet
  facet normal 0 0.991452 -0.130476
    outer loop
      vertex 7.5 45.7062 7.82704
      vertex 10 45.7062 7.82704
      vertex 10 45.65 7.39999
    endloop
  endfacet
  facet normal 0 0.923909 -0.382612
    outer loop
      vertex 7.5 45.7062 7.82704
      vertex 7.5 45.871 8.22499
      vertex 10 45.7062 7.82704
    endloop
  endfacet
  facet normal 0 0.793271 0.608869
    outer loop
      vertex 7.5 45.871 6.575
      vertex 10 45.871 6.575
      vertex 10 46.1333 6.23326
    endloop
  endfacet
  facet normal 0 0.793271 0.608869
    outer loop
      vertex 7.5 45.871 6.575
      vertex 10 46.1333 6.23326
      vertex 7.5 46.1333 6.23326
    endloop
  endfacet
  facet normal -1 0 0
    outer loop
      vertex 7.5 45.871 6.575
      vertex 7.5 46.1333 6.23326
      vertex 7.5 47.3 3.25
    endloop
  endfacet
  facet normal 0 0.923909 -0.382612
    outer loop
      vertex 7.5 45.871 8.22499
      vertex 10 45.871 8.22499
      vertex 10 45.7062 7.82704
    endloop
  endfacet
  facet normal 0 0.793254 -0.608891
    outer loop
      vertex 7.5 45.871 8.22499
      vertex 7.5 46.1333 8.56671
      vertex 10 45.871 8.22499
    endloop
  endfacet
  facet normal -1 0 0
    outer loop
      vertex 7.5 45.871 8.22499
      vertex 7.5 47.3 11.55
      vertex 7.5 46.1333 8.56671
    endloop
  endfacet
  facet normal 0 0.608782 0.793337
    outer loop
      vertex 7.5 46.1333 6.23326
      vertex 10 46.1333 6.23326
      vertex 7.5 46.475 5.97105
    endloop
  endfacet
  facet normal -1 0 0
    outer loop
      vertex 7.5 46.1333 6.23326
      vertex 7.5 46.475 5.97105
      vertex 7.5 47.3 3.25
    endloop
  endfacet
  facet normal 0 0.793254 -0.608891
    outer loop
      vertex 7.5 46.1333 8.56671
      vertex 10 46.1333 8.56671
      vertex 10 45.871 8.22499
    endloop
  endfacet
  facet normal 0 0.608797 -0.793326
    outer loop
      vertex 7.5 46.1333 8.56671
      vertex 10 46.475 8.82893
      vertex 10 46.1333 8.56671
    endloop
  endfacet
  facet normal 0 0.608797 -0.793326
    outer loop
      vertex 7.5 46.1333 8.56671
      vertex 7.5 46.475 8.82893
      vertex 10 46.475 8.82893
    endloop
  endfacet
  facet normal -1 0 0
    outer loop
      vertex 7.5 46.1333 8.56671
      vertex 7.5 47.3 11.55
      vertex 7.5 46.475 8.82893
    endloop
  endfacet
  facet normal 0 0.608782 0.793337
    outer loop
      vertex 7.5 46.475 5.97105
      vertex 10 46.1333 6.23326
      vertex 10 46.475 5.97105
    endloop
  endfacet
  facet normal 0 0.382732 0.923859
    outer loop
      vertex 7.5 46.475 5.97105
      vertex 10 46.475 5.97105
      vertex 7.5 46.8729 5.80621
    endloop
  endfacet
  facet normal -1 0 0
    outer loop
      vertex 7.5 46.475 5.97105
      vertex 7.5 46.8729 5.80621
      vertex 7.5 47.3 3.25
    endloop
  endfacet
  facet normal 0 0.382732 -0.923859
    outer loop
      vertex 7.5 46.475 8.82893
      vertex 10 46.8729 8.99377
      vertex 10 46.475 8.82893
    endloop
  endfacet
  facet normal 0 0.382732 -0.923859
    outer loop
      vertex 7.5 46.475 8.82893
      vertex 7.5 46.8729 8.99377
      vertex 10 46.8729 8.99377
    endloop
  endfacet
  facet normal -1 0 0
    outer loop
      vertex 7.5 46.475 8.82893
      vertex 7.5 47.3 11.55
      vertex 7.5 46.8729 8.99377
    endloop
  endfacet
  facet normal 0 0.382732 0.923859
    outer loop
      vertex 7.5 46.8729 5.80621
      vertex 10 46.475 5.97105
      vertex 10 46.8729 5.80621
    endloop
  endfacet
  facet normal 0 0.130483 0.991451
    outer loop
      vertex 7.5 46.8729 5.80621
      vertex 10 46.8729 5.80621
      vertex 7.5 47.3 5.75
    endloop
  endfacet
  facet normal -1 0 0
    outer loop
      vertex 7.5 46.8729 5.80621
      vertex 7.5 47.3 5.75
      vertex 7.5 47.3 3.25
    endloop
  endfacet
  facet normal 0 0.130506 -0.991447
    outer loop
      vertex 7.5 46.8729 8.99377
      vertex 10 47.3 9.04999
      vertex 10 46.8729 8.99377
    endloop
  endfacet
  facet normal -1 0 0
    outer loop
      vertex 7.5 46.8729 8.99377
      vertex 7.5 47.3 11.55
      vertex 7.5 47.3 9.04999
    endloop
  endfacet
  facet normal 0 0.130506 -0.991447
    outer loop
      vertex 7.5 46.8729 8.99377
      vertex 7.5 47.3 9.04999
      vertex 10 47.3 9.04999
    endloop
  endfacet
  facet normal 0 -0.130403 0.991461
    outer loop
      vertex 7.5 47.3 11.55
      vertex 10 -2.5 5
      vertex 10 47.3 11.55
    endloop
  endfacet
  facet normal 0 0.130519 0.991446
    outer loop
      vertex 7.5 47.3 11.55
      vertex 10 47.3 11.55
      vertex 7.5 48.3741 11.4086
    endloop
  endfacet
  facet normal 0 0.130519 -0.991446
    outer loop
      vertex 7.5 47.3 3.25
      vertex 10 48.3741 3.3914
      vertex 10 47.3 3.25
    endloop
  endfacet
  facet normal -1 0 0
    outer loop
      vertex 7.5 47.3 3.25
      vertex 7.5 47.3 5.75
      vertex 7.5 47.7271 5.80621
    endloop
  endfacet
  facet normal -1 0 0
    outer loop
      vertex 7.5 47.3 3.25
      vertex 7.5 47.7271 5.80621
      vertex 7.5 48.3741 3.3914
    endloop
  endfacet
  facet normal 0 0.130519 -0.991446
    outer loop
      vertex 7.5 47.3 3.25
      vertex 7.5 48.3741 3.3914
      vertex 10 48.3741 3.3914
    endloop
  endfacet
  facet normal 0 0.130483 0.991451
    outer loop
      vertex 7.5 47.3 5.75
      vertex 10 46.8729 5.80621
      vertex 10 47.3 5.75
    endloop
  endfacet
  facet normal 0 -0.130483 0.991451
    outer loop
      vertex 7.5 47.3 5.75
      vertex 10 47.3 5.75
      vertex 7.5 47.7271 5.80621
    endloop
  endfacet
  facet normal 0 -0.130506 -0.991447
    outer loop
      vertex 7.5 47.3 9.04999
      vertex 10 47.7271 8.99377
      vertex 10 47.3 9.04999
    endloop
  endfacet
  facet normal -1 0 0
    outer loop
      vertex 7.5 47.3 9.04999
      vertex 7.5 47.3 11.55
      vertex 7.5 48.3741 11.4086
    endloop
  endfacet
  facet normal 0 -0.130506 -0.991447
    outer loop
      vertex 7.5 47.3 9.04999
      vertex 7.5 47.7271 8.99377
      vertex 10 47.7271 8.99377
    endloop
  endfacet
  facet normal -1 0 0
    outer loop
      vertex 7.5 47.3 9.04999
      vertex 7.5 48.3741 11.4086
      vertex 7.5 47.7271 8.99377
    endloop
  endfacet
  facet normal 0 -0.130483 0.991451
    outer loop
      vertex 7.5 47.7271 5.80621
      vertex 10 47.3 5.75
      vertex 10 47.7271 5.80621
    endloop
  endfacet
  facet normal 0 -0.382732 0.923859
    outer loop
      vertex 7.5 47.7271 5.80621
      vertex 10 47.7271 5.80621
      vertex 7.5 48.125 5.97105
    endloop
  endfacet
  facet normal -1 0 0
    outer loop
      vertex 7.5 47.7271 5.80621
      vertex 7.5 48.125 5.97105
      vertex 7.5 48.3741 3.3914
    endloop
  endfacet
  facet normal 0 -0.382732 -0.923859
    outer loop
      vertex 7.5 47.7271 8.99377
      vertex 10 48.125 8.82893
      vertex 10 47.7271 8.99377
    endloop
  endfacet
  facet normal 0 -0.382732 -0.923859
    outer loop
      vertex 7.5 47.7271 8.99377
      vertex 7.5 48.125 8.82893
      vertex 10 48.125 8.82893
    endloop
  endfacet
  facet normal -1 0 0
    outer loop
      vertex 7.5 47.7271 8.99377
      vertex 7.5 48.3741 11.4086
      vertex 7.5 48.125 8.82893
    endloop
  endfacet
  facet normal 0 -0.382732 0.923859
    outer loop
      vertex 7.5 48.125 5.97105
      vertex 10 47.7271 5.80621
      vertex 10 48.125 5.97105
    endloop
  endfacet
  facet normal 0 -0.608782 0.793337
    outer loop
      vertex 7.5 48.125 5.97105
      vertex 10 48.125 5.97105
      vertex 7.5 48.4667 6.23326
    endloop
  endfacet
  facet normal -1 0 0
    outer loop
      vertex 7.5 48.125 5.97105
      vertex 7.5 48.4667 6.23326
      vertex 7.5 49.375 3.80598
    endloop
  endfacet
  facet normal -1 0 0
    outer loop
      vertex 7.5 48.125 5.97105
      vertex 7.5 49.375 3.80598
      vertex 7.5 48.3741 3.3914
    endloop
  endfacet
  facet normal 0 -0.608797 -0.793326
    outer loop
      vertex 7.5 48.125 8.82893
      vertex 10 48.4667 8.56671
      vertex 10 48.125 8.82893
    endloop
  endfacet
  facet normal -1 0 0
    outer loop
      vertex 7.5 48.125 8.82893
      vertex 7.5 48.3741 11.4086
      vertex 7.5 49.375 10.994
    endloop
  endfacet
  facet normal 0 -0.608797 -0.793326
    outer loop
      vertex 7.5 48.125 8.82893
      vertex 7.5 48.4667 8.56671
      vertex 10 48.4667 8.56671
    endloop
  endfacet
  facet normal -1 0 0
    outer loop
      vertex 7.5 48.125 8.82893
      vertex 7.5 49.375 10.994
      vertex 7.5 48.4667 8.56671
    endloop
  endfacet
  facet normal 0 0.130519 0.991446
    outer loop
      vertex 7.5 48.3741 11.4086
      vertex 10 47.3 11.55
      vertex 10 48.3741 11.4086
    endloop
  endfacet
  facet normal 0 0.382694 0.923875
    outer loop
      vertex 7.5 48.3741 11.4086
      vertex 10 48.3741 11.4086
      vertex 7.5 49.375 10.994
    endloop
  endfacet
  facet normal 0 0.382678 -0.923882
    outer loop
      vertex 7.5 48.3741 3.3914
      vertex 10 49.375 3.80598
      vertex 10 48.3741 3.3914
    endloop
  endfacet
  facet normal 0 0.382678 -0.923882
    outer loop
      vertex 7.5 48.3741 3.3914
      vertex 7.5 49.375 3.80598
      vertex 10 49.375 3.80598
    endloop
  endfacet
  facet normal 0 -0.608782 0.793337
    outer loop
      vertex 7.5 48.4667 6.23326
      vertex 10 48.125 5.97105
      vertex 10 48.4667 6.23326
    endloop
  endfacet
  facet normal 0 -0.793383 0.608723
    outer loop
      vertex 7.5 48.4667 6.23326
      vertex 10 48.4667 6.23326
      vertex 10 48.7289 6.575
    endloop
  endfacet
  facet normal 0 -0.793383 0.608723
    outer loop
      vertex 7.5 48.4667 6.23326
      vertex 10 48.7289 6.575
      vertex 7.5 48.7289 6.575
    endloop
  endfacet
  facet normal -1 0 0
    outer loop
      vertex 7.5 48.4667 6.23326
      vertex 7.5 48.7289 6.575
      vertex 7.5 50.2345 4.4655
    endloop
  endfacet
  facet normal -1 0 0
    outer loop
      vertex 7.5 48.4667 6.23326
      vertex 7.5 50.2345 4.4655
      vertex 7.5 49.375 3.80598
    endloop
  endfacet
  facet normal 0 -0.793366 -0.608745
    outer loop
      vertex 7.5 48.4667 8.56671
      vertex 7.5 48.7289 8.22499
      vertex 10 48.4667 8.56671
    endloop
  endfacet
  facet normal -1 0 0
    outer loop
      vertex 7.5 48.4667 8.56671
      vertex 7.5 49.375 10.994
      vertex 7.5 50.2345 10.3345
    endloop
  endfacet
  facet normal -1 0 0
    outer loop
      vertex 7.5 48.4667 8.56671
      vertex 7.5 50.2345 10.3345
      vertex 7.5 48.7289 8.22499
    endloop
  endfacet
  facet normal 0 -0.923827 0.38281
    outer loop
      vertex 7.5 48.7289 6.575
      vertex 10 48.7289 6.575
      vertex 10 48.8938 6.97295
    endloop
  endfacet
  facet normal 0 -0.923827 0.38281
    outer loop
      vertex 7.5 48.7289 6.575
      vertex 10 48.8938 6.97295
      vertex 7.5 48.8938 6.97295
    endloop
  endfacet
  facet normal -1 0 0
    outer loop
      vertex 7.5 48.7289 6.575
      vertex 7.5 48.8938 6.97295
      vertex 7.5 50.894 5.325
    endloop
  endfacet
  facet normal -1 0 0
    outer loop
      vertex 7.5 48.7289 6.575
      vertex 7.5 50.894 5.325
      vertex 7.5 50.2345 4.4655
    endloop
  endfacet
  facet normal 0 -0.793366 -0.608745
    outer loop
      vertex 7.5 48.7289 8.22499
      vertex 10 48.7289 8.22499
      vertex 10 48.4667 8.56671
    endloop
  endfacet
  facet normal 0 -0.923827 -0.38281
    outer loop
      vertex 7.5 48.7289 8.22499
      vertex 7.5 48.8938 7.82704
      vertex 10 48.7289 8.22499
    endloop
  endfacet
  facet normal -1 0 0
    outer loop
      vertex 7.5 48.7289 8.22499
      vertex 7.5 50.2345 10.3345
      vertex 7.5 50.894 9.47499
    endloop
  endfacet
  facet normal -1 0 0
    outer loop
      vertex 7.5 48.7289 8.22499
      vertex 7.5 50.894 9.47499
      vertex 7.5 48.8938 7.82704
    endloop
  endfacet
  facet normal 0 -0.991451 0.130479
    outer loop
      vertex 7.5 48.8938 6.97295
      vertex 10 48.8938 6.97295
      vertex 10 48.95 7.39999
    endloop
  endfacet
  facet normal 0 -0.991451 0.130479
    outer loop
      vertex 7.5 48.8938 6.97295
      vertex 10 48.95 7.39999
      vertex 7.5 48.95 7.39999
    endloop
  endfacet
  facet normal -1 0 0
    outer loop
      vertex 7.5 48.8938 6.97295
      vertex 7.5 48.95 7.39999
      vertex 7.5 51.3086 6.3259
    endloop
  endfacet
  facet normal -1 0 0
    outer loop
      vertex 7.5 48.8938 6.97295
      vertex 7.5 51.3086 6.3259
      vertex 7.5 50.894 5.325
    endloop
  endfacet
  facet normal 0 -0.923827 -0.38281
    outer loop
      vertex 7.5 48.8938 7.82704
      vertex 10 48.8938 7.82704
      vertex 10 48.7289 8.22499
    endloop
  endfacet
  facet normal 0 -0.991452 -0.130476
    outer loop
      vertex 7.5 48.8938 7.82704
      vertex 7.5 48.95 7.39999
      vertex 10 48.8938 7.82704
    endloop
  endfacet
  facet normal -1 0 0
    outer loop
      vertex 7.5 48.8938 7.82704
      vertex 7.5 50.894 9.47499
      vertex 7.5 51.3086 8.47409
    endloop
  endfacet
  facet normal -1 0 0
    outer loop
      vertex 7.5 48.8938 7.82704
      vertex 7.5 51.3086 8.47409
      vertex 7.5 48.95 7.39999
    endloop
  endfacet
  facet normal 0 -0.991452 -0.130476
    outer loop
      vertex 7.5 48.95 7.39999
      vertex 10 48.95 7.39999
      vertex 10 48.8938 7.82704
    endloop
  endfacet
  facet normal -1 0 0
    outer loop
      vertex 7.5 48.95 7.39999
      vertex 7.5 51.3086 8.47409
      vertex 7.5 51.45 7.39999
    endloop
  endfacet
  facet normal -1 0 0
    outer loop
      vertex 7.5 48.95 7.39999
      vertex 7.5 51.45 7.39999
      vertex 7.5 51.3086 6.3259
    endloop
  endfacet
  facet normal 0 0.382694 0.923875
    outer loop
      vertex 7.5 49.375 10.994
      vertex 10 48.3741 11.4086
      vertex 10 49.375 10.994
    endloop
  endfacet
  facet normal 0 0.608751 0.793361
    outer loop
      vertex 7.5 49.375 10.994
      vertex 10 49.375 10.994
      vertex 7.5 50.2345 10.3345
    endloop
  endfacet
  facet normal 0 0.608763 -0.793352
    outer loop
      vertex 7.5 49.375 3.80598
      vertex 10 50.2345 4.4655
      vertex 10 49.375 3.80598
    endloop
  endfacet
  facet normal 0 0.608763 -0.793352
    outer loop
      vertex 7.5 49.375 3.80598
      vertex 7.5 50.2345 4.4655
      vertex 10 50.2345 4.4655
    endloop
  endfacet
  facet normal 0 0.608751 0.793361
    outer loop
      vertex 7.5 50.2345 10.3345
      vertex 10 49.375 10.994
      vertex 10 50.2345 10.3345
    endloop
  endfacet
  facet normal 0 0.793365 0.608747
    outer loop
      vertex 7.5 50.2345 10.3345
      vertex 10 50.2345 10.3345
      vertex 10 50.894 9.47499
    endloop
  endfacet
  facet normal 0 0.793365 0.608747
    outer loop
      vertex 7.5 50.2345 10.3345
      vertex 10 50.894 9.47499
      vertex 7.5 50.894 9.47499
    endloop
  endfacet
  facet normal 0 0.793361 -0.608751
    outer loop
      vertex 7.5 50.2345 4.4655
      vertex 7.5 50.894 5.325
      vertex 10 50.2345 4.4655
    endloop
  endfacet
  facet normal 0 0.793361 -0.608751
    outer loop
      vertex 7.5 50.894 5.325
      vertex 10 50.894 5.325
      vertex 10 50.2345 4.4655
    endloop
  endfacet
  facet normal 0 0.923875 -0.382694
    outer loop
      vertex 7.5 50.894 5.325
      vertex 7.5 51.3086 6.3259
      vertex 10 50.894 5.325
    endloop
  endfacet
  facet normal 0 0.923875 0.382694
    outer loop
      vertex 7.5 50.894 9.47499
      vertex 10 50.894 9.47499
      vertex 10 51.3086 8.47409
    endloop
  endfacet
  facet normal 0 0.923875 0.382694
    outer loop
      vertex 7.5 50.894 9.47499
      vertex 10 51.3086 8.47409
      vertex 7.5 51.3086 8.47409
    endloop
  endfacet
  facet normal 0 0.923875 -0.382694
    outer loop
      vertex 7.5 51.3086 6.3259
      vertex 10 51.3086 6.3259
      vertex 10 50.894 5.325
    endloop
  endfacet
  facet normal 0 0.991446 -0.13052
    outer loop
      vertex 7.5 51.3086 6.3259
      vertex 7.5 51.45 7.39999
      vertex 10 51.3086 6.3259
    endloop
  endfacet
  facet normal 0 0.991446 0.130519
    outer loop
      vertex 7.5 51.3086 8.47409
      vertex 10 51.3086 8.47409
      vertex 10 51.45 7.39999
    endloop
  endfacet
  facet normal 0 0.991446 0.130519
    outer loop
      vertex 7.5 51.3086 8.47409
      vertex 10 51.45 7.39999
      vertex 7.5 51.45 7.39999
    endloop
  endfacet
  facet normal 0 0.991446 -0.13052
    outer loop
      vertex 7.5 51.45 7.39999
      vertex 10 51.45 7.39999
      vertex 10 51.3086 6.3259
    endloop
  endfacet
  facet normal -0.848576 0.458195 -0.264531
    outer loop
      vertex 7.71555 -0.772473 0
      vertex 7.89051 -0.448448 0
      vertex 8.75 -0.445031 -2.7512
    endloop
  endfacet
  facet normal -0.848577 0.45819 -0.264534
    outer loop
      vertex 7.71555 -0.772473 0
      vertex 8.31499 -1.25 -2.75
      vertex 8.18977 -1.48191 -2.75
    endloop
  endfacet
  facet normal -0.848581 0.458184 -0.264534
    outer loop
      vertex 7.71555 -0.772473 0
      vertex 8.75 -0.445031 -2.7512
      vertex 8.31499 -1.25 -2.75
    endloop
  endfacet
  facet normal -0.995811 -0.0457229 -0.0791841
    outer loop
      vertex 7.79755 15.5343 0
      vertex 8.75 1.72003 -4.0012
      vertex 7.89051 13.5097 0
    endloop
  endfacet
  facet normal -0.954502 0 -0.298205
    outer loop
      vertex 7.89051 -0.448448 0
      vertex 7.89051 1.92291 0
      vertex 7.93684 1.92291 -0.148294
    endloop
  endfacet
  facet normal -0.954506 8.61209e-07 -0.298193
    outer loop
      vertex 7.89051 -0.448448 0
      vertex 7.93684 1.92291 -0.148294
      vertex 8.75 -0.445031 -2.7512
    endloop
  endfacet
  facet normal 0 1 0
    outer loop
      vertex 7.89051 1.92291 0
      vertex 10 1.92291 0
      vertex 7.93684 1.92291 -0.148294
    endloop
  endfacet
  facet normal 0 0 -1
    outer loop
      vertex 7.89051 1.92291 0
      vertex 10 2.35 0
      vertex 10 1.92291 0
    endloop
  endfacet
  facet normal 0 0 -1
    outer loop
      vertex 7.89051 1.92291 0
      vertex 7.89051 2.35 0
      vertex 10 2.35 0
    endloop
  endfacet
  facet normal -0.99581 -0.0457207 -0.0791905
    outer loop
      vertex 7.89051 13.5097 0
      vertex 8.75 1.72003 -4.0012
      vertex 8.75 -0.445031 -2.7512
    endloop
  endfacet
  facet normal -0.954506 0 -0.298193
    outer loop
      vertex 7.89051 2.35 0
      vertex 7.89051 13.5097 0
      vertex 8.75 -0.445031 -2.7512
    endloop
  endfacet
  facet normal 0 -0.328009 0.944674
    outer loop
      vertex 7.89051 2.35 0
      vertex 7.93684 1.92291 -0.148294
      vertex 10 2.35 0
    endloop
  endfacet
  facet normal -0.954508 -7.38725e-06 -0.298186
    outer loop
      vertex 7.89051 2.35 0
      vertex 8.75 -0.445031 -2.7512
      vertex 7.93684 1.92291 -0.148294
    endloop
  endfacet
  facet normal 0 -0.328009 0.944674
    outer loop
      vertex 7.93684 1.92291 -0.148294
      vertex 10 1.92291 -0.148294
      vertex 10 2.35 0
    endloop
  endfacet
  facet normal 0 1 0
    outer loop
      vertex 7.93684 1.92291 -0.148294
      vertex 10 1.92291 0
      vertex 10 1.92291 -0.148294
    endloop
  endfacet
  facet normal 0 0 -1
    outer loop
      vertex 8.18977 -1.48191 -2.75
      vertex 10 -1.25 -2.75
      vertex 15.3796 -2.27553 -2.75
    endloop
  endfacet
  facet normal 0 0 -1
    outer loop
      vertex 8.18977 -1.48191 -2.75
      vertex 8.31499 -1.25 -2.75
      vertex 10 -1.25 -2.75
    endloop
  endfacet
  facet normal -0.848581 0.458184 -0.264532
    outer loop
      vertex 8.31499 -1.25 -2.75
      vertex 8.75 -0.445031 -2.7512
      vertex 8.75 -1.25 -4.14545
    endloop
  endfacet
  facet normal 0 -1 0
    outer loop
      vertex 8.31499 -1.25 -2.75
      vertex 8.75 -1.25 -4.14545
      vertex 10 -1.25 -2.75
    endloop
  endfacet
  facet normal 0 -1 0
    outer loop
      vertex 8.75 -1.25 -4.14545
      vertex 10 -1.25 -5.67307
      vertex 10 -1.25 -2.75
    endloop
  endfacet
  facet normal -1 0 0
    outer loop
      vertex 8.75 -1.25 -4.14545
      vertex 8.75 -0.445031 -2.7512
      vertex 8.75 1.72003 -4.0012
    endloop
  endfacet
  facet normal 0 -1 0
    outer loop
      vertex 8.75 -1.25 -5.67307
      vertex 10 -1.25 -5.67307
      vertex 8.75 -1.25 -4.14545
    endloop
  endfacet
  facet normal -1 0 0
    outer loop
      vertex 8.75 -1.25 -5.67307
      vertex 8.75 -1.25 -4.14545
      vertex 8.75 1.72003 -4.0012
    endloop
  endfacet
  facet normal -1 0 0
    outer loop
      vertex 8.75 -1.25 -5.67307
      vertex 8.75 1.72003 -4.0012
      vertex 8.75 -0.154967 -7.2488
    endloop
  endfacet
  facet normal 0 -0.926835 0.375468
    outer loop
      vertex 8.75 -1.55977 -6.43773
      vertex 10 -1.25 -5.67307
      vertex 8.75 -1.25 -5.67307
    endloop
  endfacet
  facet normal -9.57557e-07 -0.926835 0.37547
    outer loop
      vertex 8.75 -1.55977 -6.43773
      vertex 15.2028 -2.4965 -8.75
      vertex 10 -1.25 -5.67307
    endloop
  endfacet
  facet normal -1 0 0
    outer loop
      vertex 8.75 -1.55977 -6.43773
      vertex 8.75 -1.25 -5.67307
      vertex 8.75 -0.154967 -7.2488
    endloop
  endfacet
endsolid OpenSCAD_Model
