solid OpenSCAD_Model
  facet normal -0.130476 0.991452 0
    outer loop
      vertex -10 -11.95 0
      vertex -10 -11.95 5
      vertex -9.57295 -11.8938 0
    endloop
  endfacet
  facet normal -0.130476 0.991452 0
    outer loop
      vertex -10 -11.95 5
      vertex -9.57295 -11.8938 5
      vertex -9.57295 -11.8938 0
    endloop
  endfacet
  facet normal 0 0 -1
    outer loop
      vertex -10 -16 0
      vertex -10 -11.95 0
      vertex -9.57295 -11.8938 0
    endloop
  endfacet
  facet normal 0 0 -1
    outer loop
      vertex -10 -16 0
      vertex -8.57106 -11.125 0
      vertex 8.57106 -11.125 0
    endloop
  endfacet
  facet normal 0 0 -1
    outer loop
      vertex -10 -16 0
      vertex -8.83327 -11.4667 0
      vertex -8.57106 -11.125 0
    endloop
  endfacet
  facet normal 0 0 -1
    outer loop
      vertex -10 -16 0
      vertex -9.175 -11.7289 0
      vertex -8.83327 -11.4667 0
    endloop
  endfacet
  facet normal 0 0 -1
    outer loop
      vertex -10 -16 0
      vertex -9.57295 -11.8938 0
      vertex -9.175 -11.7289 0
    endloop
  endfacet
  facet normal 0 -1 0
    outer loop
      vertex -10 -16 0
      vertex 15.25 -16 0
      vertex 15.25 -16 5
    endloop
  endfacet
  facet normal 0 -1 0
    outer loop
      vertex -10 -16 0
      vertex 15.25 -16 5
      vertex -10 -16 5
    endloop
  endfacet
  facet normal 0 0 -1
    outer loop
      vertex -10 -16 0
      vertex 8.57106 -11.125 0
      vertex 8.83327 -11.4667 0
    endloop
  endfacet
  facet normal 0 0 -1
    outer loop
      vertex -10 -16 0
      vertex 8.83327 -11.4667 0
      vertex 9.175 -11.7289 0
    endloop
  endfacet
  facet normal 0 0 -1
    outer loop
      vertex -10 -16 0
      vertex 9.175 -11.7289 0
      vertex 15.25 -16 0
    endloop
  endfacet
  facet normal 0 0 1
    outer loop
      vertex -10 -16 5
      vertex -8.57106 -11.125 5
      vertex -8.83327 -11.4667 5
    endloop
  endfacet
  facet normal 0 0 1
    outer loop
      vertex -10 -16 5
      vertex -8.83327 -11.4667 5
      vertex -9.175 -11.7289 5
    endloop
  endfacet
  facet normal 0 0 1
    outer loop
      vertex -10 -16 5
      vertex -9.175 -11.7289 5
      vertex -9.57295 -11.8938 5
    endloop
  endfacet
  facet normal 0 0 1
    outer loop
      vertex -10 -16 5
      vertex -9.57295 -11.8938 5
      vertex -10 -11.95 5
    endloop
  endfacet
  facet normal 0 0 1
    outer loop
      vertex -10 -16 5
      vertex 15.25 -16 5
      vertex 9.175 -11.7289 5
    endloop
  endfacet
  facet normal 0 0 1
    outer loop
      vertex -10 -16 5
      vertex 8.57106 -11.125 5
      vertex -8.57106 -11.125 5
    endloop
  endfacet
  facet normal 0 0 1
    outer loop
      vertex -10 -16 5
      vertex 8.83327 -11.4667 5
      vertex 8.57106 -11.125 5
    endloop
  endfacet
  facet normal 0 0 1
    outer loop
      vertex -10 -16 5
      vertex 9.175 -11.7289 5
      vertex 8.83327 -11.4667 5
    endloop
  endfacet
  facet normal -0.130521 -0.991446 0
    outer loop
      vertex -10 -8.05 0
      vertex -9.57295 -8.10622 0
      vertex -9.57295 -8.10622 5
    endloop
  endfacet
  facet normal -0.130521 -0.991446 0
    outer loop
      vertex -10 -8.05 0
      vertex -9.57295 -8.10622 5
      vertex -10 -8.05 5
    endloop
  endfacet
  facet normal 0 1 0
    outer loop
      vertex -10 0 0
      vertex -10 0 5
      vertex 17.875 0 0
    endloop
  endfacet
  facet normal 0 0 -1
    outer loop
      vertex -10 0 0
      vertex -8.57106 -8.875 0
      vertex -8.83327 -8.53327 0
    endloop
  endfacet
  facet normal 0 0 -1
    outer loop
      vertex -10 0 0
      vertex -8.83327 -8.53327 0
      vertex -9.175 -8.27106 0
    endloop
  endfacet
  facet normal 0 0 -1
    outer loop
      vertex -10 0 0
      vertex -9.175 -8.27106 0
      vertex -9.57295 -8.10622 0
    endloop
  endfacet
  facet normal 0 0 -1
    outer loop
      vertex -10 0 0
      vertex 17.875 0 0
      vertex 9.57295 -8.10622 0
    endloop
  endfacet
  facet normal 0 0 -1
    outer loop
      vertex -10 0 0
      vertex 8.57106 -8.875 0
      vertex -8.57106 -8.875 0
    endloop
  endfacet
  facet normal 0 0 -1
    outer loop
      vertex -10 0 0
      vertex 8.83327 -8.53327 0
      vertex 8.57106 -8.875 0
    endloop
  endfacet
  facet normal 0 0 -1
    outer loop
      vertex -10 0 0
      vertex 9.175 -8.27106 0
      vertex 8.83327 -8.53327 0
    endloop
  endfacet
  facet normal 0 0 -1
    outer loop
      vertex -10 0 0
      vertex 9.57295 -8.10622 0
      vertex 9.175 -8.27106 0
    endloop
  endfacet
  facet normal 0 0 1
    outer loop
      vertex -10 0 5
      vertex -8.57106 -8.875 5
      vertex 8.57106 -8.875 5
    endloop
  endfacet
  facet normal 0 0 1
    outer loop
      vertex -10 0 5
      vertex -8.83327 -8.53327 5
      vertex -8.57106 -8.875 5
    endloop
  endfacet
  facet normal 0 0 1
    outer loop
      vertex -10 0 5
      vertex -9.175 -8.27106 5
      vertex -8.83327 -8.53327 5
    endloop
  endfacet
  facet normal 0 0 1
    outer loop
      vertex -10 0 5
      vertex -9.57295 -8.10622 5
      vertex -9.175 -8.27106 5
    endloop
  endfacet
  facet normal 0 1 0
    outer loop
      vertex -10 0 5
      vertex 17.875 0 5
      vertex 17.875 0 0
    endloop
  endfacet
  facet normal 0 0 1
    outer loop
      vertex -10 0 5
      vertex 8.57106 -8.875 5
      vertex 8.83327 -8.53327 5
    endloop
  endfacet
  facet normal 0 0 1
    outer loop
      vertex -10 0 5
      vertex 8.83327 -8.53327 5
      vertex 9.175 -8.27106 5
    endloop
  endfacet
  facet normal 0 0 1
    outer loop
      vertex -10 0 5
      vertex 9.175 -8.27106 5
      vertex 9.57295 -8.10622 5
    endloop
  endfacet
  facet normal 0 0 1
    outer loop
      vertex -10 0 5
      vertex 9.57295 -8.10622 5
      vertex 17.875 0 5
    endloop
  endfacet
  facet normal 0.130461 0.991454 0
    outer loop
      vertex -10.4271 -11.8938 0
      vertex -10.4271 -11.8938 5
      vertex -10 -11.95 0
    endloop
  endfacet
  facet normal 0.130461 0.991454 0
    outer loop
      vertex -10.4271 -11.8938 5
      vertex -10 -11.95 5
      vertex -10 -11.95 0
    endloop
  endfacet
  facet normal 0.130506 -0.991447 0
    outer loop
      vertex -10.4271 -8.10622 0
      vertex -10 -8.05 0
      vertex -10 -8.05 5
    endloop
  endfacet
  facet normal 0.130506 -0.991447 0
    outer loop
      vertex -10.4271 -8.10622 0
      vertex -10 -8.05 5
      vertex -10.4271 -8.10622 5
    endloop
  endfacet
  facet normal -0.130522 0.991445 0
    outer loop
      vertex -10.7506 -0.098815 0
      vertex -10.7506 -0.098815 5
      vertex -10 0 0
    endloop
  endfacet
  facet normal -0.130522 0.991445 0
    outer loop
      vertex -10.7506 -0.098815 5
      vertex -10 0 5
      vertex -10 0 0
    endloop
  endfacet
  facet normal 0 0 -1
    outer loop
      vertex -10.7506 -15.9012 0
      vertex -10 -11.95 0
      vertex -10 -16 0
    endloop
  endfacet
  facet normal -0.130502 -0.991448 0
    outer loop
      vertex -10.7506 -15.9012 0
      vertex -10 -16 0
      vertex -10 -16 5
    endloop
  endfacet
  facet normal -0.130502 -0.991448 0
    outer loop
      vertex -10.7506 -15.9012 0
      vertex -10 -16 5
      vertex -10.7506 -15.9012 5
    endloop
  endfacet
  facet normal 0 0 1
    outer loop
      vertex -10.7506 -15.9012 5
      vertex -10 -16 5
      vertex -10 -11.95 5
    endloop
  endfacet
  facet normal 0.382851 0.92381 0
    outer loop
      vertex -10.825 -11.7289 0
      vertex -10.825 -11.7289 5
      vertex -10.4271 -11.8938 0
    endloop
  endfacet
  facet normal 0.382851 0.92381 0
    outer loop
      vertex -10.825 -11.7289 5
      vertex -10.4271 -11.8938 5
      vertex -10.4271 -11.8938 0
    endloop
  endfacet
  facet normal 0.382732 -0.923859 0
    outer loop
      vertex -10.825 -8.27106 0
      vertex -10.4271 -8.10622 0
      vertex -10.4271 -8.10622 5
    endloop
  endfacet
  facet normal 0.382732 -0.923859 0
    outer loop
      vertex -10.825 -8.27106 0
      vertex -10.4271 -8.10622 5
      vertex -10.825 -8.27106 5
    endloop
  endfacet
  facet normal 0.608768 0.793348 0
    outer loop
      vertex -11.1667 -11.4667 0
      vertex -11.1667 -11.4667 5
      vertex -10.825 -11.7289 0
    endloop
  endfacet
  facet normal 0.608768 0.793348 0
    outer loop
      vertex -11.1667 -11.4667 5
      vertex -10.825 -11.7289 5
      vertex -10.825 -11.7289 0
    endloop
  endfacet
  facet normal 0.608782 -0.793337 0
    outer loop
      vertex -11.1667 -8.53327 0
      vertex -10.825 -8.27106 0
      vertex -10.825 -8.27106 5
    endloop
  endfacet
  facet normal 0.608782 -0.793337 0
    outer loop
      vertex -11.1667 -8.53327 0
      vertex -10.825 -8.27106 5
      vertex -11.1667 -8.53327 5
    endloop
  endfacet
  facet normal 0.793348 0.608768 0
    outer loop
      vertex -11.4289 -11.125 0
      vertex -11.1667 -11.4667 5
      vertex -11.1667 -11.4667 0
    endloop
  endfacet
  facet normal 0.793348 0.608768 0
    outer loop
      vertex -11.4289 -11.125 0
      vertex -11.4289 -11.125 5
      vertex -11.1667 -11.4667 5
    endloop
  endfacet
  facet normal 0.793374 -0.608734 0
    outer loop
      vertex -11.4289 -8.875 0
      vertex -11.1667 -8.53327 0
      vertex -11.4289 -8.875 5
    endloop
  endfacet
  facet normal 0.793374 -0.608734 0
    outer loop
      vertex -11.4289 -8.875 5
      vertex -11.1667 -8.53327 0
      vertex -11.1667 -8.53327 5
    endloop
  endfacet
  facet normal -0.382695 0.923875 0
    outer loop
      vertex -11.45 -0.388526 0
      vertex -11.45 -0.388526 5
      vertex -10.7506 -0.098815 0
    endloop
  endfacet
  facet normal -0.382695 0.923875 0
    outer loop
      vertex -11.45 -0.388526 5
      vertex -10.7506 -0.098815 5
      vertex -10.7506 -0.098815 0
    endloop
  endfacet
  facet normal 0 0 -1
    outer loop
      vertex -11.45 -15.6115 0
      vertex -10 -11.95 0
      vertex -10.7506 -15.9012 0
    endloop
  endfacet
  facet normal 0 0 -1
    outer loop
      vertex -11.45 -15.6115 0
      vertex -10.4271 -11.8938 0
      vertex -10 -11.95 0
    endloop
  endfacet
  facet normal -0.382682 -0.92388 0
    outer loop
      vertex -11.45 -15.6115 0
      vertex -10.7506 -15.9012 0
      vertex -10.7506 -15.9012 5
    endloop
  endfacet
  facet normal -0.382682 -0.92388 0
    outer loop
      vertex -11.45 -15.6115 0
      vertex -10.7506 -15.9012 5
      vertex -11.45 -15.6115 5
    endloop
  endfacet
  facet normal 0 0 1
    outer loop
      vertex -11.45 -15.6115 5
      vertex -10 -11.95 5
      vertex -10.4271 -11.8938 5
    endloop
  endfacet
  facet normal 0 0 1
    outer loop
      vertex -11.45 -15.6115 5
      vertex -10.7506 -15.9012 5
      vertex -10 -11.95 5
    endloop
  endfacet
  facet normal 0.92381 0.382851 0
    outer loop
      vertex -11.5938 -10.7271 0
      vertex -11.4289 -11.125 5
      vertex -11.4289 -11.125 0
    endloop
  endfacet
  facet normal 0.92381 0.382851 0
    outer loop
      vertex -11.5938 -10.7271 0
      vertex -11.5938 -10.7271 5
      vertex -11.4289 -11.125 5
    endloop
  endfacet
  facet normal 0.923827 -0.38281 0
    outer loop
      vertex -11.5938 -9.27295 0
      vertex -11.4289 -8.875 0
      vertex -11.5938 -9.27295 5
    endloop
  endfacet
  facet normal 0.923827 -0.38281 0
    outer loop
      vertex -11.5938 -9.27295 5
      vertex -11.4289 -8.875 0
      vertex -11.4289 -8.875 5
    endloop
  endfacet
  facet normal 0.991454 0.130461 0
    outer loop
      vertex -11.65 -10.3 0
      vertex -11.5938 -10.7271 5
      vertex -11.5938 -10.7271 0
    endloop
  endfacet
  facet normal 0.991443 -0.13054 0
    outer loop
      vertex -11.65 -10.3 0
      vertex -11.6105 -10 0
      vertex -11.65 -10.3 5
    endloop
  endfacet
  facet normal 0.991454 0.130461 0
    outer loop
      vertex -11.65 -10.3 0
      vertex -11.65 -10.3 5
      vertex -11.5938 -10.7271 5
    endloop
  endfacet
  facet normal 0 0 -1
    outer loop
      vertex -11.65 -10.3 0
      vertex -11.65 -9.7 0
      vertex -11.6105 -10 0
    endloop
  endfacet
  facet normal 0.991443 -0.13054 0
    outer loop
      vertex -11.65 -10.3 5
      vertex -11.6105 -10 0
      vertex -11.6105 -10 5
    endloop
  endfacet
  facet normal 0 0 1
    outer loop
      vertex -11.65 -10.3 5
      vertex -11.6105 -10 5
      vertex -11.65 -9.7 5
    endloop
  endfacet
  facet normal 0.991452 -0.130476 0
    outer loop
      vertex -11.65 -9.7 0
      vertex -11.5938 -9.27295 0
      vertex -11.65 -9.7 5
    endloop
  endfacet
  facet normal 0.991443 0.13054 0
    outer loop
      vertex -11.65 -9.7 0
      vertex -11.6105 -10 5
      vertex -11.6105 -10 0
    endloop
  endfacet
  facet normal 0.991443 0.13054 0
    outer loop
      vertex -11.65 -9.7 0
      vertex -11.65 -9.7 5
      vertex -11.6105 -10 5
    endloop
  endfacet
  facet normal 0.991452 -0.130476 0
    outer loop
      vertex -11.65 -9.7 5
      vertex -11.5938 -9.27295 0
      vertex -11.5938 -9.27295 5
    endloop
  endfacet
  facet normal -0.608768 0.793349 0
    outer loop
      vertex -12.0506 -0.84939 0
      vertex -12.0506 -0.84939 5
      vertex -11.45 -0.388526 0
    endloop
  endfacet
  facet normal -0.608768 0.793349 0
    outer loop
      vertex -12.0506 -0.84939 5
      vertex -11.45 -0.388526 5
      vertex -11.45 -0.388526 0
    endloop
  endfacet
  facet normal 0 0 -1
    outer loop
      vertex -12.0506 -15.1506 0
      vertex -10.4271 -11.8938 0
      vertex -11.45 -15.6115 0
    endloop
  endfacet
  facet normal -0.608798 -0.793326 0
    outer loop
      vertex -12.0506 -15.1506 0
      vertex -11.45 -15.6115 0
      vertex -11.45 -15.6115 5
    endloop
  endfacet
  facet normal -0.608798 -0.793326 0
    outer loop
      vertex -12.0506 -15.1506 0
      vertex -11.45 -15.6115 5
      vertex -12.0506 -15.1506 5
    endloop
  endfacet
  facet normal 0 0 1
    outer loop
      vertex -12.0506 -15.1506 5
      vertex -11.45 -15.6115 5
      vertex -10.4271 -11.8938 5
    endloop
  endfacet
  facet normal -0.793331 0.608791 0
    outer loop
      vertex -12.5115 -1.45 0
      vertex -12.0506 -0.84939 5
      vertex -12.0506 -0.84939 0
    endloop
  endfacet
  facet normal -0.793331 0.608791 0
    outer loop
      vertex -12.5115 -1.45 0
      vertex -12.5115 -1.45 5
      vertex -12.0506 -0.84939 5
    endloop
  endfacet
  facet normal 0 0 -1
    outer loop
      vertex -12.5115 -14.55 0
      vertex -10.4271 -11.8938 0
      vertex -12.0506 -15.1506 0
    endloop
  endfacet
  facet normal -0.793326 -0.608798 0
    outer loop
      vertex -12.5115 -14.55 0
      vertex -12.0506 -15.1506 0
      vertex -12.5115 -14.55 5
    endloop
  endfacet
  facet normal -0.793326 -0.608798 0
    outer loop
      vertex -12.5115 -14.55 5
      vertex -12.0506 -15.1506 0
      vertex -12.0506 -15.1506 5
    endloop
  endfacet
  facet normal 0 0 1
    outer loop
      vertex -12.5115 -14.55 5
      vertex -12.0506 -15.1506 5
      vertex -10.4271 -11.8938 5
    endloop
  endfacet
  facet normal 0 0 -1
    outer loop
      vertex -12.8012 -13.8506 0
      vertex -10.4271 -11.8938 0
      vertex -12.5115 -14.55 0
    endloop
  endfacet
  facet normal 0 0 -1
    outer loop
      vertex -12.8012 -13.8506 0
      vertex -10.825 -11.7289 0
      vertex -10.4271 -11.8938 0
    endloop
  endfacet
  facet normal -0.92388 -0.382682 0
    outer loop
      vertex -12.8012 -13.8506 0
      vertex -12.5115 -14.55 0
      vertex -12.8012 -13.8506 5
    endloop
  endfacet
  facet normal 0 0 1
    outer loop
      vertex -12.8012 -13.8506 5
      vertex -10.4271 -11.8938 5
      vertex -10.825 -11.7289 5
    endloop
  endfacet
  facet normal -0.92388 -0.382682 0
    outer loop
      vertex -12.8012 -13.8506 5
      vertex -12.5115 -14.55 0
      vertex -12.5115 -14.55 5
    endloop
  endfacet
  facet normal 0 0 1
    outer loop
      vertex -12.8012 -13.8506 5
      vertex -12.5115 -14.55 5
      vertex -10.4271 -11.8938 5
    endloop
  endfacet
  facet normal -0.923884 0.382673 0
    outer loop
      vertex -12.8012 -2.14942 0
      vertex -12.5115 -1.45 5
      vertex -12.5115 -1.45 0
    endloop
  endfacet
  facet normal -0.923884 0.382673 0
    outer loop
      vertex -12.8012 -2.14942 0
      vertex -12.8012 -2.14942 5
      vertex -12.5115 -1.45 5
    endloop
  endfacet
  facet normal 0 0 -1
    outer loop
      vertex -12.9 -13.1 0
      vertex -10.825 -11.7289 0
      vertex -12.8012 -13.8506 0
    endloop
  endfacet
  facet normal 0 0 -1
    outer loop
      vertex -12.9 -13.1 0
      vertex -11.1667 -11.4667 0
      vertex -10.825 -11.7289 0
    endloop
  endfacet
  facet normal 0 0 -1
    outer loop
      vertex -12.9 -13.1 0
      vertex -11.4289 -11.125 0
      vertex -11.1667 -11.4667 0
    endloop
  endfacet
  facet normal 0 0 -1
    outer loop
      vertex -12.9 -13.1 0
      vertex -11.5938 -10.7271 0
      vertex -11.4289 -11.125 0
    endloop
  endfacet
  facet normal 0 0 -1
    outer loop
      vertex -12.9 -13.1 0
      vertex -11.5938 -9.27295 0
      vertex -11.65 -9.7 0
    endloop
  endfacet
  facet normal 0 0 -1
    outer loop
      vertex -12.9 -13.1 0
      vertex -11.65 -10.3 0
      vertex -11.5938 -10.7271 0
    endloop
  endfacet
  facet normal 0 0 -1
    outer loop
      vertex -12.9 -13.1 0
      vertex -11.65 -9.7 0
      vertex -11.65 -10.3 0
    endloop
  endfacet
  facet normal -0.991448 -0.130502 0
    outer loop
      vertex -12.9 -13.1 0
      vertex -12.8012 -13.8506 0
      vertex -12.9 -13.1 5
    endloop
  endfacet
  facet normal -1 0 0
    outer loop
      vertex -12.9 -13.1 0
      vertex -12.9 -13.1 5
      vertex -12.9 -2.9 5
    endloop
  endfacet
  facet normal 0 0 -1
    outer loop
      vertex -12.9 -13.1 0
      vertex -12.9 -2.9 0
      vertex -11.5938 -9.27295 0
    endloop
  endfacet
  facet normal -1 0 0
    outer loop
      vertex -12.9 -13.1 0
      vertex -12.9 -2.9 5
      vertex -12.9 -2.9 0
    endloop
  endfacet
  facet normal 0 0 1
    outer loop
      vertex -12.9 -13.1 5
      vertex -10.825 -11.7289 5
      vertex -11.1667 -11.4667 5
    endloop
  endfacet
  facet normal 0 0 1
    outer loop
      vertex -12.9 -13.1 5
      vertex -11.1667 -11.4667 5
      vertex -11.4289 -11.125 5
    endloop
  endfacet
  facet normal 0 0 1
    outer loop
      vertex -12.9 -13.1 5
      vertex -11.4289 -11.125 5
      vertex -11.5938 -10.7271 5
    endloop
  endfacet
  facet normal 0 0 1
    outer loop
      vertex -12.9 -13.1 5
      vertex -11.5938 -10.7271 5
      vertex -11.65 -10.3 5
    endloop
  endfacet
  facet normal 0 0 1
    outer loop
      vertex -12.9 -13.1 5
      vertex -11.5938 -9.27295 5
      vertex -12.9 -2.9 5
    endloop
  endfacet
  facet normal 0 0 1
    outer loop
      vertex -12.9 -13.1 5
      vertex -11.65 -10.3 5
      vertex -11.65 -9.7 5
    endloop
  endfacet
  facet normal 0 0 1
    outer loop
      vertex -12.9 -13.1 5
      vertex -11.65 -9.7 5
      vertex -11.5938 -9.27295 5
    endloop
  endfacet
  facet normal -0.991448 -0.130502 0
    outer loop
      vertex -12.9 -13.1 5
      vertex -12.8012 -13.8506 0
      vertex -12.8012 -13.8506 5
    endloop
  endfacet
  facet normal 0 0 1
    outer loop
      vertex -12.9 -13.1 5
      vertex -12.8012 -13.8506 5
      vertex -10.825 -11.7289 5
    endloop
  endfacet
  facet normal 0 0 -1
    outer loop
      vertex -12.9 -2.9 0
      vertex -10 -8.05 0
      vertex -10.4271 -8.10622 0
    endloop
  endfacet
  facet normal 0 0 -1
    outer loop
      vertex -12.9 -2.9 0
      vertex -10 0 0
      vertex -9.57295 -8.10622 0
    endloop
  endfacet
  facet normal 0 0 -1
    outer loop
      vertex -12.9 -2.9 0
      vertex -10.4271 -8.10622 0
      vertex -10.825 -8.27106 0
    endloop
  endfacet
  facet normal 0 0 -1
    outer loop
      vertex -12.9 -2.9 0
      vertex -10.7506 -0.098815 0
      vertex -10 0 0
    endloop
  endfacet
  facet normal 0 0 -1
    outer loop
      vertex -12.9 -2.9 0
      vertex -10.825 -8.27106 0
      vertex -11.1667 -8.53327 0
    endloop
  endfacet
  facet normal 0 0 -1
    outer loop
      vertex -12.9 -2.9 0
      vertex -11.1667 -8.53327 0
      vertex -11.4289 -8.875 0
    endloop
  endfacet
  facet normal 0 0 -1
    outer loop
      vertex -12.9 -2.9 0
      vertex -11.4289 -8.875 0
      vertex -11.5938 -9.27295 0
    endloop
  endfacet
  facet normal 0 0 -1
    outer loop
      vertex -12.9 -2.9 0
      vertex -11.45 -0.388526 0
      vertex -10.7506 -0.098815 0
    endloop
  endfacet
  facet normal 0 0 -1
    outer loop
      vertex -12.9 -2.9 0
      vertex -12.0506 -0.84939 0
      vertex -11.45 -0.388526 0
    endloop
  endfacet
  facet normal 0 0 -1
    outer loop
      vertex -12.9 -2.9 0
      vertex -12.5115 -1.45 0
      vertex -12.0506 -0.84939 0
    endloop
  endfacet
  facet normal 0 0 -1
    outer loop
      vertex -12.9 -2.9 0
      vertex -12.8012 -2.14942 0
      vertex -12.5115 -1.45 0
    endloop
  endfacet
  facet normal -0.991448 0.130506 0
    outer loop
      vertex -12.9 -2.9 0
      vertex -12.8012 -2.14942 5
      vertex -12.8012 -2.14942 0
    endloop
  endfacet
  facet normal -0.991448 0.130506 0
    outer loop
      vertex -12.9 -2.9 0
      vertex -12.9 -2.9 5
      vertex -12.8012 -2.14942 5
    endloop
  endfacet
  facet normal 0 0 -1
    outer loop
      vertex -12.9 -2.9 0
      vertex -9.57295 -8.10622 0
      vertex -10 -8.05 0
    endloop
  endfacet
  facet normal 0 0 1
    outer loop
      vertex -12.9 -2.9 5
      vertex -10 -8.05 5
      vertex -9.57295 -8.10622 5
    endloop
  endfacet
  facet normal 0 0 1
    outer loop
      vertex -12.9 -2.9 5
      vertex -10 0 5
      vertex -10.7506 -0.098815 5
    endloop
  endfacet
  facet normal 0 0 1
    outer loop
      vertex -12.9 -2.9 5
      vertex -10.4271 -8.10622 5
      vertex -10 -8.05 5
    endloop
  endfacet
  facet normal 0 0 1
    outer loop
      vertex -12.9 -2.9 5
      vertex -10.7506 -0.098815 5
      vertex -11.45 -0.388526 5
    endloop
  endfacet
  facet normal 0 0 1
    outer loop
      vertex -12.9 -2.9 5
      vertex -10.825 -8.27106 5
      vertex -10.4271 -8.10622 5
    endloop
  endfacet
  facet normal 0 0 1
    outer loop
      vertex -12.9 -2.9 5
      vertex -11.1667 -8.53327 5
      vertex -10.825 -8.27106 5
    endloop
  endfacet
  facet normal 0 0 1
    outer loop
      vertex -12.9 -2.9 5
      vertex -11.4289 -8.875 5
      vertex -11.1667 -8.53327 5
    endloop
  endfacet
  facet normal 0 0 1
    outer loop
      vertex -12.9 -2.9 5
      vertex -11.45 -0.388526 5
      vertex -12.0506 -0.84939 5
    endloop
  endfacet
  facet normal 0 0 1
    outer loop
      vertex -12.9 -2.9 5
      vertex -11.5938 -9.27295 5
      vertex -11.4289 -8.875 5
    endloop
  endfacet
  facet normal 0 0 1
    outer loop
      vertex -12.9 -2.9 5
      vertex -12.0506 -0.84939 5
      vertex -12.5115 -1.45 5
    endloop
  endfacet
  facet normal 0 0 1
    outer loop
      vertex -12.9 -2.9 5
      vertex -12.5115 -1.45 5
      vertex -12.8012 -2.14942 5
    endloop
  endfacet
  facet normal 0 0 1
    outer loop
      vertex -12.9 -2.9 5
      vertex -9.57295 -8.10622 5
      vertex -10 0 5
    endloop
  endfacet
  facet normal 0 0 -1
    outer loop
      vertex -8.35 -10.3 0
      vertex -8.35 -9.7 0
      vertex 8.35 -9.7 0
    endloop
  endfacet
  facet normal 0 0 -1
    outer loop
      vertex -8.35 -10.3 0
      vertex 8.35 -10.3 0
      vertex 8.40622 -10.7271 0
    endloop
  endfacet
  facet normal 0 0 -1
    outer loop
      vertex -8.35 -10.3 0
      vertex 8.35 -9.7 0
      vertex 8.35 -10.3 0
    endloop
  endfacet
  facet normal 0 0 1
    outer loop
      vertex -8.35 -10.3 5
      vertex 8.35 -10.3 5
      vertex -8.35 -9.7 5
    endloop
  endfacet
  facet normal 0 0 1
    outer loop
      vertex -8.35 -10.3 5
      vertex 8.40622 -10.7271 5
      vertex 8.35 -10.3 5
    endloop
  endfacet
  facet normal 0 0 -1
    outer loop
      vertex -8.35 -9.7 0
      vertex 8.40622 -9.27295 0
      vertex 8.35 -9.7 0
    endloop
  endfacet
  facet normal 0 0 1
    outer loop
      vertex -8.35 -9.7 5
      vertex 8.35 -10.3 5
      vertex 8.35 -9.7 5
    endloop
  endfacet
  facet normal 0 0 1
    outer loop
      vertex -8.35 -9.7 5
      vertex 8.35 -9.7 5
      vertex 8.40622 -9.27295 5
    endloop
  endfacet
  facet normal -0.991443 -0.13054 0
    outer loop
      vertex -8.3895 -10 0
      vertex -8.35 -10.3 0
      vertex -8.3895 -10 5
    endloop
  endfacet
  facet normal 0 0 -1
    outer loop
      vertex -8.3895 -10 0
      vertex -8.35 -9.7 0
      vertex -8.35 -10.3 0
    endloop
  endfacet
  facet normal -0.991443 0.13054 0
    outer loop
      vertex -8.3895 -10 0
      vertex -8.35 -9.7 5
      vertex -8.35 -9.7 0
    endloop
  endfacet
  facet normal -0.991443 0.13054 0
    outer loop
      vertex -8.3895 -10 0
      vertex -8.3895 -10 5
      vertex -8.35 -9.7 5
    endloop
  endfacet
  facet normal -0.991443 -0.13054 0
    outer loop
      vertex -8.3895 -10 5
      vertex -8.35 -10.3 0
      vertex -8.35 -10.3 5
    endloop
  endfacet
  facet normal 0 0 1
    outer loop
      vertex -8.3895 -10 5
      vertex -8.35 -10.3 5
      vertex -8.35 -9.7 5
    endloop
  endfacet
  facet normal 0 0 -1
    outer loop
      vertex -8.40622 -10.7271 0
      vertex -8.35 -10.3 0
      vertex 8.40622 -10.7271 0
    endloop
  endfacet
  facet normal -0.991447 0.130506 0
    outer loop
      vertex -8.40622 -10.7271 0
      vertex -8.35 -10.3 5
      vertex -8.35 -10.3 0
    endloop
  endfacet
  facet normal -0.991447 0.130506 0
    outer loop
      vertex -8.40622 -10.7271 0
      vertex -8.40622 -10.7271 5
      vertex -8.35 -10.3 5
    endloop
  endfacet
  facet normal 0 0 -1
    outer loop
      vertex -8.40622 -10.7271 0
      vertex 8.40622 -10.7271 0
      vertex 8.57106 -11.125 0
    endloop
  endfacet
  facet normal 0 0 1
    outer loop
      vertex -8.40622 -10.7271 5
      vertex 8.40622 -10.7271 5
      vertex -8.35 -10.3 5
    endloop
  endfacet
  facet normal 0 0 1
    outer loop
      vertex -8.40622 -10.7271 5
      vertex 8.57106 -11.125 5
      vertex 8.40622 -10.7271 5
    endloop
  endfacet
  facet normal -0.991446 -0.130521 0
    outer loop
      vertex -8.40622 -9.27295 0
      vertex -8.35 -9.7 0
      vertex -8.40622 -9.27295 5
    endloop
  endfacet
  facet normal 0 0 -1
    outer loop
      vertex -8.40622 -9.27295 0
      vertex 8.40622 -9.27295 0
      vertex -8.35 -9.7 0
    endloop
  endfacet
  facet normal 0 0 -1
    outer loop
      vertex -8.40622 -9.27295 0
      vertex 8.57106 -8.875 0
      vertex 8.40622 -9.27295 0
    endloop
  endfacet
  facet normal -0.991446 -0.130521 0
    outer loop
      vertex -8.40622 -9.27295 5
      vertex -8.35 -9.7 0
      vertex -8.35 -9.7 5
    endloop
  endfacet
  facet normal 0 0 1
    outer loop
      vertex -8.40622 -9.27295 5
      vertex -8.35 -9.7 5
      vertex 8.40622 -9.27295 5
    endloop
  endfacet
  facet normal 0 0 1
    outer loop
      vertex -8.40622 -9.27295 5
      vertex 8.40622 -9.27295 5
      vertex 8.57106 -8.875 5
    endloop
  endfacet
  facet normal 0 0 -1
    outer loop
      vertex -8.57106 -11.125 0
      vertex -8.40622 -10.7271 0
      vertex 8.57106 -11.125 0
    endloop
  endfacet
  facet normal -0.923859 0.382732 0
    outer loop
      vertex -8.57106 -11.125 0
      vertex -8.40622 -10.7271 5
      vertex -8.40622 -10.7271 0
    endloop
  endfacet
  facet normal -0.923859 0.382732 0
    outer loop
      vertex -8.57106 -11.125 0
      vertex -8.57106 -11.125 5
      vertex -8.40622 -10.7271 5
    endloop
  endfacet
  facet normal 0 0 1
    outer loop
      vertex -8.57106 -11.125 5
      vertex 8.57106 -11.125 5
      vertex -8.40622 -10.7271 5
    endloop
  endfacet
  facet normal -0.923876 -0.382691 0
    outer loop
      vertex -8.57106 -8.875 0
      vertex -8.40622 -9.27295 0
      vertex -8.57106 -8.875 5
    endloop
  endfacet
  facet normal 0 0 -1
    outer loop
      vertex -8.57106 -8.875 0
      vertex 8.57106 -8.875 0
      vertex -8.40622 -9.27295 0
    endloop
  endfacet
  facet normal -0.923876 -0.382691 0
    outer loop
      vertex -8.57106 -8.875 5
      vertex -8.40622 -9.27295 0
      vertex -8.40622 -9.27295 5
    endloop
  endfacet
  facet normal 0 0 1
    outer loop
      vertex -8.57106 -8.875 5
      vertex -8.40622 -9.27295 5
      vertex 8.57106 -8.875 5
    endloop
  endfacet
  facet normal -0.793337 0.608782 0
    outer loop
      vertex -8.83327 -11.4667 0
      vertex -8.57106 -11.125 5
      vertex -8.57106 -11.125 0
    endloop
  endfacet
  facet normal -0.793337 0.608782 0
    outer loop
      vertex -8.83327 -11.4667 0
      vertex -8.83327 -11.4667 5
      vertex -8.57106 -11.125 5
    endloop
  endfacet
  facet normal -0.793363 -0.608749 0
    outer loop
      vertex -8.83327 -8.53327 0
      vertex -8.57106 -8.875 0
      vertex -8.83327 -8.53327 5
    endloop
  endfacet
  facet normal -0.793363 -0.608749 0
    outer loop
      vertex -8.83327 -8.53327 5
      vertex -8.57106 -8.875 0
      vertex -8.57106 -8.875 5
    endloop
  endfacet
  facet normal -0.608734 0.793374 0
    outer loop
      vertex -9.175 -11.7289 0
      vertex -9.175 -11.7289 5
      vertex -8.83327 -11.4667 0
    endloop
  endfacet
  facet normal -0.608734 0.793374 0
    outer loop
      vertex -9.175 -11.7289 5
      vertex -8.83327 -11.4667 5
      vertex -8.83327 -11.4667 0
    endloop
  endfacet
  facet normal -0.608749 -0.793363 0
    outer loop
      vertex -9.175 -8.27106 0
      vertex -8.83327 -8.53327 0
      vertex -8.83327 -8.53327 5
    endloop
  endfacet
  facet normal -0.608749 -0.793363 0
    outer loop
      vertex -9.175 -8.27106 0
      vertex -8.83327 -8.53327 5
      vertex -9.175 -8.27106 5
    endloop
  endfacet
  facet normal -0.38281 0.923827 0
    outer loop
      vertex -9.57295 -11.8938 0
      vertex -9.57295 -11.8938 5
      vertex -9.175 -11.7289 0
    endloop
  endfacet
  facet normal -0.38281 0.923827 0
    outer loop
      vertex -9.57295 -11.8938 5
      vertex -9.175 -11.7289 5
      vertex -9.175 -11.7289 0
    endloop
  endfacet
  facet normal -0.382691 -0.923876 0
    outer loop
      vertex -9.57295 -8.10622 0
      vertex -9.175 -8.27106 0
      vertex -9.175 -8.27106 5
    endloop
  endfacet
  facet normal -0.382691 -0.923876 0
    outer loop
      vertex -9.57295 -8.10622 0
      vertex -9.175 -8.27106 5
      vertex -9.57295 -8.10622 5
    endloop
  endfacet
  facet normal -0.130461 0.991454 0
    outer loop
      vertex 10 -11.95 0
      vertex 10 -11.95 5
      vertex 10.4271 -11.8938 0
    endloop
  endfacet
  facet normal 0 0 -1
    outer loop
      vertex 10 -11.95 0
      vertex 10.4271 -11.8938 0
      vertex 15.25 -16 0
    endloop
  endfacet
  facet normal -0.130461 0.991454 0
    outer loop
      vertex 10 -11.95 5
      vertex 10.4271 -11.8938 5
      vertex 10.4271 -11.8938 0
    endloop
  endfacet
  facet normal 0 0 1
    outer loop
      vertex 10 -11.95 5
      vertex 15.25 -16 5
      vertex 10.4271 -11.8938 5
    endloop
  endfacet
  facet normal -0.130506 -0.991447 0
    outer loop
      vertex 10 -8.05 0
      vertex 10.4271 -8.10622 0
      vertex 10.4271 -8.10622 5
    endloop
  endfacet
  facet normal -0.130506 -0.991447 0
    outer loop
      vertex 10 -8.05 0
      vertex 10.4271 -8.10622 5
      vertex 10 -8.05 5
    endloop
  endfacet
  facet normal 0 0 -1
    outer loop
      vertex 10 -8.05 0
      vertex 17.875 0 0
      vertex 10.4271 -8.10622 0
    endloop
  endfacet
  facet normal 0 0 1
    outer loop
      vertex 10 -8.05 5
      vertex 10.4271 -8.10622 5
      vertex 17.875 0 5
    endloop
  endfacet
  facet normal -0.382851 0.92381 0
    outer loop
      vertex 10.4271 -11.8938 0
      vertex 10.4271 -11.8938 5
      vertex 10.825 -11.7289 0
    endloop
  endfacet
  facet normal 0 0 -1
    outer loop
      vertex 10.4271 -11.8938 0
      vertex 10.825 -11.7289 0
      vertex 15.25 -16 0
    endloop
  endfacet
  facet normal -0.382851 0.92381 0
    outer loop
      vertex 10.4271 -11.8938 5
      vertex 10.825 -11.7289 5
      vertex 10.825 -11.7289 0
    endloop
  endfacet
  facet normal 0 0 1
    outer loop
      vertex 10.4271 -11.8938 5
      vertex 15.25 -16 5
      vertex 10.825 -11.7289 5
    endloop
  endfacet
  facet normal -0.382732 -0.923859 0
    outer loop
      vertex 10.4271 -8.10622 0
      vertex 10.825 -8.27106 0
      vertex 10.825 -8.27106 5
    endloop
  endfacet
  facet normal -0.382732 -0.923859 0
    outer loop
      vertex 10.4271 -8.10622 0
      vertex 10.825 -8.27106 5
      vertex 10.4271 -8.10622 5
    endloop
  endfacet
  facet normal 0 0 -1
    outer loop
      vertex 10.4271 -8.10622 0
      vertex 17.875 0 0
      vertex 10.825 -8.27106 0
    endloop
  endfacet
  facet normal 0 0 1
    outer loop
      vertex 10.4271 -8.10622 5
      vertex 10.825 -8.27106 5
      vertex 17.875 0 5
    endloop
  endfacet
  facet normal -0.608768 0.793348 0
    outer loop
      vertex 10.825 -11.7289 0
      vertex 10.825 -11.7289 5
      vertex 11.1667 -11.4667 0
    endloop
  endfacet
  facet normal 0 0 -1
    outer loop
      vertex 10.825 -11.7289 0
      vertex 11.1667 -11.4667 0
      vertex 15.25 -16 0
    endloop
  endfacet
  facet normal -0.608768 0.793348 0
    outer loop
      vertex 10.825 -11.7289 5
      vertex 11.1667 -11.4667 5
      vertex 11.1667 -11.4667 0
    endloop
  endfacet
  facet normal 0 0 1
    outer loop
      vertex 10.825 -11.7289 5
      vertex 15.25 -16 5
      vertex 11.1667 -11.4667 5
    endloop
  endfacet
  facet normal -0.608782 -0.793337 0
    outer loop
      vertex 10.825 -8.27106 0
      vertex 11.1667 -8.53327 0
      vertex 11.1667 -8.53327 5
    endloop
  endfacet
  facet normal -0.608782 -0.793337 0
    outer loop
      vertex 10.825 -8.27106 0
      vertex 11.1667 -8.53327 5
      vertex 10.825 -8.27106 5
    endloop
  endfacet
  facet normal 0 0 -1
    outer loop
      vertex 10.825 -8.27106 0
      vertex 17.875 0 0
      vertex 11.1667 -8.53327 0
    endloop
  endfacet
  facet normal 0 0 1
    outer loop
      vertex 10.825 -8.27106 5
      vertex 11.1667 -8.53327 5
      vertex 17.875 0 5
    endloop
  endfacet
  facet normal -0.793348 0.608768 0
    outer loop
      vertex 11.1667 -11.4667 0
      vertex 11.1667 -11.4667 5
      vertex 11.4289 -11.125 5
    endloop
  endfacet
  facet normal 0 0 -1
    outer loop
      vertex 11.1667 -11.4667 0
      vertex 11.4289 -11.125 0
      vertex 15.25 -16 0
    endloop
  endfacet
  facet normal -0.793348 0.608768 0
    outer loop
      vertex 11.1667 -11.4667 0
      vertex 11.4289 -11.125 5
      vertex 11.4289 -11.125 0
    endloop
  endfacet
  facet normal 0 0 1
    outer loop
      vertex 11.1667 -11.4667 5
      vertex 15.25 -16 5
      vertex 11.4289 -11.125 5
    endloop
  endfacet
  facet normal -0.793374 -0.608734 0
    outer loop
      vertex 11.1667 -8.53327 0
      vertex 11.4289 -8.875 0
      vertex 11.1667 -8.53327 5
    endloop
  endfacet
  facet normal 0 0 -1
    outer loop
      vertex 11.1667 -8.53327 0
      vertex 17.875 0 0
      vertex 11.4289 -8.875 0
    endloop
  endfacet
  facet normal -0.793374 -0.608734 0
    outer loop
      vertex 11.1667 -8.53327 5
      vertex 11.4289 -8.875 0
      vertex 11.4289 -8.875 5
    endloop
  endfacet
  facet normal 0 0 1
    outer loop
      vertex 11.1667 -8.53327 5
      vertex 11.4289 -8.875 5
      vertex 17.875 0 5
    endloop
  endfacet
  facet normal -0.92381 0.382851 0
    outer loop
      vertex 11.4289 -11.125 0
      vertex 11.4289 -11.125 5
      vertex 11.5938 -10.7271 5
    endloop
  endfacet
  facet normal 0 0 -1
    outer loop
      vertex 11.4289 -11.125 0
      vertex 11.5938 -10.7271 0
      vertex 15.25 -16 0
    endloop
  endfacet
  facet normal -0.92381 0.382851 0
    outer loop
      vertex 11.4289 -11.125 0
      vertex 11.5938 -10.7271 5
      vertex 11.5938 -10.7271 0
    endloop
  endfacet
  facet normal 0 0 1
    outer loop
      vertex 11.4289 -11.125 5
      vertex 15.25 -16 5
      vertex 11.5938 -10.7271 5
    endloop
  endfacet
  facet normal -0.923827 -0.38281 0
    outer loop
      vertex 11.4289 -8.875 0
      vertex 11.5938 -9.27295 0
      vertex 11.4289 -8.875 5
    endloop
  endfacet
  facet normal 0 0 -1
    outer loop
      vertex 11.4289 -8.875 0
      vertex 17.875 0 0
      vertex 18.0125 -0.0181022 0
    endloop
  endfacet
  facet normal 0 0 -1
    outer loop
      vertex 11.4289 -8.875 0
      vertex 18.0125 -0.0181022 0
      vertex 11.5938 -9.27295 0
    endloop
  endfacet
  facet normal -0.923827 -0.38281 0
    outer loop
      vertex 11.4289 -8.875 5
      vertex 11.5938 -9.27295 0
      vertex 11.5938 -9.27295 5
    endloop
  endfacet
  facet normal 0 0 1
    outer loop
      vertex 11.4289 -8.875 5
      vertex 11.5938 -9.27295 5
      vertex 18.0125 -0.0181022 5
    endloop
  endfacet
  facet normal 0 0 1
    outer loop
      vertex 11.4289 -8.875 5
      vertex 18.0125 -0.0181022 5
      vertex 17.875 0 5
    endloop
  endfacet
  facet normal -0.991454 0.130461 0
    outer loop
      vertex 11.5938 -10.7271 0
      vertex 11.5938 -10.7271 5
      vertex 11.65 -10.3 5
    endloop
  endfacet
  facet normal 0 0 -1
    outer loop
      vertex 11.5938 -10.7271 0
      vertex 11.65 -10.3 0
      vertex 15.25 -16 0
    endloop
  endfacet
  facet normal -0.991454 0.130461 0
    outer loop
      vertex 11.5938 -10.7271 0
      vertex 11.65 -10.3 5
      vertex 11.65 -10.3 0
    endloop
  endfacet
  facet normal 0 0 1
    outer loop
      vertex 11.5938 -10.7271 5
      vertex 15.25 -16 5
      vertex 11.65 -10.3 5
    endloop
  endfacet
  facet normal -0.991452 -0.130476 0
    outer loop
      vertex 11.5938 -9.27295 0
      vertex 11.65 -9.7 0
      vertex 11.5938 -9.27295 5
    endloop
  endfacet
  facet normal 0 0 -1
    outer loop
      vertex 11.5938 -9.27295 0
      vertex 18.0125 -0.0181022 0
      vertex 18.15 0 0
    endloop
  endfacet
  facet normal 0 0 -1
    outer loop
      vertex 11.5938 -9.27295 0
      vertex 18.15 0 0
      vertex 11.65 -9.7 0
    endloop
  endfacet
  facet normal -0.991452 -0.130476 0
    outer loop
      vertex 11.5938 -9.27295 5
      vertex 11.65 -9.7 0
      vertex 11.65 -9.7 5
    endloop
  endfacet
  facet normal 0 0 1
    outer loop
      vertex 11.5938 -9.27295 5
      vertex 11.65 -9.7 5
      vertex 18.15 0 5
    endloop
  endfacet
  facet normal 0 0 1
    outer loop
      vertex 11.5938 -9.27295 5
      vertex 18.15 0 5
      vertex 18.0125 -0.0181022 5
    endloop
  endfacet
  facet normal -0.991443 0.13054 0
    outer loop
      vertex 11.6105 -10 0
      vertex 11.6105 -10 5
      vertex 11.65 -9.7 5
    endloop
  endfacet
  facet normal -0.991443 -0.13054 0
    outer loop
      vertex 11.6105 -10 0
      vertex 11.65 -10.3 0
      vertex 11.6105 -10 5
    endloop
  endfacet
  facet normal 0 0 -1
    outer loop
      vertex 11.6105 -10 0
      vertex 11.65 -9.7 0
      vertex 11.65 -10.3 0
    endloop
  endfacet
  facet normal -0.991443 0.13054 0
    outer loop
      vertex 11.6105 -10 0
      vertex 11.65 -9.7 5
      vertex 11.65 -9.7 0
    endloop
  endfacet
  facet normal -0.991443 -0.13054 0
    outer loop
      vertex 11.6105 -10 5
      vertex 11.65 -10.3 0
      vertex 11.65 -10.3 5
    endloop
  endfacet
  facet normal 0 0 1
    outer loop
      vertex 11.6105 -10 5
      vertex 11.65 -10.3 5
      vertex 11.65 -9.7 5
    endloop
  endfacet
  facet normal 0 0 -1
    outer loop
      vertex 11.65 -10.3 0
      vertex 11.65 -9.7 0
      vertex 15.25 -16 0
    endloop
  endfacet
  facet normal 0 0 1
    outer loop
      vertex 11.65 -10.3 5
      vertex 15.25 -16 5
      vertex 11.65 -9.7 5
    endloop
  endfacet
  facet normal 0 0 -1
    outer loop
      vertex 11.65 -9.7 0
      vertex 18.15 0 0
      vertex 15.25 -16 0
    endloop
  endfacet
  facet normal 0 0 1
    outer loop
      vertex 11.65 -9.7 5
      vertex 15.25 -16 5
      vertex 18.15 0 5
    endloop
  endfacet
  facet normal 0 0 -1
    outer loop
      vertex 15.25 -16 0
      vertex 15.6385 -38.55 0
      vertex 15.3488 -39.2494 0
    endloop
  endfacet
  facet normal 0 0 -1
    outer loop
      vertex 15.25 -16 0
      vertex 16.0994 -37.9494 0
      vertex 15.6385 -38.55 0
    endloop
  endfacet
  facet normal 0 0 -1
    outer loop
      vertex 15.25 -16 0
      vertex 16.7 -37.4885 0
      vertex 16.0994 -37.9494 0
    endloop
  endfacet
  facet normal 0 0 -1
    outer loop
      vertex 15.25 -16 0
      vertex 17.3994 -37.1988 0
      vertex 16.7 -37.4885 0
    endloop
  endfacet
  facet normal 0 0 -1
    outer loop
      vertex 15.25 -16 0
      vertex 18.15 -37.1 0
      vertex 17.3994 -37.1988 0
    endloop
  endfacet
  facet normal 0 0 -1
    outer loop
      vertex 15.25 -16 0
      vertex 18.15 0 0
      vertex 32.85 0 0
    endloop
  endfacet
  facet normal 0 0 -1
    outer loop
      vertex 15.25 -16 0
      vertex 32.85 -37.1 0
      vertex 18.15 -37.1 0
    endloop
  endfacet
  facet normal 0 0 -1
    outer loop
      vertex 15.25 -16 0
      vertex 32.85 0 0
      vertex 35.75 -2.9 0
    endloop
  endfacet
  facet normal 0 0 -1
    outer loop
      vertex 15.25 -16 0
      vertex 35.75 -2.9 0
      vertex 32.85 -37.1 0
    endloop
  endfacet
  facet normal 0 0 1
    outer loop
      vertex 15.25 -16 5
      vertex 32.85 0 5
      vertex 18.15 0 5
    endloop
  endfacet
  facet normal 0 0 1
    outer loop
      vertex 15.25 -16 5
      vertex 35.75 -2.9 5
      vertex 32.85 0 5
    endloop
  endfacet
  facet normal 0 0 1
    outer loop
      vertex 15.25 -16 5
      vertex 35.75 -44.2 5
      vertex 35.75 -2.9 5
    endloop
  endfacet
  facet normal -0.991448 0.130502 0
    outer loop
      vertex 15.25 -40 -23.75
      vertex 15.25 -40 0
      vertex 15.3488 -39.2494 0
    endloop
  endfacet
  facet normal 0 0 -1
    outer loop
      vertex 15.25 -40 -23.75
      vertex 15.3488 -39.2494 -23.75
      vertex 15.6385 -38.55 -23.75
    endloop
  endfacet
  facet normal -0.991448 0.130502 0
    outer loop
      vertex 15.25 -40 -23.75
      vertex 15.3488 -39.2494 0
      vertex 15.3488 -39.2494 -23.75
    endloop
  endfacet
  facet normal 0 0 -1
    outer loop
      vertex 15.25 -40 -23.75
      vertex 15.6385 -38.55 -23.75
      vertex 16.0994 -37.9494 -23.75
    endloop
  endfacet
  facet normal 0 0 -1
    outer loop
      vertex 15.25 -40 -23.75
      vertex 16.0994 -37.9494 -23.75
      vertex 16.7 -37.4885 -23.75
    endloop
  endfacet
  facet normal 0 0 -1
    outer loop
      vertex 15.25 -40 -23.75
      vertex 16.7 -37.4885 -23.75
      vertex 17.3994 -37.1988 -23.75
    endloop
  endfacet
  facet normal 0 0 -1
    outer loop
      vertex 15.25 -40 -23.75
      vertex 17.3994 -37.1988 -23.75
      vertex 18.15 -37.1 -23.75
    endloop
  endfacet
  facet normal 0 0 -1
    outer loop
      vertex 15.25 -40 0
      vertex 15.25 -16 0
      vertex 15.3488 -39.2494 0
    endloop
  endfacet
  facet normal -1 0 0
    outer loop
      vertex 15.25 -40 0
      vertex 15.25 -16 5
      vertex 15.25 -16 0
    endloop
  endfacet
  facet normal 0 0 -1
    outer loop
      vertex 15.25 -44.2 -23.75
      vertex 15.25 -40 -23.75
      vertex 18.15 -37.1 -23.75
    endloop
  endfacet
  facet normal -1 0 0
    outer loop
      vertex 15.25 -44.2 -23.75
      vertex 15.25 -40 0
      vertex 15.25 -40 -23.75
    endloop
  endfacet
  facet normal -1 0 0
    outer loop
      vertex 15.25 -44.2 -23.75
      vertex 15.25 -44.2 5
      vertex 15.25 -40 0
    endloop
  endfacet
  facet normal -0.991448 -0.130502 0
    outer loop
      vertex 15.25 -44.2 -23.75
      vertex 15.3488 -44.9506 -23.75
      vertex 15.25 -44.2 5
    endloop
  endfacet
  facet normal 0 0 -1
    outer loop
      vertex 15.25 -44.2 -23.75
      vertex 15.6385 -45.65 -23.75
      vertex 15.3488 -44.9506 -23.75
    endloop
  endfacet
  facet normal 0 0 -1
    outer loop
      vertex 15.25 -44.2 -23.75
      vertex 16.0994 -46.2506 -23.75
      vertex 15.6385 -45.65 -23.75
    endloop
  endfacet
  facet normal 0 0 -1
    outer loop
      vertex 15.25 -44.2 -23.75
      vertex 16.7 -46.7115 -23.75
      vertex 16.0994 -46.2506 -23.75
    endloop
  endfacet
  facet normal 0 0 -1
    outer loop
      vertex 15.25 -44.2 -23.75
      vertex 17.3994 -47.0012 -23.75
      vertex 16.7 -46.7115 -23.75
    endloop
  endfacet
  facet normal 0 0 -1
    outer loop
      vertex 15.25 -44.2 -23.75
      vertex 18.15 -37.1 -23.75
      vertex 18.15 -47.1 -23.75
    endloop
  endfacet
  facet normal 0 0 -1
    outer loop
      vertex 15.25 -44.2 -23.75
      vertex 18.15 -47.1 -23.75
      vertex 17.3994 -47.0012 -23.75
    endloop
  endfacet
  facet normal -1 0 0
    outer loop
      vertex 15.25 -44.2 5
      vertex 15.25 -16 5
      vertex 15.25 -40 0
    endloop
  endfacet
  facet normal -0.991448 -0.130502 0
    outer loop
      vertex 15.25 -44.2 5
      vertex 15.3488 -44.9506 -23.75
      vertex 15.3488 -44.9506 5
    endloop
  endfacet
  facet normal 0 0 1
    outer loop
      vertex 15.25 -44.2 5
      vertex 15.3488 -44.9506 5
      vertex 15.6385 -45.65 5
    endloop
  endfacet
  facet normal 0 0 1
    outer loop
      vertex 15.25 -44.2 5
      vertex 15.6385 -45.65 5
      vertex 16.0994 -46.2506 5
    endloop
  endfacet
  facet normal 0 0 1
    outer loop
      vertex 15.25 -44.2 5
      vertex 16.0994 -46.2506 5
      vertex 16.7 -46.7115 5
    endloop
  endfacet
  facet normal 0 0 1
    outer loop
      vertex 15.25 -44.2 5
      vertex 16.7 -46.7115 5
      vertex 17.3994 -47.0012 5
    endloop
  endfacet
  facet normal 0 0 1
    outer loop
      vertex 15.25 -44.2 5
      vertex 17.3994 -47.0012 5
      vertex 18.15 -47.1 5
    endloop
  endfacet
  facet normal 0 0 1
    outer loop
      vertex 15.25 -44.2 5
      vertex 18.15 -47.1 5
      vertex 32.85 -47.1 5
    endloop
  endfacet
  facet normal 0 0 1
    outer loop
      vertex 15.25 -44.2 5
      vertex 32.85 -47.1 5
      vertex 35.75 -44.2 5
    endloop
  endfacet
  facet normal 0 0 1
    outer loop
      vertex 15.25 -44.2 5
      vertex 35.75 -44.2 5
      vertex 15.25 -16 5
    endloop
  endfacet
  facet normal -0.92388 0.382682 0
    outer loop
      vertex 15.3488 -39.2494 -23.75
      vertex 15.3488 -39.2494 0
      vertex 15.6385 -38.55 0
    endloop
  endfacet
  facet normal -0.92388 0.382682 0
    outer loop
      vertex 15.3488 -39.2494 -23.75
      vertex 15.6385 -38.55 0
      vertex 15.6385 -38.55 -23.75
    endloop
  endfacet
  facet normal -0.92388 -0.382682 0
    outer loop
      vertex 15.3488 -44.9506 -23.75
      vertex 15.6385 -45.65 -23.75
      vertex 15.3488 -44.9506 5
    endloop
  endfacet
  facet normal -0.92388 -0.382682 0
    outer loop
      vertex 15.3488 -44.9506 5
      vertex 15.6385 -45.65 -23.75
      vertex 15.6385 -45.65 5
    endloop
  endfacet
  facet normal -0.793326 0.608798 0
    outer loop
      vertex 15.6385 -38.55 -23.75
      vertex 15.6385 -38.55 0
      vertex 16.0994 -37.9494 0
    endloop
  endfacet
  facet normal -0.793326 0.608798 0
    outer loop
      vertex 15.6385 -38.55 -23.75
      vertex 16.0994 -37.9494 0
      vertex 16.0994 -37.9494 -23.75
    endloop
  endfacet
  facet normal -0.793326 -0.608798 0
    outer loop
      vertex 15.6385 -45.65 -23.75
      vertex 16.0994 -46.2506 -23.75
      vertex 15.6385 -45.65 5
    endloop
  endfacet
  facet normal -0.793326 -0.608798 0
    outer loop
      vertex 15.6385 -45.65 5
      vertex 16.0994 -46.2506 -23.75
      vertex 16.0994 -46.2506 5
    endloop
  endfacet
  facet normal -0.608798 0.793326 0
    outer loop
      vertex 16.0994 -37.9494 -23.75
      vertex 16.0994 -37.9494 0
      vertex 16.7 -37.4885 -23.75
    endloop
  endfacet
  facet normal -0.608798 0.793326 0
    outer loop
      vertex 16.0994 -37.9494 0
      vertex 16.7 -37.4885 0
      vertex 16.7 -37.4885 -23.75
    endloop
  endfacet
  facet normal -0.608798 -0.793326 0
    outer loop
      vertex 16.0994 -46.2506 -23.75
      vertex 16.7 -46.7115 -23.75
      vertex 16.7 -46.7115 5
    endloop
  endfacet
  facet normal -0.608798 -0.793326 0
    outer loop
      vertex 16.0994 -46.2506 -23.75
      vertex 16.7 -46.7115 5
      vertex 16.0994 -46.2506 5
    endloop
  endfacet
  facet normal -0.382682 0.92388 0
    outer loop
      vertex 16.7 -37.4885 -23.75
      vertex 16.7 -37.4885 0
      vertex 17.3994 -37.1988 -23.75
    endloop
  endfacet
  facet normal -0.382682 0.92388 0
    outer loop
      vertex 16.7 -37.4885 0
      vertex 17.3994 -37.1988 0
      vertex 17.3994 -37.1988 -23.75
    endloop
  endfacet
  facet normal -0.382682 -0.92388 0
    outer loop
      vertex 16.7 -46.7115 -23.75
      vertex 17.3994 -47.0012 -23.75
      vertex 17.3994 -47.0012 5
    endloop
  endfacet
  facet normal -0.382682 -0.92388 0
    outer loop
      vertex 16.7 -46.7115 -23.75
      vertex 17.3994 -47.0012 5
      vertex 16.7 -46.7115 5
    endloop
  endfacet
  facet normal -0.130502 0.991448 0
    outer loop
      vertex 17.3994 -37.1988 -23.75
      vertex 17.3994 -37.1988 0
      vertex 18.15 -37.1 -23.75
    endloop
  endfacet
  facet normal -0.130502 0.991448 0
    outer loop
      vertex 17.3994 -37.1988 0
      vertex 18.15 -37.1 0
      vertex 18.15 -37.1 -23.75
    endloop
  endfacet
  facet normal -0.130502 -0.991448 0
    outer loop
      vertex 17.3994 -47.0012 -23.75
      vertex 18.15 -47.1 -23.75
      vertex 18.15 -47.1 5
    endloop
  endfacet
  facet normal -0.130502 -0.991448 0
    outer loop
      vertex 17.3994 -47.0012 -23.75
      vertex 18.15 -47.1 5
      vertex 17.3994 -47.0012 5
    endloop
  endfacet
  facet normal 0.130526 0.991445 0
    outer loop
      vertex 17.875 0 0
      vertex 17.875 0 5
      vertex 18.0125 -0.0181022 0
    endloop
  endfacet
  facet normal 0.130526 0.991445 0
    outer loop
      vertex 17.875 0 5
      vertex 18.0125 -0.0181022 5
      vertex 18.0125 -0.0181022 0
    endloop
  endfacet
  facet normal -0.130526 0.991445 0
    outer loop
      vertex 18.0125 -0.0181022 0
      vertex 18.0125 -0.0181022 5
      vertex 18.15 0 0
    endloop
  endfacet
  facet normal -0.130526 0.991445 0
    outer loop
      vertex 18.0125 -0.0181022 5
      vertex 18.15 0 5
      vertex 18.15 0 0
    endloop
  endfacet
  facet normal 0 1 0
    outer loop
      vertex 18.15 -37.1 -23.75
      vertex 18.15 -37.1 0
      vertex 18.7 -37.1 -13
    endloop
  endfacet
  facet normal 0 1 0
    outer loop
      vertex 18.15 -37.1 -23.75
      vertex 18.7 -37.1 -13
      vertex 18.9147 -37.1 -14.6306
    endloop
  endfacet
  facet normal 0 1 0
    outer loop
      vertex 18.15 -37.1 -23.75
      vertex 18.9147 -37.1 -14.6306
      vertex 19.544 -37.1 -16.15
    endloop
  endfacet
  facet normal 0 1 0
    outer loop
      vertex 18.15 -37.1 -23.75
      vertex 19.544 -37.1 -16.15
      vertex 20.5452 -37.1 -17.4548
    endloop
  endfacet
  facet normal 0 1 0
    outer loop
      vertex 18.15 -37.1 -23.75
      vertex 20.5452 -37.1 -17.4548
      vertex 21.85 -37.1 -18.456
    endloop
  endfacet
  facet normal 0 1 0
    outer loop
      vertex 18.15 -37.1 -23.75
      vertex 21.85 -37.1 -18.456
      vertex 23.3694 -37.1 -19.0853
    endloop
  endfacet
  facet normal 0 1 0
    outer loop
      vertex 18.15 -37.1 -23.75
      vertex 23.3694 -37.1 -19.0853
      vertex 25 -37.1 -19.3
    endloop
  endfacet
  facet normal 0 1 0
    outer loop
      vertex 18.15 -37.1 -23.75
      vertex 25 -37.1 -19.3
      vertex 32.85 -37.1 -23.75
    endloop
  endfacet
  facet normal 0 1 0
    outer loop
      vertex 18.15 -37.1 0
      vertex 18.9147 -37.1 -11.3694
      vertex 18.7 -37.1 -13
    endloop
  endfacet
  facet normal 0 1 0
    outer loop
      vertex 18.15 -37.1 0
      vertex 19.544 -37.1 -9.85
      vertex 18.9147 -37.1 -11.3694
    endloop
  endfacet
  facet normal 0 1 0
    outer loop
      vertex 18.15 -37.1 0
      vertex 20.5452 -37.1 -8.54523
      vertex 19.544 -37.1 -9.85
    endloop
  endfacet
  facet normal 0 1 0
    outer loop
      vertex 18.15 -37.1 0
      vertex 21.85 -37.1 -7.54404
      vertex 20.5452 -37.1 -8.54523
    endloop
  endfacet
  facet normal 0 1 0
    outer loop
      vertex 18.15 -37.1 0
      vertex 23.3694 -37.1 -6.91467
      vertex 21.85 -37.1 -7.54404
    endloop
  endfacet
  facet normal 0 1 0
    outer loop
      vertex 18.15 -37.1 0
      vertex 25 -37.1 -6.7
      vertex 23.3694 -37.1 -6.91467
    endloop
  endfacet
  facet normal 0 1 0
    outer loop
      vertex 18.15 -37.1 0
      vertex 32.85 -37.1 0
      vertex 25 -37.1 -6.7
    endloop
  endfacet
  facet normal 0 0 -1
    outer loop
      vertex 18.15 -47.1 -23.75
      vertex 18.15 -37.1 -23.75
      vertex 32.85 -37.1 -23.75
    endloop
  endfacet
  facet normal 0 -1 0
    outer loop
      vertex 18.15 -47.1 -23.75
      vertex 18.7 -47.1 -13
      vertex 18.15 -47.1 5
    endloop
  endfacet
  facet normal 0 -1 0
    outer loop
      vertex 18.15 -47.1 -23.75
      vertex 18.9147 -47.1 -14.6306
      vertex 18.7 -47.1 -13
    endloop
  endfacet
  facet normal 0 -1 0
    outer loop
      vertex 18.15 -47.1 -23.75
      vertex 19.544 -47.1 -16.15
      vertex 18.9147 -47.1 -14.6306
    endloop
  endfacet
  facet normal 0 -1 0
    outer loop
      vertex 18.15 -47.1 -23.75
      vertex 20.5452 -47.1 -17.4548
      vertex 19.544 -47.1 -16.15
    endloop
  endfacet
  facet normal 0 -1 0
    outer loop
      vertex 18.15 -47.1 -23.75
      vertex 21.85 -47.1 -18.456
      vertex 20.5452 -47.1 -17.4548
    endloop
  endfacet
  facet normal 0 -1 0
    outer loop
      vertex 18.15 -47.1 -23.75
      vertex 23.3694 -47.1 -19.0853
      vertex 21.85 -47.1 -18.456
    endloop
  endfacet
  facet normal 0 -1 0
    outer loop
      vertex 18.15 -47.1 -23.75
      vertex 25 -47.1 -19.3
      vertex 23.3694 -47.1 -19.0853
    endloop
  endfacet
  facet normal 0 0 -1
    outer loop
      vertex 18.15 -47.1 -23.75
      vertex 32.85 -37.1 -23.75
      vertex 32.85 -47.1 -23.75
    endloop
  endfacet
  facet normal 0 -1 0
    outer loop
      vertex 18.15 -47.1 -23.75
      vertex 32.85 -47.1 -23.75
      vertex 25 -47.1 -19.3
    endloop
  endfacet
  facet normal 0 -1 0
    outer loop
      vertex 18.15 -47.1 5
      vertex 18.7 -47.1 -13
      vertex 18.9147 -47.1 -11.3694
    endloop
  endfacet
  facet normal 0 -1 0
    outer loop
      vertex 18.15 -47.1 5
      vertex 18.9147 -47.1 -11.3694
      vertex 19.544 -47.1 -9.85
    endloop
  endfacet
  facet normal 0 -1 0
    outer loop
      vertex 18.15 -47.1 5
      vertex 19.544 -47.1 -9.85
      vertex 20.5452 -47.1 -8.54523
    endloop
  endfacet
  facet normal 0 -1 0
    outer loop
      vertex 18.15 -47.1 5
      vertex 20.5452 -47.1 -8.54523
      vertex 21.85 -47.1 -7.54404
    endloop
  endfacet
  facet normal 0 -1 0
    outer loop
      vertex 18.15 -47.1 5
      vertex 21.85 -47.1 -7.54404
      vertex 23.3694 -47.1 -6.91467
    endloop
  endfacet
  facet normal 0 -1 0
    outer loop
      vertex 18.15 -47.1 5
      vertex 23.3694 -47.1 -6.91467
      vertex 25 -47.1 -6.7
    endloop
  endfacet
  facet normal 0 -1 0
    outer loop
      vertex 18.15 -47.1 5
      vertex 25 -47.1 -6.7
      vertex 32.85 -47.1 5
    endloop
  endfacet
  facet normal 0 1 0
    outer loop
      vertex 18.15 0 0
      vertex 18.15 0 5
      vertex 32.85 0 0
    endloop
  endfacet
  facet normal 0 1 0
    outer loop
      vertex 18.15 0 5
      vertex 32.85 0 5
      vertex 32.85 0 0
    endloop
  endfacet
  facet normal 0.991443 0 -0.130543
    outer loop
      vertex 18.7 -37.1 -13
      vertex 18.9147 -37.1 -11.3694
      vertex 18.9147 -47.1 -11.3694
    endloop
  endfacet
  facet normal 0.991443 0 -0.130543
    outer loop
      vertex 18.7 -47.1 -13
      vertex 18.7 -37.1 -13
      vertex 18.9147 -47.1 -11.3694
    endloop
  endfacet
  facet normal 0.991443 0 0.130543
    outer loop
      vertex 18.7 -47.1 -13
      vertex 18.9147 -37.1 -14.6306
      vertex 18.7 -37.1 -13
    endloop
  endfacet
  facet normal 0.991443 0 0.130543
    outer loop
      vertex 18.7 -47.1 -13
      vertex 18.9147 -47.1 -14.6306
      vertex 18.9147 -37.1 -14.6306
    endloop
  endfacet
  facet normal 0.923892 0 -0.382654
    outer loop
      vertex 18.9147 -37.1 -11.3694
      vertex 19.544 -37.1 -9.85
      vertex 19.544 -47.1 -9.85
    endloop
  endfacet
  facet normal 0.923892 0 -0.382654
    outer loop
      vertex 18.9147 -47.1 -11.3694
      vertex 18.9147 -37.1 -11.3694
      vertex 19.544 -47.1 -9.85
    endloop
  endfacet
  facet normal 0.923892 0 0.382654
    outer loop
      vertex 18.9147 -47.1 -14.6306
      vertex 19.544 -37.1 -16.15
      vertex 18.9147 -37.1 -14.6306
    endloop
  endfacet
  facet normal 0.923892 0 0.382654
    outer loop
      vertex 18.9147 -47.1 -14.6306
      vertex 19.544 -47.1 -16.15
      vertex 19.544 -37.1 -16.15
    endloop
  endfacet
  facet normal 0.793349 0 -0.608767
    outer loop
      vertex 19.544 -37.1 -9.85
      vertex 20.5452 -37.1 -8.54523
      vertex 20.5452 -47.1 -8.54523
    endloop
  endfacet
  facet normal 0.793356 0 0.608758
    outer loop
      vertex 19.544 -47.1 -16.15
      vertex 20.5452 -37.1 -17.4548
      vertex 19.544 -37.1 -16.15
    endloop
  endfacet
  facet normal 0.793356 0 0.608758
    outer loop
      vertex 19.544 -47.1 -16.15
      vertex 20.5452 -47.1 -17.4548
      vertex 20.5452 -37.1 -17.4548
    endloop
  endfacet
  facet normal 0.793349 0 -0.608767
    outer loop
      vertex 19.544 -47.1 -9.85
      vertex 19.544 -37.1 -9.85
      vertex 20.5452 -47.1 -8.54523
    endloop
  endfacet
  facet normal 0.608758 0 0.793356
    outer loop
      vertex 20.5452 -37.1 -17.4548
      vertex 21.85 -47.1 -18.456
      vertex 21.85 -37.1 -18.456
    endloop
  endfacet
  facet normal 0.608758 0 0.793356
    outer loop
      vertex 20.5452 -47.1 -17.4548
      vertex 21.85 -47.1 -18.456
      vertex 20.5452 -37.1 -17.4548
    endloop
  endfacet
  facet normal 0.608754 0 -0.793359
    outer loop
      vertex 20.5452 -47.1 -8.54523
      vertex 20.5452 -37.1 -8.54523
      vertex 21.85 -37.1 -7.54404
    endloop
  endfacet
  facet normal 0.608754 0 -0.793359
    outer loop
      vertex 20.5452 -47.1 -8.54523
      vertex 21.85 -37.1 -7.54404
      vertex 21.85 -47.1 -7.54404
    endloop
  endfacet
  facet normal 0.382654 0 0.923892
    outer loop
      vertex 21.85 -37.1 -18.456
      vertex 23.3694 -47.1 -19.0853
      vertex 23.3694 -37.1 -19.0853
    endloop
  endfacet
  facet normal 0.382654 0 0.923892
    outer loop
      vertex 21.85 -47.1 -18.456
      vertex 23.3694 -47.1 -19.0853
      vertex 21.85 -37.1 -18.456
    endloop
  endfacet
  facet normal 0.382691 0 -0.923877
    outer loop
      vertex 21.85 -47.1 -7.54404
      vertex 21.85 -37.1 -7.54404
      vertex 23.3694 -37.1 -6.91467
    endloop
  endfacet
  facet normal 0.382691 0 -0.923877
    outer loop
      vertex 21.85 -47.1 -7.54404
      vertex 23.3694 -37.1 -6.91467
      vertex 23.3694 -47.1 -6.91467
    endloop
  endfacet
  facet normal 0.130543 0 0.991443
    outer loop
      vertex 23.3694 -37.1 -19.0853
      vertex 25 -47.1 -19.3
      vertex 25 -37.1 -19.3
    endloop
  endfacet
  facet normal 0.130543 0 0.991443
    outer loop
      vertex 23.3694 -47.1 -19.0853
      vertex 25 -47.1 -19.3
      vertex 23.3694 -37.1 -19.0853
    endloop
  endfacet
  facet normal 0.130525 0 -0.991445
    outer loop
      vertex 23.3694 -47.1 -6.91467
      vertex 23.3694 -37.1 -6.91467
      vertex 25 -37.1 -6.7
    endloop
  endfacet
  facet normal 0.130525 0 -0.991445
    outer loop
      vertex 23.3694 -47.1 -6.91467
      vertex 25 -37.1 -6.7
      vertex 25 -47.1 -6.7
    endloop
  endfacet
  facet normal 0 1 0
    outer loop
      vertex 25 -37.1 -19.3
      vertex 26.6306 -37.1 -19.0853
      vertex 32.85 -37.1 -23.75
    endloop
  endfacet
  facet normal -0.130543 0 0.991443
    outer loop
      vertex 25 -37.1 -19.3
      vertex 26.6306 -47.1 -19.0853
      vertex 26.6306 -37.1 -19.0853
    endloop
  endfacet
  facet normal 0 1 0
    outer loop
      vertex 25 -37.1 -6.7
      vertex 32.85 -37.1 0
      vertex 26.6306 -37.1 -6.91467
    endloop
  endfacet
  facet normal -0.130543 0 0.991443
    outer loop
      vertex 25 -47.1 -19.3
      vertex 26.6306 -47.1 -19.0853
      vertex 25 -37.1 -19.3
    endloop
  endfacet
  facet normal 0 -1 0
    outer loop
      vertex 25 -47.1 -19.3
      vertex 32.85 -47.1 -23.75
      vertex 26.6306 -47.1 -19.0853
    endloop
  endfacet
  facet normal -0.130525 0 -0.991445
    outer loop
      vertex 25 -47.1 -6.7
      vertex 25 -37.1 -6.7
      vertex 26.6306 -37.1 -6.91467
    endloop
  endfacet
  facet normal -0.130525 0 -0.991445
    outer loop
      vertex 25 -47.1 -6.7
      vertex 26.6306 -37.1 -6.91467
      vertex 26.6306 -47.1 -6.91467
    endloop
  endfacet
  facet normal 0 -1 0
    outer loop
      vertex 25 -47.1 -6.7
      vertex 26.6306 -47.1 -6.91467
      vertex 32.85 -47.1 5
    endloop
  endfacet
  facet normal 0 1 0
    outer loop
      vertex 26.6306 -37.1 -19.0853
      vertex 28.15 -37.1 -18.456
      vertex 32.85 -37.1 -23.75
    endloop
  endfacet
  facet normal -0.382654 0 0.923892
    outer loop
      vertex 26.6306 -37.1 -19.0853
      vertex 28.15 -47.1 -18.456
      vertex 28.15 -37.1 -18.456
    endloop
  endfacet
  facet normal 0 1 0
    outer loop
      vertex 26.6306 -37.1 -6.91467
      vertex 32.85 -37.1 0
      vertex 28.15 -37.1 -7.54404
    endloop
  endfacet
  facet normal -0.382654 0 0.923892
    outer loop
      vertex 26.6306 -47.1 -19.0853
      vertex 28.15 -47.1 -18.456
      vertex 26.6306 -37.1 -19.0853
    endloop
  endfacet
  facet normal 0 -1 0
    outer loop
      vertex 26.6306 -47.1 -19.0853
      vertex 32.85 -47.1 -23.75
      vertex 28.15 -47.1 -18.456
    endloop
  endfacet
  facet normal -0.382691 0 -0.923877
    outer loop
      vertex 26.6306 -47.1 -6.91467
      vertex 26.6306 -37.1 -6.91467
      vertex 28.15 -37.1 -7.54404
    endloop
  endfacet
  facet normal -0.382691 0 -0.923877
    outer loop
      vertex 26.6306 -47.1 -6.91467
      vertex 28.15 -37.1 -7.54404
      vertex 28.15 -47.1 -7.54404
    endloop
  endfacet
  facet normal 0 -1 0
    outer loop
      vertex 26.6306 -47.1 -6.91467
      vertex 28.15 -47.1 -7.54404
      vertex 32.85 -47.1 5
    endloop
  endfacet
  facet normal 0 1 0
    outer loop
      vertex 28.15 -37.1 -18.456
      vertex 29.4548 -37.1 -17.4548
      vertex 32.85 -37.1 -23.75
    endloop
  endfacet
  facet normal -0.608758 0 0.793356
    outer loop
      vertex 28.15 -37.1 -18.456
      vertex 29.4548 -47.1 -17.4548
      vertex 29.4548 -37.1 -17.4548
    endloop
  endfacet
  facet normal 0 1 0
    outer loop
      vertex 28.15 -37.1 -7.54404
      vertex 32.85 -37.1 0
      vertex 29.4548 -37.1 -8.54523
    endloop
  endfacet
  facet normal -0.608758 0 0.793356
    outer loop
      vertex 28.15 -47.1 -18.456
      vertex 29.4548 -47.1 -17.4548
      vertex 28.15 -37.1 -18.456
    endloop
  endfacet
  facet normal 0 -1 0
    outer loop
      vertex 28.15 -47.1 -18.456
      vertex 32.85 -47.1 -23.75
      vertex 29.4548 -47.1 -17.4548
    endloop
  endfacet
  facet normal -0.608754 0 -0.793359
    outer loop
      vertex 28.15 -47.1 -7.54404
      vertex 28.15 -37.1 -7.54404
      vertex 29.4548 -37.1 -8.54523
    endloop
  endfacet
  facet normal -0.608754 0 -0.793359
    outer loop
      vertex 28.15 -47.1 -7.54404
      vertex 29.4548 -37.1 -8.54523
      vertex 29.4548 -47.1 -8.54523
    endloop
  endfacet
  facet normal 0 -1 0
    outer loop
      vertex 28.15 -47.1 -7.54404
      vertex 29.4548 -47.1 -8.54523
      vertex 32.85 -47.1 5
    endloop
  endfacet
  facet normal 0 1 0
    outer loop
      vertex 29.4548 -37.1 -17.4548
      vertex 30.456 -37.1 -16.15
      vertex 32.85 -37.1 -23.75
    endloop
  endfacet
  facet normal -0.793349 0 -0.608767
    outer loop
      vertex 29.4548 -37.1 -8.54523
      vertex 30.456 -37.1 -9.85
      vertex 30.456 -47.1 -9.85
    endloop
  endfacet
  facet normal 0 1 0
    outer loop
      vertex 29.4548 -37.1 -8.54523
      vertex 32.85 -37.1 0
      vertex 30.456 -37.1 -9.85
    endloop
  endfacet
  facet normal -0.793356 0 0.608758
    outer loop
      vertex 29.4548 -47.1 -17.4548
      vertex 30.456 -37.1 -16.15
      vertex 29.4548 -37.1 -17.4548
    endloop
  endfacet
  facet normal -0.793356 0 0.608758
    outer loop
      vertex 29.4548 -47.1 -17.4548
      vertex 30.456 -47.1 -16.15
      vertex 30.456 -37.1 -16.15
    endloop
  endfacet
  facet normal 0 -1 0
    outer loop
      vertex 29.4548 -47.1 -17.4548
      vertex 32.85 -47.1 -23.75
      vertex 30.456 -47.1 -16.15
    endloop
  endfacet
  facet normal -0.793349 0 -0.608767
    outer loop
      vertex 29.4548 -47.1 -8.54523
      vertex 29.4548 -37.1 -8.54523
      vertex 30.456 -47.1 -9.85
    endloop
  endfacet
  facet normal 0 -1 0
    outer loop
      vertex 29.4548 -47.1 -8.54523
      vertex 30.456 -47.1 -9.85
      vertex 32.85 -47.1 5
    endloop
  endfacet
  facet normal 0 1 0
    outer loop
      vertex 30.456 -37.1 -16.15
      vertex 31.0853 -37.1 -14.6306
      vertex 32.85 -37.1 -23.75
    endloop
  endfacet
  facet normal -0.923892 0 -0.382654
    outer loop
      vertex 30.456 -37.1 -9.85
      vertex 31.0853 -37.1 -11.3694
      vertex 31.0853 -47.1 -11.3694
    endloop
  endfacet
  facet normal 0 1 0
    outer loop
      vertex 30.456 -37.1 -9.85
      vertex 32.85 -37.1 0
      vertex 31.0853 -37.1 -11.3694
    endloop
  endfacet
  facet normal -0.923892 0 0.382654
    outer loop
      vertex 30.456 -47.1 -16.15
      vertex 31.0853 -37.1 -14.6306
      vertex 30.456 -37.1 -16.15
    endloop
  endfacet
  facet normal -0.923892 0 0.382654
    outer loop
      vertex 30.456 -47.1 -16.15
      vertex 31.0853 -47.1 -14.6306
      vertex 31.0853 -37.1 -14.6306
    endloop
  endfacet
  facet normal 0 -1 0
    outer loop
      vertex 30.456 -47.1 -16.15
      vertex 32.85 -47.1 -23.75
      vertex 31.0853 -47.1 -14.6306
    endloop
  endfacet
  facet normal -0.923892 0 -0.382654
    outer loop
      vertex 30.456 -47.1 -9.85
      vertex 30.456 -37.1 -9.85
      vertex 31.0853 -47.1 -11.3694
    endloop
  endfacet
  facet normal 0 -1 0
    outer loop
      vertex 30.456 -47.1 -9.85
      vertex 31.0853 -47.1 -11.3694
      vertex 32.85 -47.1 5
    endloop
  endfacet
  facet normal -0.991443 0 -0.130543
    outer loop
      vertex 31.0853 -37.1 -11.3694
      vertex 31.3 -37.1 -13
      vertex 31.3 -47.1 -13
    endloop
  endfacet
  facet normal 0 1 0
    outer loop
      vertex 31.0853 -37.1 -11.3694
      vertex 32.85 -37.1 0
      vertex 31.3 -37.1 -13
    endloop
  endfacet
  facet normal 0 1 0
    outer loop
      vertex 31.0853 -37.1 -14.6306
      vertex 31.3 -37.1 -13
      vertex 32.85 -37.1 -23.75
    endloop
  endfacet
  facet normal -0.991443 0 -0.130543
    outer loop
      vertex 31.0853 -47.1 -11.3694
      vertex 31.0853 -37.1 -11.3694
      vertex 31.3 -47.1 -13
    endloop
  endfacet
  facet normal 0 -1 0
    outer loop
      vertex 31.0853 -47.1 -11.3694
      vertex 31.3 -47.1 -13
      vertex 32.85 -47.1 5
    endloop
  endfacet
  facet normal -0.991443 0 0.130543
    outer loop
      vertex 31.0853 -47.1 -14.6306
      vertex 31.3 -37.1 -13
      vertex 31.0853 -37.1 -14.6306
    endloop
  endfacet
  facet normal -0.991443 0 0.130543
    outer loop
      vertex 31.0853 -47.1 -14.6306
      vertex 31.3 -47.1 -13
      vertex 31.3 -37.1 -13
    endloop
  endfacet
  facet normal 0 -1 0
    outer loop
      vertex 31.0853 -47.1 -14.6306
      vertex 32.85 -47.1 -23.75
      vertex 31.3 -47.1 -13
    endloop
  endfacet
  facet normal 0 1 0
    outer loop
      vertex 31.3 -37.1 -13
      vertex 32.85 -37.1 0
      vertex 32.85 -37.1 -23.75
    endloop
  endfacet
  facet normal 0 -1 0
    outer loop
      vertex 31.3 -47.1 -13
      vertex 32.85 -47.1 -23.75
      vertex 32.85 -47.1 5
    endloop
  endfacet
  facet normal 0.130502 0.991448 0
    outer loop
      vertex 32.85 -37.1 -23.75
      vertex 32.85 -37.1 0
      vertex 33.6006 -37.1988 -23.75
    endloop
  endfacet
  facet normal 0 0 -1
    outer loop
      vertex 32.85 -37.1 -23.75
      vertex 33.6006 -37.1988 -23.75
      vertex 34.3 -37.4885 -23.75
    endloop
  endfacet
  facet normal 0 0 -1
    outer loop
      vertex 32.85 -37.1 -23.75
      vertex 34.3 -37.4885 -23.75
      vertex 34.9006 -37.9494 -23.75
    endloop
  endfacet
  facet normal 0 0 -1
    outer loop
      vertex 32.85 -37.1 -23.75
      vertex 34.9006 -37.9494 -23.75
      vertex 35.3615 -38.55 -23.75
    endloop
  endfacet
  facet normal 0 0 -1
    outer loop
      vertex 32.85 -37.1 -23.75
      vertex 35.3615 -38.55 -23.75
      vertex 35.6512 -39.2494 -23.75
    endloop
  endfacet
  facet normal 0 0 -1
    outer loop
      vertex 32.85 -37.1 -23.75
      vertex 35.6512 -39.2494 -23.75
      vertex 35.75 -40 -23.75
    endloop
  endfacet
  facet normal 0.130502 0.991448 0
    outer loop
      vertex 32.85 -37.1 0
      vertex 33.6006 -37.1988 0
      vertex 33.6006 -37.1988 -23.75
    endloop
  endfacet
  facet normal 0 0 -1
    outer loop
      vertex 32.85 -37.1 0
      vertex 35.75 -2.9 0
      vertex 33.6006 -37.1988 0
    endloop
  endfacet
  facet normal 0 0 -1
    outer loop
      vertex 32.85 -47.1 -23.75
      vertex 32.85 -37.1 -23.75
      vertex 35.75 -40 -23.75
    endloop
  endfacet
  facet normal 0.130502 -0.991448 0
    outer loop
      vertex 32.85 -47.1 -23.75
      vertex 33.6006 -47.0012 -23.75
      vertex 33.6006 -47.0012 5
    endloop
  endfacet
  facet normal 0.130502 -0.991448 0
    outer loop
      vertex 32.85 -47.1 -23.75
      vertex 33.6006 -47.0012 5
      vertex 32.85 -47.1 5
    endloop
  endfacet
  facet normal 0 0 -1
    outer loop
      vertex 32.85 -47.1 -23.75
      vertex 34.3 -46.7115 -23.75
      vertex 33.6006 -47.0012 -23.75
    endloop
  endfacet
  facet normal 0 0 -1
    outer loop
      vertex 32.85 -47.1 -23.75
      vertex 34.9006 -46.2506 -23.75
      vertex 34.3 -46.7115 -23.75
    endloop
  endfacet
  facet normal 0 0 -1
    outer loop
      vertex 32.85 -47.1 -23.75
      vertex 35.3615 -45.65 -23.75
      vertex 34.9006 -46.2506 -23.75
    endloop
  endfacet
  facet normal 0 0 -1
    outer loop
      vertex 32.85 -47.1 -23.75
      vertex 35.6512 -44.9506 -23.75
      vertex 35.3615 -45.65 -23.75
    endloop
  endfacet
  facet normal 0 0 -1
    outer loop
      vertex 32.85 -47.1 -23.75
      vertex 35.75 -40 -23.75
      vertex 35.75 -44.2 -23.75
    endloop
  endfacet
  facet normal 0 0 -1
    outer loop
      vertex 32.85 -47.1 -23.75
      vertex 35.75 -44.2 -23.75
      vertex 35.6512 -44.9506 -23.75
    endloop
  endfacet
  facet normal 0 0 1
    outer loop
      vertex 32.85 -47.1 5
      vertex 33.6006 -47.0012 5
      vertex 34.3 -46.7115 5
    endloop
  endfacet
  facet normal 0 0 1
    outer loop
      vertex 32.85 -47.1 5
      vertex 34.3 -46.7115 5
      vertex 34.9006 -46.2506 5
    endloop
  endfacet
  facet normal 0 0 1
    outer loop
      vertex 32.85 -47.1 5
      vertex 34.9006 -46.2506 5
      vertex 35.3615 -45.65 5
    endloop
  endfacet
  facet normal 0 0 1
    outer loop
      vertex 32.85 -47.1 5
      vertex 35.3615 -45.65 5
      vertex 35.6512 -44.9506 5
    endloop
  endfacet
  facet normal 0 0 1
    outer loop
      vertex 32.85 -47.1 5
      vertex 35.6512 -44.9506 5
      vertex 35.75 -44.2 5
    endloop
  endfacet
  facet normal 0.130522 0.991445 0
    outer loop
      vertex 32.85 0 0
      vertex 32.85 0 5
      vertex 33.6006 -0.098815 0
    endloop
  endfacet
  facet normal 0 0 -1
    outer loop
      vertex 32.85 0 0
      vertex 33.6006 -0.098815 0
      vertex 34.3 -0.388526 0
    endloop
  endfacet
  facet normal 0 0 -1
    outer loop
      vertex 32.85 0 0
      vertex 34.3 -0.388526 0
      vertex 34.9006 -0.84939 0
    endloop
  endfacet
  facet normal 0 0 -1
    outer loop
      vertex 32.85 0 0
      vertex 34.9006 -0.84939 0
      vertex 35.3615 -1.45 0
    endloop
  endfacet
  facet normal 0 0 -1
    outer loop
      vertex 32.85 0 0
      vertex 35.3615 -1.45 0
      vertex 35.6512 -2.14942 0
    endloop
  endfacet
  facet normal 0 0 -1
    outer loop
      vertex 32.85 0 0
      vertex 35.6512 -2.14942 0
      vertex 35.75 -2.9 0
    endloop
  endfacet
  facet normal 0.130522 0.991445 0
    outer loop
      vertex 32.85 0 5
      vertex 33.6006 -0.098815 5
      vertex 33.6006 -0.098815 0
    endloop
  endfacet
  facet normal 0 0 1
    outer loop
      vertex 32.85 0 5
      vertex 34.3 -0.388526 5
      vertex 33.6006 -0.098815 5
    endloop
  endfacet
  facet normal 0 0 1
    outer loop
      vertex 32.85 0 5
      vertex 34.9006 -0.84939 5
      vertex 34.3 -0.388526 5
    endloop
  endfacet
  facet normal 0 0 1
    outer loop
      vertex 32.85 0 5
      vertex 35.3615 -1.45 5
      vertex 34.9006 -0.84939 5
    endloop
  endfacet
  facet normal 0 0 1
    outer loop
      vertex 32.85 0 5
      vertex 35.6512 -2.14942 5
      vertex 35.3615 -1.45 5
    endloop
  endfacet
  facet normal 0 0 1
    outer loop
      vertex 32.85 0 5
      vertex 35.75 -2.9 5
      vertex 35.6512 -2.14942 5
    endloop
  endfacet
  facet normal 0.382695 0.923875 0
    outer loop
      vertex 33.6006 -0.098815 0
      vertex 33.6006 -0.098815 5
      vertex 34.3 -0.388526 0
    endloop
  endfacet
  facet normal 0.382695 0.923875 0
    outer loop
      vertex 33.6006 -0.098815 5
      vertex 34.3 -0.388526 5
      vertex 34.3 -0.388526 0
    endloop
  endfacet
  facet normal 0.382682 0.92388 0
    outer loop
      vertex 33.6006 -37.1988 -23.75
      vertex 33.6006 -37.1988 0
      vertex 34.3 -37.4885 -23.75
    endloop
  endfacet
  facet normal 0.382682 0.92388 0
    outer loop
      vertex 33.6006 -37.1988 0
      vertex 34.3 -37.4885 0
      vertex 34.3 -37.4885 -23.75
    endloop
  endfacet
  facet normal 0 0 -1
    outer loop
      vertex 33.6006 -37.1988 0
      vertex 35.75 -2.9 0
      vertex 34.3 -37.4885 0
    endloop
  endfacet
  facet normal 0.382682 -0.92388 0
    outer loop
      vertex 33.6006 -47.0012 -23.75
      vertex 34.3 -46.7115 -23.75
      vertex 34.3 -46.7115 5
    endloop
  endfacet
  facet normal 0.382682 -0.92388 0
    outer loop
      vertex 33.6006 -47.0012 -23.75
      vertex 34.3 -46.7115 5
      vertex 33.6006 -47.0012 5
    endloop
  endfacet
  facet normal 0.608768 0.793349 0
    outer loop
      vertex 34.3 -0.388526 0
      vertex 34.3 -0.388526 5
      vertex 34.9006 -0.84939 0
    endloop
  endfacet
  facet normal 0.608768 0.793349 0
    outer loop
      vertex 34.3 -0.388526 5
      vertex 34.9006 -0.84939 5
      vertex 34.9006 -0.84939 0
    endloop
  endfacet
  facet normal 0.608798 0.793326 0
    outer loop
      vertex 34.3 -37.4885 -23.75
      vertex 34.3 -37.4885 0
      vertex 34.9006 -37.9494 -23.75
    endloop
  endfacet
  facet normal 0.608798 0.793326 0
    outer loop
      vertex 34.3 -37.4885 0
      vertex 34.9006 -37.9494 0
      vertex 34.9006 -37.9494 -23.75
    endloop
  endfacet
  facet normal 0 0 -1
    outer loop
      vertex 34.3 -37.4885 0
      vertex 35.75 -2.9 0
      vertex 34.9006 -37.9494 0
    endloop
  endfacet
  facet normal 0.608798 -0.793326 0
    outer loop
      vertex 34.3 -46.7115 -23.75
      vertex 34.9006 -46.2506 -23.75
      vertex 34.9006 -46.2506 5
    endloop
  endfacet
  facet normal 0.608798 -0.793326 0
    outer loop
      vertex 34.3 -46.7115 -23.75
      vertex 34.9006 -46.2506 5
      vertex 34.3 -46.7115 5
    endloop
  endfacet
  facet normal 0.793331 0.608791 0
    outer loop
      vertex 34.9006 -0.84939 0
      vertex 34.9006 -0.84939 5
      vertex 35.3615 -1.45 5
    endloop
  endfacet
  facet normal 0.793331 0.608791 0
    outer loop
      vertex 34.9006 -0.84939 0
      vertex 35.3615 -1.45 5
      vertex 35.3615 -1.45 0
    endloop
  endfacet
  facet normal 0.793326 0.608798 0
    outer loop
      vertex 34.9006 -37.9494 -23.75
      vertex 34.9006 -37.9494 0
      vertex 35.3615 -38.55 0
    endloop
  endfacet
  facet normal 0.793326 0.608798 0
    outer loop
      vertex 34.9006 -37.9494 -23.75
      vertex 35.3615 -38.55 0
      vertex 35.3615 -38.55 -23.75
    endloop
  endfacet
  facet normal 0 0 -1
    outer loop
      vertex 34.9006 -37.9494 0
      vertex 35.75 -2.9 0
      vertex 35.3615 -38.55 0
    endloop
  endfacet
  facet normal 0.793326 -0.608798 0
    outer loop
      vertex 34.9006 -46.2506 -23.75
      vertex 35.3615 -45.65 -23.75
      vertex 34.9006 -46.2506 5
    endloop
  endfacet
  facet normal 0.793326 -0.608798 0
    outer loop
      vertex 34.9006 -46.2506 5
      vertex 35.3615 -45.65 -23.75
      vertex 35.3615 -45.65 5
    endloop
  endfacet
  facet normal 0.923884 0.382673 0
    outer loop
      vertex 35.3615 -1.45 0
      vertex 35.3615 -1.45 5
      vertex 35.6512 -2.14942 5
    endloop
  endfacet
  facet normal 0.923884 0.382673 0
    outer loop
      vertex 35.3615 -1.45 0
      vertex 35.6512 -2.14942 5
      vertex 35.6512 -2.14942 0
    endloop
  endfacet
  facet normal 0.92388 0.382682 0
    outer loop
      vertex 35.3615 -38.55 -23.75
      vertex 35.3615 -38.55 0
      vertex 35.6512 -39.2494 0
    endloop
  endfacet
  facet normal 0.92388 0.382682 0
    outer loop
      vertex 35.3615 -38.55 -23.75
      vertex 35.6512 -39.2494 0
      vertex 35.6512 -39.2494 -23.75
    endloop
  endfacet
  facet normal 0 0 -1
    outer loop
      vertex 35.3615 -38.55 0
      vertex 35.75 -2.9 0
      vertex 35.6512 -39.2494 0
    endloop
  endfacet
  facet normal 0.92388 -0.382682 0
    outer loop
      vertex 35.3615 -45.65 -23.75
      vertex 35.6512 -44.9506 -23.75
      vertex 35.3615 -45.65 5
    endloop
  endfacet
  facet normal 0.92388 -0.382682 0
    outer loop
      vertex 35.3615 -45.65 5
      vertex 35.6512 -44.9506 -23.75
      vertex 35.6512 -44.9506 5
    endloop
  endfacet
  facet normal 0.991448 0.130506 0
    outer loop
      vertex 35.6512 -2.14942 0
      vertex 35.6512 -2.14942 5
      vertex 35.75 -2.9 5
    endloop
  endfacet
  facet normal 0.991448 0.130506 0
    outer loop
      vertex 35.6512 -2.14942 0
      vertex 35.75 -2.9 5
      vertex 35.75 -2.9 0
    endloop
  endfacet
  facet normal 0.991448 0.130502 0
    outer loop
      vertex 35.6512 -39.2494 -23.75
      vertex 35.6512 -39.2494 0
      vertex 35.75 -40 0
    endloop
  endfacet
  facet normal 0.991448 0.130502 0
    outer loop
      vertex 35.6512 -39.2494 -23.75
      vertex 35.75 -40 0
      vertex 35.75 -40 -23.75
    endloop
  endfacet
  facet normal 0 0 -1
    outer loop
      vertex 35.6512 -39.2494 0
      vertex 35.75 -2.9 0
      vertex 35.75 -40 0
    endloop
  endfacet
  facet normal 0.991448 -0.130502 0
    outer loop
      vertex 35.6512 -44.9506 -23.75
      vertex 35.75 -44.2 -23.75
      vertex 35.6512 -44.9506 5
    endloop
  endfacet
  facet normal 0.991448 -0.130502 0
    outer loop
      vertex 35.6512 -44.9506 5
      vertex 35.75 -44.2 -23.75
      vertex 35.75 -44.2 5
    endloop
  endfacet
  facet normal 1 0 0
    outer loop
      vertex 35.75 -40 0
      vertex 35.75 -2.9 0
      vertex 35.75 -2.9 5
    endloop
  endfacet
  facet normal 1 0 0
    outer loop
      vertex 35.75 -44.2 -23.75
      vertex 35.75 -40 -23.75
      vertex 35.75 -40 0
    endloop
  endfacet
  facet normal 1 0 0
    outer loop
      vertex 35.75 -44.2 -23.75
      vertex 35.75 -40 0
      vertex 35.75 -44.2 5
    endloop
  endfacet
  facet normal 1 0 0
    outer loop
      vertex 35.75 -44.2 5
      vertex 35.75 -40 0
      vertex 35.75 -2.9 5
    endloop
  endfacet
  facet normal 0.991447 0.130506 0
    outer loop
      vertex 8.35 -10.3 0
      vertex 8.35 -10.3 5
      vertex 8.40622 -10.7271 5
    endloop
  endfacet
  facet normal 0 0 -1
    outer loop
      vertex 8.35 -10.3 0
      vertex 8.35 -9.7 0
      vertex 8.3895 -10 0
    endloop
  endfacet
  facet normal 0.991443 -0.13054 0
    outer loop
      vertex 8.35 -10.3 0
      vertex 8.3895 -10 0
      vertex 8.35 -10.3 5
    endloop
  endfacet
  facet normal 0.991447 0.130506 0
    outer loop
      vertex 8.35 -10.3 0
      vertex 8.40622 -10.7271 5
      vertex 8.40622 -10.7271 0
    endloop
  endfacet
  facet normal 0.991443 -0.13054 0
    outer loop
      vertex 8.35 -10.3 5
      vertex 8.3895 -10 0
      vertex 8.3895 -10 5
    endloop
  endfacet
  facet normal 0 0 1
    outer loop
      vertex 8.35 -10.3 5
      vertex 8.3895 -10 5
      vertex 8.35 -9.7 5
    endloop
  endfacet
  facet normal 0.991443 0.13054 0
    outer loop
      vertex 8.35 -9.7 0
      vertex 8.35 -9.7 5
      vertex 8.3895 -10 5
    endloop
  endfacet
  facet normal 0.991443 0.13054 0
    outer loop
      vertex 8.35 -9.7 0
      vertex 8.3895 -10 5
      vertex 8.3895 -10 0
    endloop
  endfacet
  facet normal 0.991446 -0.130521 0
    outer loop
      vertex 8.35 -9.7 0
      vertex 8.40622 -9.27295 0
      vertex 8.35 -9.7 5
    endloop
  endfacet
  facet normal 0.991446 -0.130521 0
    outer loop
      vertex 8.35 -9.7 5
      vertex 8.40622 -9.27295 0
      vertex 8.40622 -9.27295 5
    endloop
  endfacet
  facet normal 0.923859 0.382732 0
    outer loop
      vertex 8.40622 -10.7271 0
      vertex 8.40622 -10.7271 5
      vertex 8.57106 -11.125 5
    endloop
  endfacet
  facet normal 0.923859 0.382732 0
    outer loop
      vertex 8.40622 -10.7271 0
      vertex 8.57106 -11.125 5
      vertex 8.57106 -11.125 0
    endloop
  endfacet
  facet normal 0.923876 -0.382691 0
    outer loop
      vertex 8.40622 -9.27295 0
      vertex 8.57106 -8.875 0
      vertex 8.40622 -9.27295 5
    endloop
  endfacet
  facet normal 0.923876 -0.382691 0
    outer loop
      vertex 8.40622 -9.27295 5
      vertex 8.57106 -8.875 0
      vertex 8.57106 -8.875 5
    endloop
  endfacet
  facet normal 0.793337 0.608782 0
    outer loop
      vertex 8.57106 -11.125 0
      vertex 8.57106 -11.125 5
      vertex 8.83327 -11.4667 5
    endloop
  endfacet
  facet normal 0.793337 0.608782 0
    outer loop
      vertex 8.57106 -11.125 0
      vertex 8.83327 -11.4667 5
      vertex 8.83327 -11.4667 0
    endloop
  endfacet
  facet normal 0.793363 -0.608749 0
    outer loop
      vertex 8.57106 -8.875 0
      vertex 8.83327 -8.53327 0
      vertex 8.57106 -8.875 5
    endloop
  endfacet
  facet normal 0.793363 -0.608749 0
    outer loop
      vertex 8.57106 -8.875 5
      vertex 8.83327 -8.53327 0
      vertex 8.83327 -8.53327 5
    endloop
  endfacet
  facet normal 0.608734 0.793374 0
    outer loop
      vertex 8.83327 -11.4667 0
      vertex 8.83327 -11.4667 5
      vertex 9.175 -11.7289 0
    endloop
  endfacet
  facet normal 0.608734 0.793374 0
    outer loop
      vertex 8.83327 -11.4667 5
      vertex 9.175 -11.7289 5
      vertex 9.175 -11.7289 0
    endloop
  endfacet
  facet normal 0.608749 -0.793363 0
    outer loop
      vertex 8.83327 -8.53327 0
      vertex 9.175 -8.27106 0
      vertex 9.175 -8.27106 5
    endloop
  endfacet
  facet normal 0.608749 -0.793363 0
    outer loop
      vertex 8.83327 -8.53327 0
      vertex 9.175 -8.27106 5
      vertex 8.83327 -8.53327 5
    endloop
  endfacet
  facet normal 0.38281 0.923827 0
    outer loop
      vertex 9.175 -11.7289 0
      vertex 9.175 -11.7289 5
      vertex 9.57295 -11.8938 0
    endloop
  endfacet
  facet normal 0 0 -1
    outer loop
      vertex 9.175 -11.7289 0
      vertex 9.57295 -11.8938 0
      vertex 15.25 -16 0
    endloop
  endfacet
  facet normal 0 0 1
    outer loop
      vertex 9.175 -11.7289 5
      vertex 15.25 -16 5
      vertex 9.57295 -11.8938 5
    endloop
  endfacet
  facet normal 0.38281 0.923827 0
    outer loop
      vertex 9.175 -11.7289 5
      vertex 9.57295 -11.8938 5
      vertex 9.57295 -11.8938 0
    endloop
  endfacet
  facet normal 0.382691 -0.923876 0
    outer loop
      vertex 9.175 -8.27106 0
      vertex 9.57295 -8.10622 0
      vertex 9.57295 -8.10622 5
    endloop
  endfacet
  facet normal 0.382691 -0.923876 0
    outer loop
      vertex 9.175 -8.27106 0
      vertex 9.57295 -8.10622 5
      vertex 9.175 -8.27106 5
    endloop
  endfacet
  facet normal 0 0 -1
    outer loop
      vertex 9.57295 -11.8938 0
      vertex 10 -11.95 0
      vertex 15.25 -16 0
    endloop
  endfacet
  facet normal 0.130476 0.991452 0
    outer loop
      vertex 9.57295 -11.8938 0
      vertex 9.57295 -11.8938 5
      vertex 10 -11.95 0
    endloop
  endfacet
  facet normal 0.130476 0.991452 0
    outer loop
      vertex 9.57295 -11.8938 5
      vertex 10 -11.95 5
      vertex 10 -11.95 0
    endloop
  endfacet
  facet normal 0 0 1
    outer loop
      vertex 9.57295 -11.8938 5
      vertex 15.25 -16 5
      vertex 10 -11.95 5
    endloop
  endfacet
  facet normal 0.130521 -0.991446 0
    outer loop
      vertex 9.57295 -8.10622 0
      vertex 10 -8.05 0
      vertex 10 -8.05 5
    endloop
  endfacet
  facet normal 0.130521 -0.991446 0
    outer loop
      vertex 9.57295 -8.10622 0
      vertex 10 -8.05 5
      vertex 9.57295 -8.10622 5
    endloop
  endfacet
  facet normal 0 0 -1
    outer loop
      vertex 9.57295 -8.10622 0
      vertex 17.875 0 0
      vertex 10 -8.05 0
    endloop
  endfacet
  facet normal 0 0 1
    outer loop
      vertex 9.57295 -8.10622 5
      vertex 10 -8.05 5
      vertex 17.875 0 5
    endloop
  endfacet
endsolid OpenSCAD_Model
